<?xml version="1.0" encoding="UTF-8" standalone="no"?>
<!-- Created with Inkscape (http://www.inkscape.org/) -->

<svg
   width="89.71347mm"
   height="51.22369mm"
   viewBox="0 0 89.71347 51.22369"
   version="1.1"
   id="svg5"
   xml:space="preserve"
   inkscape:version="1.2.2 (1:1.2.2+202305151914+b0a8486541)"
   sodipodi:docname="Generic_SoC_C7F1.svg"
   xmlns:inkscape="http://www.inkscape.org/namespaces/inkscape"
   xmlns:sodipodi="http://sodipodi.sourceforge.net/DTD/sodipodi-0.dtd"
   xmlns="http://www.w3.org/2000/svg"
   xmlns:svg="http://www.w3.org/2000/svg"><sodipodi:namedview
     id="namedview7"
     pagecolor="#ffffff"
     bordercolor="#666666"
     borderopacity="1.0"
     inkscape:showpageshadow="2"
     inkscape:pageopacity="0.0"
     inkscape:pagecheckerboard="0"
     inkscape:deskcolor="#d1d1d1"
     inkscape:document-units="mm"
     showgrid="false"
     inkscape:zoom="1.6819304"
     inkscape:cx="283.89997"
     inkscape:cy="-35.673295"
     inkscape:window-width="1920"
     inkscape:window-height="1131"
     inkscape:window-x="0"
     inkscape:window-y="32"
     inkscape:window-maximized="1"
     inkscape:current-layer="g408" /><defs
     id="defs2" /><g
     inkscape:label="Layer 1"
     inkscape:groupmode="layer"
     id="layer1"
     transform="translate(-41.182598,-63.926936)"><path
       d="M 48.309732,71.140184 H 62.385214 V 88.193462 H 48.309732 Z m 0.178506,16.954148 -0.07938,-0.07973 h 13.896976 l -0.09948,0.07973 V 71.219559 l 0.09948,0.09913 H 48.408863 l 0.07938,-0.09913"
       style="fill:#131413;fill-opacity:1;fill-rule:nonzero;stroke:none;stroke-width:0.0352778"
       id="path148" /><path
       d="M 65.184153,71.140184 H 79.259634 V 76.28192 H 65.184153 Z m 0.178505,5.042605 -0.07937,-0.07973 h 13.896976 l -0.09913,0.07973 v -4.96323 l 0.09913,0.09913 H 65.283283 l 0.07937,-0.09913"
       style="fill:#131413;fill-opacity:1;fill-rule:nonzero;stroke:none;stroke-width:0.0352778"
       id="path150" /><g
       id="g152"
       transform="matrix(0.3527778,0,0,-0.3527778,8.7076021,279.18313)"><text
         xml:space="preserve"
         transform="matrix(1,0,0,-1,124.566,577.685)"
         style="font-variant:normal;font-weight:normal;font-size:7px;font-family:Helvetica;-inkscape-font-specification:Helvetica;writing-mode:lr-tb;fill:#131413;fill-opacity:1;fill-rule:nonzero;stroke:none"
         id="text158"><tspan
           x="0 5.0539999 9.7229996"
           y="0"
           sodipodi:role="line"
           id="tspan154">CPU</tspan><tspan
           x="42.8367 48.667702 52.5597 58.390701 62.2827 64.613701"
           y="-2.53672"
           sodipodi:role="line"
           id="tspan156">Memory</tspan></text></g><path
       d="M 65.184153,78.088848 H 79.259634 V 88.193815 H 65.184153 Z m 0.178505,10.005484 -0.07937,-0.07937 h 13.896976 l -0.09913,0.07937 v -9.926109 l 0.09913,0.09913 H 65.283283 l 0.07937,-0.09913"
       style="fill:#131413;fill-opacity:1;fill-rule:nonzero;stroke:none;stroke-width:0.0352778"
       id="path160" /><g
       id="g162"
       transform="matrix(0.3527778,0,0,-0.3527778,8.7076021,279.18313)"><text
         xml:space="preserve"
         transform="matrix(1,0,0,-1,167.402,557.691)"
         style="font-variant:normal;font-weight:normal;font-size:7px;font-family:Helvetica;-inkscape-font-specification:Helvetica;writing-mode:lr-tb;fill:#131413;fill-opacity:1;fill-rule:nonzero;stroke:none"
         id="text168"><tspan
           x="0 5.8309999 9.7229996 15.554 19.445999 21.777"
           y="0"
           sodipodi:role="line"
           id="tspan164">Memory</tspan><tspan
           x="-2.5304699 2.52353 6.4155302 10.30753 12.25353 14.58453 18.47653 20.030531 21.58453 25.47653"
           y="8.3999996"
           sodipodi:role="line"
           id="tspan166">Controller</tspan></text></g><path
       d="m 83.051643,88.014957 h 11.097331 v 9.11225 H 83.051643 Z m 0.178505,9.012767 -0.07937,-0.07902 h 10.918826 l -0.09913,0.07902 v -8.933392 l 0.09913,0.09913 H 83.150773 l 0.07937,-0.09913"
       style="fill:#131413;fill-opacity:1;fill-rule:nonzero;stroke:none;stroke-width:0.0352778"
       id="path170" /><path
       d="m 97.940983,79.081212 h 14.075127 v 9.11225 H 97.940983 Z m 0.178505,9.01312 -0.07937,-0.07937 h 13.896632 l -0.0991,0.07937 v -8.933745 l 0.0991,0.09913 H 98.040113 l 0.07937,-0.09913"
       style="fill:#131413;fill-opacity:1;fill-rule:nonzero;stroke:none;stroke-width:0.0352778"
       id="path172" /><g
       id="g174"
       transform="matrix(0.3527778,0,0,-0.3527778,8.7076021,279.18313)"><text
         xml:space="preserve"
         transform="matrix(1,0,0,-1,263.952,552.084)"
         style="font-variant:normal;font-weight:normal;font-size:7px;font-family:Helvetica;-inkscape-font-specification:Helvetica;writing-mode:lr-tb;fill:#131413;fill-opacity:1;fill-rule:nonzero;stroke:none"
         id="text178"><tspan
           x="0 4.277 5.8309999 11.662 15.554"
           y="0"
           sodipodi:role="line"
           id="tspan176">Timer</tspan></text></g><path
       d="m 114.8154,79.081212 h 14.07548 v 9.11225 H 114.8154 Z m 0.17851,9.01312 -0.0794,-0.07937 h 13.89663 l -0.0991,0.07937 v -8.933745 l 0.0991,0.09913 h -13.89663 l 0.0794,-0.09913"
       style="fill:#131413;fill-opacity:1;fill-rule:nonzero;stroke:none;stroke-width:0.0352778"
       id="path180" /><g
       id="g182"
       transform="matrix(0.3527778,0,0,-0.3527778,8.7076021,279.18313)"><text
         xml:space="preserve"
         transform="matrix(1,0,0,-1,309.058,556.284)"
         style="font-variant:normal;font-weight:normal;font-size:7px;font-family:Helvetica;-inkscape-font-specification:Helvetica;writing-mode:lr-tb;fill:#131413;fill-opacity:1;fill-rule:nonzero;stroke:none"
         id="text188"><tspan
           x="0 4.6690001 8.5609999 10.892 14.784 16.337999 17.892 21.784"
           y="0"
           sodipodi:role="line"
           id="tspan184">Parallel</tspan><tspan
           x="5.9499998 8.9460001 11.942"
           y="8.3999996"
           sodipodi:role="line"
           id="tspan186">I/O</tspan></text></g><path
       d="m 55.258044,88.272837 h 0.178858 v 4.625623 h -0.178858 z m -0.813858,1.449212 0.912988,-1.627717 0.893234,1.627717 c 0.02011,0.03986 0,0.09948 -0.03951,0.118886 -0.03986,0.02011 -0.07938,0 -0.09913,-0.03951 L 55.277801,88.31235 h 0.138995 l -0.814211,1.489075 c -0.03951,0.03951 -0.07938,0.05962 -0.118886,0.03951 -0.03951,-0.0194 -0.05962,-0.07902 -0.03951,-0.118886 z m 1.806222,1.7272 -0.893234,1.607961 -0.912988,-1.607961 c -0.02011,-0.03986 0,-0.09948 0.03951,-0.118886 0.03951,-0.02011 0.07937,0 0.118886,0.03951 l 0.814211,1.489075 h -0.138995 l 0.833967,-1.489075 c 0.01976,-0.03951 0.05927,-0.05962 0.09913,-0.03951 0.03951,0.0194 0.05962,0.07902 0.03951,0.118886"
       style="fill:#131413;fill-opacity:1;fill-rule:nonzero;stroke:none;stroke-width:0.0352778"
       id="path190" /><path
       d="m 72.311323,88.272837 -0.07937,4.625623 h -0.178859 l 0.07973,-4.625623 z m -1.012473,1.429456 0.933098,-1.607961 0.873478,1.647472 c 0.01976,0.03986 0,0.07973 -0.03951,0.09913 -0.03986,0.02011 -0.09948,0.02011 -0.119238,-0.0194 l -0.794103,-1.509183 h 0.138994 l -0.853722,1.469319 c -0.01976,0.03986 -0.07937,0.05927 -0.119239,0.03986 -0.01976,-0.02011 -0.03951,-0.07973 -0.01976,-0.119239 z m 1.767064,1.766711 -0.933097,1.588206 -0.853722,-1.627717 c -0.03986,-0.03986 -0.01976,-0.07973 0.01976,-0.09913 0.03986,-0.03986 0.09948,-0.02011 0.119239,0.0194 l 0.794103,1.509184 h -0.138994 l 0.853722,-1.46932 c 0.01976,-0.03986 0.07937,-0.05927 0.118886,-0.03986 0.03986,0.02011 0.03986,0.07973 0.02011,0.119239"
       style="fill:#131413;fill-opacity:1;fill-rule:nonzero;stroke:none;stroke-width:0.0352778"
       id="path192" /><path
       d="m 49.302449,81.066645 h 6.134453 v 6.134453 h -6.134453 z m 0.178506,6.03497 -0.07937,-0.07937 h 5.955947 l -0.09948,0.07937 V 81.14602 l 0.09948,0.09913 H 49.40158 l 0.07937,-0.09913"
       style="fill:#131413;fill-opacity:1;fill-rule:nonzero;stroke:none;stroke-width:0.0352778"
       id="path194" /><path
       d="m 55.258044,81.066645 h 6.134453 v 6.134453 h -6.134453 z m 0.178505,6.03497 -0.07937,-0.07937 h 5.955948 l -0.09948,0.07937 V 81.14602 l 0.09948,0.09913 h -5.955948 l 0.07937,-0.09913"
       style="fill:#131413;fill-opacity:1;fill-rule:nonzero;stroke:none;stroke-width:0.0352778"
       id="path196" /><path
       d="m 72.132464,78.16787 h 0.178594 v -1.985201 h -0.178594 z"
       style="fill:#131413;fill-opacity:1;fill-rule:nonzero;stroke:none;stroke-width:0.0352778"
       id="path198" /><g
       id="g200"
       transform="matrix(0.3527778,0,0,-0.3527778,8.7076021,279.18313)"><text
         xml:space="preserve"
         transform="matrix(1,0,0,-1,120.004,550.729)"
         style="font-variant:normal;font-weight:normal;font-size:7px;font-family:Helvetica;-inkscape-font-specification:Helvetica;writing-mode:lr-tb;fill:#131413;fill-opacity:1;fill-rule:nonzero;stroke:none"
         id="text204"><tspan
           x="0 1.946"
           y="0"
           sodipodi:role="line"
           id="tspan202">I$</tspan></text></g><path
       d="M 41.182598,70.048336 H 130.89607 V 112.11603 H 41.182598 Z m 0.377013,41.868724 -0.198578,-0.1785 h 89.336427 l -0.17886,0.1785 V 70.226842 l 0.17886,0.198614 H 41.361033 l 0.198578,-0.198614"
       style="fill:#131413;fill-opacity:1;fill-rule:nonzero;stroke:none;stroke-width:0.0352778"
       id="path206" /><g
       id="g208"
       transform="matrix(0.3527778,0,0,-0.3527778,8.7076021,279.18313)"><text
         xml:space="preserve"
         transform="matrix(1,0,0,-1,135.206,550.729)"
         style="font-variant:normal;font-weight:normal;font-size:7px;font-family:Helvetica;-inkscape-font-specification:Helvetica;writing-mode:lr-tb;fill:#131413;fill-opacity:1;fill-rule:nonzero;stroke:none"
         id="text212"><tspan
           x="0 5.0539999"
           y="0"
           sodipodi:role="line"
           id="tspan210">D$</tspan></text></g><path
       d="M 49.302449,80.153304 H 61.214062 V 77.175362 H 49.302449 Z"
       style="fill:#e7e7e8;fill-opacity:1;fill-rule:nonzero;stroke:none;stroke-width:0.0352778"
       id="path214" /><path
       d="m 49.212844,77.096131 h 12.090048 v 3.156656 H 49.212844 Z m 0.178505,3.057525 -0.09913,-0.07937 h 11.911542 l -0.07937,0.07937 v -2.97815 l 0.07937,0.09913 H 49.292219 l 0.09913,-0.09913"
       style="fill:#131413;fill-opacity:1;fill-rule:nonzero;stroke:none;stroke-width:0.0352778"
       id="path216" /><g
       id="g218"
       transform="matrix(0.3527778,0,0,-0.3527778,8.7076021,279.18313)"><text
         xml:space="preserve"
         transform="matrix(1,0,0,-1,115.809,566.153)"
         style="font-variant:normal;font-weight:normal;font-size:7px;font-family:Helvetica;-inkscape-font-specification:Helvetica;writing-mode:lr-tb;fill:#131413;fill-opacity:1;fill-rule:nonzero;stroke:none"
         id="text222"><tspan
           x="0 3.5 7.3920002 10.892 12.838 16.73 22.561001 24.507 28.399"
           y="0"
           sodipodi:role="line"
           id="tspan220">custom dp</tspan></text></g><path
       d="m 48.15063,101.09737 h -2.819048 c -0.03951,0 -0.07937,-0.0395 -0.07937,-0.0991 V 80.153304 c 0,-0.03986 0.03986,-0.07937 0.07937,-0.07937 h 2.819048 v 0.178505 h -2.819048 l 0.09948,-0.09913 v 20.844941 l -0.09948,-0.079 h 2.819048 z m -1.449212,-0.99237 1.607962,0.89324 -1.607962,0.91334 c -0.03986,0.0201 -0.09913,0 -0.119239,-0.0395 -0.01975,-0.0399 0,-0.0797 0.03986,-0.11924 l 1.488723,-0.81421 v 0.13935 L 46.622043,100.244 c -0.03986,-0.0198 -0.05962,-0.0593 -0.03986,-0.0995 0.02011,-0.0395 0.07938,-0.0593 0.119239,-0.0395 z m 0,-20.84493 1.607962,0.893234 -1.607962,0.913341 c -0.03986,0.01976 -0.09913,0 -0.119239,-0.03986 -0.01975,-0.03951 0,-0.07937 0.03986,-0.119238 l 1.488723,-0.813859 v 0.138995 l -1.488723,-0.833614 c -0.03986,-0.02011 -0.05962,-0.05962 -0.03986,-0.09948 0.02011,-0.03951 0.07938,-0.05962 0.119239,-0.03951"
       style="fill:#131413;fill-opacity:1;fill-rule:nonzero;stroke:none;stroke-width:0.0352778"
       id="path224" /><path
       d="m 42.353785,96.670713 h 8.715411 v -7.58377 h -8.715411 z"
       style="fill:#ffffff;fill-opacity:1;fill-rule:nonzero;stroke:none;stroke-width:0.0352778"
       id="path226" /><g
       id="g228"
       transform="matrix(0.3527778,0,0,-0.3527778,8.7076021,279.18313)"><text
         xml:space="preserve"
         transform="matrix(1,0,0,-1,98.7523,529.851)"
         style="font-variant:normal;font-weight:normal;font-size:7px;font-family:Helvetica;-inkscape-font-specification:Helvetica;writing-mode:lr-tb;fill:#131413;fill-opacity:1;fill-rule:nonzero;stroke:none"
         id="text232"><tspan
           x="0 3.892 7.7839999 11.284 15.176"
           y="0"
           sodipodi:role="line"
           id="tspan230">Local</tspan></text></g><path
       d="m 100.83905,71.140184 h 2.16394 v 3.156655 h -2.16394 z m 0.17886,3.057172 -0.0991,-0.07937 h 1.98508 l -0.0794,0.07937 v -2.977797 l 0.0794,0.09913 h -1.98508 l 0.0991,-0.09913"
       style="fill:#131413;fill-opacity:1;fill-rule:nonzero;stroke:none;stroke-width:0.0352778"
       id="path234" /><path
       d="m 106.795,71.140184 h 2.16394 v 3.156655 H 106.795 Z m 0.17851,3.057172 -0.0991,-0.07937 h 1.98544 l -0.0797,0.07937 v -2.977797 l 0.0797,0.09913 h -1.98544 l 0.0991,-0.09913"
       style="fill:#131413;fill-opacity:1;fill-rule:nonzero;stroke:none;stroke-width:0.0352778"
       id="path236" /><path
       d="m 100.99816,71.199803 0.99271,2.977797 h -0.13899 l 0.99236,-2.977797 0.13935,0.05962 -0.99272,2.977798 c 0,0.01976 -0.0399,0.05962 -0.0794,0.05962 -0.0201,0 -0.0596,-0.03986 -0.0596,-0.05962 l -0.99272,-2.977798"
       style="fill:#131413;fill-opacity:1;fill-rule:nonzero;stroke:none;stroke-width:0.0352778"
       id="path238" /><path
       d="m 106.81476,74.1776 0.99271,-2.977797 c 0,-0.03986 0.0399,-0.05962 0.0596,-0.05962 0.0399,0 0.0794,0.01975 0.0794,0.05962 l 0.99271,2.977797 -0.13899,0.05962 -0.99272,-2.97815 h 0.139 l -0.99272,2.97815"
       style="fill:#131413;fill-opacity:1;fill-rule:nonzero;stroke:none;stroke-width:0.0352778"
       id="path240" /><path
       d="m 117.71347,71.140184 h 2.16429 v 3.156655 h -2.16429 z m 0.17886,3.057172 -0.0991,-0.07937 h 1.98543 l -0.0797,0.07937 v -2.977797 l 0.0797,0.09913 h -1.98543 l 0.0991,-0.09913"
       style="fill:#131413;fill-opacity:1;fill-rule:nonzero;stroke:none;stroke-width:0.0352778"
       id="path242" /><path
       d="m 123.66942,71.140184 h 2.16394 v 3.156655 h -2.16394 z m 0.17886,3.057172 -0.0991,-0.07937 h 1.98508 l -0.0794,0.07937 v -2.977797 l 0.0794,0.09913 h -1.98508 l 0.0991,-0.09913"
       style="fill:#131413;fill-opacity:1;fill-rule:nonzero;stroke:none;stroke-width:0.0352778"
       id="path244" /><path
       d="m 117.87293,71.199803 0.99236,2.977797 h -0.13899 l 0.99271,-2.977797 0.139,0.05962 -0.99272,2.977798 c 0,0.01976 -0.0395,0.05962 -0.0794,0.05962 -0.0198,0 -0.0596,-0.03986 -0.0596,-0.05962 l -0.99272,-2.977798"
       style="fill:#131413;fill-opacity:1;fill-rule:nonzero;stroke:none;stroke-width:0.0352778"
       id="path246" /><path
       d="m 123.68953,74.1776 0.99236,-2.977797 c 0,-0.03986 0.0399,-0.05962 0.0596,-0.05962 0.0399,0 0.0797,0.01975 0.0797,0.05962 l 0.99236,2.977797 -0.13899,0.05962 -0.99272,-2.97815 h 0.13935 l -0.99272,2.97815"
       style="fill:#131413;fill-opacity:1;fill-rule:nonzero;stroke:none;stroke-width:0.0352778"
       id="path248" /><path
       d="m 101.83177,79.160587 h 0.17887 v -4.963266 h -0.17887 z"
       style="fill:#131413;fill-opacity:1;fill-rule:nonzero;stroke:none;stroke-width:0.0352778"
       id="path250" /><path
       d="m 107.78772,79.160587 h 0.17845 v -4.963266 h -0.17845 z"
       style="fill:#131413;fill-opacity:1;fill-rule:nonzero;stroke:none;stroke-width:0.0352778"
       id="path252" /><path
       d="m 118.70654,79.160587 h 0.17846 v -4.963266 h -0.17846 z"
       style="fill:#131413;fill-opacity:1;fill-rule:nonzero;stroke:none;stroke-width:0.0352778"
       id="path254" /><path
       d="m 124.66214,79.160587 h 0.17887 v -4.963266 h -0.17887 z"
       style="fill:#131413;fill-opacity:1;fill-rule:nonzero;stroke:none;stroke-width:0.0352778"
       id="path256" /><path
       d="m 83.964632,71.140184 h 2.163939 v 3.156655 h -2.163939 z m 0.178858,3.057172 -0.09948,-0.07937 h 1.985433 l -0.07973,0.07937 v -2.977797 l 0.07973,0.09913 H 84.04401 l 0.09948,-0.09913"
       style="fill:#131413;fill-opacity:1;fill-rule:nonzero;stroke:none;stroke-width:0.0352778"
       id="path258" /><path
       d="m 89.920227,71.140184 h 2.163939 v 3.156655 h -2.163939 z m 0.178858,3.057172 -0.09913,-0.07937 h 1.985081 l -0.07937,0.07937 v -2.977797 l 0.07937,0.09913 h -1.985081 l 0.09913,-0.09913"
       style="fill:#131413;fill-opacity:1;fill-rule:nonzero;stroke:none;stroke-width:0.0352778"
       id="path260" /><path
       d="m 84.123382,71.199803 0.992717,2.977797 h -0.138995 l 0.992717,-2.977797 0.138994,0.05962 -0.992716,2.977798 c 0,0.01976 -0.03951,0.05962 -0.07937,0.05962 -0.02011,0 -0.05962,-0.03986 -0.05962,-0.05962 L 83.98474,71.259422"
       style="fill:#131413;fill-opacity:1;fill-rule:nonzero;stroke:none;stroke-width:0.0352778"
       id="path262" /><path
       d="m 89.940335,74.1776 0.992364,-2.977797 c 0,-0.03986 0.03986,-0.05962 0.05962,-0.05962 0.03986,0 0.07973,0.01975 0.07973,0.05962 l 0.992364,2.977797 -0.138994,0.05962 -0.992717,-2.97815 h 0.139347 l -0.993069,2.97815"
       style="fill:#131413;fill-opacity:1;fill-rule:nonzero;stroke:none;stroke-width:0.0352778"
       id="path264" /><path
       d="m 79.081129,82.059362 h 5.955595 l -0.07938,0.07938 v -7.941028 h 0.178505 v 7.941028 c 0,0.05927 -0.03986,0.09913 -0.09913,0.09913 h -5.955595"
       style="fill:#131413;fill-opacity:1;fill-rule:nonzero;stroke:none;stroke-width:0.0352778"
       id="path266" /><path
       d="m 79.081129,84.044443 h 11.911189 l -0.07937,0.07937 v -9.926462 h 0.178859 v 9.926462 c 0,0.05962 -0.03986,0.09913 -0.09948,0.09913 H 79.081129"
       style="fill:#131413;fill-opacity:1;fill-rule:nonzero;stroke:none;stroke-width:0.0352778"
       id="path268" /><g
       id="g270"
       transform="matrix(0.3527778,0,0,-0.3527778,8.7076021,279.18313)"><text
         xml:space="preserve"
         transform="matrix(1,0,0,-1,206.759,605.072)"
         style="font-variant:normal;font-weight:normal;font-size:7px;font-family:Helvetica;-inkscape-font-specification:Helvetica;writing-mode:lr-tb;fill:#131413;fill-opacity:1;fill-rule:nonzero;stroke:none"
         id="text276"><tspan
           x="0 3.892 7.3920002 9.3380003 13.23 15.561 19.452999 23.344999"
           y="0"
           sodipodi:role="line"
           id="tspan272">external</tspan><tspan
           x="-0.189062 5.6419382 9.5339384 15.364938 19.256939 21.587938"
           y="8.3999996"
           sodipodi:role="line"
           id="tspan274">memory</tspan></text></g><path
       d="m 104.96867,88.272837 -0.0596,4.625623 h -0.17851 l 0.079,-4.625623 z m -0.99272,1.429456 0.91334,-1.607961 0.87348,1.647472 c 0.0198,0.03986 0.0198,0.07973 -0.0198,0.09913 -0.0399,0.02011 -0.0995,0.02011 -0.11924,-0.0194 l -0.79411,-1.509183 h 0.139 l -0.85337,1.469319 c -0.0201,0.03986 -0.0797,0.05927 -0.11959,0.03986 -0.0395,-0.02011 -0.0395,-0.07973 -0.0198,-0.119239 z m 1.76707,1.766711 -0.93345,1.588206 -0.87313,-1.627717 c -0.0201,-0.03986 0,-0.07973 0.0395,-0.09913 0.0395,-0.03986 0.0991,-0.02011 0.11924,0.0194 l 0.7941,1.509184 h -0.13934 l 0.85372,-1.46932 c 0.0201,-0.03986 0.0596,-0.05927 0.0995,-0.03986 0.0399,0.02011 0.0596,0.07973 0.0399,0.119239"
       style="fill:#131413;fill-opacity:1;fill-rule:nonzero;stroke:none;stroke-width:0.0352778"
       id="path278" /><path
       d="m 121.94257,88.272837 -0.0797,4.625623 h -0.17851 l 0.0794,-4.625623 z m -1.01247,1.429456 0.93275,-1.607961 0.87383,1.647472 c 0.0197,0.03986 0,0.07973 -0.0399,0.09913 -0.0395,0.02011 -0.0991,0.02011 -0.11888,-0.0194 l -0.79411,-1.509183 h 0.13864 l -0.85372,1.469319 c -0.0194,0.03986 -0.079,0.05927 -0.11888,0.03986 -0.0198,-0.02011 -0.0399,-0.07973 -0.0198,-0.119239 z m 1.76671,1.766711 -0.9331,1.588206 -0.85372,-1.627717 c -0.0395,-0.03986 -0.0197,-0.07973 0.0201,-0.09913 0.0395,-0.03986 0.0991,-0.02011 0.11924,0.0194 l 0.7941,1.509184 h -0.13934 l 0.85372,-1.46932 c 0.0201,-0.03986 0.0797,-0.05927 0.11924,-0.03986 0.0395,0.02011 0.0395,0.07973 0.0198,0.119239"
       style="fill:#131413;fill-opacity:1;fill-rule:nonzero;stroke:none;stroke-width:0.0352778"
       id="path280" /><path
       d="m 65.184153,96.948702 h 14.075481 v 9.112248 H 65.184153 Z m 0.178505,9.012768 -0.07937,-0.0794 h 13.896976 l -0.09913,0.0794 v -8.933393 l 0.09913,0.09913 H 65.283283 l 0.07937,-0.09913"
       style="fill:#131413;fill-opacity:1;fill-rule:nonzero;stroke:none;stroke-width:0.0352778"
       id="path282" /><g
       id="g284"
       transform="matrix(0.3527778,0,0,-0.3527778,8.7076021,279.18313)"><text
         xml:space="preserve"
         transform="matrix(1,0,0,-1,165.261,505.637)"
         style="font-variant:normal;font-weight:normal;font-size:7px;font-family:Helvetica;-inkscape-font-specification:Helvetica;writing-mode:lr-tb;fill:#131413;fill-opacity:1;fill-rule:nonzero;stroke:none"
         id="text290"><tspan
           x="0 5.0539999 10.885 15.554 17.5 22.169001 26.061001"
           y="0"
           sodipodi:role="line"
           id="tspan286">DMA Bus</tspan><tspan
           x="4.0843701 9.91537 13.80737 17.307369 19.25337 23.14537"
           y="8.4007797"
           sodipodi:role="line"
           id="tspan288">Master</tspan></text></g><path
       d="m 83.051643,88.014957 h 11.097331 v 9.11225 H 83.051643 Z m 0.178505,9.012767 -0.07937,-0.07902 h 10.918826 l -0.09913,0.07902 v -8.933392 l 0.09913,0.09913 H 83.150773 l 0.07937,-0.09913"
       style="fill:#131413;fill-opacity:1;fill-rule:nonzero;stroke:none;stroke-width:0.0352778"
       id="path292" /><g
       id="g294"
       transform="matrix(0.3527778,0,0,-0.3527778,8.7076021,279.18313)"><text
         xml:space="preserve"
         transform="matrix(1,0,0,-1,216.352,526.761)"
         style="font-variant:normal;font-weight:normal;font-size:7px;font-family:Helvetica;-inkscape-font-specification:Helvetica;writing-mode:lr-tb;fill:#131413;fill-opacity:1;fill-rule:nonzero;stroke:none"
         id="text298"><tspan
           x="0 4.6690001 7 8.5539999 12.446 16.337999"
           y="0"
           sodipodi:role="line"
           id="tspan296">Bridge</tspan></text></g><path
       d="m 55.357174,92.978188 h 27.614741 v 0.178505 H 55.357174 Z m 26.16553,-0.814211 1.628069,0.893586 -1.628069,0.912989 c -0.03951,0.01976 -0.07937,0 -0.118886,-0.03951 -0.01976,-0.03951 0,-0.07937 0.03951,-0.119239 l 1.489075,-0.813859 v 0.138995 l -1.489075,-0.833614 c -0.03951,-0.02011 -0.05927,-0.05962 -0.03951,-0.09948 0.03951,-0.03986 0.07937,-0.05927 0.118886,-0.03986"
       style="fill:#131413;fill-opacity:1;fill-rule:nonzero;stroke:none;stroke-width:0.0352778"
       id="path300" /><path
       d="m 97.861255,96.948702 h 14.075485 v 9.112248 H 97.861255 Z m 0.178858,9.012768 -0.09913,-0.0794 h 13.896627 l -0.0794,0.0794 v -8.933393 l 0.0794,0.09913 H 97.940983 l 0.09913,-0.09913"
       style="fill:#131413;fill-opacity:1;fill-rule:nonzero;stroke:none;stroke-width:0.0352778"
       id="path302" /><g
       id="g304"
       transform="matrix(0.3527778,0,0,-0.3527778,8.7076021,279.18313)"><text
         xml:space="preserve"
         transform="matrix(1,0,0,-1,263.142,501.437)"
         style="font-variant:normal;font-weight:normal;font-size:7px;font-family:Helvetica;-inkscape-font-specification:Helvetica;writing-mode:lr-tb;fill:#131413;fill-opacity:1;fill-rule:nonzero;stroke:none"
         id="text308"><tspan
           x="0 5.0539999 9.7229996 14.777"
           y="0"
           sodipodi:role="line"
           id="tspan306">UART</tspan></text></g><path
       d="m 114.8154,105.96147 h 13.89656 V 97.027654 H 114.8154 Z"
       style="fill:#e7e7e8;fill-opacity:1;fill-rule:nonzero;stroke:none;stroke-width:0.0352778"
       id="path310" /><path
       d="m 114.73603,96.948702 h 14.07513 v 9.112248 h -14.07513 z m 0.1785,9.012768 -0.0991,-0.0794 h 13.89663 l -0.0794,0.0794 v -8.933393 l 0.0794,0.09913 H 114.8154 l 0.0991,-0.09913"
       style="fill:#131413;fill-opacity:1;fill-rule:nonzero;stroke:none;stroke-width:0.0352778"
       id="path312" /><g
       id="g314"
       transform="matrix(0.3527778,0,0,-0.3527778,8.7076021,279.18313)"><text
         xml:space="preserve"
         transform="matrix(1,0,0,-1,308.445,505.637)"
         style="font-variant:normal;font-weight:normal;font-size:7px;font-family:Helvetica;-inkscape-font-specification:Helvetica;writing-mode:lr-tb;fill:#131413;fill-opacity:1;fill-rule:nonzero;stroke:none"
         id="text320"><tspan
           x="0 5.0539999 8.9460001 12.446 14.392 18.284"
           y="0"
           sodipodi:role="line"
           id="tspan316">Custom</tspan><tspan
           x="6.2273402 11.28134"
           y="8.4007797"
           sodipodi:role="line"
           id="tspan318">HW</tspan></text></g><path
       d="m 94.228349,92.978188 h 27.634501 v 0.178505 H 94.228349 Z m 1.449564,0.992364 -1.608314,-0.912989 1.608314,-0.893586 c 0.03951,-0.0194 0.09913,0 0.118886,0.03986 0.01976,0.03986 0,0.07937 -0.03986,0.09948 l -1.488722,0.833614 v -0.138995 l 1.488722,0.813859 c 0.03986,0.03986 0.05962,0.07973 0.03986,0.119239 -0.01975,0.03951 -0.07937,0.05927 -0.118886,0.03951"
       style="fill:#131413;fill-opacity:1;fill-rule:nonzero;stroke:none;stroke-width:0.0352778"
       id="path322" /><g
       id="g324"
       transform="matrix(0.3527778,0,0,-0.3527778,8.7076021,279.18313)"><text
         xml:space="preserve"
         transform="matrix(1,0,0,-1,279.751,530.457)"
         style="font-variant:normal;font-weight:normal;font-size:7px;font-family:Helvetica;-inkscape-font-specification:Helvetica;writing-mode:lr-tb;fill:#131413;fill-opacity:1;fill-rule:nonzero;stroke:none"
         id="text330"><tspan
           x="0 4.6690001 8.5609999 10.892 12.446 16.337999 20.23 24.122 26.452999 30.344999"
           y="0"
           sodipodi:role="line"
           id="tspan326">Peripheral</tspan><tspan
           x="9.9187498 14.58775 18.47975"
           y="10"
           sodipodi:role="line"
           id="tspan328">Bus</tspan></text></g><path
       d="m 100.83905,107.86753 h 2.16394 v 3.1563 h -2.16394 z m 0.17886,3.05717 -0.0991,-0.0797 h 1.98508 l -0.0794,0.0797 v -2.97815 l 0.0794,0.0995 h -1.98508 l 0.0991,-0.0995"
       style="fill:#131413;fill-opacity:1;fill-rule:nonzero;stroke:none;stroke-width:0.0352778"
       id="path332" /><path
       d="M 48.309732,105.96147 H 62.206285 V 97.027654 H 48.309732 Z"
       style="fill:#e7e7e8;fill-opacity:1;fill-rule:nonzero;stroke:none;stroke-width:0.0352778"
       id="path334" /><path
       d="m 48.230357,96.948702 h 14.075482 v 9.112248 H 48.230357 Z m 0.178506,9.012768 -0.09913,-0.0794 h 13.896623 l -0.07902,0.0794 v -8.933393 l 0.07902,0.09913 H 48.309732 l 0.09913,-0.09913"
       style="fill:#131413;fill-opacity:1;fill-rule:nonzero;stroke:none;stroke-width:0.0352778"
       id="path336" /><g
       id="g338"
       transform="matrix(0.3527778,0,0,-0.3527778,8.7076021,279.18313)"><text
         xml:space="preserve"
         transform="matrix(1,0,0,-1,119.896,505.665)"
         style="font-variant:normal;font-weight:normal;font-size:7px;font-family:Helvetica;-inkscape-font-specification:Helvetica;writing-mode:lr-tb;fill:#131413;fill-opacity:1;fill-rule:nonzero;stroke:none"
         id="text344"><tspan
           x="0 5.0539999 8.9460001 12.446 14.392 18.284"
           y="0"
           sodipodi:role="line"
           id="tspan340">Custom</tspan><tspan
           x="6.2265601 11.28056"
           y="8.3996096"
           sodipodi:role="line"
           id="tspan342">HW</tspan></text></g><path
       d="m 42.353785,96.670713 h 8.715411 v -7.58377 h -8.715411 z"
       style="fill:#ffffff;fill-opacity:1;fill-rule:nonzero;stroke:none;stroke-width:0.0352778"
       id="path346" /><g
       id="g348"
       transform="matrix(0.3527778,0,0,-0.3527778,8.7076021,279.18313)"><text
         xml:space="preserve"
         transform="matrix(1,0,0,-1,96.2207,529.851)"
         style="font-variant:normal;font-weight:normal;font-size:7px;font-family:Helvetica;-inkscape-font-specification:Helvetica;writing-mode:lr-tb;fill:#131413;fill-opacity:1;fill-rule:nonzero;stroke:none"
         id="text354"><tspan
           x="0 3.892 7.7839999 11.284 15.176"
           y="0"
           sodipodi:role="line"
           id="tspan350">Local</tspan><tspan
           x="2.3343799 7.0033798 10.89538"
           y="8.4007797"
           sodipodi:role="line"
           id="tspan352">Bus</tspan></text></g><path
       d="m 101.83177,107.94655 h 0.17887 v -1.98506 h -0.17887 z"
       style="fill:#131413;fill-opacity:1;fill-rule:nonzero;stroke:none;stroke-width:0.0352778"
       id="path356" /><path
       d="m 106.795,107.86753 h 2.16394 v 3.1563 H 106.795 Z m 0.17851,3.05717 -0.0991,-0.0797 h 1.98544 l -0.0797,0.0797 v -2.97815 l 0.0797,0.0995 h -1.98544 l 0.0991,-0.0995"
       style="fill:#131413;fill-opacity:1;fill-rule:nonzero;stroke:none;stroke-width:0.0352778"
       id="path358" /><path
       d="m 107.78772,107.94655 h 0.17845 v -1.98506 h -0.17845 z"
       style="fill:#131413;fill-opacity:1;fill-rule:nonzero;stroke:none;stroke-width:0.0352778"
       id="path360" /><path
       d="m 117.71347,107.86753 h 2.16429 v 3.1563 h -2.16429 z m 0.17886,3.05717 -0.0991,-0.0797 h 1.98543 l -0.0797,0.0797 v -2.97815 l 0.0797,0.0995 h -1.98543 l 0.0991,-0.0995"
       style="fill:#131413;fill-opacity:1;fill-rule:nonzero;stroke:none;stroke-width:0.0352778"
       id="path362" /><path
       d="m 118.70654,107.94655 h 0.17846 v -1.98506 h -0.17846 z"
       style="fill:#131413;fill-opacity:1;fill-rule:nonzero;stroke:none;stroke-width:0.0352778"
       id="path364" /><path
       d="m 123.66942,107.86753 h 2.16394 v 3.1563 h -2.16394 z m 0.17886,3.05717 -0.0991,-0.0797 h 1.98508 l -0.0794,0.0797 v -2.97815 l 0.0794,0.0995 h -1.98508 l 0.0991,-0.0995"
       style="fill:#131413;fill-opacity:1;fill-rule:nonzero;stroke:none;stroke-width:0.0352778"
       id="path366" /><path
       d="m 124.66214,107.94655 h 0.17887 v -1.98506 h -0.17887 z"
       style="fill:#131413;fill-opacity:1;fill-rule:nonzero;stroke:none;stroke-width:0.0352778"
       id="path368" /><path
       d="m 100.99816,107.92715 0.99271,2.97744 h -0.13899 l 0.99236,-2.97744 0.13935,0.0596 -0.99272,2.97744 c 0,0.0201 -0.0399,0.0596 -0.0794,0.0596 -0.0201,0 -0.0596,-0.0395 -0.0596,-0.0596 l -0.99272,-2.97744"
       style="fill:#131413;fill-opacity:1;fill-rule:nonzero;stroke:none;stroke-width:0.0352778"
       id="path370" /><path
       d="m 106.81476,110.90459 0.99271,-2.97744 c 0,-0.0402 0.0399,-0.0596 0.0596,-0.0596 0.0399,0 0.0794,0.0194 0.0794,0.0596 l 0.99271,2.97744 -0.13899,0.0596 -0.99272,-2.97744 h 0.139 l -0.99272,2.97744"
       style="fill:#131413;fill-opacity:1;fill-rule:nonzero;stroke:none;stroke-width:0.0352778"
       id="path372" /><path
       d="m 117.87293,107.92715 0.99236,2.97744 h -0.13899 l 0.99271,-2.97744 0.139,0.0596 -0.99272,2.97744 c 0,0.0201 -0.0395,0.0596 -0.0794,0.0596 -0.0198,0 -0.0596,-0.0395 -0.0596,-0.0596 l -0.99272,-2.97744"
       style="fill:#131413;fill-opacity:1;fill-rule:nonzero;stroke:none;stroke-width:0.0352778"
       id="path374" /><path
       d="m 123.68953,110.90459 0.99236,-2.97744 c 0,-0.0402 0.0399,-0.0596 0.0596,-0.0596 0.0399,0 0.0797,0.0194 0.0797,0.0596 l 0.99236,2.97744 -0.13899,0.0596 -0.99272,-2.97744 h 0.13935 l -0.99272,2.97744"
       style="fill:#131413;fill-opacity:1;fill-rule:nonzero;stroke:none;stroke-width:0.0352778"
       id="path376" /><g
       id="g378"
       transform="matrix(0.3527778,0,0,-0.3527778,8.7076021,279.18313)"><text
         xml:space="preserve"
         transform="matrix(1,0,0,-1,305.637,465.135)"
         style="font-variant:normal;font-weight:normal;font-size:7px;font-family:Helvetica;-inkscape-font-specification:Helvetica;writing-mode:lr-tb;fill:#131413;fill-opacity:1;fill-rule:nonzero;stroke:none"
         id="text382"><tspan
           x="0 3.892 5.4460001 7.777 11.669 15.169 17.115 19.061001 21.007 22.952999"
           y="0"
           sodipodi:role="line"
           id="tspan380">direct I/O</tspan></text></g><path
       d="m 72.311323,93.236068 -0.07937,3.632906 h -0.178859 l 0.07973,-3.632906 z m -1.012473,1.429456 0.933098,-1.608314 0.853722,1.647825 c 0.01976,0.03986 0.01976,0.09913 -0.03986,0.119239 -0.03951,0.01976 -0.07937,0 -0.09913,-0.03951 L 72.152577,93.27558 h 0.138994 l -0.853722,1.46932 c -0.01976,0.03986 -0.07937,0.05927 -0.119239,0.03986 -0.03951,-0.02011 -0.05927,-0.07973 -0.01976,-0.119239 z m 1.767064,0.773994 -0.933097,1.588206 -0.853722,-1.627717 c -0.01976,-0.03986 0,-0.09913 0.03951,-0.118886 0.03986,-0.02011 0.07973,0 0.09948,0.03916 l 0.794103,1.509183 h -0.138994 l 0.853722,-1.46932 c 0.01976,-0.03986 0.07937,-0.05927 0.118886,-0.03986 0.03986,0.02011 0.05962,0.07973 0.02011,0.119238"
       style="fill:#131413;fill-opacity:1;fill-rule:nonzero;stroke:none;stroke-width:0.0352778"
       id="path384" /><path
       d="m 104.96867,88.272837 -0.0596,4.625623 h -0.17851 l 0.079,-4.625623 z m -0.99272,1.429456 0.91334,-1.607961 0.87348,1.647472 c 0.0198,0.03986 0.0198,0.07973 -0.0198,0.09913 -0.0399,0.02011 -0.0995,0.02011 -0.11924,-0.0194 l -0.79411,-1.509183 h 0.139 l -0.85337,1.469319 c -0.0201,0.03986 -0.0797,0.05927 -0.11959,0.03986 -0.0395,-0.02011 -0.0395,-0.07973 -0.0198,-0.119239 z m 1.76707,1.766711 -0.93345,1.588206 -0.87313,-1.627717 c -0.0201,-0.03986 0,-0.07973 0.0395,-0.09913 0.0395,-0.03986 0.0991,-0.02011 0.11924,0.0194 l 0.7941,1.509184 h -0.13934 l 0.85372,-1.46932 c 0.0201,-0.03986 0.0596,-0.05927 0.0995,-0.03986 0.0399,0.02011 0.0596,0.07973 0.0399,0.119239"
       style="fill:#131413;fill-opacity:1;fill-rule:nonzero;stroke:none;stroke-width:0.0352778"
       id="path386" /><path
       d="m 104.96867,93.236068 -0.0596,3.632906 h -0.17851 l 0.079,-3.632906 z m -1.01247,1.429456 0.93309,-1.608314 0.87348,1.647825 c 0.0198,0.03986 0,0.09913 -0.0399,0.119239 -0.0395,0.01976 -0.0794,0 -0.0991,-0.03951 l -0.79411,-1.509184 h 0.139 l -0.85337,1.46932 c -0.0201,0.03986 -0.0797,0.05927 -0.11959,0.03986 -0.0395,-0.02011 -0.0593,-0.07973 -0.0395,-0.119239 z m 1.78682,0.773994 -0.93345,1.588206 -0.85337,-1.627717 c -0.0198,-0.03986 -0.0198,-0.09913 0.0198,-0.118886 0.0395,-0.02011 0.0991,0 0.11924,0.03916 l 0.7941,1.509183 H 104.75 l 0.85372,-1.46932 c 0.0201,-0.03986 0.0797,-0.05927 0.11924,-0.03986 0.0399,0.02011 0.0399,0.07973 0.0201,0.119238"
       style="fill:#131413;fill-opacity:1;fill-rule:nonzero;stroke:none;stroke-width:0.0352778"
       id="path388" /><path
       d="m 121.94257,88.272837 -0.0797,4.625623 h -0.17851 l 0.0794,-4.625623 z m -1.01247,1.429456 0.93275,-1.607961 0.87383,1.647472 c 0.0197,0.03986 0,0.07973 -0.0399,0.09913 -0.0395,0.02011 -0.0991,0.02011 -0.11888,-0.0194 l -0.79411,-1.509183 h 0.13864 l -0.85372,1.469319 c -0.0194,0.03986 -0.079,0.05927 -0.11888,0.03986 -0.0198,-0.02011 -0.0399,-0.07973 -0.0198,-0.119239 z m 1.76671,1.766711 -0.9331,1.588206 -0.85372,-1.627717 c -0.0395,-0.03986 -0.0197,-0.07973 0.0201,-0.09913 0.0395,-0.03986 0.0991,-0.02011 0.11924,0.0194 l 0.7941,1.509184 h -0.13934 l 0.85372,-1.46932 c 0.0201,-0.03986 0.0797,-0.05927 0.11924,-0.03986 0.0395,0.02011 0.0395,0.07973 0.0198,0.119239"
       style="fill:#131413;fill-opacity:1;fill-rule:nonzero;stroke:none;stroke-width:0.0352778"
       id="path390" /><path
       d="m 121.94257,93.236068 -0.0797,3.632906 h -0.17851 l 0.0794,-3.632906 z m -1.01247,1.429456 0.93275,-1.608314 0.85372,1.647825 c 0.0201,0.03986 0.0201,0.09913 -0.0395,0.119239 -0.0395,0.01976 -0.0794,0 -0.0991,-0.03951 l -0.79411,-1.509184 h 0.13864 l -0.85372,1.46932 c -0.0194,0.03986 -0.079,0.05927 -0.11888,0.03986 -0.0399,-0.02011 -0.0596,-0.07973 -0.0198,-0.119239 z m 1.76671,0.773994 -0.9331,1.588206 -0.85372,-1.627717 c -0.0197,-0.03986 0,-0.09913 0.0399,-0.118886 0.0399,-0.02011 0.0794,0 0.0995,0.03916 l 0.7941,1.509183 h -0.13934 l 0.85372,-1.46932 c 0.0201,-0.03986 0.0797,-0.05927 0.11924,-0.03986 0.0395,0.02011 0.0596,0.07973 0.0198,0.119238"
       style="fill:#131413;fill-opacity:1;fill-rule:nonzero;stroke:none;stroke-width:0.0352778"
       id="path392" /><g
       id="g394"
       transform="matrix(0.3527778,0,0,-0.3527778,8.7076021,279.18313)"><text
         xml:space="preserve"
         transform="matrix(1,0,0,-1,137.936,530.666)"
         style="font-variant:normal;font-weight:normal;font-size:7px;font-family:Helvetica;-inkscape-font-specification:Helvetica;writing-mode:lr-tb;fill:#131413;fill-opacity:1;fill-rule:nonzero;stroke:none"
         id="text400"><tspan
           x="0 5.0539999 6.6079998 10.5 14.392 16.723 20.223 24.115 28.007 31.899"
           y="0"
           sodipodi:role="line"
           id="tspan396">High-speed</tspan><tspan
           x="11.8648 16.5338 20.4258"
           y="10"
           sodipodi:role="line"
           id="tspan398">Bus</tspan></text></g><g
       id="g402"
       transform="matrix(0.3527778,0,0,-0.3527778,8.7076021,279.18313)"><text
         xml:space="preserve"
         transform="matrix(1,0,0,-1,53.775,445.8)"
         style="font-variant:normal;font-weight:bold;font-size:8.4682px;font-family:Times;-inkscape-font-specification:Times-Bold;writing-mode:lr-tb;fill:#131413;fill-opacity:1;fill-rule:nonzero;stroke:none"
         id="text406"><tspan
           x="0 5.1495123 7.5492191 11.629299 15.829688 20.03923 22.199612"
           y="0"
           sodipodi:role="line"
           id="tspan404">Fig.7.1</tspan></text></g><g
       id="g408"
       transform="matrix(0.3527778,0,0,-0.3527778,8.7076021,279.18313)"><text
         xml:space="preserve"
         transform="matrix(1,0,0,-1,86.175,445.8)"
         style="font-variant:normal;font-weight:normal;font-size:8.4682px;font-family:Times;-inkscape-font-specification:Times-Roman;writing-mode:lr-tb;fill:#000000;fill-opacity:1;fill-rule:nonzero;stroke:none"
         id="text412"><tspan
           x="0 6.0750866 9.7960138 13.99116 17.712088 20.493044 22.892967 28.892576 31.292572 35.0135 41.613674 45.808819 48.208595 51.929523 54.3293 60.20977 62.969536 67.16468 72.205086 78.085556 81.325401 85.520546 88.775726 91.175797 94.895721 101.49572 104.25549 108.45064 112.64578 115.42673 119.14767 123.34281 125.74258"
           y="0"
           sodipodi:role="line"
           id="tspan410">Generictemplateforasystem-on-chip</tspan></text></g><g
       id="g414"
       transform="matrix(0.3527778,0,0,-0.3527778,8.7076021,279.18313)" /><g
       id="g436"
       transform="matrix(0.3527778,0,0,-0.3527778,8.7076021,279.18313)" /></g></svg>
