<?xml version="1.0" encoding="UTF-8" standalone="no"?>
<svg
   id="final_inspection_xA0_Image_1_"
   style="enable-background:new 0 0 576.013 454.75"
   xml:space="preserve"
   viewBox="0 0 576.013 454.75"
   version="1.1"
   y="0px"
   x="0px"
   sodipodi:docname="line_7_johnny_automatic_final_inspection.svg"
   inkscape:version="1.2.2 (1:1.2.2+202305151914+b0a8486541)"
   xmlns:inkscape="http://www.inkscape.org/namespaces/inkscape"
   xmlns:sodipodi="http://sodipodi.sourceforge.net/DTD/sodipodi-0.dtd"
   xmlns="http://www.w3.org/2000/svg"
   xmlns:svg="http://www.w3.org/2000/svg"
   xmlns:rdf="http://www.w3.org/1999/02/22-rdf-syntax-ns#"
   xmlns:cc="http://creativecommons.org/ns#"
   xmlns:dc="http://purl.org/dc/elements/1.1/"><defs
   id="defs1767" /><sodipodi:namedview
   id="namedview1765"
   pagecolor="#ffffff"
   bordercolor="#666666"
   borderopacity="1.0"
   inkscape:showpageshadow="2"
   inkscape:pageopacity="0.0"
   inkscape:pagecheckerboard="0"
   inkscape:deskcolor="#d1d1d1"
   showgrid="false"
   inkscape:zoom="0.5768099"
   inkscape:cx="56.344387"
   inkscape:cy="406.54642"
   inkscape:window-width="1846"
   inkscape:window-height="1016"
   inkscape:window-x="0"
   inkscape:window-y="0"
   inkscape:window-maximized="1"
   inkscape:current-layer="layer6" />

<metadata
   id="metadata1762"><rdf:RDF><cc:Work><dc:format>image/svg+xml</dc:format><dc:type
         rdf:resource="http://purl.org/dc/dcmitype/StillImage" /><cc:license
         rdf:resource="http://creativecommons.org/licenses/publicdomain/" /><dc:publisher><cc:Agent
           rdf:about="http://openclipart.org/"><dc:title>Openclipart</dc:title></cc:Agent></dc:publisher><dc:title>final inspection</dc:title><dc:date>2008-03-06T04:43:23</dc:date><dc:description>Wide Road Ahead! The Building of an Automobile by Henry B. Lent New York THE MACMILLAN COMPANY 1934 archive.org states as PD</dc:description><dc:source>http://openclipart.org/detail/15523/final-inspection-by-johnny_automatic</dc:source><dc:creator><cc:Agent><dc:title>johnny_automatic</dc:title></cc:Agent></dc:creator><dc:subject><rdf:Bag><rdf:li>assembly line</rdf:li><rdf:li>car</rdf:li><rdf:li>clip art</rdf:li><rdf:li>clipart</rdf:li><rdf:li>externalsource</rdf:li><rdf:li>factory</rdf:li><rdf:li>image</rdf:li><rdf:li>industry</rdf:li><rdf:li>media</rdf:li><rdf:li>png</rdf:li><rdf:li>public domain</rdf:li><rdf:li>svg</rdf:li><rdf:li>transportation</rdf:li></rdf:Bag></dc:subject></cc:Work><cc:License
       rdf:about="http://creativecommons.org/licenses/publicdomain/"><cc:permits
         rdf:resource="http://creativecommons.org/ns#Reproduction" /><cc:permits
         rdf:resource="http://creativecommons.org/ns#Distribution" /><cc:permits
         rdf:resource="http://creativecommons.org/ns#DerivativeWorks" /></cc:License></rdf:RDF></metadata><g
   inkscape:groupmode="layer"
   id="layer6"
   inkscape:label="Layer 1"><g
     clip-rule="evenodd"
     fill-rule="evenodd"
     id="g1760"
     style="enable-background:new 0 0 576.013 454.75">
	<path
   d="m26.689 1.196c1.785 2.309-0.158 3.483-0.379 6.063-0.282 3.282 0.421 7.055 0.379 10.612-0.379 32.157 0.633 75.868 0 112.94-0.279 16.332 0.426 37.249 0.379 52.681-0.005 1.661 0.617 3.962-0.758 5.306-2.869-1.544-0.062-6.933-1.516-10.233-6.492 0.671-13.596-0.298-20.087 0.379-0.319-1.323-1.267-2.018-1.137-3.79 7.446-0.531 13.387 0.491 20.845 0.379 0.868-1.624 0.396-3.802 0.379-5.685-0.141-15.178 0.012-30.464 0-44.722-5.728-0.557-10.131-0.054-15.918 0-1.546 0.014-4.7 0.895-5.685-1.137 0.334-2.289 4.782-1.137 7.959-1.137 4.521 0 8.742 0.051 13.265 0.379 0.919-12.379 0.017-25.528 0.379-37.142-5.571-0.103-10.659 0.242-15.918 0.379-1.892 0.049-4.352 0.311-6.064-0.758 0.49-2.854 5.858-1.516 9.854-1.516h11.749c0.885-17.186-0.432-29.259 0-48.891-4.656-0.768-11.673 0.396-17.055 0.379-1.66-0.005-3.845 0.295-4.548-1.137 0.981-3.367 7.038-1.207 10.612-1.137 4.147 0.081 7.361-0.171 10.612-0.379 0.324-11.126-0.263-21.451-0.379-32.215 1.092 0.039 2.481-0.214 3.032 0.373z"
   id="path1706" />
	<path
   d="m113.48 199.79c-0.495 1.998-3.117 1.092-4.169 1.137-11.458 0.491-23.44 0.101-34.11 0-15.511-0.146-30.06-0.234-45.101-0.379-7.147-0.069-15.714 0.208-21.224 0.379-1.855 0.058-4.076 0.462-5.306-0.758-0.062-0.44 0.084-0.674 0.379-0.758-0.062-0.44 0.084-0.674 0.379-0.758 35.854 0.094 63.716 0.012 97.402 0.379 1.863 0.021 3.878 0.388 5.685 0.379 1.96-0.01 4.34-1.14 6.06 0.38z"
   id="path1708" />
	<path
   d="m125.61 208.89c0.612-0.107 0.652 0.358 1.137 0.379-0.656 5.232 5.75 5.328 5.306 9.096-2.354-0.102-4.903-3.141-7.201-4.548-0.04-1.93-0.18-3.96 0.75-4.93z"
   id="path1710" />
	<path
   d="m574.72 243.38c-4.448 0.377-6.436-4.912-12.128-4.548-2.79-3.273-6.226-5.901-10.611-7.58v-0.758c0.238-1.862 2.044 0.198 3.41-0.379 2.332 2.469 5.76 3.842 7.959 6.443 2.589-0.234 4.521 1.664 6.443 2.652 1.81 0.93 5.06 1.21 4.93 4.18z"
   id="path1712" />
	<path
   d="m86.191 237.69h1.137c0.984 2.169 1.924 3.966 2.653 7.201 0.199 0.881 1.233 1.73 1.516 2.652 0.447 1.458 0.635 3.501 1.137 5.307 0.723 2.6 1.205 4.378 1.895 7.58 0.445 2.064 1.937 7.069-0.758 9.096-2.917-0.626-0.738-3.24-0.758-4.927-0.038-3.249-0.986-7.164-1.895-10.233-1.619-5.467-3.355-10.538-4.927-15.539-0.674-0.28-0.054-0.69 0-1.14z"
   id="path1714" />
	<path
   d="m82.402 238.07c0.337 0.168 0.678 0.333 0.758 0.758-0.713 8.457-1.927 17.653-2.274 27.288-0.121 3.343 0.996 7.675-1.516 9.475-2.63-0.421-1.18-3.306-1.137-4.927 0.281-10.677 1.175-23.074 3.411-31.836 0.093-0.41 0.753-0.26 0.758-0.76z"
   id="path1716" />
	<path
   d="m152.9 238.45c0.612-0.106 0.652 0.358 1.137 0.379 1.102 4.89-0.382 9.985-1.137 14.781-0.519 3.291-1.527 6.323-1.895 9.096-0.265 1.998 1.347 4.842-1.516 5.686-2.093-1.088-1.191-3.813-0.758-6.064 1.207-6.271 2.581-12.225 3.79-18.95-0.635-0.629-0.302-2.225-0.379-3.411-0.27-1.05 0.76-0.78 0.77-1.53z"
   id="path1718" />
	<path
   d="m362.1 250.58c-0.808 2.416-3.213 3.741-4.927 5.306-5.173 4.724-9.989 10.288-14.402 16.297-1.247 2.543-1.852 5.729-4.927 6.443-0.593-2.709 2.258-5.677 3.79-7.959 5.152-7.672 11.34-14.64 18.571-20.466 0.89-0.12 1.46 0.06 1.9 0.38z"
   id="path1720" />
	<path
   d="m399.62 269.15h1.137c0.717 3.915-2.242 7.329-5.686 8.338 0.98-3.32 4.62-3.98 4.55-8.34z"
   id="path1722" />
	<path
   d="m125.23 270.28c2.727 1.442 8 0.338 9.854 2.653 0.276 1.034-0.753 0.763-0.758 1.516-1.649 0.386-1.742-0.784-2.653-1.137-2.744-0.975-5.568 0.124-7.201-1.517 0.2-0.55 0.56-0.95 0.76-1.51z"
   id="path1724" />
	<path
   d="m434.87 270.66c0.612-0.106 0.653 0.358 1.138 0.379-0.304 3.298 1.818 8.717-2.274 9.096 0.49-2.42-0.01-6.63 1.13-9.48z"
   id="path1726" />
	<path
   d="m410.24 279.38c0.233 0.338 0.458 0.678 0 0.758-0.6 2.753-4.676 2.316-7.201 3.032-1.735 0.492-3.174 2.184-4.548 1.138 1.4-4.16 8.34-2.77 11.75-4.93z"
   id="path1728" />
	<path
   d="m409.48 287.34c0.435 0.134 0.961 0.668 0.379 0.758-2.347 3.592-10.552 4.069-14.022 4.17 1.6-4.59 9.56-2.82 13.64-4.93z"
   id="path1730" />
	<path
   d="m510.29 372.62c0.645-0.14 0.715 0.295 0.758 0.758-0.322-0.07-0.357 0.147-0.379 0.379-0.44-0.07-0.32-0.7-0.38-1.14z"
   id="path1732" />
	<path
   d="m512.56 375.27c0.886 0.125 1.565 0.456 2.273 0.758-0.435 1.613-1.003 2.976-3.79 3.032-0.2-0.305-0.396-0.615-0.379-1.137 0.37-1.15 1.53-1.51 1.9-2.65z"
   id="path1734" />
	<path
   d="m93.393 384.74h1.137c0.542 1.443 1.162 5.857-1.516 5.306-1.079-1.65 0.751-3.15 0.379-5.31z"
   id="path1736" />
	<path
   d="m129.78 385.88c0.612-0.106 0.652 0.358 1.137 0.379-1.377 4.055-2.108 8.757-4.927 11.37-1.288-1.644 0.72-3.719 1.516-5.686 0.82-2.05 1.38-4.28 2.27-6.06z"
   id="path1738" />
	<path
   d="m360.97 391.56c0.318 0.44 0.5 1.017 0.379 1.896-0.935 0.05-1.826 0.058-2.274-0.379 0.06-1.07 0.65-1.62 1.89-1.52z"
   id="path1740" />
	<path
   d="m363.24 400.66c-0.104 2.695-1.321 5.048-2.273 7.579-0.884 2.35-1.329 5.062-2.274 7.201-0.583 1.32-1.945 2.404-2.652 3.79-1.436 2.812-2.834 5.753-4.169 8.717-1.38 3.063-1.854 6.065-4.549 7.959-0.666 2.239-1.285 4.526-3.789 4.928-0.791-2.604 1.846-4.451 3.031-6.443 3.652-6.14 6.07-14.353 10.612-20.087 1.207-4.983 2.667-9.713 4.927-13.644 0.37-0.01 0.75-0.01 1.13-0.01z"
   id="path1742" />
	<path
   d="m113.1 448.04c0.177 1.181-0.953 1.355-1.516 0.759 0.1-0.67 0.66-0.87 1.52-0.76z"
   id="path1744" />
	<path
   d="m500.44 340.78c-0.202-2.035-3.526-4.427-6.064-5.686-4.098-2.032-10.467-3.517-16.676-2.273-5.828 1.166-10.095 4.988-13.644 7.58-1.308 2.356-2.316 5.011-4.549 6.442-0.32 2.08-0.09 4.711-3.031 4.169 0.056-2.854 2.24-6.805 4.169-9.475 5.374-7.438 18.526-14.762 31.836-9.854 2.892 1.066 8.77 4.979 10.991 7.58 4.005 4.691 8.528 15.259 4.927 24.256-4.811 3.005-5.155 7.542-8.338 10.991-4.092 4.434-11.565 7.146-17.813 6.822-11.162-0.581-20.274-8.526-22.74-18.95-1.351-5.713-0.612-12.229 1.896-16.297 1.885-3.058 4.402-5.877 7.201-7.959 8.67-6.47 24.64-5.95 31.82 2.65zm-26.15 1.14c-2.196 0.036-3.038-1.97-4.548-3.411-1.292 0.603-1.872 1.918-3.411 2.274 0.665 1.773 3.358 2.35 3.411 4.548 0.097 4.04-5.018 4.018-7.58 1.895-0.788 1.107-2.043 3.341-1.516 4.548 2.914-0.839 4.557 1.038 6.063 2.653 2.009-4.435 6.04-6.846 8.717-10.612 2.628 0.164 4.838-1.108 7.201-1.137 6.026-0.073 10.833 3.839 12.887 7.58 4.373 7.969-0.388 16.66-5.686 21.981-2.688 0.219-2.894 2.918-5.306 3.411 0.302 1.594 1.991 1.799 1.516 4.169 2.31-0.217 4.536-0.517 5.686-1.895-1.926 0.221-1.921-2.062-1.896-2.653 0.142-3.245 6.88-5.764 7.58-0.758 1.354-0.415 2.237-1.3 2.653-2.653-5.407-0.24-3.051-7.037 0.379-7.58 1.068 0.574 2.369 0.916 4.169 0.759 0.382-1.141-0.845-0.672-1.517-0.759-0.283-2.943-2.776-1.922-3.031-4.169-0.298-2.621 3.592-3.467 3.031-6.442-2.511-0.899-4.34-2.481-4.927-5.306 1.614-0.894 2.759-4.181 1.137-6.064-3.887 2.865-7.988-0.477-7.959-4.927-2.589-0.568-2.681 1.361-3.789 2.273h-4.549c-1.854-0.545-1.551-3.249-4.169-3.031-0.52 2.63-1.97 5.26-4.53 5.31zm29.94 2.27c-1.81-1.05-0.92 1.24 0 0zm-20.85 26.53c6.469 0.036 12.288-5.903 12.508-12.886 0.177-5.632-3.807-11.294-8.338-12.886-2.837-0.997-8.345-0.812-11.37 0.758-0.808 0.419-1.755 1.723-2.653 2.653-4.564 4.724-4.545 12.415-0.758 17.812 3.63 2.1 6.44 4.54 10.61 4.56zm23.88-18.19c-0.134-1.382-0.669-2.363-1.137-3.411-0.08 1.59-0.14 3.16 1.14 3.41zm0 6.82c0.14 0.632-1.013 2.119 0.379 1.517v-7.201c-2.15 0.55-0.51 5.09-0.38 5.68zm-46.62-0.38c-0.578 0.689 0.178 2.343 0.758 3.032 0.986-0.283 2.279-1.399 3.411-0.379-0.156-1.673 0.103-2.929 0.758-3.79-2.01 0.02-2.33 1.72-4.93 1.14zm6.07 13.27c0.562-1.03-0.425-3.207-2.273-3.031-0.3 0.75 0.49 3.13 2.27 3.03zm6.44 5.3c0.51 1.056 2.923 1.634 4.169 0.758-0.22-1.48-3.89-2.73-4.17-0.76z"
   id="path1746" />
	<path
   d="m575.86 181.22c0.691-1.265-1.137-2.766-1.517-4.169-3.426-0.137-7.484 1.101-10.611 0 0.534-14.581-1.078-32.914-0.38-49.27 4.842-1.749 10.975 2.867 12.508-2.274-3.872-0.1-9.482 0.377-13.266 0 1.181-10.285-0.212-24.162 0.379-35.626 1.461-0.652 3.821-0.068 6.064 0 2.204 0.066 6.129 0.824 6.443-1.137-0.97-1.38-3.954-0.758-6.064-0.758-2.634 0-5.104 0.278-6.822-0.379-0.176-15.277-0.109-33.071-0.379-49.27 2.209 0.09 4.736-0.117 7.201 0 2.056 0.098 5.238 1.576 6.064-0.758-2.429-3.375-9.099-0.214-13.266-1.895 0.56-7.979-0.182-13.365 0.379-20.845 2.508-1.445 6.95-2.854 5.307-7.201-2.881 0.657-1.774 5.3-5.307 5.306-1.095-1.608 1.5-6.865-0.758-7.201-3.828-0.058-0.574 4.874-1.67 7.204 0.011 0.133 0.029 0.263 0.034 0.397 0.022 0.59 0.013 1.162-0.003 1.729 0.44 1.291-0.095 3.558 0.123 5.071-0.243-0.018-0.472-0.021-0.69-0.014-0.062 0.332-0.118 0.666-0.186 0.997 0.267-0.1 0.552-0.182 0.876-0.225-0.119 5.36 0.034 9.316 0 15.16-8.183 0.362-15.16-0.287-21.982-0.379-4.342-0.059-8.961 0.793-13.265-0.758-0.292-5.805 0.936-10.968 0-16.297 0.043 0.019 0.092 0.031 0.136 0.049-0.004-0.097-0.021-0.194-0.018-0.292 0.039-1.032 0.151-2.246 0.36-3.523-0.149 0.005-0.308 0-0.479-0.024-0.625-4.503 1.971-7.848-0.379-10.612-2.586 1.233-1.574 4.775-1.517 6.822 0.188 6.618 0.258 12.995 0.379 18.571 0.662 30.374-0.015 64.799 0.38 96.266 0.012 0.955 0.71 2.073 0.758 3.032 0.188 3.814-0.06 7.856 0 11.749 0.181 11.857 0.24 24.523 0.758 37.521-3.141 2.671-3.971 7.652-7.58 9.854-1.299-27.086-0.365-57.31-0.758-84.517-0.446-30.901-1.211-61.957-0.379-93.992 0.044-1.699 1.229-4.419-0.379-6.064-2.598 1.05-1.506 4.56-1.517 6.443-0.09 16.804-0.19 31.915 0 45.48 0.652 46.347 0.459 95.857 1.138 135.68-3.477-1.072-9.427 0.331-12.887-0.758-0.257-16.702-0.308-31.899-0.379-46.996-0.184-38.988-1.048-91.819-0.379-130 0.046-2.594 1.508-7.213-1.516-8.338-1.742 2.182-0.418 5.028-0.379 7.58 0.107 7.098-0.701 14.979 0 23.119-12.302-0.264-23.687-0.829-36.763-0.758-1.849 0.01-5.098-0.899-6.064 1.137 0.577 1.896 2.898 1.064 4.169 1.137 13.919 0.792 27.331-0.317 38.658 0-0.347 16.904 0.652 36.591-0.379 49.648-12.46-0.145-25.438-0.107-36.005 0-2.879 0.029-5.658-0.166-7.959-0.758 0.731-14.229 0.2-31.545 0.379-43.964 0.15-10.476-0.26-22.098 0.379-31.457 0.188-2.762 2.115-6.259-1.137-7.201-2.043 0.74-1.089 3.514-1.138 4.927-0.724 20.915 0.586 54.095 0 75.042-4.605-9.649-7.937-20.051-11.749-30.32-1.886-5.081-4.292-9.977-6.063-15.16-0.888-2.596-1.636-5.377-2.653-7.959-1.639-4.157-3.632-8.704-4.927-12.128-0.289-0.764-0.087-1.82-0.379-2.653-0.239-0.681-0.912-1.232-1.137-1.895-0.467-1.375-0.296-3.564-1.896-4.548-14.541 0.658-29.799 0.095-44.343 0-18.831-0.123-36.144-0.503-53.438-0.379-1.398-1.443 1.504-4.832-1.896-4.169-2.132 0.581 0.764 4.174-1.516 4.169-6.438-0.441-15.537-1.205-21.224 0-0.597 2.722 1.467 4.982 2.273 7.58 1.912 6.157 3.377 13.004 5.685 18.95-3.792 0.114-11.108 0.267-16.297-0.379 0.666-7.08 0.008-13.019 0-19.708-0.005-5.229 1.623-10.508-0.379-14.781-1.61-0.348-1.618 0.908-1.516 2.274-1.111-1.066-1.63 0.597-2.274 1.137 1.854 28.167 1.082 58.624 1.138 88.686 0.048 26.481 1.403 55.965 0.758 82.622-0.045 1.83-1.355 3.654 0.758 5.306 1.073 1.17 0.954-2.057 1.516-2.653 1.955 0.066 0.998 3.045 3.032 3.032 7.724 0.349 13.595-0.122 20.087 0.379-1.578 2.338-0.869 6.963-2.273 9.475-9.889-2.871-21.134-4.386-31.078-7.201-0.277-19.354-0.107-43.696-0.758-66.704-0.621-21.96 0.589-42.886 0-62.535-0.017-0.551-0.292-1.322-0.379-1.895-0.727-4.836-0.017-10.797 0-15.918 0.032-9.689-0.864-19.278-0.379-28.046 0.093-1.685 1.959-3.93-0.758-5.306-2.184 1.465-1.657 5.198-1.516 7.58 0.529 8.941 1.147 20.415 0.758 30.699-0.213 5.629 0.443 11.349 0.379 16.676-0.514 42.812 1.026 88.744 0.379 125.45-4.424-1.514-9.888-1.987-14.402-3.411 0.096-60.601 0-111.43 0-167.9 0-3.169 0.864-7.736-1.895-8.338-1.678 1.833-0.471 4.351-0.379 6.443 0.37 8.419-0.157 16.643 0.379 25.014-12.621 0.377-27.196-0.502-39.416 0-1.333 0.055-3.986-0.87-4.548 1.137 2.989 1.386 6.644 0.758 10.233 0.758 11.358 0 23.502-0.309 33.73 0.379-0.185 16.782 0.017 30.422 0 47.375-12.117 1.276-31.412 0.671-45.101 0.758 0.238-11.599 0.379-23.339 0.379-36.005 0-14.016 0.129-27.115 0.379-40.553 0.033-1.748 0.993-4.664-0.758-6.064-2.67 0.343-1.546 4.75-1.516 7.58 0.248 23.633 0.09 48.01-0.379 69.736-2.23-3.491-2.047-8.331-3.032-12.886-0.627-2.902-1.965-5.8-2.653-8.717-2.625-11.128-5.379-24.004-7.58-32.973-1.015-4.134-1.88-7.676-3.032-11.37-0.477-1.529-0.651-3.939-2.274-4.927-0.935-0.91-2.695 0.57-3.79 0.758-35.046-0.705-75.474-0.091-107.64-0.758-1.009-2.149 0.598-6.915-1.137-8.338-4.74 0.25 0.333 6.658-1.516 8.717-6.955-0.788-10.975-0.888-19.329-0.758 1.947 8.539 4.98 15.992 7.201 24.256-6.259 1.625-15.842 0.582-22.361 0 0.657-11.053 0.157-18.677 0.379-29.941-2.168-0.4-1.242-2.82-3.79-1.895-1.362 4.15 0.297 8.562 0.379 13.265 0.019 1.088-0.401 2.323-0.379 3.411 0.335 16.74 0.971 35.918 0.758 52.302-0.073 5.594 0.037 10.801-0.758 15.539 1.756 5.604 0.374 13.319 0.379 20.087 0.018 24.263 1.062 49.372 0.379 67.841-0.493 2.009 1.855 1.177 1.516 3.032-1.42-0.03-3.067-0.287-2.653 1.516 2.84 1.427 6.286 0.709 9.475 0.758 20.734 0.317 42.806 0.676 64.809 0.379 8.68-0.117 17.703 0.344 26.53 0 2.054-0.08 6.046 0.611 6.064-3.032-7.355-1.06-16.149 0.573-23.877-0.379 0.192-16.527-0.335-35.582 0.379-50.028 14.217 0.012 27.61 0.343 40.553 0.379 0.305 13.891-1.149 35.901 0 51.923-11.124 1.762-22.388 3.383-31.078 7.58-6.282-4.945-16.918-5.038-23.877-0.758-1.614 1.418-2.631 3.433-4.169 4.927-23.063 0.509-44.305-0.122-71.252-0.379-0.233-30.705 0.216-55.921-0.758-88.307-0.292-9.727 0.469-19.964 0.379-28.425-0.227-21.333 0.214-45.645-0.379-67.083-0.032-1.139 0.694-3.072-0.758-3.79-2.37-0.364-1.745 2.257-1.895 3.411-0.175 1.345-0.102 3.517 0 4.548 0.666 6.726 0.379 12.565 0.379 19.708 0 15.627 0.807 31.418 0.758 46.238-0.11 33.537 0.414 66.533 0.758 99.677 0.049 4.757-0.388 9.619-0.758 14.402-8.226-0.911-21.702 0.015-31.457-0.379-2.019-0.082-4.473-1.126-5.685 0.379 0.932 3.147 5.07 1.579 7.201 1.516 3.19-0.095 6.857-0.011 10.233 0 15.84 0.052 35.968 0.454 48.512 0.379 4.809-0.029 8.494-0.185 12.507 0 6.52 0.301 16.043 1.008 23.498 0.758 1.292-0.043 2.786-0.707 4.169-0.758 1.826-0.067 3.582-0.248 5.306 0.379 0.579 2.658-0.835 4.98 1.516 5.685 1.723-2.615-1.034-8.927 1.895-10.991 3.292-0.707 6.214-2.702 9.854-3.032 6.191-0.561 11.209 2.571 15.539 4.548 1.005-0.121-0.354 2.123 1.137 1.516 2.664 1.47 14.013 6.458 8.717 10.233-3.422 0.227-6.976-2.226-10.612-1.895-0.588 0.054-1.738 0.708-1.895 0.758-1.242 0.393-2.022 0.702-3.032 0.758-5.219 0.292-7.187-2.561-11.37-2.653-1.504-0.033-2.258 0.932-3.79 1.137-1.938 0.259-3.115-0.303-4.927-0.758-1.833 3.978-3.232 8.391-3.79 13.644-4.791 2.032-6.134 7.511-9.854 10.612-8.791 1.571-16.63 6.685-22.74 12.128-0.842 3.201-2.967 5.118-3.79 8.338-12.775 0.022-23.701 3.38-35.247 5.685-2.597 2.293-6.283 2.242-9.475 3.411-3.426 1.255-6.605 3.633-10.612 3.79-4.19 3.264-10.677 4.23-14.402 7.959-1.868 0.659-4.039 1.016-3.79 3.79 3.443 0.203 5.558-2.684 8.338-4.169 5.3-2.832 11.229-5.043 16.676-7.201 1.628-0.645 3.593-1.353 5.306-1.895 12.995-4.11 28.098-8.723 42.448-9.096-2.008 4.813-1.873 11.771-4.548 15.918-10.713 1.007-23.417 1.497-34.11 4.169-11.433 2.855-22.518 8.312-31.836 12.886-1.646 0.835-4.888 1.822-3.79 4.169 2.834 0.155 4.33-2.193 6.443-3.411 3.042-1.753 6.828-2.753 10.233-4.169 3.456-1.438 6.76-3.257 10.233-4.548 4.376-1.628 8.995-2.484 13.644-3.411 4.704-0.938 9.42-1.177 14.402-1.896 4.049-0.583 11.563-2.467 14.781-1.137 0.275 1.159-0.654 1.115-0.379 2.274-27.172-1.123-49.036 7.805-68.599 17.434 0.705 2.086-1.229 3.373 0 5.685-0.304 0.967-1.977 1.702-0.758 3.032 1.577 1.605 2.527-0.475 3.79-1.137 5.447-2.856 11.604-5.492 18.192-6.822 1.271-0.786-0.916-1.292 0-1.516 8.176-2.079 20.486-2.681 29.941-1.137 4.557 0.744 7.444 1.981 9.475 4.169 0.168 2.357 1.906 3.147 1.895 5.685-0.868 0.521-0.89 1.89-1.895 2.274-8.967-4.305-26.048-5.027-37.521-2.274-0.631 0.151-1.094 0.856-1.895 1.137-0.928 0.325-2.169 0.077-3.032 0.38-3.606 1.265-6.625 2.67-9.475 4.168-3.849 2.024-9.172 5.02-9.854 8.718-0.392 2.128 0.754 4.728 1.137 6.442 0.132 1.317-1.927 1.439-0.758 2.653 4.68-4.333 9.805-7.797 16.297-10.612 3.524-1.527 7.452-3.468 10.612-4.169 0.919-0.204 2.26 0.231 3.411 0 1.25-0.251 2.236-1.066 3.411-1.137 1.162-0.07 2.463 0.763 3.79 0.758 1.636-0.005 3.6-0.658 5.306-0.758 7.987-0.468 16.082 2.412 22.74 5.685 7.893 3.88 14.736 9.541 19.708 15.539 1.436 1.732 2.941 3.905 2.274 6.064-8.089-13.161-23.92-23.936-42.827-25.772-9.693-0.941-19.083 1.623-25.393 4.169-7.983 3.223-15.509 7.686-20.466 13.645-0.183 1.193 1.737 0.283 1.895 1.137-0.187 0.998-2.09 1.276-1.137 2.274 1.203 3.522 0.2 6.923 0.379 11.749 0.187 1.197-1.88 0.141-1.516 1.516 0.525 0.738 1.362 1.164 1.516 2.274-0.863 5.922 1.079 10.867 1.137 16.297 1.758 0.642 4.718 0.082 5.685 1.516 1.394 0.235 1.887-2.379 2.653-1.516-1.062 7.906 2.535 13.352 4.548 19.328 3.08 2.858 5.875 6.001 9.096 8.718 5.675 2.605 11.508 5.104 17.813 4.927 7.502-0.212 13.801-3.384 18.192-6.822 4.209-3.297 5.372-4.786 7.58-9.096 1.405-2.744 3.098-5.809 3.79-9.854 1.021-5.969-0.403-9.864-0.758-13.644 1.437 1.869 2.025-2.108 4.169 0 2.354-2.406 9.956-4.033 13.265-1.895-2.212 4.23-2.407 10.479-4.548 14.78 1.355 4.502-1.025 8.24-1.137 12.507-8.284 17.906-28.118 32.812-53.439 25.394-11.723-3.436-21.098-10.972-26.151-20.087-0.807-1.456-0.435-3.848-3.032-4.169-1.551 1.688 0.658 3.57 1.516 4.927 7.065 11.174 18.731 20.709 34.11 22.74 5.498 0.726 11.926 0.002 15.918 0-13.813 4.11-29.787-1.363-38.658-7.959-1.137-0.846-1.966-2.076-3.032-3.032-1.152-1.033-2.628-1.757-3.411-2.653-1.752-2.005-1.963-5.078-4.927-5.685-0.06 2.704 2.725 4.485 4.548 6.442 2.453 2.633 4.84 5.335 7.58 7.201 1.663 1.133 3.274 1.714 4.927 2.653 6.826 3.879 14.131 6.162 24.635 5.685 5.101-0.231 7.826-0.959 11.749-2.273 5.976-2.003 9.505-3.659 14.023-6.822 5.389-3.772 8.227-7.257 11.749-10.612 0.53 1.205 0.57 3.391-0.379 4.169 0.227-0.984-0.152-1.363-1.137-1.137-6.737 9.174-20.926 17.793-36.763 18.192-13.043 0.328-23.815-5.511-32.594-10.991-0.694-1.96-2.483-2.823-3.79-4.169-1.36-1.293-2.161-3.146-4.169-3.79-0.125 3.188 3.259 5.6 5.685 7.58 7.784 6.356 18.085 11.46 29.941 12.507 9.778 0.863 19.08-1.98 25.393-4.927 7.121-3.323 12.654-8.135 17.434-12.507-0.049 2.979-2.902 5.671-5.306 7.579-4.195 3.33-8.415 5.322-13.644 7.201-1.934 0.695-3.854 1.721-5.685 2.274-7.499 2.269-16.406 2.73-24.256 1.516-12.2-1.888-21.34-9.13-28.804-15.539-3.58 6.133 0.291 18.614-2.653 24.635 2.709 4.541-0.086 14.678 1.516 19.329 5.156-0.716 11.506 0.726 14.023 0.758 3.014 0.039 6.145-0.783 9.096-0.758 8.506 0.074 17.228-0.336 25.772 0 1.471 0.059 2.752 0.758 4.169 0.758 1.311 0.001 2.58-0.736 3.79-0.758 1.653-0.028 3.202 0.695 4.927 0.758 4.8 0.176 9.859-0.987 14.781-0.379-0.069 2.251-0.521 6.949 0 10.233 0.569 1.578 2.77 1.525 3.411 3.032-0.192 2.138-0.478 2.965 0.758 4.169 1.525 0.793 3.178 0.042 4.927 0 1.672-0.04 3.638 0.521 5.306 0.379 1.803-0.154 3.186-1.15 4.927-1.137 1.626 0.012 3.227 1.446 4.927 0.758 0.379-2.109-0.158-2.965 0-4.928 1.104 1.06 1.879-0.348 2.653-0.758 1.893-3.539 2.973-7.892 4.548-11.749 2.505 1.104 5.804-0.685 7.58 0.759-0.086 2.286-2.688 7.188 0.379 7.959 2.29-0.287 1.272-3.176 1.516-4.549 0.143-0.801 0.979-1.388 1.137-2.273 0.141-0.79-0.051-2.155 0-3.032 0.192-3.32-0.24-6.991 0-10.612 0.848-12.784 2.16-26.177 3.032-36.763 0.476-1.292 1.798-1.739 2.274-3.032 0.054-4.752 1.592-9.36 1.516-14.022-0.046-2.831 0.494-5.016 0.758-7.58 0.404-3.916 0.278-8.128 0.379-12.128 0.138-5.464 0.629-10.774 1.137-16.297 0.168-1.824-0.744-4.063 0.758-5.685 2.555 15.521 5.133 35.083 4.548 53.438 3.791 1.492 8.226-1.169 12.128-1.896 2.682 5.584 1.744 12.512 1.895 18.95 0.13 5.522 0.21 11.152-0.379 15.918-0.358 2.9-1.621 5.638-2.274 8.338-1.062 4.39-0.706 9.133-3.411 12.128-4.712-1.863-1.482-6.659 0.379-11.749 1.815-4.966 4.05-8.299 3.79-12.507-2.55 0.482-2.905 3.159-3.032 6.064-2.634 5.324-5.224 10.693-6.822 17.055 2.084 1.579 4.006 3.321 4.548 6.443-6.012 1.568-13.74 1.419-20.087 2.652-0.032 2.242-3.206 1.342-3.032 3.79 2.247 1.944 4.233 0.895 7.201 0 2.659 0.533 4.901 1.017 7.201 1.517 1.538 0.334 3.193 0.078 4.927 0.379 2.583 0.447 5.364 1.984 7.959 2.273 4.087 0.456 8.243-0.501 12.128-1.137-0.203-1.466 0.677-1.851 0.379-3.411-1.624-0.233-1.545 1.234-3.032 1.137 0.111-6.352-16.573-6.112-9.096-12.128 55.303 1.493 112.38 0.153 167.14 0.759 0.028 3.094 0.793 5.849 0.758 7.959 0.46 1.807 2.196 2.407 0.758 4.169 6.841 2.825 14.221 2.409 20.846 0 2.059-10.733 3.011-23.013 4.927-34.489 0.328-1.965 0.891-4.881 1.516-7.201 0.712-2.641 2.301-5.607 3.411-8.338 1.274-3.134 2.539-6.423 3.79-7.959 0.824-1.012 2.215-1.047 3.032-1.895 0.529-0.549 0.333-1.679 0.758-2.274 0.462-0.646 1.346-0.941 1.895-1.516 1.033-1.081 2.068-2.174 3.411-3.032 5.471 1.604 9.151 4.998 13.645 7.58-1.76 1.788 0.424 2.438 1.516 3.411-2.798 13.625-5.331 27.515-9.854 39.416-1.381 0.767-2.907 1.389-3.411 3.031 1.033 3.263 3.335 5.256 3.032 9.854 1.186 1.088 3.498 1.049 4.169 2.652 1.491 0.783 4.135 0.413 4.548 2.274-0.67 1.254-1.589 0.25-2.653 0-3.408-0.801-7.266-1.556-8.717-3.79 0.352-0.911 2.756 0.229 2.273-1.516-3.714-2.043-5.304 1.835-9.475 1.516-3.944 3.445-11.164 2.975-17.434 2.274-0.842 1.459-1.353 2.491-1.138 4.548 3.1 2.708 7.295 0.747 10.233 0.379 2.305-0.289 5.795 0.03 8.717 0 3.46-0.036 7.069-0.252 9.854 0 2.576 0.232 4.496 1.136 6.442 0.758 2.577-0.501 3.652-3.09 6.064-1.895 0.355-1.629 1.729-3.089 0.758-4.928-3.877-0.408-9.276-1.242-11.37-4.548 0.871-3.958-3.141-4.868-1.895-7.959 1.449 0.723 1.705 1.175 3.411 1.517 6.054 1.211 14.915-0.636 22.36 0 3.124 0.267 5.814-0.15 8.717 0 0.694 0.035 1.48 0.756 2.274 0.758 1.873 0.004 3.803-0.724 5.685-0.758 9.52-0.176 18.78 0.984 27.667 1.137 3.702-2.038 8.712-0.371 13.266-0.379 11.008-0.021 22.309-0.804 32.973-0.379 1.48 0.059 2.645 0.329 4.169 0.379 4.157 0.135 9.384-0.17 14.022 0 0.746 0.027 1.531 0.691 2.274 0.758 3.323 0.298 6.803-0.417 10.232-0.379 21.646 0.238 40.341-0.196 62.156 0.758 2.82-6.745 1.162-15.026 1.137-21.981-0.029-7.916 0.915-15.523 0.379-23.877-1.29-1.11-5.347 0.546-6.063-1.138-3.714 1.639-8.183 0.601-11.749 0.379-3.333-0.207-6.901 0.104-9.854-0.758-2.064 1.018-4.703 0.159-7.58 0-4.876-0.27-10.7 0.511-15.159-0.379 1.379-2.152 3.45-4.351 4.169-6.063 16.662-0.29 29.443 1.576 46.237 0.758-0.245-1.887-0.185-1.612 0.379-3.032-0.515-1.002-2.224-0.809-3.031-1.516 0.18-1.005 2.862-0.504 1.516-1.896-3.197-1.428-7.466-0.438-11.37-0.758-2.639-0.216-5.134 0.124-7.58 0-0.714-0.036-1.62-0.693-2.273-0.758-4.057-0.404-8.364-0.318-12.128-0.379-1.819-0.029-3.91 1.084-5.307-0.379 3.013-1.388 6.631-0.759 10.233-0.759 10.035 0 19.945 0.654 27.667 0.379 0.742-1.347-0.495-1.377-0.379-3.031 0.944-1.456 1.959-2.842 2.273-4.927-4.87-0.317-13.896 2.61-17.434-1.517-0.682-2.35-0.29-5.774-0.758-8.338 2.873-1.469 7.739-0.598 11.37-1.137 2.271-0.338 3.734-1.811 4.927-1.137 0.252-1.012 1.139-1.389 1.895-1.896-1.397-2.78-0.307-5.988-0.379-9.096-0.066-2.873-0.771-5.765-0.758-8.717 0.012-2.423 0.872-4.785 0.758-7.201-0.068-1.449-0.781-2.729-0.758-4.169 0.035-2.191 1.007-4.51 1.137-6.822 0.671-11.891 0.198-22.683 0.379-34.489-1.863-2.81-5.342-4.007-6.821-7.2 2.006-1.025 4.877-1.188 4.927-4.169-2.245-1.114-3.181 2.037-5.685 1.895-2.092-3.341-5.399-5.465-8.718-7.58 2.241-1.928 3.729-4.608 6.064-6.442 0.913-0.155 0.823 0.691 1.895 0.379 0.89-3.533 6.482-2.362 6.822-6.443-3.131-0.225-3.287 2.524-6.443 2.274v-3.411c1.55-2.155 6.522-2.771 6.064-5.686-4.823 1.115-7.157 4.719-10.233 7.58-0.103-5.185-6.753-6.812-8.717-11.37-2.71 1.484-1.999-1.473-4.169-1.516-0.934 6.009 4.106 9.269 5.306 14.402 2.037 1.247 3.723 2.847 4.17 5.685-0.731 1.573-2.57 1.938-3.79 3.032-1.2 1.076-1.857 3.149-3.79 3.411-2.678-7.072-5.162-15.527-15.16-11.37-0.376-7.711-1.589-16.603-1.137-23.877 2.736 0.439 4.355 3.404 5.685 5.685 1.345 2.307 2.828 5.369 2.653 7.959-2.76-0.008-5.16 0.256-6.822 0.379-0.153 4.205 7.763 3.571 9.475 1.517 0.237-3.143-1.897-3.914-1.516-7.201-1.537-1.107-1.93-3.288-3.032-4.927-1.095-1.629-3.306-2.801-3.032-4.549 1.872 0.038 4.246-0.049 6.443 0 2.006 0.046 4.567 0.761 5.306-0.379-1.83-2.795-7.677-2.288-11.749-1.516-2.228 0.423-3.548 1.802-5.306 1.516 0.076-4.444-4.091-7.729-4.548-12.886-5.021-3.9-13.008-4.753-20.845-2.653-2.307 1.989-4.809 3.782-6.443 6.443-2.766 3.73-0.487 9.021-1.516 12.128-3.829-0.065-2.795-4.196-3.411-6.822-0.68-2.895-2.266-6.006-3.411-9.096-1.213-3.272-2.515-6.448-3.79-9.096-1.576-1.758-3.81-4.714-3.79-6.822 26.047 1.08 54.97 0.915 83.001 0.758 1.931-0.011 4.257 1.47 5.685-0.758-0.43-1.987-3.068-1.085-4.169-1.137-1.815-0.085-3.703 0-5.306 0-21.596 0-45.726-0.615-65.188 0-3.747 0.118-9.049-0.811-12.128-0.379-1.351 0.189-3.168 1.1-3.032 1.137-1.05-0.285-1.552-3.377-3.032-3.411-9.859-0.523-17.461-2.207-26.15-3.411-8.937-1.238-17.683-1.417-26.151-3.411 21.612 0.014 41.756-0.522 61.776 0 23.841 0.622 51.031-0.293 75.8 0.758 2.524 0.107 6.049 1.905 7.959-1.137-2.272-1.75-8.157 0.742-11.369-0.758 0.467-3.718-0.538-6.776 0.379-10.233 5.17 0.07 7.26 0.88 11.75 0.09zm-3.79-1.9c-0.649 0.868-2.894 0.139-4.169 0.379 0.65-0.86 2.89-0.14 4.17-0.38zm-502.18 182.68c-1.249 4.741-2.821 8.577-5.685 12.128-3.038 3.766-9.44 8.21-15.539 9.475-9.387 1.947-18.318-0.883-24.256-5.306-6.955-5.181-12.695-13.732-11.749-26.909 0.874-12.176 8.929-16.461 17.055-22.739 3.574-0.198 6.236-2.3 9.096-2.653 5.404-0.668 9.94 0.31 14.023 1.895 2.839 1.104 5.411 2.463 7.58 4.169 0.296 0.233 0.392 0.916 0.758 1.138 2.479 1.502 4.603 4.989 6.443 8.338 0.879 1.599 1.92 2.591 2.274 4.169 1.294 5.77 1.305 11.35 0 16.3zm83.005 86.79c-3.24-0.551-6.634-0.946-8.338-3.032 4.24-0.19 7.72-0.92 8.34 3.03zm-11-4.55c1.129 0.008 2.31-0.035 2.274 1.138-0.56 0.52-2.17-0.05-2.27-1.14zm194.81 6.83c0.612-0.619 1.585 0.339 3.032 0 0.25 1.45-3.35 1.79-3.03 0zm224.37-191.02c-0.432-0.831-0.979-1.548-0.758-3.031 2.62-0.79 3.05 3.1 0.76 3.03zm-7.96-13.64c3.067 2.365 6.377 4.487 7.959 8.338-5.12 1.11-6.4-4.67-7.96-8.34zm-96.27-68.6c0.167-19.43-0.559-32.933-0.379-50.407 13.064 0.292 28.879 0.634 42.826 0 0.338-0.168 0.679-0.333 0.759-0.758 0.322-0.069 0.357 0.148 0.379 0.379 0.487 11.569 0.428 33.944 0.758 50.407-14.39 0.71-27.88 0.99-44.35 0.38zm40.55 2.65c-4.174-1.047-8.212 0.45-11.749-0.379 4.239-0.688 9.056-0.798 14.022-0.758 0.36 1.49-1.99 0.28-2.27 1.14zm-12.88 0c-3.174-0.089-5.674-0.341-7.58 0-0.46-1.04 6.84-1.39 7.58 0zm-9.1 0c-0.674 0.227-1.573-1.111-1.895 0-1.74-0.72 2.55-1.51 1.9 0zm-13.26-0.38c-0.15-0.735 1.727-0.554 1.137 0.379h-0.758c0.07-0.32-0.15-0.36-0.38-0.38zm-4.93-92.094c13.509 1.056 28.526 0.277 43.585 1.137 0.061 14.591-0.403 24.612 0 36.384-15.66 0.173-28.95-0.196-44.343 0 0.218-11.206 0.327-23.432-0.379-36.384 0.21-0.548 0.59-0.927 1.13-1.14zm-2.27 37.144c-14.373 0.512-26.174 0.005-44.722 0 0.705-12.594 0.044-24.391 0.758-37.142 15.899 0.205 29.071-0.027 43.206 0.379 0.91 13.033 0.07 25.853 0.75 36.763zm-0.38 22.74c0 11.429 0.234 18.924 0.379 30.32-17.474 0.099-29.108-0.576-43.964 0-0.933-17.682-0.364-33.744-0.758-50.028-0.032-0.538-0.062-1.073 0.379-1.137 14.178 0.525 31.077 0.302 44.343 0.379-0.84 5.9-0.38 13.17-0.38 20.47zm-0.76-61.4c-14.505 0.096-26.386-0.901-42.068 0-4.549-12.759-9.388-25.228-13.645-38.279 14.571-0.001 25.507 0.451 40.553 0.758 5.15 12.421 9.82 25.311 15.17 37.521zm-84.14 1.895c11.058-0.967 26.518-0.098 38.658-0.379-0.045 14.36 0.256 26.421 0 37.142-11.737-0.338-25.755-0.273-38.658-0.758-0.133-6.32 0.235-12.211 0.379-17.813 0.13-5.12 0.34-12.3-0.38-18.195zm0 39.035c-0.017-0.648 0.281-0.982 0.758-1.137 11.563 1.257 23.818 0.636 37.9 0.758 0.346 13.809-0.384 34.373 0.379 51.165-11.266-0.5-24.082-0.28-38.658-0.379-0.47-12.53-0.37-33.01-0.38-50.4zm1.14-41.309c-4.576-12.604-8.562-25.801-13.265-38.279 13.854-0.039 23.329 0.606 37.899 0.379 3.702 8.392 6.462 17.764 9.854 26.909 1.148 3.096 3.401 7.842 3.79 11.37-10.73-0.768-26.82-0.238-38.28-0.379zm-43.59 2.274c-0.017-0.648 0.282-0.981 0.759-1.137 13.95 0.875 26.832 0.337 39.416 0.379 1.367 1.56 0.477 4.666 0.379 7.201-0.344 8.904 0.258 20.647 0 29.941-14.25-0.676-27.15-0.577-40.554-0.379-0.08-11.26 0.09-24.12-0.01-36.005zm0 37.895c16.109 0.224 26.231 0.352 40.554 0 0.107 20.732-0.77 30.333 0.379 51.165-14.993 0.265-27.182-0.527-40.933 0 0.16-16.59-0.01-33.48 0-51.16zm3.04-40.548c-4.028-12.521-8.237-24.862-12.128-37.521 11.409-0.904 26.353-0.097 37.142-0.379 2.66 5.929 4.574 12.963 6.822 19.708 2.178 6.533 4.951 13.136 6.064 18.571-13.43-0.87-24.65-0.246-37.89-0.379zm93.99-74.663c4.613 11.936 9.488 23.611 13.644 36.005-13.761 0.002-29.28-1.073-40.553-0.379-3.895-12.276-8.529-23.812-12.507-36.005 15.03 0.166 26.73 0.188 39.42 0.379zm-42.07-0.379c4.236 12.061 8.895 23.7 12.886 36.005-12.715-0.532-24.009-0.821-38.278-0.758-3.658-12.007-7.832-23.499-11.749-35.247 10.35-0.451 24.52 0.343 37.14 0zm-73.15 9.097c-0.848-2.944-2.047-5.808-2.274-8.717 0.779-1.037 2.914-1.082 4.169-1.137 2.706-0.118 5.852 0.438 8.718 0.379 2.621-0.054 5.259-0.606 6.821 0.379 3.681-0.898 10.894-0.477 15.539 0 1.173 1.03 1.404 2.791 1.896 4.169 3.493 9.823 7.271 20.705 10.611 31.078-10.704 0.493-26.439-0.979-37.142 0.758-1.11-5.361-3.388-10.587-4.927-15.918-0.89-3.071-2.38-7.408-3.42-10.991zm3.04 17.054c3.851 11.997 8.487 25.089 12.507 37.521 1.286 3.979 2.663 7.823 3.411 11.37-10.082-0.15-21.753-0.346-32.594-0.379 0.028-15.274 0.202-32.619-0.38-47.754 4.96-1.798 11.27 0.085 17.05-0.758zm12.88 87.549c-7.867-0.171-19.862-0.976-29.562 0 0.45-12.887 0.133-24.1 0-37.142 7.594 0.446 18.993 0.401 29.94 0.379 1.585-0.16-0.175 1.135-0.379 1.516 0.05 9.992 0.16 25.537 0 35.247zm-21.6 52.3c-2.669-0.077-5.336-0.343-7.58-1.137 0.016-18.805-0.4-32.451-0.379-50.028 10.136 1.242 20.229 0.138 29.562 0.758 0.421 14.257-0.507 33.3 0.379 51.165-7.58-0.48-14.57-0.54-21.98-0.75zm-37.14-89.821c0.584 9.531 0.279 23.871 0.379 36.763-16.766 1.622-30.695-0.385-45.101 1.137-0.206-14.797-0.173-24.826-0.379-37.521 15.92-0.095 27.66-0.254 45.1-0.38zm-45.1 40.171c0.212-0.546 0.591-0.925 1.137-1.137 17.445 0.743 28.651 0.706 43.964 0 0.742 17.433 0.347 38.76 0 54.197-13.652-3.127-28.55-4.9-45.101-4.169 0.25-13.85 0.77-31.5 0-48.89zm26.9 55.72c11.038 2.026 21.563 4.463 31.078 7.959 3.21 1.18 5.493 1.451 7.58 3.79 1.875-0.024 3.613-1.304 5.685-1.516 2.76-0.283 5.15 0.801 7.959 1.137 3.197 0.383 7.126 0.663 10.611 1.137 1.979 0.27 3.395 0.158 4.549 0.758-0.927 2.268-4.54 1.362-6.822 1.137-5.241-0.518-12.595-2.085-17.435-1.137-2.716 0.532-3.301 2.476-5.685 3.032-1.663-5.159-8.524-5.119-11.749-8.717-4.168-0.026-7.873-2.693-12.128-3.411-1.33-0.224-2.79 0.126-4.169 0-3.362-0.308-6.75-1.692-10.233-2.274-2.744-0.458-5.8-0.505-8.717-0.758-2.814-0.245-5.616-0.907-8.338-1.137-18.289-1.544-37.194-0.308-54.955 1.137 0.397-1.294 2.329-1.227 3.411-1.516 4.405-1.177 13.252-0.417 19.329-2.274 1.717-0.525 5.123 0.026 8.338 0 2.275-0.018 4.904-0.611 6.822-0.379 0.807 0.098 1.524 0.713 2.274 0.758 10.65 0.63 21.77 0.28 32.61 2.27zm-86.03 100.81c-2.307 0.253-7.354-3.847-9.096-0.379-0.688 1.37 0.811 2.923-1.516 3.032-0.463 1.727 1.04 1.487 0.758 3.032-1.47 0.045-1.915 1.116-2.653 1.895 0.202 2.198 2.82 1.981 3.411 3.79-7.35 1.241-13.172 4.009-19.708 6.064-7.854-3.896-15.218-8.28-22.74-12.508 15.03-8.973 33.546-14.459 50.407-21.603 0.612-0.106 0.652 0.358 1.137 0.379 2.71 4.81-0.35 10.45 0 16.31zm-8.72 3.03c2.918-0.461 5.835 1.524 8.717 2.274v1.895c-4.05 3.03-7.1-1.38-8.72-4.16zm3.04 6.82c-1.429 0.639-3.494-0.939-3.411-3.032 2.06 0.09 2.68 1.61 3.41 3.03zm-0.38-8.71c1.989-0.968 4.961 0.336 6.064 1.516-1.92 0.89-4.35-0.95-6.06-1.52zm-37.52-3.03c-1.955 0.571-2.966 2.087-5.306 2.273 0.731-4.053-1.587-7.101 1.516-9.854 0.579-0.514 2.293-0.395 3.032-1.137 0.403-0.405 0.093-1.456 1.516-1.138-1.59 2.55-1.84 6.59-0.76 9.86zm41.31-16.68c-5.831 2.854-13.387 4.895-20.087 7.58-2.507 1.005-4.978 3.06-7.58 3.41-2.848 0.384-6.045-1.681-8.338 0-0.276 2.045 2.94 0.598 3.032 2.274-2.126 0.526-3.732 1.574-5.685 2.274-2.794-3.869-0.077-9.798 2.653-12.508 6.485-0.042 11.845 1.042 14.402 4.928 2.117-2.283-1.926-3.499-2.653-5.307-6.498-2.851-10.779-7.918-16.676-11.37 0.301-0.836 1.781-0.492 1.895-1.516-1.003-5.565-3.68-9.459-4.927-14.781 1.303-0.086 1.651-1.127 1.895-2.273 2.707 0.433 2.112-2.437 4.548-2.274 1.125 1.903-0.289 3.171-0.379 4.927-0.276 5.383 3.014 10.067 1.895 15.539 0.112 0.773 1.025 0.743 1.137 1.517 1.422-0.473 2.474-1.316 4.548-1.138 3.771-9.73 6.663-20.191 6.064-33.352 1.304-0.591 2.9-0.89 4.927-0.758 2.814 3.25 4.848 7.28 5.685 12.507-4.741 1.062-8.691 0.62-10.991 4.169 1.721 2.574 6.555 2.035 8.717 4.169 2.892-0.354 1.862-4.534 0.379-5.685 1.191-1.166 2.82 0.446 3.79 0.758 3.167-1.191-0.701-4.302 0.379-6.443 1.861 0.545 3.422 2.053 4.927 3.411 1.252 1.131 3.311 2.639 4.169 4.169 0.896 1.598 0.657 3.723 1.137 5.686 1.267 5.182 3.526 11.174 2.274 17.055 0.087 1.303 1.128 1.651 2.274 1.895-0.64 1.06-2.25 1.59-3.4 1.12zm-34.49-1.14c1.444-0.674 3.491 1.301 4.169 2.653-1.42 0.53-2.61-2.08-4.17-2.65zm-0.38-0.38c-2.241-1.17-3.587-3.234-5.685-4.548 0.753-0.972 1.793 0.961 2.274 1.517 1.35 0.8 3.31 1 3.42 3.03zm31.08-60.26c0.535-1.514 3.301-0.979 5.306-1.137 1.129-0.088 3.572-1.624 3.79 0.379-2.92-0.01-6.66 0.78-9.1 0.76zm11.37 36.38c-0.401 3.348-5.908 4.695-7.58 1.517 0.498-1.453 2.964 0.182 4.927-0.379 1.09-0.17 1.18-1.34 2.65-1.14zm-4.93 10.24c0.323-0.07 0.358 0.147 0.379 0.379 25.496 1.136 43.241 0.133 67.461 1.895-10.375 1.049-23.921 0.185-34.489 0-11.496-0.2-21.114-0.207-32.215-0.379 1.356 2.946 5.814 1.048 9.096 1.517 0.556 0.927-0.158 3.203-0.379 4.548-3.495-0.123-6.244-0.673-8.717 0-0.01-3.03-1.04-5.03-1.13-7.97zm19.33-41.31c0.38-1.673 1.922-2.885 2.653-4.169 0.411 0.094 0.257 0.753 0.758 0.758-1.409 11.751-3.465 23.124-3.032 34.11 3.908 3.436 10.154 0.012 13.644 2.653-3.949 1.102-12.29 0.896-15.539-1.137 0.314-5.423 0.028-13.225 0.758-20.087 0.098-0.918 0.684-1.745 0.758-2.653 0.27-3.31-0.6-6.84 0-9.47zm36.76-4.55c2.964 3.403 0.379 14.964 0 18.192-0.414 3.511-0.05 6.825-0.379 9.854-0.312 2.878-1.452 5.408-1.895 7.959-10.379-2.223-20.501-0.248-31.835-1.516-0.772-5.097 0.23-10.411 0.758-16.297 0.44-4.912 0.618-12.193 3.032-14.781 1.637-1.755 10.538-4.448 14.402-4.927 2.97-0.35 14.72 0.14 15.93 1.53zm-12.13-13.64h1.516c0.08 1.24-1.78 1.49-1.52 0zm25.4 12.5c0.98-0.8 3.843-1.701 4.548-1.516 12.896 0.241 24.445 1.53 36.384 4.169 4.612 4.736 5.571 13.126 7.959 20.087-7.783 2.702-12.361 8.61-17.434 14.022-12.41-0.655-27.226-0.653-36.384 0.379 3.29-11.41 1.61-25.6 4.92-37.14zm-1.9-11.37c2.707-1.279 8.101-0.808 10.612 0.379-1.88 1.1-8.02 0.31-10.61-0.38zm11.75 0.76c1.221-0.955 2.081-0.77 3.79-0.758 9.981 0.072 20.164 3.649 28.425 5.685-1.749 2.143-4.251-1.227-7.201-0.379-0.345-0.666-1.328-0.693-1.895-1.137-7.38-0.36-15.35-2.3-23.12-3.41zm29.56 42.45c1.124-2.034 2.547-3.77 5.306-4.169 0.22 2.22-2.92 5.8-5.31 4.17zm-1.89 6.44c2.1-0.031 4.423 0.405 6.443 0.379 1.559-0.021 4.257 0.608 4.927-1.517-2.447-1.174-5.379 0.427-8.338 0 2.071-4.245 6.237-6.396 9.096-9.854 0.498 0.134 0.596 0.667 1.137 0.758-1.478 3.752 0.714 5.648 0.379 9.475-0.793 0.471-1.424 1.103-1.895 1.896-27.145 0.429-53.785 1.325-80.727-0.379 2.117-1.399 4.669-0.448 7.201-0.379 17.53 0.48 43.09-0.1 61.78-0.38zm-33.73 10.99c-1.743 0.888-6.519 0.146-2.274 0 0.71-0.02 1.46 0.02 2.27 0zm31.45 110.67c-0.792 1.667-2.78 0.684-4.169 0.758-16.979 0.915-34.395-0.309-52.302-0.379 1.345-1.431 3.708-0.744 5.306-0.758 16.3-0.14 34 0.23 51.16 0.38zm-33.73-2.65c2.264 0.517 6.729-1.171 7.201 1.138-2.405-0.249-5.806 0.499-7.58-0.379-0.06-0.45 0.09-0.68 0.38-0.76zm8.72 0.38c2.457 0.102 9.769-1.542 11.749 0.758-1.872-0.027-4.245 0.035-6.443 0-1.91-0.04-4.47 0.65-5.31-0.76zm14.02-0.38c2.002 0.146 4.758-0.462 5.306 1.138-1.75-0.4-5.28 0.98-5.31-1.14zm6.45 0.38c2.697-0.038 4.831-0.852 6.822 0.379-0.91 1.41-6.3 1.08-6.82-0.38zm-32.6 4.92c-0.281 0.073-2.433 0.775-3.411 0 0.42-0.76 2.93-0.43 3.41 0zm-27.67-1.13c6.987-0.112 15.527 0.928 22.361 0.759-1.671 1.368-4.323 0.758-6.822 0.758-6.411 0-16.155 0.298-21.224-0.379-0.388-1.846 2.896-0.332 4.169-0.379 0.61-0.03 1.15-0.76 1.51-0.76zm-1.51-1.52c0.285-0.504 3.705-0.95 3.411 0.379-1.14-0.96-2.26 0.41-3.41-0.38zm4.17 0c1.404-1.203 2.782-0.268 4.927-0.379-0.26 0.58-4.41 0.68-4.93 0.38zm12.88-1.89c-3.981-0.182-8.145-0.014-12.128 0-12.573 0.042-23.394 0.177-36.384 0-1.042 1.153 0.996 1.524 0.379 3.41 6.939 1.499 17.154-0.547 25.772 0.759-3.318 2.299-8.535 1.658-12.886 1.516-4.715-0.154-10.209-0.169-14.781-1.137-0.583-1.312-0.335-3.455-0.379-5.307 5.373-0.275 12.219-1.241 17.434 0.38 5.044-0.98 10.102-0.778 15.16-0.759 7.635 0.03 15.339 0.422 25.393 0.379-2.3 2.28-4.95 0.87-7.57 0.76zm-24.25 1.89c-0.163 0.848-1.868 0.153-2.653 0.379 0.16-0.85 1.86-0.15 2.65-0.38zm-10.61-0.38c-0.118 0.515-0.949 0.314-1.516 0.379 0.12-0.51 0.95-0.31 1.52-0.38zm-13.27-40.55h1.137c0.169 3.769 0.11 7.092 0 10.612-0.199 6.361 0.521 12.501-0.758 17.055 0.483 1.014 0.604 1.802 1.895 1.137-0.176 1.187 0.33 1.692 1.516 1.516-1.034 1.132-2.922-0.088-3.79-0.379-1.7-9.35 0.88-20.81 0-29.95zm19.33 31.08c0.753-0.902 4.139-1.15 5.306-0.379-0.41 1.58-4.23 0.59-5.31 0.38zm-3.41-31.08c-2.056-1.204-4.521-1.962-6.822-3.032-2.122-0.987-4.276-2.346-6.822-2.653 0.07-5.436-2.292-11.455-3.032-18.191-0.955-8.698-1.22-17.93-2.274-25.014-0.376-2.524-0.88-5.1-2.653-6.443 0.011-0.368 0.464-0.294 0.758-0.379 7.313 2.919 13.603 6.863 20.466 10.233 0.566 2.086 2.136 3.17 3.411 4.548 2.583 13.461 1.176 30.912 3.411 44.722-2.89-0.08-4.3-2.54-6.46-3.8zm-21.22-42.07c1.114 1.199 1.717 6.961 1.895 9.097 0.482 5.773 0.618 12.01 1.516 17.812 0.729 4.706 1.216 9.389 3.032 12.886 1.446 0.263 1.825-1.541 3.032-0.379 2.501 0.848 5.661 1.977 8.338 3.411 2.175 1.166 6.257 2.587 4.927 6.064-2.852 0.071-5.28-2.279-7.959-3.79-2.266-1.278-5.215-2.612-7.959-4.169-1.708-0.969-3.237-2.571-5.306-2.653-2.02-12.78-2.65-25.93-1.51-38.28zm3.79 89.44c32.095-0.382 70.13 0.054 104.6-0.379 1.959-0.025 4.303-0.078 6.443 0 1.199 0.043 4.632-1.108 4.927 1.516-0.289 2.111-4.037 1.219-6.822 1.137-21.3-0.628-42.341 0.534-64.051 0-12.999-0.319-27.805 0.597-41.69-0.379-1.334-0.094-3.619-0.025-4.548-1.137 0.38-0.24 0.39-0.87 1.14-0.76zm104.6-16.29c0.263-0.297 2.114-0.844 2.274 0 0.55 1.18-2.81 1.18-2.27 0zm6.82 12.88v-0.758h0.758v0.758h-0.76zm3.41-4.17c0.032-0.538 0.062-1.073-0.379-1.137 0.321-1.111 1.22 0.226 1.895 0 0.12 1-0.52 1.25-1.51 1.14zm-4.17-105.74c1.021 0.874 3.655 0.135 5.306 0.379-1.566 2.514-4.698 1.565-7.201 1.896-1.083 0.143-2.233 0.727-3.411 0.758-1.382 0.037-2.798-0.641-4.169-0.758-14.947-1.276-30.123 0.767-46.996 0-12.144-0.552-24.736-1.347-34.11-0.379-0.68 0.07-1.805 0.755-1.895 0.758-1.726 0.061-3.575-0.66-5.306-0.758-2.446-0.138-4.849 0.661-6.822-0.379-0.2-1.59 0.662-2.117 0.758-3.411 26.93-0.347 62.135 0.074 91.338 0 4.092-0.011 8.249 1.25 12.128-0.379 0.85 0.16 1.208 0.813 1.895 1.137 3.651-0.797 6.039-0.707 10.612-0.758 1.816 0.09-0.58 1.055-0.758 1.516 0.351 1.419 2.159 1.378 1.896 3.411-3.789 0.611-5.708-2.175-6.443-3.411-2.17 0.76-5.08 0.03-6.83 0.37zm1.52-3.41c-0.25 0.045-1.253 0.741-1.516 0.758-0.566 0.035-1.799-0.731-2.274-0.758-12.418-0.693-25.607 1.271-38.279 0 9.275-1.297 21.074-0.464 31.836-0.759 3.357-0.092 6.428-0.946 9.475-1.137 5.288-0.33 9.904 0.613 14.023 0.379 0.3-1.196 2.822-3.492 5.306-2.273-3.4 5.6-11.32 2.46-18.57 3.79zm16.68-29.94c-0.193-1.11-0.956-2.805-1.516-4.169-0.442-1.076-0.518-2.511-1.138-4.169-1.496-4.004-4.507-7.242-1.137-10.991 5.08 0.144 10.489-0.618 15.16 0 1.699 0.225 3.4 1.711 5.685 1.137-3.214 7.837-5.549 18.651-7.58 28.804-2.591-0.064-3.653 1.399-6.442 1.137-0.987-1.543-0.603-3.095-1.138-4.927-0.64-2.23-1.3-3.49-1.88-6.82zm-77.32-46.24c-14.991-1.302-30.977-0.917-45.48 1.516-0.933-17.377 0.016-37.511 0-50.786-0.901-0.111 0.421-1.025 0.758-1.137 12.933 1.588 32.091 0.091 44.722 0.379 0.08 18.5-0.75 31.57 0 50.03zm0-89.062c-0.491 10.464-0.449 26.856 0 37.142-13.035 0.005-30.621 0.09-45.48 0 0.603-11.079-0.173-26.881 1.137-37.521 13.58 1.048 31.02-0.288 44.34 0.379zm-9.1-32.973c0.808 3.366 1.644 6.74 2.653 10.612 0.237 0.91 0.939 2.08 1.137 3.032 0.529 2.549 0.189 5.421 0.758 7.959 0.761 3.395 2.754 6.311 3.032 9.475-10.231 0.454-30.243-0.547-42.827 0.379-3.551-11.865-7.004-25.839-9.475-37.521 13.568 0.013 29.439 0.109 42.448 0 1.71 1.349 1.77 3.947 2.27 6.064zm-53.44-43.206c13.476 0.492 29.051 0.8 42.069 0.379 4.042 10.486 6.499 22.558 9.096 34.489-12.373 1.245-29.32-0.43-42.827 0.758-3.462-10.94-6.979-23.846-9.475-34.489 0.22-0.545 0.6-0.924 1.14-1.137zm-47.37 0.38c15.139 0.317 25.714-0.072 42.827 0 1.988 5.601 3.635 11.686 5.306 17.813 1.618 5.933 3.735 11.84 4.548 17.434-15.117-1.098-28.348 0.175-43.584-0.758-3.553-10.597-5.417-22.881-9.096-33.352-0.46-0.498-0.16-0.597-0.01-1.137zm19.71 112.18c-15.443 0.358-25.932 0.289-39.795 0 1.077-11.43-0.333-25.348 0.758-36.763 4.735-0.807 9.931-0.052 15.16 0 1.483-0.599 0.785 0.984 1.516 1.137 0.923-0.381-0.743-1.676 1.137-1.516 6.809 0.681 13.469 0.144 21.224 0.379-0.21 12.121 0.11 24.683 0 36.763zm-38.281-38.656c-2.161-5.683-3.681-12.038-5.306-18.192-1.636-6.196-3.013-12.372-4.927-18.192v-1.137c11.242 1.049 26.315-0.267 36.384 0.758 3.543 12.501 7.506 24.583 10.991 37.142-13.61-0.807-24.01-0.499-37.141-0.379zm-20.087-70.115c-0.302-1.054-1.541-2.748-0.379-3.79 10.809-0.267 22.892 0.392 35.625 0.379 1.68 1.352 1.648 4.416 3.032 6.064 1.578 10.424 4.928 19.075 7.201 28.804-10.57-0.737-25.592-0.085-36.384-0.758-2.969-9.751-6.249-20.769-9.094-30.699zm16.676 160.7c-9.309 0.12-18.86-0.262-27.288-0.379-2.318-0.032-4.973 0.604-7.201-0.379-0.034-15.352-0.574-29.404-0.758-48.512-0.017-0.648 0.281-0.981 0.758-1.137 10.807 0.498 22.396 0.329 34.489 0.379 0.199 14.09-0.174 34.61 0 50.03zm0-51.93c-12.66 0.24-22.148-0.52-34.868-0.379-0.615-11.514-0.645-25.632 0-37.142 11.508 1.06 23.985-0.267 34.868 0.758 0.39 12.21-0.059 25.044 0 36.764zm-35.247-39.414c-0.114-17.635 0.08-32.223-0.379-47.754 0.112-0.336 1.026-1.659 1.137-0.758 5.82-0.085 14.557 0.061 21.603 0 5.323 14.953 9.006 32.055 14.023 48.891-11.819 0.063-25.7-0.059-36.384-0.379zm76.939 92.094c-13.514 0.078-25.538-1.512-39.795-0.379-0.025-19.922 0.655-31.507 0-50.028 16.345-0.623 23.982 0.258 39.795-0.379 0.17 19.3-0.59 34.07 0 50.79zm-6.07-115.59c-1.312-4.141-3.448-7.73-3.411-12.507 12.063-0.146 29.37 0.013 43.206 0 3.229 12.597 5.859 24.43 9.854 36.763-16.018 0.814-26.667-0.269-42.069 0.379-3.66-7.8-5.12-16.883-7.58-24.635zm48.89 63.672c-11.643-0.23-25.41-0.422-40.553-0.379-0.501-11.667-0.68-24.243 0-37.142 13.411 0.653 25.174-0.501 40.932 0.379-0.23 12.38 0.23 25.993-0.38 37.143zm-11.37 68.98c2.203-0.189 4.445-0.2 7.58-0.758 2.364-0.421 9.655-0.816 13.265-1.516 3.96-0.768 8.142 0.249 12.128 0 3.311-0.207 7.112-2.908 9.854 0-8.147 1.089-16.006 0.849-23.498 1.516-2.14 0.191-3.989 1.128-6.064 1.137-0.654 0.003-1.574-0.432-2.274-0.379-3.761 0.283-8.712 1.716-13.644 2.274-1.669 0.188-4.225 1.456-4.169-1.516 2.05 1.42 4.44-0.55 6.81-0.75zm-12.5 18.19c2.174 0.604 5.238 0.32 7.959 0.379-0.137 6.764 0.146 11.775-1.516 16.676-1.303 0.166-2.125-0.15-3.032-0.379-0.968 0.042-0.752 1.269-0.758 2.274-2.465-0.197-2.844-3.167-4.927-2.653-0.391-4.494-5.594-5.481-3.79-10.991 1.518-0.563 3.642-1.473 2.653-3.411 1.81 0.03 3.39-0.15 3.42-1.9zm-32.97-2.27c2.233-0.799 2.572-3.492 4.548-4.548 1.569 0.326 0.686 3.104 3.032 2.653 0.307-0.072 0.377-0.38 0.758-0.379 0.194-2.236-1.431-2.113-1.516-3.79-0.213-4.227 4.658-5.406 5.306-0.379 2.197 0.562 3.366-0.193 4.548-1.516 1.777 0.497 4.159 0.389 6.443 0.379 0.927 0.894-0.566 0.705-0.379 1.895 1.15 2.05 6.608-0.053 4.169-1.516 0.408-0.626 2.625 0.13 3.032 0.758-0.014 1.502-1.219 1.813-1.895 2.653 0.488 1.946 4.25 3.25 1.895 5.685-1.79 0.021-2.081-1.456-3.411-1.895-2.444 1.639 1.375 2.344 1.137 4.169-2.347 0.451-2.858-0.932-3.79-1.895-1.28 0.362-2.332 0.953-2.653 2.274 0.222 1.294 1.239 1.792 3.032 1.516 0.715 1.444 0.168 3.289-0.379 4.548-3.454 1.613-7.56-0.798-10.991-1.516-0.466 0.165-0.778 0.485-0.758 1.137 0.068 1.953 3.222 0.82 3.79 2.274-0.753 2.153-4.02 1.792-4.927 3.79-0.064 0.948 0.582 1.187 1.137 1.516 2.524-0.507 3.062-3.002 5.685-3.411 0.82 6.431-0.94 12.4-1.895 18.192-1.948-1.463-2.569-4.253-3.79-6.443 1.063-1.021 2.269 1.859 3.79 0.379 0.386-2.407-2.43-1.612-1.895-4.169-1.964-1.193-3.366-2.95-4.169-5.306-4.093-2.981-7.66-6.489-10.612-10.612 0.11-2.29 0.81-3.99 0.76-6.44zm-42.832 82.62c-0.959-4.839-5.475-8.446-4.927-13.644 0.203-1.924 1.794-4.193 2.653-6.064 0.917-1.998 1.689-4.082 3.032-5.685 0.008-3.11 1.65-6.296 2.274-8.717 1.089-4.229 1.223-8.879 2.274-12.886 0.963-3.67 3.614-6.207 4.548-9.476 5.376-4.856 11.459-9.006 19.708-10.991-1.916 6.548-2.579 14.35-4.169 21.224 0.511 1.145 1.611 1.925 3.032 1.137 0.274 0.862 0.338 1.937 0.758 2.653 2.604 0.964 4.015-1.381 5.685-2.274 1.855-0.992 4.601-1.25 5.306-3.79-1.314-2.114-5.47 0.94-6.822-1.137-0.775 1.246-2.694 1.349-4.548 1.516 0.48-3.592 0.568-7.046 1.137-10.232 1.464-8.208 5.065-14.172 9.475-19.329 1.583 6.629 7.836 8.587 10.991 13.644-1.076 4.862-4.209 7.667-7.959 9.854-0.938-6.517-2.689-12.218-3.79-18.571-1.799 1.576-0.996 4.566-0.758 6.443 0.386 3.05 1.559 6.18 2.274 9.096 0.798 3.258 1.009 6.766 1.895 9.854 0.211 0.736 0.88 1.21 1.137 1.895 0.208 0.553-0.154 1.322 0 1.895 0.661 2.45 2.143 4.613 2.653 6.822-2.174 1.176-5.728-3.937-7.58-0.758 4.223 4.367 9.865 7.316 14.023 11.749-3.903 0.267-5.281 3.058-7.959 4.548-2.655-1.332-7.503 0.523-10.991 0.758 0.204-1.34-0.321-1.952-1.137-2.273-1.686 0.968-2.109 3.197-4.927 3.031-0.595 1.356 0.392 3.174-1.516 3.79-3.579-1.354-6.542-4.989-10.612-4.169-1.548 0.312-2.974 2.199-4.169 3.411-1.204 1.222-2.838 2.582-3.032 4.169 0.212 0.546 0.591 0.925 1.137 1.138 2.193-1.977 3.97-4.368 6.064-6.443 3.878 0.29 6.552 1.786 9.475 3.032-1.591 2.325-4.524 3.309-6.064 5.685-2.129 0.771-3.906 2.405-6.064 3.411-2.053 0.957-4.741 1.082-6.064 3.032 2.665 2.921 6.589-1.392 9.475-1.896 5.309-4.039 10.721-7.976 14.781-13.265 2.835-0.828 6.374-0.953 9.475-1.516-0.828 3.619-4.802 7.306-6.443 11.369-0.105 2.128 3.109 0.935 2.653 3.411 0.051 1.299-1.523 0.839-2.274 1.137-3.072 1.222-7.187 2.35-11.749 3.411-6.182 1.44-15.249 2.79-22.363 0zm-17.813 108.01c0.262-0.748 1.011-1.01 1.895-1.137 0.055 1.07-0.928 1.1-1.895 1.14zm9.854-4.17c0.514-1.381 2.209-1.58 3.411-2.273-1.166 0.73-1.697 2.09-3.411 2.27zm3.79-2.65c0.56-0.956 1.465-1.566 2.653-1.896 4.333-4.005 7.4-9.275 11.37-13.644-2.156 6.36-8 11.84-14.023 15.54zm31.456 57.61c-2.161-1.84-5.495-0.258-7.201-2.274 3.417-0.781 5.331 1.737 8.717 1.138 0.16 1.04-1.412 0.35-1.515 1.13zm6.445-16.3c1.195 4.463-1.699 7.822-3.032 10.991-2.436-0.218-3.413-1.894-5.685-2.274-0.91-2.122-1.19-4.874-3.032-6.063 0.65-9.029 0.974-18.745 0.758-28.425-0.065-2.9-0.594-5.969-0.379-8.339 0.253-2.792 1.1-6.155-1.516-7.959-1.179 1.486-0.396 3.58-0.379 5.307 0.133 13.057 0 25.961-0.758 40.174 1.424 2.239 2.913 4.414 3.411 7.58-4.851-1.462-8.514-0.432-13.644 0.379-1.398-1.711-0.57-4.1-0.758-6.064-0.215-2.249-0.983-4.332-1.137-6.442-0.176-2.416 0.373-4.603 0.379-7.201 0.009-3.422-0.649-6.848-0.379-10.233 1.076-13.493 3.149-26.505 4.548-37.521v-1.137c4.263 0.27 6.959 4.18 10.233 6.063 3.794 2.184 8.042 2.14 12.886 3.79-0.535 9.659-1.879 18.559-3.79 27.667-2.291-1.246-0.933-6.142-3.411-7.201-1.734 0.966-0.267 3.184 0 4.169 0.965 3.566 3.23 7.684 3.79 12.128 2.29 1.55 5.3 8.09 1.89 10.6zm15.54-44.72c-3.027 1.268-9.322-0.731-11.749 1.137-0.994-0.896 0.159-2.852 0.379-3.79 4.049 0.397 8.082-0.116 11.37 0.379v2.27zm16.29-9.48c-1.344-28.858-5.219-55.48-12.128-79.968-3.525 1.731-0.235 5.572 0.379 7.959s0.938 5.053 1.516 7.579c0.516 2.253 0.769 4.544 1.516 6.443 0.399 1.662-1.282 1.245-1.137 2.653-1.998 14.179-1.72 29.562-3.032 45.101-0.486 5.758-0.769 11.049-3.411 14.781-7.051 0.47-12.935 0.011-18.95-1.517-2.325-0.59-5.034-0.956-6.822-1.895-1.574-0.826-3.069-2.465-4.548-3.411-1.835-1.175-3.22-2.093-5.306-2.653-0.043-0.967-0.071-1.95-1.137-1.895 1.711-7.155 2.38-13.438 4.169-20.845 0.546-2.264 1.691-4.174 2.274-6.443 0.598-2.332 0.157-4.917 0.758-7.201 0.592-2.254 2.648-5.604 3.79-7.959 1.218-2.511 3.069-5.401 2.274-8.338-3.743 1.689-3.434 7.431-6.443 9.854 0.719-5.598 0.186-12.448 2.653-16.298 5.31 0.628 9.017 2.858 12.886 4.928 1.842-1.67 3.443-7.284 1.895-9.854-2.465 0.44-1.343 4.469-2.274 6.443-3.544-0.943-9.218-3.186-14.402-4.548 1.208-6.644 3.027-12.106 0.758-18.571 6.277-0.293 11.405-1.733 15.16-4.548 8.798 3.708 16.485 8.528 23.877 13.644 7.218-2 14.179-4.99 20.466-6.821 3.976 7.52 3.451 19.541 6.822 27.667-0.638 3.467 1.339 5.934 1.895 8.717 0.853 4.268 0.986 9.295 1.516 14.022 0.358 3.195 1.494 6.534 1.516 9.476 0.027 3.585 0.241 8.262 0.758 12.507 0.37 1.634-1.424 1.103-1.516 2.273-0.931 0.797 1.226 1.942 0 3.032-9.16 1.37-17.16 3.85-25.81 5.69zm170.17 10.99c-39.882-0.278-81.406-0.036-116.35-0.379-6.269-0.062-12.513 0.447-18.571 0-6.138-0.453-14.571-0.961-21.982-0.758 0.619-2.402-1.078-4.033-0.379-5.306 3.13 1.005 6.619-0.126 9.854 1.137 5.026-0.812 10.671-0.251 16.297-0.379 40.384-0.921 90.19 0.158 130.76-0.379 0.03 2.22 0.65 4.25 0.37 6.07zm-17.05-16.29c4.726-0.177 8.906 0.189 12.508 1.137 1.169-0.1 2.314-1.363 3.031-0.758-0.158 2.812 1.082 4.225 0.759 7.201-4.302-0.879-7.653-2.706-11.37-4.169 0.487-0.901 2.461-0.318 2.652-1.516-1.67-2.05-6.66 1.19-7.58-1.89zm20.85 13.26c-2.36-5.466-1.053-12.776-1.517-18.949-0.107-1.433-0.832-2.826-0.758-4.169 0.269-4.812 3.634-8.696 4.169-12.507 0.44-0.062 0.675 0.083 0.758 0.379 0.054 6.423-2.287 12.322-1.895 18.57 0.092 1.467 0.748 3.013 0.758 4.548 0.02 4.07-1.23 8.14-1.52 12.13zm9.47 59.13c3.619-0.707 8.956-1.613 12.128-1.516-2.17 1.63-9.71 4.99-12.13 1.52zm15.92-27.29c0.002 4.911-2.196 9.663-2.653 14.781-0.295 3.309 0.454 6.54-1.137 8.717-3.9 0.521-7.617 1.227-11.749 1.517-1.449-17.309 0.061-32.507-1.137-47.754-0.236-3.002-0.537-6.426-1.896-9.097-2.058 2.881-0.43 6.526 0 9.854 1.037 8.032-0.21 16.112 0 25.014 0.106 4.492 0.827 10.165 0.759 15.918-0.02 1.628 0.639 4.523-1.138 5.306-2.69-0.708-1.82-5.885-2.273-9.096-0.256-1.809-0.99-3.521-1.138-5.306-0.248-3.019 0.465-5.688-1.137-7.58 0.522-7.29-0.331-16.571 0-25.771 0.072-1.57 2.002-1.283 2.274-2.653 0.09-1.48-1.408-1.372-2.274-1.896 1.309-5.763 0.379-10.277 2.274-16.297 5.634 1.946 13.566 1.594 19.708 3.032 0.423 2.417 1.158 4.572 0.379 7.201-2.321 0.3-0.042-4.001-2.274-3.79-2.902 1.994 1.799 6.829 0.379 9.854 0.007 1.636 1.889 1.397 1.896 3.032-0.031 5.988 2.006 15.733 0 22.361-0.32 1.37 1.93 2.1 1.14 2.67zm0.38-39.42c-0.631-0.754 0.034-0.482 0-1.517 1.46-0.29 1.46 1.82 0 1.52zm9.09 9.86c-0.534-1.193-1.467-2.406-0.758-3.79 1.478-0.087 1.965 0.814 3.032 1.137-0.28 1.35-0.87 2.4-2.27 2.65zm3.41-3.79c-2.039-0.108-3.079-1.216-4.927-1.516 0.035-2.057-1.201-2.841-1.137-4.928 4.943-0.067 6.989 0.76 11.749 1.138-1.78 1.87-3.77 3.55-5.68 5.31zm20.09-0.76c-2.371-1.563-5.712-1.994-7.201-4.548-1.567 0.052-2.17-0.862-3.031-1.517-6.147-1.121-12.996-1.868-19.329-3.031-7.173-1.318-14.542-1.731-21.982-3.032-1.886-0.497-1.612 1.167-3.031 1.137-0.784-4.762-0.268-9.708 0.379-14.401 0.201-1.463 0.998-2.815 1.137-4.169 0.274-2.682-0.437-5.521 0-9.097 0.806-6.602 2.895-13.723 4.548-20.087 0.877-3.373 0.764-6.378 2.653-8.717 2.199-0.327 5.303 0.25 5.685-1.895-2.763-1.964-7.233-0.546-8.717 1.516-1.058 1.47-1.392 5.04-2.274 7.959-0.847 2.805-2.646 8.24-3.41 12.128-0.719 3.649-0.756 7.171-1.896 9.854-0.484 1.031-1.837 1.195-2.273 2.274-0.305 1.314 0.564 1.457 0.379 2.653-3.612 5.862-4.903 14.047-7.959 20.466-6.108-0.565-11.743-1.191-18.192 0-0.6-2.415 1.303-4.277 1.895-6.443 0.411-1.502 0.016-3.049 0.379-4.548 0.426-1.754 1.705-3.171 2.274-4.927 1.187-3.662 2.067-7.676 3.411-11.37 0.661-1.817 1.321-3.584 1.896-5.306 0.637-1.912 0.877-3.763 1.516-5.686 0.571-1.722 2.038-3.188 2.653-4.927 1.604-4.543 2.251-9.505 3.79-14.023 1.537-4.515 3.71-8.432 4.927-12.886 1.029-0.486 1.091-1.941 2.273-2.273 2.413-12.367 7.164-22.312 12.887-31.836 0.445-0.741 1.566-1.595 1.895-2.274 0.486-1.006 0.209-2.132 0.758-3.032 1.782-2.919 7.071-6.331 4.169-12.128-1.668 0.101-1.155 2.382-1.895 3.411-1.486 1.799-3.929 2.641-5.686 4.169-6.14 0.398-10.73 3.073-15.159 5.686-2.646 1.56-7.111 2.897-6.064 6.442 2.157 0.137 2.403-1.64 3.411-2.652 5.619-3.864 13.502-7.46 20.466-8.718-0.299 1.597-0.927 2.863-1.895 3.79-1.441 0.522-3.49-0.41-4.169 1.517-0.114 1.882 0.475 3.062 1.516 3.79-0.447 1.195-1.179 2.105-1.896 3.031-2.376-0.648-4.358-0.202-6.442 0.38-1.897 0.129-2.094-1.444-4.169-1.138-1.331 4.254 5.485 4.774 8.338 4.928-1.314 2.98-2.411 6.18-4.169 8.717-1.418-0.351-1.649-1.888-3.032-2.274 0.49-1.531 3.604-0.438 4.548-1.516 0.168-1.431-0.747-1.779-1.137-2.653-5.011 0.611-8.949-2.508-12.507-4.548-1.15-5.417 0.741-9.73 5.685-10.991 0.275-1.159-0.653-1.114-0.379-2.273 6.052-1.023 9.783-4.366 15.539-5.686 1.847 0.35-0.988 1.518 0.758 2.274 2.139 0.022 2.131-2.688 3.411-4.169 1.019-1.179 3.57-2.437 5.306-3.79 6.408-4.997 12.495-11.231 23.119-6.822 2.925-0.019 5.968-0.156 7.959 0.758 0.839-2.06 1.338-2.364 3.79-3.79 3.159-1.836 2.776-1.677 6.443 0 3.645 1.667 7.461 4.902 10.232 6.822 0.504-0.936-0.893-1.742-1.516-2.653-1.297-1.896-2.468-3.947-4.927-4.927-0.918-0.724-1.842 0.413-3.032-0.379 2.5-3.847 8.188 0.428 9.854 2.274-0.062-1.72 0.813-2.982 0.379-4.928 1.148-0.514 3.126-0.61 3.79 0.38 0.399 1.409-1.277 0.742-1.516 1.516 0.187 1.119 0.598 3.873-0.379 5.685 2.764 0.363 2.683-2.117 4.927-2.273 1.256 0.513 0.876 2.661 1.896 3.411 0.785 0.225 2.489-0.469 2.652 0.379 1.257-0.134 1.645-1.136 2.274-1.896 1.666 1.656 3.392-2.118 4.169 0-2.356-0.209-2.681 1.614-3.032 3.411-2.576 2.099-4.825 4.523-8.717 5.306-0.146-2.041 1.883-1.907 1.516-4.169-2.19-0.169-1.89 2.153-3.79 2.274-0.973-2.059-4.285-1.778-5.685-3.411-6.124-0.586-11.712-3.682-17.434-3.411 0.965 2.092 4.164 2.538 6.442 3.032 4.585 0.994 9.805 1.947 14.402 3.79 0.068 3.974 3.873 4.212 4.548 7.58-1.834 0.528-9.544-1.524-10.612 1.895 4.399-0.118 11.184-0.702 15.918 0.758 1.188 1.087 2.277 2.271 4.548 2.274 3.351 4.609 5.566 10.352 7.959 15.918 3.946 0.602 6.322 2.774 9.476 4.169-0.256 2.379-3.4 4.682-1.517 6.822 2.876-1.293 5.258-3.081 6.064-6.443 1.518-1.24 2.599 0.488 3.79 0.758 2.359 0.158 5.602-0.622 8.338-0.379 2.86 0.255 8.059 2.007 7.58 5.306-0.234 1.611-4.426 3.592-6.822 4.928-4.927 2.747-9.436 5.064-13.265 8.338-6.472 0.324-12.159-0.974-17.055-1.516-0.117 1.627 3.263 2.261 5.685 2.652 2.122 0.344 4.853 0.184 6.822 0.379-1.245 1.54-4.179 4.234-6.822 4.548-10.303 1.223-23.455 1.122-27.667 9.476-4.349-0.306-6.176 1.909-9.475 2.652-0.624-2.281-1.364-4.447-1.138-7.58 3.835-2.492 11.402-2.375 16.297-2.652 1.465-2.852 0.675-9.489 1.517-14.023 5.748 0.591 13.196 3.537 19.708 3.79 2.974 0.116 7.293-0.062 8.717-3.032-2.175-1.025-3.938 0.905-6.064 1.138-5.448 0.596-13.566-2.071-17.812-3.032-1.493-0.338-2.989-0.075-4.169-0.379-0.614-0.158-0.907-0.942-1.516-1.137-2.344-0.748-5.004-0.589-6.443-2.274 0.303-1.592 2.029-1.761 2.274-3.411-2.313-1.12-5.572 3.366-7.201 0.758-1.401 0.521 0.07 1.562-1.138 2.274-4.37 1.946-10.265 3.161-14.78 4.927-1.953 0.764-4.687 2.136-4.927 4.548 3.937 1.324 8.533-2.354 12.128-3.79 3.392-1.354 6.948-2.262 10.232-3.41-3.003 2.962-6.803 5.493-10.991 7.58-3.922 1.954-9.132 2.918-10.99 7.2 1.784 2.006 4.135-0.282 5.685-1.137 4.899-2.699 10.571-5.67 15.539-8.338-5.313 6.688-11.58 12.423-18.95 17.055 2.452 2.605 6.021-2.228 8.338-3.411 0.344 5.188 3.095 10.36 1.138 15.539-2.845-0.818-4.021-3.307-7.201-3.79-0.695-1.073-0.315-3.223-1.896-3.411-1.819 0.54-0.179 3.546-0.379 4.928 2.604 0.554 4.879 1.438 6.443 3.031v5.307c-2.884-0.4-2.005-4.565-4.927-4.928-0.071 4.176 3.374 6.762 5.306 9.854 3.157 5.058 5.957 10.723 6.822 18.571 0.605 5.494 0.118 12.861 1.895 17.812 0.405 1.416-0.941 1.08-0.758 2.274 1.625 3.554 1.987 8.372 2.653 12.886-2.47-0.2-3.37-2.51-5.33-3.8zm-26.15-182.3c0.411-2.363 2.13-6.118 0.758-10.612 0.134-0.498 0.667-0.596 0.758-1.137 0.305 0.201 0.615 0.395 1.137 0.379 0.003 12.729-2.963 24.739-4.927 37.142-0.443 2.799 0.356 7.203-3.032 8.338 0.062-2.097 0.329-4.39 0.759-6.443 1.735-8.311 3.487-16.509 4.548-24.635 0.12-0.97-0.18-2.05-0.01-3.04zm7.58-10.61c1.483-0.22 2.2 0.326 3.031 0.758 0.064 13.83-5.486 28.963-3.41 43.585-0.861 0.749-2.118-0.403-3.79 0 1.48-15.38 4.4-28.89 4.17-44.35zm7.58 45.86c-1.158 0.882-3.079-0.008-4.17-0.379 1.557-14.851 4.099-29.932 4.928-44.343 1.007 0.004 2.164-0.143 2.652 0.379 0.026 8.17-1.128 16.426-1.895 25.772-0.357 4.35-2.16 8.578-2.274 12.127-0.07 2.29 1.45 4.32 0.76 6.44zm8.72-42.45c-0.562-0.166 0.149-0.485 0-1.137h0.758c1.518 0.895 0.898 4.495 0.758 7.58-0.457 10.062-2.95 19.468-2.273 29.183-0.551 0.208-1.959-0.442-1.896 0.379-1.437-2.938 0.011-6.564 0.379-10.232 0.261-2.593-0.065-5.24 0.379-7.959 0.427-2.608 0.653-6.619 1.138-9.854 0.43-2.93 1.36-5.42 0.75-7.96zm4.55 26.15c2.524 1.865 2.025 7.741-1.137 9.096-0.02-3.43 1.6-5.23 1.14-9.1zm2.27-26.53h2.274c0.381 5.388-0.831 15.823-0.758 19.708-1.001 1.652-2.253 3.053-3.032 4.927-0.79-8.68 2.24-16.34 1.52-24.64zm26.15 26.15c1.196 1.096 3.848 2.135 4.927 3.411 1.523 1.801 2.141 4.648 3.411 6.821 0.844 1.444 2.604 2.284 2.274 4.17-2.162 1.446-5.637 1.125-8.718 0.758-0.967 0.044-1.949 0.071-1.895 1.137-1.529-0.472-1.913-1.504-3.79-0.758-1.189 0.179-1.001-1.021-1.896-1.137-7.752-0.965-12.886-4.548-18.191-7.959 0.18-4.087-2.959-7.005-0.379-10.233 10.3-2.67 18.38-1.6 24.26 3.79zm-18.19-15.54c0.561-2.283 0.315-4.459 0.759-6.064 1.76 0.25 0.95 5.73-0.76 6.06zm6.44 8.34c0.178-4.646 0.166-12.703 1.895-17.055h1.138c-0.321 5.743-0.575 11.553-1.138 17.055h-1.89zm9.1 3.41c-0.788-0.222-1.225-0.796-1.895-1.137 1.291-3.038 0.153-7.784 1.895-10.612 0.86 3.39-0.85 9.4-0.01 11.75zm4.92 0.76c-0.463 1.727 1.04 1.487 0.759 3.032-0.834-0.682-2.017-1.016-2.653-1.895 0.568-6.904 1.695-14.779 1.895-20.845h0.759c1.821 1.633 0.364 4.618 0.379 6.822 0.02 3.8 0.31 9.11-1.15 12.88zm6.07 8.34c-3.459-1.139-1.719-6.236-1.516-10.233 0.268-5.299 0.453-12.366 1.137-15.918-0.106-0.612 0.357-0.653 0.379-1.137h1.137c0.44 9.05-1.62 16.74-1.14 27.29zm4.54-9.1c0.184-5.322 1.12-11.053 0.758-16.297 0.134-0.498 0.668-0.596 0.759-1.137 1.158-0.273 1.381 0.388 2.273 0.379-1.534 8.83-1.261 22.196-1.895 29.562-4.515 0.729-1.774-4.052-1.517-6.443 0.22-2.04-0.44-4.3-0.38-6.06zm5.31 21.6c-1.962 1.641-5.854-0.826-9.475 0 2.38-2.54 6.52 0.63 9.47 0zm-21.6 0.76c-0.21 0.898-1.466 1.572-2.274 0.758 0.04-0.97 1.26-0.75 2.27-0.76zm22.36 3.41c3.197 1.057 6.074 0.165 9.475 0.759 1.294 2.453 0.213 5.057 0.379 8.338 0.3 1.596 3.053 0.737 4.169 1.516-4.526 1.042-9.823-0.435-13.644-0.379-0.74-2.68-0.32-8.1-0.38-10.24zm1.89-41.31v-1.137c0.44-0.062 0.675 0.083 0.758 0.379 1.916 1.125 0.48 3.694 0.379 5.685-0.36 7.069-0.029 16.043-1.516 23.498-2.263-1.045-0.532-3.702-0.379-5.685 0.53-6.82-0.53-16.46 0.76-22.74zm4.93 14.03c-0.058-4.051 0.702-9.306 1.138-14.023h1.137c-0.304 10.64-0.36 19.565-0.758 29.562-1.762-0.327-1.436-2.785-1.517-4.168-0.24-4.21 0.05-7.8 0-11.37zm3.41 24.63c-1.449 2.732-4.177-1.122-7.58 0 2.14-2.54 4.28 0.78 7.58 0zm10.24-25.39c0.44-0.062 0.674 0.083 0.758 0.379-0.684 5.21 0.254 11.058-0.379 14.781-2.207-0.488-0.761-3.196-0.758-4.927 0-3.11-0.72-7.27 0.38-10.23zm0-11.37h1.516c-0.634 2.146 0.376 5.935-1.137 7.201-2.01-1.3 1.04-5.18-0.38-7.2zm0.75 29.56c-0.203 0.893-1.793 0.231-0.758-0.379 0.31 0.07 0.38 0.38 0.76 0.38zm4.55 10.99c0.673 0.185 1.416 0.949 2.274 1.137 0.65 0.142 1.677-0.205 2.273 0 0.887 0.304 1.706 1.225 2.653 1.516 1.617 0.498 4.221 0.468 6.442 1.517 2.68 1.264 4.785 4 7.959 4.169 2.746 2.939 6.733 4.637 9.854 7.201 1.073-0.063 1.579-0.695 2.653-0.759 0.534-3.112-0.129-4.351 0.379-7.2 2.021 1.642 0.79 6.536 1.137 9.854-1.721 0.321-3.462 1.708-5.685 1.137-1.468-0.377-3.018-3.503-5.307-5.306-0.554-0.436-1.55-0.288-2.273-0.758-0.727-0.471-1.163-1.781-1.896-2.274-1.157-0.778-2.916-1.36-4.548-2.273-1.401-0.785-3.026-1.521-4.548-2.274-2.319-1.148-4.583-1.975-7.201-3.032-0.687-0.276-1.488-1.03-1.895-1.137-1.842-0.483-3.725-0.393-5.686-1.137-0.289-0.109-0.493-1.028-0.758-1.137-0.538-0.221-1.363 0.232-1.895 0-0.458-0.201-0.646-0.348-0.759-0.38-0.813-0.229-2.022 0.177-3.031-1.137-0.951-0.312-3.264 0.737-3.032-0.758 4.53 0.34 8.75 1.88 12.92 3.03zm1.52-39.79h0.758c1.896 0.883 0.53 3.95 0.379 6.064-0.447 6.232 0.046 14.636-0.379 21.982-0.067 1.155 0.759 3.575-1.138 3.79-1.673-1.463-1.128-5.112-1.137-8.338-0.02-7.33-0.05-16.32 1.52-23.49zm6.44 14.02c0.091-4.322 0.973-8.759-0.758-12.507-0.106-0.612 0.358-0.652 0.379-1.137 0.913-0.155 0.824 0.692 1.896 0.379 0.816 11.071 0.247 22.716 0 33.73-2.991-1.255-1.167-5.053-1.138-7.2 0.06-4.67-0.47-8.74-0.38-13.26zm7.58 22.74c-2.139-3.81-1.516-9.121-1.516-14.023 0-6.681 0.251-12.785 0.379-19.708 0.134-0.498 0.667-0.596 0.758-1.137 0.612-0.106 0.652 0.358 1.137 0.379-1.18 9.75 0.16 21.7-0.76 34.49zm4.93-34.49h0.758c2.042 1.147 0.395 4.152 0.379 6.443-0.059 8.85 0.419 20.996-0.379 30.32-1.088-0.599-1.024-2.143-1.137-3.032-0.216-1.709-0.286-3.688-0.379-5.686-0.351-7.542 0.173-17.397 1.516-25.771 0.18-1.19-1.17-0.85-0.76-2.27zm5.68 1.52c-0.455-0.498-0.148-0.596 0-1.137h0.758c2.429 1.292 0.805 4.512 0.758 6.443-0.167 6.896 0.258 16.657 0 26.909-0.039 1.555 0.627 3.708-0.758 4.927-1.131-0.996-1.039-2.831-1.137-4.169-0.392-5.338 0-9.704 0-14.023 0-3.228 0.731-6.53 0.379-9.854-0.075-0.704-0.082-1.387-0.379-0.758-0.688-0.705 0.231-0.699 0.379-1.516 0.38-2.09-0.78-5.41 0-6.82zm-12.51 68.59c-3.011-3.635-7.312-2.622-12.127-1.516-0.551 1.344-0.17 3.621-1.138 4.548-3.575 1.094-4.792-1.919-6.821-1.138-0.004 4.53 8.232 1.692 11.748 3.79-1.971 2.198-4.567 3.771-8.338 4.169-0.822-6.337-8.851-6.77-15.159-6.442 1.258-3.09-0.365-7.654 0.758-11.37h3.79c0.821 0.063 0.172-1.345 0.379-1.896 2.99-0.915 4.958 0.637 6.442 2.274 2.349-0.117 6.215 0.189 8.718 0 0.292 1.683-1.254 1.525-1.896 2.274 1.222 2.563 4.799 0.848 8.338 1.137 2.237 0.183 3.92 1.306 5.686 1.516 0.192 2.082 2.182 2.366 2.652 4.169-0.087 1.303-1.128 1.651-2.273 1.896-1.16-1.01 0.12-2.11-0.76-3.41zm-19.7-27.28c-0.882-0.568-0.579-0.927-0.379-1.895 1.59-0.14 0.27 1.24 0.38 1.9zm1.89 9.47c0.361 1.07-2.465 1.872-2.273 0.38 0.45-0.43 1.34-0.43 2.27-0.38zm-2.27-7.58c0.389 1.273-1.18 0.59-1.896 0.758 0.32-0.56 1.22-0.55 1.9-0.76zm1.14 10.23c0.317 1.072 0.439 2.34 0.758 3.411-2.665 0.948-5.242-0.565-6.064-3.411 1.61-1.76 3.12 1.32 5.3 0zm-14.03-2.27c1.441-1.718 6.026-0.291 8.717-0.759-1.86 1.17-6.35 2.46-8.72 0.76zm8.34 6.07c-1.269-0.247-1.417-1.614-2.273-2.274 0.58-0.56 2.44 0.81 2.27 2.27zm-2.65 0.37v1.137c-0.305-0.2-0.615-0.396-1.138-0.379 0.072-0.307 0.381-0.378 0.38-0.758h0.76zm-2.28-3.79c0.425 1.194 0.034 0.858 0 2.274-1.702-0.572-2.455-2.093-4.927-1.896 0.32-1.26 3.05 0.11 4.93-0.37zm13.27-9.47c0.386-1.51 0.553-3.238 0.759-4.927 1.175 1.069 2.526 4.373 1.137 5.685-1.17 0.29-0.73-1.03-1.9-0.75zm-7.58-45.86c-0.254 6.097-0.08 12.518 0 18.571 0.033 2.41-0.27 4.776-0.758 6.822-1.821-1.184-2.255-4.785-2.273-7.201-0.022-2.825 0.941-6.097 1.137-9.475 0.26-4.501 0.175-8.631 0.379-12.886h1.137c1.71 0.92 0.42 2.91 0.37 4.18zm-65.19 121.66c0.636-1.892 1.435-3.619 1.517-6.064 1.929-1.482 4.357-2.464 6.442-3.79 0.338 0.168 0.678 0.333 0.758 0.758-1.066 4.618-5.037 6.333-4.927 12.129-2.205 1.205-4.246 2.575-6.821 3.41-0.454-1.062-0.417-2.615-0.38-4.169 1.101-1.056 0.983 1.244 2.653 0.759 1.39-0.7 0.8-1.39 0.76-3.04zm35.63-19.33c-0.622 2.15-2.887 2.246-4.548 3.411-1.436 1.006-2.637 2.979-4.169 3.79-1.265 0.669-2.91 0.587-4.169 1.137-5.999 2.618-8.899 9.777-15.539 11.37 2.84-13.2 12.45-19.64 28.43-19.71zm-28.05 40.93c-0.444-0.061-0.319-0.69-0.379-1.137 0.645-0.14 0.715 0.296 0.758 0.758-0.32-0.07-0.36 0.15-0.38 0.38zm27.67 39.42c-9.154-0.33-17.719 0.463-26.909 0-0.435-1.383-1.004-4.987 0.759-5.306 13.428-0.262 31.212 0.673 46.237 0.758 2.428 0.014 4.876-0.885 6.443-0.379 2.057 0.663 3.35 3.518 4.927 4.927-9.07 1.09-19.73 0.42-31.46 0zm-12.13-13.65c6.488-1.148 14.144 0.117 19.708 0 4.166-0.088 10.694-2.142 12.886 1.895-9.138-0.264-19.801 0.353-28.425 0-2.818-0.115-5.781-0.055-7.959-1.137-0.062-0.44 0.084-0.675 0.379-0.758 0.278-0.354 0.689-0.574 1.137-0.759 0.96 0.04 1.79 0.22 2.26 0.76zm-1.9-8.33c-0.002-1.784 1.811-3.302 3.41-2.274-0.89 0.99-1.69 2.09-3.41 2.27zm8.72-6.07c-0.33 0.555-0.567 1.201-1.517 1.137-0.11-1 0.53-1.24 1.52-1.14zm7.96-9.47c2.943-3.089 5.168-7.222 8.717-9.854 0.314-0.948 1.038-1.488 1.137-2.652 0.68 0.048 0.8-0.465 1.517-0.38 2.903-4.55 6.926-7.98 10.611-11.749 0.467 0.166 0.778 0.485 0.758 1.138-9.536 8.654-15.79 20.593-26.15 28.425-0.61-2.71 2.08-3.54 3.4-4.93zm113.32 39.03c-2.292 2.552-4.806 4.723-7.58 6.822-8.881 6.723-20.079 12.16-36.763 10.612-18.885-1.752-31.525-12.396-39.795-24.635-0.121-0.891-0.599-1.423-0.379-2.653-1.104-0.906-2.712-2.583-3.411-4.548-0.541-1.521-0.243-3.447-0.758-5.307-0.787-2.841-2.374-5.338-2.653-7.579-0.185-1.488-0.104-3.515 0-5.307 0.062-1.073-0.775-3.563 1.138-3.79 1.463 0.646 0.73 2.589 0.758 3.411 0.416 12.761 4.269 21.898 10.611 29.562 7.898 9.542 19.27 18.377 36.005 19.328 13.743 0.782 26.067-3.491 35.247-10.611 3.221-2.498 5.882-5.347 8.717-8.338 0.704-0.743 1.008-2.908 2.653-2.274 0.123-1.393 0.935-2.097 1.137-3.411 0.22 3.46-2.66 6.19-4.94 8.72zm-85.65-68.6c0.672 1.688-2.509 2.45-3.032 4.169-2.54-1.33 1.02-3.87 3.03-4.17zm90.96 59.51c-0.048-0.68 0.464-0.799 0.379-1.516 0.67-0.12 0.67 2.13-0.38 1.52zm1.51-1.52c-1.402-1.954 2.052-5.15 2.273-7.959-0.209-0.841 0.724-0.54 0.758-1.138 0.78 3.31-1.93 6.41-3.03 9.1zm-3.03 0.38c-0.558 0.97-1.421 1.729-1.896 2.652-0.519 1.012-0.659 2.269-1.137 3.032-1.951 3.122-6.848 7.188-11.37 10.233-5.489 3.696-10.524 5.887-17.055 7.58-18.091 4.69-35.959-3.11-45.858-12.128-6.357-7.138-13.782-18.543-14.781-30.699-0.093-1.127-0.257-4.366 0-6.063 0.323-2.14 0.762-3.496 3.032-3.79-1.833 14.684 3.239 26.201 9.854 34.488 7.73 9.687 20.518 17.002 34.868 17.435 22.438 0.675 37.354-11.552 45.101-27.288 4.077-8.282 5.29-18.021 4.548-28.804 2.9 11.77-0.18 24.48-5.29 33.36zm-4.93-46.24c1.896 1.404 2.542 4.055 3.411 6.443 1.577 4.336 2.918 9.794 2.652 16.676-0.261 6.784-3.288 14.823-6.063 20.087-6.11 11.588-18.787 20.911-35.247 22.74-4.688 0.521-9.845-0.337-14.402-1.517-16.791-4.344-30.446-19.462-32.215-38.278-0.277-2.954-0.333-6.435 0.759-9.096 4.771-0.575 9.438 2.163 12.127 4.927-0.016 16.562 14.374 33.518 34.11 30.698 2.691-0.384 4.893-2.421 8.338-1.516 1.506-2.182 4.109-2.501 6.064-3.79 4.496-2.965 6.498-7.089 9.854-9.854 0.523-3.978 3.257-8.122 3.79-12.887 0.798-7.129-1.539-13.412-3.79-18.57 4.56-1 6.63-4.48 10.61-6.06zm-0.37-20.09c0.371-1.16 1.277 0.169 1.516 0.379-0.11 0.9-1.02-0.43-1.52-0.38zm7.58 28.43c2.647 9.087 2.009 22.462-1.896 30.32-0.425-3.376 1.801-6.796 2.274-10.612 1.232-9.947-1.368-20.799-5.307-27.288v-1.516c0.44-0.062 0.675 0.084 0.758 0.379 1.094 0.964 2.398 2.888 3.032 4.548 0.44 1.12 0.75 2.83 1.15 4.17zm-0.38-6.06c0.145-0.722 0.482 0.242 0.38 0.758-0.15 0.72-0.49-0.25-0.38-0.76zm0.75 1.89c0.144-0.722 0.481 0.242 0.379 0.759-0.14 0.72-0.48-0.24-0.38-0.76zm0.76 1.9c0.562 0.322 0.814 0.953 0.758 1.895-1.27 0.38-0.59-1.19-0.76-1.9zm1.52 5.68c-0.771-0.365-0.818-1.455-0.758-2.652 1.44-0.31 0.48 1.79 0.76 2.65zm-9.1 36.38c-4.685 5.802-9.401 11.57-17.055 14.402 6.564-4.602 13.075-9.117 17.055-16.297 1.22-2.201 2.677-4.514 3.411-7.201 1.39 2.76-3.17 5.51-3.41 9.1zm-17.43 14.41c-0.016 1.753-2.95 0.587-3.032 2.273h-1.896c-1.68 0.54 4.06-1.85 4.93-2.27zm-6.07 2.65c-0.091 0.666-0.652 0.863-1.516 0.758-0.37-1.14 0.85-0.67 1.52-0.76zm-2.65 0.76c-1.178 1.222-3.776 1.023-5.685 1.516 1.23-1.18 3.82-1 5.69-1.52zm8.34-96.27c1.67-1.147 3.421 0.432 4.927 1.137 3.467 1.624 7.773 4.467 10.611 7.201-4.51-1.94-9.62-6.55-15.54-8.34zm7.58 57.99c-0.622 3.498-3.918 10.631-6.063 13.265-3.011 3.697-11.293 8.383-17.813 9.097-13.317 1.457-23.056-4.951-28.425-13.266-2.353-3.643-2.957-6.124-3.79-11.369-0.288-1.814-0.958-3.562-0.758-6.064 0.112-1.403 0.755-2.908 1.138-4.548 1.484-6.371 3.659-9.881 7.958-14.023 1.791-1.724 2.698-2.512 4.928-3.789 2.567-1.472 6.565-3.115 10.611-3.79 4.299-0.718 14.118 1.462 18.192 3.79 8.8 5.04 16.62 16.01 14.01 30.7zm-20.85-61.4c-17.027-1.613-30.857 3.301-39.795 10.232-2.244 1.741-4.136 3.864-6.442 5.686-1.911 1.508-3.866 4.297-6.822 4.169 0.715-1.864 2.56-2.793 4.169-4.169 2.691-2.301 4.821-4.457 7.959-6.822 4.311-3.25 11.707-6.873 18.191-8.717 9.636-2.74 26.255-2.624 35.247 1.895-4.29 0.58-7.78-1.83-12.51-2.28zm42.45 67.84c-0.422-4.676 1.434-9.188 1.137-14.023-0.444-7.241-3.113-13.993-4.927-20.087 0.612-0.106 0.652 0.358 1.137 0.379 4.02 8.27 6.35 23.36 2.65 33.73zm-1.89-44.34c0.407 0.982 1.648 1.131 1.896 2.273-0.77-0.63-1.77-1.01-1.9-2.27zm2.27 3.03c0.277-0.675 0.688-0.054 1.137 0 1.611 2.811 4.669 4.175 6.443 6.822-3.35-1.45-5.31-4.29-7.58-6.82zm8.34-2.65c-0.936-1.275-2.079-2.471-3.032-3.79-2.01-2.781-3.755-6.022-5.685-8.338-2.018-2.421-5.142-4.502-7.959-6.822-4.507-3.71-7.282-6.542-13.265-9.096-8.453-3.607-21.471-8.731-34.489-6.443-3.637 0.64-8.568 0.673-12.886 1.896-5.486 1.553-10.797 3.544-14.781 6.063-6.179 3.907-13.661 7.443-18.95 12.886-1.16 0.23-1.975 0.805-3.032 1.138-15.088 11.82-29.245 24.571-45.101 35.626-1.082-0.604 0.607-1.73 0.758-1.896 3.055-3.338 7.513-6.35 11.37-9.475 2.848-2.308 5.192-4.396 8.338-6.822 3.545-2.735 7.591-6.316 11.749-8.717 7.807-8.111 18.333-13.503 25.772-21.982-3.979-1.553-8.526 5.343-14.402 3.411 2.805-3.153 6.555-4.511 10.612-6.442 3.9-1.858 8.538-4.472 12.886-6.822 1.645-0.89 3.315-2.283 4.927-3.032 1.704-0.792 4.011-1.129 6.064-1.895 1.913-0.714 3.922-2.135 5.685-2.653 1.214-0.356 2.732-0.052 4.169-0.379 2.431-0.553 6.921-1.94 10.233-2.274 2.857-0.288 6.029-0.201 8.717 0 14.035 1.053 27.738 5.693 37.899 12.508 12.179 8.166 21.79 19.702 27.667 34.488 1.354 3.404 3.428 6.79 3.411 10.612-9.28 1.33-12.63-6.24-16.69-11.77zm-12.13-66.7c0.731-0.153 0.033-1.735 1.516-1.137-0.285 1.989-2.39 2.158-4.169 2.653-0.474-2.695-2.808-6.493-0.379-8.718 2.52 1.33-1.05 7.05 3.03 7.21zm-0.38-9.1h1.137c-0.134 0.498-0.667 0.596-0.758 1.137-0.44-0.07-0.32-0.7-0.38-1.14zm0.38 25.77c-0.359 4.695-2.416 9.243-3.411 13.645-2.933-0.227-3.871-2.445-6.443-3.032 0.071-7.889-0.293-19.742 4.549-25.014h1.137c2.08 4.26 4.59 8.77 4.16 14.39zm0.38 14.78c-1.336-0.18-1.246-1.786-1.516-3.032 1.47 0.05 1.56 1.48 1.52 3.03zm-4.93-39.41c-1.625-0.27-1.875-1.915-2.274-3.411 1.094-0.422 2.351-0.682 3.79-0.758-0.58 1.32-1.44 2.35-1.52 4.17zm-1.51 7.58c-1.619-0.655-1.762-3.018-2.273-4.548-0.586-1.75-1.377-3.479-1.517-5.306 2.01 2.54 2.99 6.11 3.79 9.86zm-3.03 0.38c-2.498-0.787-2.302-4.268-3.032-6.822 2.29 0.98 2.52 4.04 3.03 6.82zm-7.96-9.86c-6.773 0.507-8.521 6.922-7.959 13.644-2.191-2.368-1.933-7.028-1.517-8.717 1.132-4.587 7.132-4.986 9.854-7.58 1.417-1.351 1.881-3.568 2.652-4.927 1.202 0.693 1.701 2.089 2.274 3.411-2.3-0.44-3.19 3.23-5.29 4.18zm4.17 10.23c-1.356-0.16-1.066-1.966-1.138-3.411 1.35 0.16 1.06 1.97 1.14 3.41zm-3.04-9.47c1.706 0.441 0.936 3.36 2.273 4.169-1.2 0.57-3.12-2.6-2.27-4.17zm-2.27 7.96c-0.325-1.631-1.327-3.501-1.137-5.306 0.44-0.062 0.675 0.083 0.758 0.379 0.053 2.509 3.267 5.354 1.138 7.58-1.48-0.12-0.61-1.89-0.76-2.65zm-1.9 3.03c-2.585-0.246-3.09-3.99-2.274-6.443 2.03 0.88 1.49 4.32 2.27 6.44zm-3.79 4.55c3.388-3.562 10.882-3.015 16.297-4.548-2.638 4.008-4.62 10.436-4.169 16.297-1.411 0.021-1.093-1.687-1.137-3.032-1.448-0.312-0.447 1.827-1.896 1.516-0.527-0.482-0.164-1.856-1.137-1.895-0.828 0.056-0.813 0.955-0.758 1.895-1.234-0.155-1.988-0.791-2.653-1.516-1.54-0.151-1.166 1.613-2.274 1.895-1.217 0.334-0.519-1.249-1.516-1.137-1.588-0.072-1.172 1.86-3.032 1.517-0.525-0.485-0.231-1.79-0.758-2.274-1.54-0.151-1.166 1.613-2.273 1.895-1.297 0.16-1.14-1.135-1.896-1.516-1.174 0.09-1.472 1.055-2.273 1.516-2.146-1.284-2.629 1.66-4.169 0.759 0.189-1.579 1.325-2.212 1.516-3.79 3.69-2.9 6.94-6.22 12.13-7.59zm46.24 75.42c2.246-1.452 7.186 0.242 9.096-2.274 0.337 0.168 0.678 0.333 0.758 0.758-0.43 3.88-7.05 1.84-9.86 1.51zm13.27-65.95c-3.225-1.449-6.35-2.999-9.096-4.927 2.57-2.74 8.16 2.2 9.1 4.93zm-12.13-1.13c4.022 1.788 7.129 4.493 10.232 7.201-0.016 2.72 0.547 3.77-0.379 5.685 0.17 2.104 2.291 2.257 1.896 4.927-1.804-0.345-2.033-2.262-3.79-2.652-0.544 0.467-0.719 1.303-0.758 2.273-1.636-0.513-4.04-0.256-4.549-1.895-1.588-0.325-0.83 1.696-1.516 2.273-0.771-1.212-3.147-1.649-3.79 0-0.566-0.443-1.55-0.471-1.895-1.137-1.095-0.181-1.396 2.354-2.274 1.137-1.246 0.276-0.58-0.753 0-0.758 0.165-0.466 0.485-0.778 1.137-0.758 2.439-4.257 5.31-8.082 4.928-15.16-0.21-0.84 0.72-0.54 0.76-1.13zm-9.48-14.41h0.759c3.312 0.687 4.205 5.314 4.927 9.854 0.17 1.07 1.04 2.16 1.137 3.031 0.373 3.362-0.414 7.107-1.516 10.233-0.949 2.69-2.177 6.319-4.927 6.443-2.012-0.411-1.531-3.122-1.896-4.928-0.754-3.74-2.034-10.68-1.137-16.297 0.48-2.95 2.65-5.68 2.66-8.32zm-2.65-0.75c-0.472 2.813-1.619 4.95-2.653 7.201 0.188 3.656-0.755 6.244 0 9.475-0.67 0.341-1.106 0.915-1.895 1.138-1.447 0.31-1.468-0.807-1.896-1.517-1.176-0.039-1.081 1.192-2.653 0.758-0.601-4.663-0.842-10.063-3.789-13.265 2.77-2.8 9.11-2.03 12.89-3.8zm-6.06-6.45c-0.221 1.99 0.668 2.87 0.379 4.928-2.715-0.064-3.167-2.392-4.927-3.411-0.17-2.75 2.9-2.44 4.55-1.52zm-0.38-2.65c-2.331-0.448-3.726-1.833-5.685-2.653 1.13-3.545 3.139-6.21 4.548-9.475 2.3 2.12 0.56 9.44 1.14 12.12zm-2.27-17.44c0.129 5.688-3.937 7.182-4.169 12.508-2.774-0.248-4.285 0.769-6.443 1.137-1.595-3.332-4.95-4.904-7.201-7.58 1.603-0.798 3.352-1.449 4.169-3.032 1.433 0.256 2.038 0.465 2.274-1.137 1.218-0.333 0.52 1.249 1.516 1.137 1.24-0.135 0.995-3.234 0-3.411 0.014-1.25 1.078-1.448 2.274-1.516 1.565 2.414-1.233 4.684-0.379 6.443 3.169 0.264 1.771-4.041 3.41-5.307 1.84-0.07 3.62-0.08 4.55 0.76zm-25.4-1.13c-0.074-3.827 3.457-5.697 7.959-5.306 1.227 1.679 2.51 3.301 3.411 5.306 0.026 1.922-1.341 2.449-1.516 4.169-3.87 2.53-9.76 0.25-9.85-4.17zm0 5.31c-0.886-0.125-1.565-0.456-2.273-0.759 0.35-0.81 2.75-0.52 2.27 0.76zm-3.03-12.51c2.708-3.921 9.252-7.319 17.434-5.685 3.512 0.701 5.438 1.81 7.201 3.79 0.58 5.76-5.18 5.18-8.338 7.201-3.123-2.653-4.756-7.684-10.233-6.064-2.692 0.796-5.621 6.862-4.927 10.991-3.84-1.23-1.53-7.08-1.13-10.23zm-9.1 17.81c0.921-0.723 2.485-0.8 2.653-2.274-0.841-2.17-4.438-1-5.306-2.273-0.121-0.879 0.061-1.455 0.379-1.896 7.075 1.642 14.935 2.499 21.224 4.927-1.07 7.829-11.152 6.702-12.507 14.023-0.313 1.692 0.493 2.328 0 4.169-0.548-0.463-0.575-1.446-1.138-1.896-1.027 0.236-0.942 1.584-2.273 1.517v-2.274c-2.166-0.396-2.219 1.319-3.79 1.517-0.283-2.086-0.493-0.441-1.516 0-0.53 0.229-1.54-0.124-1.896 0-1.076 0.375-2.109 1.45-3.411 1.137 0.06-8.06 3.62-12.59 7.6-16.69zm-9.09 23.5c1.657 1.122 0.674 4.884 1.895 6.442-2.514 4.435-8.533 5.363-14.78 6.064 3.07-5.38 8.48-8.44 12.88-12.5zm-3.79-57.61c0.956 11.74-0.613 29.081 0 40.553-1.854-0.454-1.433-2.46-1.516-3.79-0.34-5.436 0.013-13.278 0-20.465-0.011-5.927 0.23-11.963 0.758-16.676 0.44-0.05 0.67 0.1 0.76 0.39zm-14.03-7.58c3.56 0.502 6.842 0.363 11.37 1.137 0.493 0.084 2.601-0.007 2.274 1.516 0.555 2.398-3.413-0.423-5.306 0.758-15.711-4.074-31.954-4.835-48.513-7.201-3.251-0.464-6.611-1.449-9.854-1.895-27.136-3.735-56.698-6.007-86.412-9.854-1.037-0.134-2.257-0.511-3.41-0.758-0.829-0.177-2.555 0.468-2.653-1.137-1.291-0.027-1.412 1.115-1.896 1.895-0.882-0.785 0.192-2.818 0.379-3.79 1.07-0.059 0.95 1.071 1.517 1.516 45.89 5.46 96.69 11.33 142.5 17.8zm-54.95-9.09c-3.257-0.037-6.738-0.82-10.233-1.137-15.491-1.406-33.096-4.542-49.648-6.064-7.103-0.653-14.079-0.845-20.466-2.274-0.431-0.072-0.211-0.38 0-0.379 0.307-0.072 0.377-0.38 0.758-0.379 19.869 0.737 40.098 1.156 58.745 0.758 9.296-0.199 18.449 0.761 27.287 0.758 25.57-0.01 52.362 0.052 82.243-0.379 0.08 2.633 0.152 5.714 0.379 9.096-28.22-0.56-58.91 0.33-89.06-0.01zm149.33-13.27c-12.158-0.631-24.371-0.571-35.247-0.379 1.565-19.255-1.841-33.549 0-49.648h0.758c12.415 0.017 20.259 0.512 33.731 0.379 0.58 17.79 0.81 33.97 0.76 49.65zm0.37 1.89c-1.87 1.057-5.386 0.358-9.854 0.379-4.651 0.022-9.531 0.206-14.023-0.379 7.88-0.87 18.93-0.22 23.87 0zm-25.01-0.37c-0.117 0.515-0.949 0.314-1.516 0.379 0.12-0.52 0.95-0.32 1.52-0.38zm23.88-53.06c-11.031-0.762-25.314-0.146-35.247-0.758 0.073-11.57-0.102-24.912 0-35.247 0.211-0.493 0.829-0.72 1.516-0.758 8.891-0.493 24.555 0.873 33.731 0.758-0.18 11.977 0.1 24.077 0 36.007zm-35.63-87.174c2.129-1.614 8.102-0.511 12.128-0.379 7.752 0.255 15.967-0.575 22.74 0.379-0.296 14.58-0.635 31.031 0.758 48.891-11.047 0.225-23.729 0.126-35.626-0.758 0.61-16.608 0.13-30.961 0-48.133zm-5.68 152.73c-0.989-1.903 1.65-3.111 2.652-4.548 0.541-0.775 0.943-1.782 1.517-2.653 0.771-1.175 1.219-2.123 1.895-3.411 10.866 0.455 22.771 0.008 36.384 0.758 0.391 3.887-1.249 7.521 0.758 9.854-13.77 0.97-29.91-1.86-43.21 0zm43.96-12.5c0.322-0.069 0.357 0.148 0.379 0.379 1.545-0.275 3.464 0.229 2.652 0.379-0.65 0.11-2.65 0.57-3.03-0.76z"
   id="path1748" />
	<path
   d="m471.63 180.08c-2.17-1.12-1.25 1.2 0 0z"
   id="path1750" />
	<path
   d="m528.86 230.11c2.86 1.26 1.85-1 0 0z"
   id="path1752" />
	<path
   d="m437.14 257.4c-2.42-0.44-0.83 1.16 0 0z"
   id="path1754" />
	<path
   d="m186.63 362.76c-2.43-0.44-0.84 1.16 0 0z"
   id="path1756" />
	<path
   d="m68 348.36c-2.958-0.2-2.954-3.363-3.79-5.686-3.957-7.189-11.843-12.372-21.982-12.128 7.316 1.973 13.604 3.602 17.813 8.338 1.276 1.436 1.555 2.122 2.653 4.169 0.122 0.229 0.15 1.169 0.379 1.517 0.122 0.185 1.086 0.262 1.137 0.379 0.352 0.805 0.359 2.399 0.758 3.79 0.305 1.061 0.988 2.422 1.137 3.41 2.466 16.352-12.795 31.717-31.078 26.909-3.142-0.826-6.951-2.861-9.096-4.548-5.392-4.239-8.82-11.679-8.717-20.845-0.284-1.484-2.021-1.517-2.274-3.032 2.825-14.015 15.026-25.332 32.215-22.74 4.831 0.729 7.888 3.386 12.507 4.928 2.045 2.629 4.247 5.102 6.443 7.58-0.015 3.08 3.848 5.36 1.895 7.96zm-27.667-17.82c-0.785 0.226-2.49-0.469-2.653 0.379 0.477 0.74 2.351 0.96 2.653-0.38zm-5.306 6.83c-1.516-0.484-1.984-1.434-3.79-0.758-0.604-0.28 0.086-1.855-1.137-1.517 0.132 2.616 1.127 8.088-3.79 7.58-1.357-0.159-0.83-2.203-2.274-2.273-0.774 0.867-1.852 1.432-1.895 3.031 1.747 1.119 3.409 3.184 2.274 6.064 4.84-3.529 7.86-8.991 14.402-10.233 8.554-1.623 17.33 4.388 18.571 12.886 0.687 4.705-0.967 10.547-3.411 14.023-2.496 3.551-7.639 3.891-10.233 7.58 2.859-0.206 3.955 1.351 3.79 4.169 1.365 0.102 1.827-0.7 3.032-0.758-0.811-3.196-0.509-6.608 2.274-7.201 2.51-0.535 3.126 1.229 5.306 2.273 0.117-0.894 1.316-0.705 1.137-1.895-0.062-1.707-2.345-1.192-2.274-3.032 0.568-1.958 0.516-4.537 2.274-5.306 1.756-0.013 4.038 0.5 3.411-1.896-3.73-0.237-4.071-4.827-2.274-7.579 1.027-0.362 2.613-0.167 2.274-1.896-2.983-1.398-5.577-1.05-5.685-4.169-0.066-1.913 2.802-2.266 1.516-4.548-1.916 0.188-5.286 1.129-6.064-0.758-0.206-1.689-0.373-3.418-0.758-4.928-0.294-0.084-0.748-0.01-0.758-0.379-3.34 1.456-8.394 2.644-9.096-1.516-2.844-0.26-3.569 2.74-6.822 3.06zm-10.233 0.38h0.758v-0.758h-0.758v0.76zm-3.79 4.17c1.167-0.35 1.515-1.517 2.274-2.274-1.386 0.12-1.735 1.29-2.274 2.27zm24.635 26.9c3.721-0.811 7.958-4.986 9.096-9.097 0.874-3.156 0.525-6.919-0.379-8.717-0.301-0.598-0.221-1.611-0.379-1.895-0.833-1.497-5.494-5.757-6.822-6.443-6.165-3.188-10.345 0.312-14.781 2.653-9.158 9.07-1.308 26.69 13.265 23.51zm-26.151-12.5c2.03-1.256 3.381-3.188 4.548-5.307-1.623-0.233-1.545 1.234-3.032 1.137-0.946-0.317-0.798-1.729-2.274-1.516 0.528 2.4-1.426 4.95 0.758 5.69zm6.822 15.92c0.241 1.324 1.941 2.615 3.032 1.896 0.002-1.58-1.979-2.59-3.032-1.9zm11.37 2.27c-0.703 0.812-1.013 2.02-1.137 3.411 1.22-0.083 1.604 0.67 3.032 0.379 0.399-1.496 1.218-2.572 1.895-3.79-1.094-0.98-2.35 0.17-3.79 0z"
   id="path1758" />
</g></g></svg>
