<?xml version="1.0" encoding="UTF-8" standalone="no"?>
<svg
   id="bolting_on_fenders_and_running_boards_xA0_Image_1_"
   style="enable-background:new 0 0 596.247 479.675"
   xml:space="preserve"
   viewBox="0 0 596.247 479.675"
   version="1.1"
   y="0px"
   x="0px"
   sodipodi:docname="line_5_johnny_automatic_bolting_on_fenders_and_running_boards.svg"
   inkscape:version="1.2.2 (1:1.2.2+202305151914+b0a8486541)"
   xmlns:inkscape="http://www.inkscape.org/namespaces/inkscape"
   xmlns:sodipodi="http://sodipodi.sourceforge.net/DTD/sodipodi-0.dtd"
   xmlns="http://www.w3.org/2000/svg"
   xmlns:svg="http://www.w3.org/2000/svg"
   xmlns:rdf="http://www.w3.org/1999/02/22-rdf-syntax-ns#"
   xmlns:cc="http://creativecommons.org/ns#"
   xmlns:dc="http://purl.org/dc/elements/1.1/"><defs
   id="defs2403" /><sodipodi:namedview
   id="namedview2401"
   pagecolor="#ffffff"
   bordercolor="#666666"
   borderopacity="1.0"
   inkscape:showpageshadow="2"
   inkscape:pageopacity="0.0"
   inkscape:pagecheckerboard="0"
   inkscape:deskcolor="#d1d1d1"
   showgrid="false"
   inkscape:zoom="0.77613328"
   inkscape:cx="151.39152"
   inkscape:cy="182.31405"
   inkscape:window-width="1846"
   inkscape:window-height="1016"
   inkscape:window-x="0"
   inkscape:window-y="0"
   inkscape:window-maximized="1"
   inkscape:current-layer="layer8" />

<metadata
   id="metadata2398"><rdf:RDF><cc:Work><dc:format>image/svg+xml</dc:format><dc:type
         rdf:resource="http://purl.org/dc/dcmitype/StillImage" /><cc:license
         rdf:resource="http://creativecommons.org/licenses/publicdomain/" /><dc:publisher><cc:Agent
           rdf:about="http://openclipart.org/"><dc:title>Openclipart</dc:title></cc:Agent></dc:publisher><dc:title>bolting on fenders and running boards</dc:title><dc:date>2008-03-06T04:41:19</dc:date><dc:description>Wide Road Ahead! The Building of an Automobile by Henry B. Lent New York THE MACMILLAN COMPANY 1934 archive.org states as PD</dc:description><dc:source>http://openclipart.org/detail/15519/bolting-on-fenders-and-running-boards-by-johnny_automatic</dc:source><dc:creator><cc:Agent><dc:title>johnny_automatic</dc:title></cc:Agent></dc:creator><dc:subject><rdf:Bag><rdf:li>assembly line</rdf:li><rdf:li>car</rdf:li><rdf:li>clip art</rdf:li><rdf:li>clipart</rdf:li><rdf:li>externalsource</rdf:li><rdf:li>factory</rdf:li><rdf:li>image</rdf:li><rdf:li>industry</rdf:li><rdf:li>media</rdf:li><rdf:li>png</rdf:li><rdf:li>public domain</rdf:li><rdf:li>svg</rdf:li><rdf:li>transportation</rdf:li></rdf:Bag></dc:subject></cc:Work><cc:License
       rdf:about="http://creativecommons.org/licenses/publicdomain/"><cc:permits
         rdf:resource="http://creativecommons.org/ns#Reproduction" /><cc:permits
         rdf:resource="http://creativecommons.org/ns#Distribution" /><cc:permits
         rdf:resource="http://creativecommons.org/ns#DerivativeWorks" /></cc:License></rdf:RDF></metadata><g
   inkscape:groupmode="layer"
   id="layer8"
   inkscape:label="Layer 1"><g
     clip-rule="evenodd"
     fill-rule="evenodd"
     id="g2396"
     style="enable-background:new 0 0 596.247 479.675">
	<path
   d="m17.722 0h1.575c0.031 1.475-1.544 1.343-2.757 1.575 0.116-0.803 1.066-0.772 1.182-1.575z"
   id="path2342" />
	<path
   d="m215.42 184.7c-2.506-1.773-1.575-6.297-1.575-10.239 0-48.832 0.13-111.16-0.788-159.5-0.071-3.77-0.019-7.168-0.394-10.633 0.139-0.517 0.693-0.62 0.788-1.182h1.182c0.987 8.029 0.266 15.738 0.394 23.236 0.123 7.189 0.333 14.175 0.394 21.266 0.125 14.464 1.148 29.117 0.394 45.684-0.926 20.341 0.063 52.417 0 81.127-0.004 1.831-0.041 3.704 0 5.513 0.05 1.47 0.85 3.51-0.38 4.73z"
   id="path2344" />
	<path
   d="m441.08 5.12c2.404-0.264 2.159 0.198 1.969 4.726-0.555 13.214-0.311 29.578-0.394 42.533-0.268 41.531-0.3 85.535-0.788 132.32-2.702-1.158-1.575-5.675-1.575-9.058 0.001-61.617 0.61-113.44 0-169.34 0.33-0.317 0.23-1.078 0.78-1.18z"
   id="path2346" />
	<path
   d="m12.603 88.61c-2.006 2.649-8.475 1.667-10.633 0.394 1.001-3.504 3.681-1.358 7.089-1.575 0.603-2.474 2.852 0.202 3.544 1.181z"
   id="path2348" />
	<path
   d="m145.32 196.91c0.362 2.138-5.721 3.28-5.513 0.394 2.27 0.62 3.55 0.17 5.51-0.39z"
   id="path2350" />
	<path
   d="m137.05 210.3c0.519 2.062-3.332 4.539-5.514 3.938 0.75-2.4 3.11-3.18 5.51-3.94z"
   id="path2352" />
	<path
   d="m201.24 238.26c2.214-0.739 4.907 1.044 6.301 1.576 4.04 1.539 11.001 1.421 13.39 5.907-4.663-1.014-9.132-3.913-13.784-5.119-1.959-0.508-4.015-0.326-5.907-0.788v-1.58z"
   id="path2354" />
	<path
   d="m102.79 243.38c0.636-0.111 0.678 0.372 1.182 0.394 0.7 3.042 0.251 5.837 1.181 8.664 0.738 2.245 3.764 4.599 1.182 5.907-2.94-2.65-5.07-9.35-3.54-14.96z"
   id="path2356" />
	<path
   d="m145.71 244.56c-0.51 2.312-7.21 4.359-8.271 1.181 2.66-0.49 5.5-0.8 8.27-1.18z"
   id="path2358" />
	<path
   d="m119.72 250.47c0.351 0.174 0.704 0.346 0.788 0.787 0.5 3.48-1.283 6.174-1.969 9.059-0.501 2.108 0.129 4.935-1.969 5.907-2.814-0.676-0.689-3.66 0-5.514 0.789-2.12 1.611-4.462 2.363-5.907-0.12-1.83 0.01-3.42 0.79-4.34z"
   id="path2360" />
	<path
   d="m193.37 271.34c-1.597 0.153-0.434-2.454-0.788-3.544-1.729-4.047-3.703-7.85-8.271-9.059v-1.181c0.351-0.306 0.89-0.424 1.576-0.395 3.025 1.78 7.343 5.296 8.27 10.239 0.21 1.14 1.49 3.9-0.79 3.94z"
   id="path2362" />
	<path
   d="m231.17 276.86c-0.898 4.247-8.376 3.93-12.603 3.545 1.778-3.211 9.08-0.897 11.027-3.938 0.82-0.16 1.04 0.27 1.57 0.4z"
   id="path2364" />
	<path
   d="m309.15 294.97h1.182c1.119 0.85 1.209 2.729 1.969 3.938 1.474 2.071 3.646 3.443 5.12 5.514 2.277 1.005 4.879 1.685 6.694 3.15-0.27 2.842-4.321 0.865-5.513 0-5.569-0.469-10.112-1.965-14.178-3.938 2.042-3.971 6.638 1.674 9.451 0.787-0.42-2.49-6.28-4.95-4.72-9.45z"
   id="path2366" />
	<path
   d="m1.969 418.63c3.898 0.273 7.265 2.998 11.027 3.938 5.164 1.29 11.738 1.839 16.935 1.182 27.152-3.435 50.916-28.049 44.108-60.255-1.437-6.799-5.475-14.017-9.058-18.903-1.965-2.68-5.763-7.217-8.664-9.451-5.214-4.018-11.673-5.645-17.328-8.664-7.56-1.124-14.392-2.062-22.448-0.788-5.431 0.858-9.998 3.44-14.965 4.332 0.347-2.716 5.409-3.373 8.664-4.332 6.858-2.021 15.799-3.054 24.417-1.575 21.862 3.749 36.56 20.758 41.352 40.957 0.712 3.003 0.561 8.804 0.394 12.603-0.237 5.401-1.225 10.285-3.15 14.966-2.011 4.889-3.65 8.067-6.301 11.814-1.65 2.332-2.907 3.781-5.12 5.907-3.829 3.677-8.3 7.038-13.784 9.846-11.996 6.14-29.069 7.713-42.139 1.182-1.891-0.21-4.595-1.29-3.94-2.77z"
   id="path2368" />
	<path
   d="m0 413.12c6.092 0.16 9.568 3.64 14.571 4.726 1.317 0.286 2.984 0.193 4.332 0.394 21.724 3.24 37.969-8.206 46.077-23.629 2.582-4.91 3.519-10.099 4.332-16.541 0.157-1.243 0.761-2.162 0.788-3.15 0.555-20.174-11.365-32.603-24.417-41.352-5.967-2.402-14.463-5.119-23.236-4.726-6.278 0.282-11.539 1.841-16.146 3.938-0.584 0.266-1.276 0.341-1.969 0.787-0.955 0.615-2.753 3.011-3.938 0.788 0.336-1.503 2.31-2.133 3.544-2.757 9.663-4.88 24.309-6.358 36.231-2.363 7.182 2.407 14.532 7.376 19.691 12.997 2.935 3.197 6.158 7.252 8.271 11.814 2.704 5.838 4.186 11.946 4.726 19.69 0.239 3.429-0.471 6.502-1.181 9.846-1.308 6.161-2.964 10.095-5.907 14.966-2.85 4.715-5.967 8.742-10.24 12.208-7.529 6.09-18.827 11.63-33.869 10.62-3.818-0.256-7.916-1.152-11.814-2.363-3.338-1.04-8.082-2.15-9.846-5.91z"
   id="path2370" />
	<path
   d="m263.86 340.26c-0.418 3.327-3.865 0.5-5.907 0-2.243-0.549-4.788-0.141-6.301-1.182-1.231 0.76-2.836 1.018-3.938 0-0.167-0.822 0.27-1.043 0.394-1.575 5.7-1.06 11 1.6 15.76 2.76z"
   id="path2372" />
	<path
   d="m1.182 394.61c3.271-0.371 4.865 3.759 7.482 5.514 0.717 0.48 2.141 1.064 3.151 1.575 4.337 2.195 10.788 4.012 17.328 3.15 15.084-1.986 26.64-15.848 26.386-30.324-0.169-9.658-4.466-16.568-10.239-23.235-5.823-3.593-12.106-7.215-20.085-7.089-7.384 0.116-14.252 4.01-18.903 7.482-1.72 1.284-3.007 3.363-5.12 3.545-0.551-3.308 2.421-3.093 3.544-4.727 6.963-5.95 16.979-9.753 27.961-7.876 3.454 0.59 10.145 4.044 12.996 6.301 0.844 0.669 1.359 2.023 2.363 3.15 2.03 2.281 5.963 6.55 7.089 9.452 0.398 1.027 0.397 2.629 0.788 3.938 0.313 1.052 1.018 2.273 1.182 3.15 0.955 5.127-0.427 10.65-0.788 16.146-2.116 3.295-3.254 6.953-5.513 9.846-2.512 3.217-6.46 4.904-8.271 8.664-6.065 3.821-15.356 6.017-24.417 4.332-4.827-0.897-8.987-3.616-12.602-6.301-2.369-1.76-6.297-3.96-4.332-6.7z"
   id="path2374" />
	<path
   d="m51.984 380.43c-2.038-2.106-0.047-3.8 0-5.907 0.155-6.903-2.899-13.045-6.301-17.328-1.761-2.216-1.915-2.124-4.332-3.938-6.819-5.118-19.496-7.919-28.749-2.757 0.445-3.874 10.862-4.986 16.934-4.332 15.606 1.69 28.133 18.06 22.448 34.27z"
   id="path2376" />
	<path
   d="m1.182 373.34c1.335-1.236 3.854 1.036 4.726-0.787-0.471-2.023-4.194-0.794-4.726-2.757 0.581-2.238 0.668-2.875 0.394-5.514 5.924-13.183 22.749-19.66 36.232-12.209 7.525 4.159 14.277 14.322 12.602 27.174-0.619 4.749-3.104 7.349-4.726 11.815-6.642 6.209-15.133 11.097-25.599 9.058-7.597-1.48-14.065-7.273-18.116-12.996-0.559-2.349-0.035-4.301 0-6.302 0.046-2.62-0.9-5-0.787-7.48zm26.779-18.11c-2.734 1.578-11.143 2.748-9.846-3.151-1.71-0.004-2.629 0.784-3.938 1.182 0.099 1.739 1.313 2.363 1.575 3.938-0.077 4.578-7.021 6.377-9.058 2.363-0.185 1.405-2.79 2.44-1.575 3.938 0.356-0.686 0.881-1.517 1.575-0.787 0.644 0.947 1.988 1.843 2.363 3.15 0.167 0.58-0.901 1.821 0.394 1.575 3.868-4.804 9.498-9.127 16.147-9.058 7.903 0.082 14.507 7.067 15.359 13.783 1.481 11.678-8.371 15.874-14.571 21.66-0.539 0.822 1.359 2.564 0.788 4.727 1.278 0.229 1.832-0.269 2.757-0.395-0.167-2.271-0.298-2.13-0.394-4.332 1.382-1.395 2.298-3.313 4.332-3.544 2.981-0.338 4.248 2.172 6.301 3.544 2.23-1.255-0.922-2.853-1.182-4.726-0.334-2.414 0.376-5.387 2.757-5.907 2.695-0.589 2.503 1.267 5.12 1.575 0.125-0.925 0.622-1.479 0.394-2.757-5.808 0.262-5.891-10.654 1.575-8.664v-3.938c-1.341-0.123-2.071 0.827-3.938 0.395-4.832-1.121-8.235-9.634-0.394-8.664-0.2-2.295-2.069-2.92-3.938-3.545-1.163 0.412-0.753 2.397-2.363 2.363-5.139 0.293-7.516-3.697-5.513-8.271-3.121-1.65-4.287 1.27-4.727 3.54zm-16.934 17.72c-0.31 3.854 1.225 7.79 3.151 10.239 1.254 1.596 3.868 3.791 5.12 4.332 10.149 4.387 20.027-4.158 19.691-13.784-0.185-5.293-3.126-7.965-7.089-11.814-9.082-3.76-20.089 1.27-20.873 11.02zm5.514 22.45h-2.363c-0.434 1.64 2.797 1.64 2.363 0z"
   id="path2378" />
	<path
   d="m476.52 352.08c19.346-2.823 36.494 17.736 26.386 37.02-0.639 1.219-1.986 2.493-3.15 3.938-2.328 2.89-3.074 4.057-6.695 6.301-3.749 2.324-7.484 3.751-14.178 3.545-2.346-0.072-3.541-0.14-5.514-0.788-3.136-1.03-8.758-3.871-10.633-5.514-1.334-1.168-4.251-5.263-5.514-7.482-2.876-5.054-3.394-11.77-1.969-19.297 0.772-4.082 5.842-10.966 9.846-13.784 3.03-2.14 7.53-3.38 11.41-3.94zm-0.39 1.57c1.068 1.777 0.355 2.938 0.395 5.513-4.062 3.632-7.438 1.314-10.24-1.575-0.771 0.805-2.325 0.825-2.362 2.363 1.315 0.916 2.845 1.618 3.15 3.544-1.252 2.293-1.839 5.25-5.12 5.514-1.862 0.156-1.796-1.617-3.938-1.182-0.389 0.925-0.691 1.936-0.788 3.151 3.235-0.742 3.749 1.239 5.12 2.362 4.599-4.306 7.321-10.855 14.571-11.814 9.451-1.25 18.921 4.957 18.903 15.753-0.011 6.744-4.122 8.59-5.514 13.784-1.512 0.719-2.424 2.039-3.15 3.544 1.436 1.059 3.354 1.634 3.15 4.332 1.59-0.51 2.981-1.22 3.545-2.757-6.455-3.32 3.01-11.983 6.694-6.301 0.336-1.109 1.272-1.616 1.182-3.15-8.012 1.748-5.13-11.98 2.757-8.271 0.201-1.646-0.22-2.669-0.788-3.545-4.964 1.317-8.261-1.105-7.482-6.694 1.38-0.984 2.66-2.065 4.726-2.363-0.43-1.539-1.393-2.545-2.756-3.15-1.405 0.433-2.001 1.675-3.545 1.969-2.907-0.637-6.025-1.063-5.514-5.119 0.42-1.502 2.632-2.851 0.788-4.332-2.49 0.046-2.091 2.938-3.938 3.938-2.778 1.505-5.661 0.107-6.695-3.544-0.103-1.153 0.891-1.21 0.788-2.363-1.7-0.26-2.2 0.69-3.92 0.41zm17.33 20.48c-1.327-7.892-8.441-11.347-15.753-9.846-3.446 0.707-5.134 1.142-7.482 3.15-4.121 3.524-5.048 9.53-2.757 16.541 3.932 4.075 7.657 8.357 16.935 7.089 5.76-2.95 10.48-8.46 9.06-16.93zm-37.41 5.91c0.061 1.253 0.894 1.732 0.788 3.15 1.368-0.183 2.844-3.194 1.182-3.938-0.11 0.82-1.74 0.11-1.97 0.79zm19.69 19.69c0.06 1.909 2.392 1.547 4.332 1.575v-2.757c-1.65 0.2-3.06 0.63-4.33 1.19z"
   id="path2380" />
	<path
   d="m270.56 376.1c3.121-0.531 4.658 2.787 6.301 4.332 1.652 1.554 5.027 2.911 4.332 5.514-2.803 0.629-4.049-3.107-5.907-4.726-1.779-1.55-4.588-1.915-5.12-4.332 0.38 0 0.31-0.47 0.4-0.78z"
   id="path2382" />
	<path
   d="m227.24 415.88h0.788c4.292 2.03 4.641 7.138 7.089 11.026 1.812 2.877 4.261 5.656 6.301 8.664 1.996 2.943 3.945 6.104 5.907 8.665 2.034 2.653 5.297 4.402 6.301 7.876-3.931-0.197-7.272-5.085-9.452-8.664-1.539-2.527-4.319-5.587-5.514-8.664-5.237-4.477-7.342-12.086-11.421-17.722-0.01-0.42-0.01-0.81-0.01-1.2z"
   id="path2384" />
	<path
   d="m280.8 441.87c1.009 1.878 2.781 2.994 3.544 5.119-0.47 1.631-1.734 2.467-3.544 2.757-0.231-3.313-2.69-4.398-3.544-7.089 0.87-0.57 1.89-0.99 3.54-0.79z"
   id="path2386" />
	<path
   d="m596.25 92.154c-1.264-1.392-7.063 0.529-9.452-0.788 0.47-12.101-0.05-24.391 0-37.019 0.02-4.949-0.048-10.039 0.788-14.572 2.74-1.228 6.499 1.391 8.664-1.181-1.699-2.826-6.684-0.271-9.452-1.576 0.555-7.716 0.381-16.16 0.395-24.417 0.538-2.238 2.849-0.281 3.15-2.756-2.536 0.042-2.983-2.005-5.12-2.363-0.524 0.92-0.669 2.219-1.182 3.151-0.083 0.021-0.175 0.031-0.26 0.05 0.156 0.553 0.22 1.129 0.186 1.702 0.202 0.02 0.371 0.073 0.469 0.217 0.109 8.258 0.566 16.258 0 24.811-13.893-0.718-28.567 0.472-44.502-1.182 0.401-8.205-0.149-16.583 0-24.023 0.05-2.528 2.091-7.019-1.97-7.482-1.571 1.149-0.426 3.067-0.394 4.726 0.16 8.217 0.198 19.238-0.394 27.174-10.695-0.391-21.587-0.168-30.324-0.788-3.957-0.28-8.079 0.637-11.815-0.394 0.659-7.618 0.401-21.285 0.395-29.537-0.896-0.191-2.013-0.781-2.757 0 0.106 12.234-0.025 18.564 0.787 29.931-8.559-0.564-17.438 0.05-26.779-0.394-1.957-0.093-4.035-0.346-5.907-0.394-2.299-0.058-5.181-0.795-6.695 1.181 3.139 2.724 9.221 0.127 12.996 1.969 1.947-0.958 4.479-0.428 7.089-0.394 2.564 0.034 5.241-0.525 7.876-0.394 0.703 0.035 1.623 0.707 2.363 0.788 2.914 0.318 6.148-0.558 9.058 0.394-0.577 17.81 0.984 37.433 0 51.59-9.82-0.278-26.437-0.736-35.05-0.394-1.562 0.062-3.28-0.566-4.332 0.394 0.615 2.337 4.059 1.897 6.301 1.969 8.83 0.286 18.949 0.356 26.78 0.394 2.36 0.011 5.296-1.511 6.695 0.788-1.028 12.67 0.608 23.519-0.395 37.019-8.338 0.279-18.905-0.473-28.749-0.394-3.833 0.031-7.793-0.549-10.633 0.788 0.227 2.35 3.203 1.493 4.726 1.575 2.055 0.112 4.438 0.033 5.907 0 10.015-0.223 19.472 0.18 29.144 0.394-0.141 18.289-0.701 30.947 0.394 49.622-8.604 0.291-17.543-0.194-25.599-0.394-5.615-0.139-11.023 1.162-15.359-0.394 0.605-13.342 0.291-30.329 0.395-47.259 0.077-12.742-0.416-26.722 0-37.413 0.313-8.072-0.351-16.438-0.395-24.811-0.098-19.008-0.159-39.239 0.395-55.922 0.131-3.96 2.132-8.307-0.788-11.815-2.019 3.408-1.241 8.246-1.182 12.602 0.052 3.72 0.351 8.099-0.394 11.815-1.264-6.975 0.53-17.865-0.788-23.629-2.427 0.355-1.489 3.194-1.575 4.332-0.144 1.921-0.065 4.063 0 5.907 0.41 11.469 1.009 23.614 0.788 35.444-0.247 13.231 0.261 29.676 0 39.776-0.81 31.341-0.657 57.339 0 88.61 0.048 2.293-1.575 4.917 1.182 6.695 1.888-1.305 0.199-1.987 0-4.332-1.144-13.409 0-28.688 0-43.714v-32.69c0-3.524-0.658-7.146 0.787-10.239-0.188 23.728 0.548 43.961 0.394 64.981-0.059 8.139-1.577 19.279 1.182 26.386 35.964-0.458 74.856 1.533 113.42 1.575 7.577 0.008 15.325 0.913 21.66 0.788 1.907-0.038 4.973 0.408 5.514-1.576-0.524-1.236-1.95-0.403-2.757-0.394-4.332 0.05-8.131-0.396-11.814-0.394-16.146 0.012-33.349 0.394-49.621-0.788-3.116-0.226-7.053 0.822-9.846-0.788 22.13 0.33 45.148-0.19 66.949 0.788 2.158 0.097 5.938 1.662 7.089-1.181-0.888-1.869-5.578 0.064-7.089-1.182 0.302-14.723-0.524-33.148 0.395-48.834 2.671-0.895 8.374 1.349 9.058-2.363-2.144-1.961-7.08 1.42-9.452-0.787 0.036-10.746 0.108-25.81 0-36.626 2.5-0.935 9.01 1.572 9.44-2.38zm-144.54 1.97c-1.658-1.837-0.438-4.211-0.394-6.301 0.245-11.52-0.532-25.684 0-37.413 0.283 0.857 0.751 1.838 0.787 2.757 0.52 13.132-1.04 29.261-0.4 40.957zm88.61-55.136c14.447 0.775 31.67 0.004 44.108 0.788 0.176 18.567 0.36 34.839 0 51.985-16.403-0.818-33.143-0.623-44.502-1.182 0.65-19.676-0.25-33.213 0.39-51.591zm-44.5-0.787c13.973 0.128 25.814 0.524 41.745 0.788-0.206 18.505 0.311 34.256 0.394 51.591-17.436 0.044-29.35-0.19-42.532-0.394 0.393-7.953 0.638-16.611 0.394-24.811-0.257-8.621-0.592-17.708-0.394-25.992-0.02-0.56-0.06-1.116 0.4-1.182zm-0.39 54.347c13.781-0.197 28.453 0.75 42.532 0.788-0.588 9.833-0.332 26.435-0.394 37.807-13.463-1.232-29.245-0.22-42.139-1.182 0.55-10.97 0.34-25.05 0-37.412zm0.79 89.792c-0.534-12.244-0.421-34.685-0.394-48.834-0.018-0.674 0.293-1.02 0.787-1.182 14.484 1.441 27.07-0.445 41.352 1.182 0.439 16.936-1.234 33.458 0.395 49.622-14.76-0.49-30.27-0.43-42.14-0.79zm44.1-89.004c18.108 0.359 30.075 0.041 44.108 1.181 0.214 12.125-0.46 25.139 0.394 36.626-15.146 1.255-30.601-0.491-45.29 0 0.96-12.92-0.2-25.65 0.79-37.804zm0 89.794c-0.682-15.951-0.612-35.173 0-50.016 11.905 0.604 29 0.393 44.108 1.182 0.075 14.966 0.094 33.683 0.787 49.228-15.49 0.02-29.44-0.67-44.9-0.39z"
   id="path2388" />
	<path
   d="m27.174 3.544c2.413 18.331 12.502 31.45 21.266 44.502 2.977 4.433 5.396 8.84 8.665 12.996 3.282 4.174 6.231 8.261 9.845 12.208 1.789 1.954 3.265 4.257 4.726 6.301 1.571 2.199 2.515 4.354 3.938 6.695 1.415 2.328 3.396 4.071 4.726 6.301 1.359 2.278 2.402 4.815 3.544 7.482 3.171 7.407 6.013 15.247 7.482 25.205 3.481-3.206 1.95-10.271 0-14.965-1.275-3.071-2.222-6.118-3.15-8.27-0.823-1.907-2.483-3.786-3.544-5.907-0.605-1.208-0.644-2.438-1.182-3.544-0.479-0.987-1.405-1.897-1.969-2.757-2.495-3.799-4.76-7.701-7.483-11.027-2.8-3.42-6.169-6.407-8.664-9.846-2.764-3.81-5.64-7.202-7.482-11.027-2.97-3.95-6.792-7.647-9.452-12.209-1.521-2.609-2.341-5.623-3.938-8.27-3.558-5.896-7.703-11.949-11.027-18.903-1.15-2.407-2.872-5.666-3.544-8.664-0.397-1.769-0.681-4.402 0-5.908 3.57-1.696 3.441 2.8 3.938 4.726 1.935 7.494 4.241 12.896 7.876 18.903 1.117 1.846 2.44 3.614 3.544 5.514 2.32 3.991 3.81 8.312 7.483 11.027 0.578 2.417 1.942 4.521 3.544 6.301 3.513 3.903 7.581 9.142 10.633 14.178 4.54 2.915 6.169 7.157 9.452 11.814 0.475 0.674 1.513 0.935 1.969 1.576 4.297 6.038 8.484 12.239 12.208 19.691 3.2 6.403 5.999 14.336 15.359 10.633 1.127-3.041-0.659-3.512-0.394-7.089-4.378-8.788-8.764-15.809-14.178-23.629-2.926-4.226-7.257-8.178-6.695-16.147 0.813-1.024 1.753-1.922 3.544-1.969-1.307-2.576-2.916-4.972-4.332-7.483-4.145-7.349-7.902-15.698-10.633-24.811-1.689-2.024-4.659-3.742-7.482-5.12-5.117-2.498-9.938-6.477-15.359-9.452-2.274-1.247-4.729-2.764-7.089-3.938-1.991-0.991-6.217-1.282-5.907-4.726 7.822 1.132 14.14 7.106 20.479 11.027 0.27-2.633-0.333-4.393-1.576-5.514 2.324 0.437 0.622-1.935 0.788-2.757 0.29-1.432 0.78-1.554 1.181-2.757 1.575 0.131 2.186-0.702 3.938-0.394-0.782 3.943 0.803 8.768-1.182 12.603 0.946 1.81 2.609 2.904 4.726 3.544 0.407-3.978-0.404-12.165 0-16.146 2.976 0.16 1.969 4.591 1.969 7.482 0 3.401 0.298 6.982-0.394 9.058 3.08 2.171 6.668 3.834 9.058 6.695-0.905 3.074 1.249 6.213 2.363 9.058 1.168 2.984 2.545 5.865 3.938 8.664 2.882 5.793 6.315 11.169 9.846 15.753-0.351 2.274-5.089 0.162-5.514 2.363-0.369 6.256 4.681 10.64 7.876 15.359 2.443 3.608 4.535 7.083 6.695 10.633h9.058c-4.881-13.891-8.975-28.57-14.178-42.139-4.318-0.495-8.42 1.113-11.027-0.788 1.461-3.703 6.238-0.465 10.239-1.181-0.269-3.326-1.883-6.615-3.15-10.239-2.456-7.024-4.719-14.295-7.089-21.267-0.494-1.455-1.528-3.511-1.969-5.12-0.327-1.195-1.47-3.882 0.788-4.332 2.158 1.839 2.366 4.895 3.151 7.482 0.433 1.429 0.66 2.949 1.181 4.332 0.775 2.056 1.966 3.618 2.757 6.695 0.176 0.685 0.157 1.36 0.394 1.969 2.323 5.96 3.709 14.456 6.695 20.479 13.165-0.185 29.167 0.321 40.564 0-2.844-11.26-7.709-23.924-11.421-36.232-0.432-1.431-1.796-3.375-0.394-4.726 2.594-0.231 2.931 1.795 3.15 3.938 7.689 27.558 16.282 51.914 24.023 79.552 1.514-1.461 0.399-3.543 0.394-5.12-0.027-7.859-0.075-15.979-0.394-24.417-0.597-15.823 0.255-31.377-0.394-47.259-0.088-2.165-1.556-5.046 0.788-6.695 2.863 0.804 1.25 4.278 1.182 6.301-0.283 8.439 0.213 18.84 0.394 24.023 14.574 1.197 26.354 0.519 40.958 0.394 0.337-8.713-0.427-17.75-0.394-26.78 0.006-1.791-1.306-5.087 1.575-4.726 1.686 0.365 0.387 2.446 0.394 3.15 0.343 35.672 0.788 74.746 0.788 107.91 0 1.226 0.064 2.714 0 3.938-0.033 0.63 0.679 2.551-0.788 2.757-2.076-0.036-1.159-3.598-1.182-5.514-0.08-6.812-0.131-17.059 0.394-23.629-13.669 0.428-29.897-0.522-40.958 0-0.406 12.962-0.528 26.408-0.788 37.413 14.17 0.499 27.393 1.173 41.351 0.394 0.217-2.671-0.462-6.239 0.394-8.271 2.117 1.37 1.181 5.808 1.181 9.058 0 11.476 0.092 20.846 0 30.718-0.075 8.064-0.289 17.065 0.788 24.811-12.512 0.877-26.618 0.162-39.776 0.394 0.881 3.565 3.202 7.693 1.182 11.814 5.743 1.33 14.907-0.422 20.873 0.394 0.83 0.113 2.235-0.35 2.363 1.181 1.533-1.358 3.437-1.189 5.12-1.181 43.574 0.204 85.042-0.141 126.02 0.394 47.4 0.618 105.07-0.954 159.5 0.394 39.352 0.974 72.672-0.182 115.78 0.788 0.787 0.018 2.896-0.884 3.15 0.788-0.758 2.552-3.886 1.527-5.513 1.575-15.296 0.453-29.088-0.417-44.108-0.394-16.373 0.024-32.955-0.292-49.622-0.394-49.936-0.304-97.42-1.012-150.83-0.394-15.794 0.183-31.694-0.078-46.471-0.394-18.618-0.398-38.739 0.167-57.892 0-25.559-0.222-48.363 0.443-74.433 0-1.295-0.022-3.364-0.629-4.726-0.394-2.436 0.42-4.972 2.838-7.089 4.332-2.161 1.525-4.218 3.129-6.301 4.726 2.236 1.5 4.57-0.341 6.695-0.394 2.888-0.071 4.389 1.023 6.695 1.182 4.241 0.292 8.714-0.194 12.996 0 17.047 0.774 36.285 0.374 51.591 0 46.985-1.146 96.115 0.67 148.86 0.394 25.14-0.132 58.296 0.906 81.915 0.394 1.318-0.028 2.631-0.32 3.938-0.394 7.63-0.43 15.745 0.394 23.629 0.394 28.726 0 53.077-0.042 77.583 0.788 8.75 0.296 17.903 0.651 26.387 0.394 2.449-0.074 4.97-1.419 7.482 0-2.037 2.815-6.198 1.608-9.058 1.575-3.594-0.042-7.454 0-11.027 0-13.93 0-28.061-0.764-41.352-0.788-23.337-0.042-47.729-0.526-72.069-0.394-2.42 0.013-4.739-0.367-7.089-0.394-26.572-0.305-51.893 0.786-76.008 0.394-13.509-0.22-26.135-0.616-39.382-0.788-29.668-0.384-60.361 0.102-91.367 0.394-33.439 0.315-65.762-0.287-101.21-0.394-9.026 9.321 8.171 18.607 7.876 29.143-0.044 1.59-1.092 3.774-1.969 5.514-0.782 1.551-1.651 3.701-2.363 4.726-1.322 1.902-4.124 3.475-6.301 4.726-0.796 0.458-1.805 0.67-2.363 1.182-1.48 1.359-1.691 3.247-2.757 4.726-1.315 1.826-3.002 2.381-3.938 4.332 2.564 1.474 5.878 0.446 9.058 0.395 6.403-0.106 13.572 1.719 16.146-3.545 1.016-2.076 0.626-4.642 1.969-6.694 2.23-3.409 5.138-6.153 7.876-8.664-4.236-3.164-9.271-6.906-9.058-12.603 0.262-6.993 10.396-13.327 14.571-16.935 1.943 0.875 3.723-0.633 5.514-0.394 4.152 0.554 7.428 4.109 10.633 5.907 0.177 1.422 1.01 1.906 0.394 3.15 3.861 1.653 7.505 3.522 10.239 6.301 6.656-1.498 11.613 1.24 15.359 4.726 19.208 0.859 28.917 14.323 35.444 29.143 6.317-0.924 9.718 0.204 17.722 0-0.593-10.713-0.396-21.933 0-32.293 19.608-1.006 36.32 0.418 55.529 0 0.236 8.301-0.05 23.151 0 31.505 0.47 1.036 1.349-1.855 2.363-0.394-0.158 1.51-0.11 4.271 0 5.514 6.547 0.521 11.618-5.189 18.115-6.301 1.267-0.217 2.89 0.108 4.332 0 2.532-0.191 5.85-0.637 9.452-0.395 5.073 0.342 10.719 2.221 16.54 3.545 4.721 3.681 13.617 3.187 18.116 7.089 0.501 0.942 1.438 1.45 1.182 3.15 3.714-2.193 10.62-1.194 13.783-3.938 1.498-0.826 2.591 0.282 3.938-0.394-0.982-4.32-1.282-12.455-0.394-16.146 5.491-2.003 13.379-0.249 20.085-1.575-1.219-8.848 0.17-23.222 0.394-32.688 0.082-3.502-1.411-7.208 0.394-10.24 2.797 2.013 1.235 6.79 1.182 11.027-0.057 4.512 0.158 9.749 0 14.571-0.209 6.386-1.648 13.598 0.788 17.722 2.015-0.334 1.126-3.047 1.181-4.332 0.467-10.876-0.337-26.596 0-35.444 33.787-0.421 64.968 1.201 91.367 0.788 21.753-0.341 44.78 1.219 62.224 0.394 0.803-0.038 3.13-1.349 3.15 0.788-2.535 1.758-5.715 1.182-8.664 1.182-9.922 0-17.824-0.394-26.386-0.394-43.97 0-75.483-0.771-119.33-0.788-0.166 9.196-0.706 15.876-0.788 25.205 15.268 1.971 32.753 0.063 49.229 0.788 5.15 0.226 10.081 0.648 14.965 0.394 1.854-0.813 2.403-3.238 4.726-3.938 3.903-1.176 7.103 0.69 8.665 3.938 20.782-0.453 47.443 0.651 72.069 0.394 2.463-0.025 5.79-1.06 7.482 1.182-0.986 1.964-3.521 1.171-5.12 1.182-5.955 0.038-11.805 0.196-17.722 0-19.508-0.646-34.792-0.448-55.529-0.788-1.189 3.012-2.331 6.07-5.514 7.089 1.41 1.812 3.368 2.004 4.727 3.15 3.183 2.688 4.938 7.449 7.089 12.209 1.065 2.359 2.116 7.012 4.332 7.482 1.853 0.395 4.529-2.087 6.694-2.757 0.933-0.288 2.417-0.108 3.545-0.394 3.121-0.789 5.19-1.665 9.451-1.182 1.928 0.83 2.473 3.042 3.151 5.12h34.262c3.473 0 7.229-0.625 10.24 0.787-0.966 3.249-4.651 1.67-7.089 1.575-11.386-0.439-24.757 0.56-35.838 0-0.691 0.974 0.104 3.819 0.394 5.12 1.756 1.989 4.473 2.33 6.695 3.544 12.315 6.728 23.108 18.394 30.324 31.112 1.167 2.058 2.893 4.359 3.544 6.301 0.441 1.316 1.415 5.158 0 6.695-2.433-0.803-2.867-4.417-3.938-6.695-7.649-16.267-19.701-29.389-36.231-37.413-1.703 3.402-0.745 8.011-1.575 11.815-0.587 2.688-2.372 4.465-2.757 6.694 0.405 1.555 2.085-0.242 3.545 0 1.663 0.307 2.246 1.692 4.726 1.182 1.609-0.034 1.2 1.951 2.363 2.363 2.341 0.194 3.512-0.414 5.119 0 1.273 1.746 2.333 3.705 5.12 3.938 0.103 2.523 1.349 3.902 3.938 3.938-0.638 3.019 1.878 4.164 2.756 5.907 0.572 1.136 0.136 2.573 1.182 3.545-1.045 2.25-0.479 4.496-1.182 7.089-0.83 3.062-3.22 5.588-3.544 8.664-0.116 1.096 0.434 2.612 0.394 3.938-0.04 1.342-0.873 2.655-0.787 3.545 0.183 1.896 1.688 3.41 2.362 5.119 0.943 2.39 0.687 5.107 2.757 6.695 1.519-6.922 6.414-9.102 12.996-11.814 1.301-0.536 2.611-1.972 3.938-1.182-0.702 1.622-0.69 3.343-1.575 4.332-2.533 2.83-9.047 1.186-9.058 6.301 3.635 1.616 8.362 2.14 10.239 5.514-0.23 4.925-0.973 10.033 0 14.571 0.67 3.127 0.032 7.169 0 10.24-17.021 2.722-37.03-1.792-53.954 0.787 1.871 0.928 5.091 0.712 8.271 0.788 9.796 0.234 22.318 0.021 31.899 0.394 1.81 0.07 3.459-0.491 5.12-0.394 1.68 0.099 3.508 1.066 5.119 1.181 1.695 0.121 3.013-0.795 4.332 0-0.051 4.209 0.076 5.902 0.788 9.059-18.43 0.449-36.945-0.833-60.255-0.395-0.593 1.115-1.593 1.821-1.575 3.545 2.111 1.672 5.556 0.788 8.664 0.788 17.229 0 35.397 0.879 52.378 0.394 1.123 11.307-0.301 34.134 0.395 47.652-2.434 3.444-5.934 1.411-9.452 1.182-3.461-0.227-7.45-0.247-11.421-0.395-14.351-0.532-29.918 0.128-43.32 0-5.871-0.056-12.738-0.219-17.722-0.787-0.934-0.042-1.796 0.703-2.757 0.787-7.678 0.675-16.549-0.661-25.205-0.394-13.532 0.419-27.546-0.931-37.02-0.394-1.019 0.058-2.264-0.091-3.15 0.787-0.907-0.462-1.742-0.656-2.757-0.787-6.538-0.842-13.76-0.406-20.085-0.394-15.092 0.03-31.648 0.444-49.621 0-5.559-0.138-11.086-0.592-16.541-0.395-4.463 0.162-8.998 0.871-13.39 0.788-0.815-0.016-1.634-0.712-2.363-0.788-1.675-0.174-3.555 0.009-5.119 0-8.503-0.045-17.151-0.189-25.992 0.395-1.08 5.387 0.334 9.436 0.394 14.571-1.244 1.436-1.685 0.895-3.545 0.394-0.081 1.774-0.578 4.046-1.969 5.514-4.771-0.172-7.988 0.501-11.421 0.787-0.836-0.912-1.865-2.606-3.544-2.756-2.491-0.223-6.247 3.4-10.239 3.938-5.114 0.688-11.501-0.701-16.934-1.182-2.216-0.195-4.3 0.443-6.301 0-1.693-0.374-2.845-1.712-4.726-2.362 2.793-6.266 10.026-8.091 17.328-9.846 1.501-2.617 1.332-6.116 0.788-9.452-1.769-0.152-4.62-0.305-7.088-0.787-0.689 2.604-0.196 4.791 0 7.876-5.006 4.883-13.196 7.365-21.267 5.12-0.784-0.397-0.899-1.464-1.575-1.969-3.563 0.472-6.228-1.756-9.058-1.576-1.865 0.119-3.258 1.441-5.12 1.576-3.795 0.272-7.762-1.943-12.208-2.757-1.801-0.33-3.659 0.377-5.514-0.788 1.9 5.718 7.558 12.202 12.997 14.571 1.763 0.769 4.161 0.118 5.513 1.97 0.057 2.682-3.823 1.428-5.513 2.362-1.756-1.014-3.27-2.024-5.908-1.182-7.736-6.179-14.643-13.187-16.934-24.811-24.967-0.254-53.173-0.816-79.158-0.394-10.082 0.164-19.913 0.898-29.537 0.787-1.724-0.02-3.423-0.749-5.12-0.787-5.375-0.12-10.844 0.212-16.146 0.394-5.825 0.199-11.544-0.312-17.328-0.394-3.125-0.045-6.325 0.792-9.452 0.787-2.571-0.004-4.993-0.466-7.483-0.394-10.557 0.308-21.241 0.584-31.899 0-1.803-4.566-0.244-13-1.969-16.54 1.959-2.938-1.094-9.461 1.182-12.603 3.668 0.139 5.234 2.379 8.664 2.757 1.125-0.205-0.636-0.583-0.788-0.788 5.182 0.009 10.14 1.907 15.359 1.97 3.728 0.044 7.846-0.535 11.421-1.182 7.558-1.367 14.678-4.805 19.691-9.059 6.476-3.033 11.116-8.676 15.359-15.358 4.176-6.576 6.568-12.633 7.876-21.267 1.805-11.908-1.879-26.327-7.483-35.444-0.562-0.913-1.331-1.827-1.969-2.757-4.975-7.25-12.109-12.711-20.873-16.934-4.407-2.124-7.889-3.514-12.208-4.332-11.086-2.103-23.421-1.046-34.262 3.544-1.022-2.913 0.936-4.012 3.544-5.12 4.731-2.009 11.389-3.262 18.903-3.15 11.448-9.949 22.745-20.051 36.625-27.567 1.578-0.507-0.108-0.814 0-1.969 1.007-0.438 2.152-0.736 2.757-1.575 0.142-2.898-0.102-5.412-0.394-7.877-0.419-0.894-2.476-0.149-3.544-0.394-1.258-2.786-1.696-8.134-0.788-11.814 3.216-0.986 7.771-0.1 10.633 0 1.346 0.046 2.567-0.026 3.938 0 1.456 0.028 3.678 0.857 5.12 0.394 1.289-0.415 4.458-4.24 5.12-5.907 0.812-2.046 0.187-4.695 1.575-6.695-0.784-3.806-2.634-5.648-2.757-9.451-0.099-3.06 1.68-5.725 2.363-8.665 0.293-1.259 1.352-6.949 1.182-7.876-0.702-3.825-5.374-3.656-6.695-7.482-3.008-1.587-5.046-4.143-7.483-6.301-3.26 0.759-9.555 3.254-11.421-0.394-4.186 1.591-8.456 3.096-12.996 4.332-3.66-2.641-6.84-5.762-10.633-8.27-8.029 1.292-17.964 0.677-26.386 1.575-1.62-0.119-1.862-3.164-3.151-2.363-2.68-0.927-3.921 3.44-7.088 1.969-0.494-1.857 0.625-2.896 0.788-4.726 0.202-2.273-0.064-5.826 0-9.058 0.068-3.474 0.218-6.967 0-9.846-0.15-1.983-1.158-4.378-0.788-5.907 0.568-2.345 3.779-3.391 5.907-5.514 5.603-5.587 10.841-13.635 14.178-20.479-0.635-6.704-0.042-18.219-0.788-24.811-2.542 0.072-6.043-0.142-9.452 0-3.023 0.126-7.523 1.806-9.058-1.182 0.757-3.184 5.387-2.113 8.664-1.969 3.307 0.146 6.942 0.707 9.845 0.394 0.651-12.553 0.47-25.949 0.394-37.413-2.675-0.523-4.902 1.62-6.301 0 0.097-3.185 4.567-1.997 6.695-3.15 0.75-2.898-2.001-4.72-3.151-6.695-0.588-1.01-0.639-2.258-1.181-3.15-0.831-1.365-2.416-2.544-3.544-3.938-3.221-4.005-6.626-8.343-10.618-11.824-0.565-19.553-2.332-39.085 0-59.073 3.584 0.485 4.87 3.27 7.482 4.726 1.832-0.402-0.983-2.428 0.394-3.544 1.981 0.274 2.745-0.668 4.726-0.394 1.258 3.468-1.322 10.774 3.544 10.633 1.112-2.827-0.299-8.176 0.788-11.027 1.939-1.756 6.142-0.155 8.271 0.393zm129.18 33.081c-0.491 16.71 1.197 34.394 0 51.984 13.998 0.396 24.233 0.124 41.351 0.394 0.333-17.254-0.634-33.495-0.394-53.166h-0.788c-12.52 1.666-27.22 0.27-40.17 0.788zm-136.26 11.027c-0.014-2.611-0.168-5.083-0.788-7.088-0.832 2.007-0.462 5.884 0.788 7.088zm121.7 4.332c-0.495-1.601-1.104-3.568-2.363-4.726-13.117-0.821-27.603-0.667-40.17-0.394-0.24 0.022-0.466 0.059-0.394 0.394 5.311 13.198 8.921 28.098 14.177 41.351 13.519-0.116 28.482 0.181 39.776 0-3.84-12.269-7.33-24.668-11.03-36.625zm-121.3 14.572c8.218 1.137 13.788 6.002 20.873 6.301-3.03-1.696-6.483-2.968-9.452-4.726-5.12 0.131-8.114-1.862-10.239-4.726-0.255-3.104-1.194-8.163-1.575-9.845-0.106 4.796 0.213 9.571 0.393 12.996zm41.745 46.864c0.666 8.001-0.29 15.285-0.788 21.66-0.448 5.735-1.746 10.07-2.757 14.571-1.9 8.455-4.686 15.145-8.271 21.267-2.178 3.72-5.261 8.328-7.876 11.421-2.218 2.622-5.211 5.049-7.089 7.482-0.464 0.602-2.179 2.861-0.788 2.757 3.52-0.288 5.811-1.804 8.664-2.757 3.121-4.756 7.203-8.55 14.572-9.058 2.642-3.003 6.73-4.559 8.27-8.664-1.597-3.927-1.24-10.499-1.182-14.571 0.044-3.074-1.796-7.969 1.576-8.664 0.921 6.299-0.048 14.488 1.181 20.479 2.109-1.47 3.662-4.215 5.12-7.089 1.33-2.622 2.699-6.254 3.544-9.452 0.537-2.031 0.328-4.387 0.788-6.695 0.876-4.395 2.21-9.796 0.788-14.571-2.445-1.493-9.188 1.311-9.846-1.969 1.66-2.518 7.167-0.584 10.239-0.788 1.24-10.986-3.576-19.202-7.089-25.992-0.937-1.811-1.474-4.041-2.363-5.514-1.737-2.879-4.767-5.289-7.089-7.876-2.412-2.688-4.118-6.325-7.482-7.482-0.005-0.397-0.69-0.496-0.788 0 4.301 9.364 7.677 19.612 8.666 31.492zm48.436-8.66c-1.102-3.755 0.325-10.04-0.788-13.784h-6.695c2 5.086 4.08 10.104 7.48 13.784zm1.97-13.787c0.057 4.287-0.605 9.462 0 14.177 0.185 1.367-2.137 0.226-2.363 1.182 3.235 6.576 4.834 13.168 5.12 22.054 10.837 1.557 25.839 0.454 38.988 0.788 0.33-12.162 0.593-26.809 0.394-38.201-14.31 0.231-27.96 0.007-42.14 0.004zm-90.182 2.363c0.591 12.593-0.662 28.475 0 40.17 0.303 5.36-1.11 10.932 0.788 15.359 1.854-6.228 2.748-12.801 3.544-19.691 0.276-2.386 1.316-4.721 1.576-7.089 0.388-3.548-0.501-6.744-0.788-10.239-0.143-1.744 0.2-3.382 0-5.12-0.566-4.937-3.256-9.749-3.938-14.572h-1.182v1.178zm23.236 36.234c-2.332-0.132-4.2-1.113-6.301 1.182h-2.363c-0.623 2.396-0.473 5.565-1.182 7.876 0.963 0.875 1.84 1.835 3.15 2.363 0.074-1.108 0.685-1.678 1.969-1.575 1.347-0.035 0.228 2.397 1.575 2.363 0.712-0.994 2.037-1.376 2.757-2.363 0.57 0.612 0.525 1.837 1.182 2.363 0.873-0.833 0.83-2.583 2.757-2.363 1.158 1.073-0.583 5.046 1.181 5.514 0.73-0.846 0.266-2.885 0.394-4.332 1.535 0.09 2.042-0.846 3.15-1.182 0.125 0.924 0.622 1.478 0.394 2.757 1.858-1.158 2.013 0.918 3.15 1.575 0.215-4.534 2.442-10.735 0.788-14.571-2.499 1.239-4.59 1.239-7.089 0-1.244 0.594-1.546 2.129-3.544 1.969-1.347 0.15-1.183-1.2-1.968-1.59zm70.496 2.36c-0.154 7.905 0.274 14.18-0.788 21.267-1.315 8.771-5.426 16.053-3.544 27.174 2.63 0.665 5.396 0.394 7.876 0.394 2.569 0 5.542 0.812 7.876 0.394 2.412-0.432 3.594-2.707 6.301-2.757 1.987-0.036 3.62 1.543 5.514 1.575 1.01 0.018 0.961-0.437 1.969-0.788 3.055-1.063 4.858-0.417 7.089-1.969 1.062 0.375 2.232 0.966 3.544 1.575 0.917 0.425 2.582 2.205 2.756 0.788-0.501-10.611-1.211-21.222-0.788-32.293 0.209-5.472 1.292-11.09-0.394-16.146-11.58 1.17-25.85-0.36-37.42 0.8zm40.17 0c-0.489 14.447-0.713 34.948 0 49.228 13.572-0.474 29.072 0.979 41.351-0.788-0.47-14.837 0.665-33.064-0.394-48.44-13.33 0.45-28.18-1.13-40.96 0zm-50.81 48.44c0.958 0.761 3.295 0.379 4.332 0v-5.907h-1.182c-0.61 2.41-2.68 3.36-3.15 5.91zm51.2 4.73c-0.289-0.325-1.263-0.081-1.575-0.394-0.322-0.322-0.059-1.271-0.394-1.575-0.267-0.243-1.168-0.455-1.575-0.788-2.89-2.364-5.147-3.636-8.27-1.182 4.591 4.713 10.227 11.297 8.27 20.085 7.86-1.04 8.17-10.94 3.54-16.16zm-11.81 3.54c1.444 0.919 2.979 2.33 4.726 2.363-1.591-4.972-4.63-8.498-11.027-8.664 0.85 3.4 3.8 4.71 6.3 6.3zm48.44-4.72h3.938c0.4-1.8-3.5-0.91-3.94 0zm-7.88-0.4h-8.27c0.049 0.87 1.67 0.167 2.363 0.394 3.547-0.26 8.136 0.522 11.027-0.394-1.82-0.62-3.61 0.01-5.12 0zm-116.18 28.75c3.077-1.149 8.957-7.042 8.271-11.027-0.442-2.57-4.758-3.432-7.089-6.301-1.996-2.457-1.795-5.117-2.363-7.482-2.593-1.435-7.456-4.499-10.633-2.757 1.279 0.297 2.498 0.653 2.363 2.363-1.343 1.228-2.069-0.55-3.544-0.394-0.342 1.301 0.11 3.172-1.969 3.544-1.796-0.698-2.586-2.402-5.12-2.363 1.985 5.498 7.413 7.552 10.633 11.815 0.087 5.689 2.419 9.133 4.332 12.996 1.457-0.3 3.266 0.3 5.119-0.39zm68.528-1.57c-0.442-0.083-0.613-0.437-0.788-0.788-0.13-1.705 2.181-0.969 1.969-2.757-3.85 1.684-8.727 1.285-11.815-0.788-2.976 2.275-2.264 8.238-6.301 9.452-1.278-0.296-0.608-2.542-1.969-2.757-2.538 1.007-3.919 3.169-3.938 6.695 7.004 6.417 16.841-5.308 25.599-0.394 1.244-4.663 2.973-8.841 5.513-12.208-0.411-1.685-0.548-4.156 0.788-5.12 2.019 0.689 3.708-0.208 4.332-1.969-0.467-1.24-2.297-1.115-2.363-2.756 0.227-0.824 0.977-1.124 0.788-2.363-0.982-1.644-2.91-2.341-4.332-3.544-1.396-0.083-0.778 1.848-2.363 1.576h-3.938c-1.18-1.314-1.487-3.501-2.757-4.726-1.979-0.141-3.571 0.104-4.726 0.788-0.358 1.933 1.65 1.5 1.575 3.15-0.612 1.226-1.776 1.899-3.544 1.969-0.839-2.113-0.36-3.098-0.394-5.907 0.283-1.036 2.33-1.493 1.181-2.757-7.976 0.174-20.129-0.447-28.749 0.394-0.775 3.163-4.309 3.567-5.12 6.695 3.489-0.384 5.822 3.577 9.058 4.332 4.6 1.073 9.436-0.02 14.571 1.182 0.931 0.513 0.388 2.5 1.969 2.363 3.278-1.579 1.869-7.845 5.514-9.058 0.067 4.133 4.537 3.865 5.12 7.483-3.288 0.256-7.655-1.995-7.876 3.544 3.473 0.285 5.829 3.476 9.058 3.544 3.691 0.078 5.858-3.428 9.452-4.332 1.11 4.46-2.68 7.29-5.5 9.1zm-25.6-10.64c-1.881-0.324-3.878 0.435-5.907 0-2.15-0.46-3.551-2.539-5.514-3.544-1.381-0.708-6.89-2.631-7.876-1.969-3.789 2.542-6.9 5.365-11.027 7.089 2.679 3.097 7.304 4.248 11.027 6.301 0.647-1.952-1.77-7.639 0.394-9.845 2.165 1.773 0.769 7.107 2.757 9.058-0.2 1.848-0.598 2.693 0.788 3.544 4.073-1.834 0.887-10.928 6.695-11.027-0.975 4.276-3.07 7.432-2.363 13.39 0.19 1.241-1.209 0.892-0.788 2.363 2.636 2.09 6.598 2.854 11.421 2.756v-2.756c2.334-2.129 3.562-5.365 6.695-6.695-0.168-1.875 0.976-2.438 1.969-3.15-1.5-2.39-4.78-4.91-8.27-5.51zm-82.309-3.54c-0.503-0.021-0.545-0.505-1.182-0.394-2.795 2.188-5.447 4.751-8.664 6.695-3.239 1.958-7.308 2.641-9.846 5.514 7.646 0.571 15.188 0.005 23.629-0.394-1.924-3.01-5.891-5.82-3.937-11.42zm91.369 34.65c-0.031-6.137-1.876-7.565-6.301-9.058-3.339-1.127-8.303-0.703-11.814-1.969-3.445-1.242-5.019-5.805-8.664-8.664-1.519-1.191-4.308-2.217-6.695-3.544-3.088-1.717-5.392-3.686-7.876-3.938-1.508 3.218-3.497 5.954-5.513 8.664 6.655 4.97 11.559 13.545 20.085 15.359 0.649-0.926 0.124-3.026 1.575-3.15 1.655 1.364 3.761 2.278 3.938 5.12 3.988 2.97 6.825 7.09 13.784 7.089 1.666 1.485 3.603 2.699 6.695 2.757-0.03-2.88 0.79-5.95 0.78-8.67zm56.31-11.42c-3.277 0.847-4.818 4.399-7.876 5.12-2.348 3.568-6.95 5.75-6.695 10.633 0.223 4.261 4.686 6.629 7.482 9.452 0.09 0.697-0.397 1.972 0.788 1.575 0.633-1.57-0.184-4.695-0.788-6.301 2.79-6.662 6.515-12.389 12.603-15.753 1.281-0.425 3.625 0.212 3.938-1.181-3.4-2.25-5.18-4.64-9.45-3.54zm-49.62 3.15c3.787 3.375 9.665-1.811 13.39 1.969-0.961 0.673-2.812-0.395-4.726 0 1.069 2.523 6.259 2.865 5.514 5.907-5.341-3.98-12.982-5.659-20.479-7.482 1.558 5.573 2.436 14.282 0.394 20.085 5.327 4.781 13.752 6.464 20.085 10.239 6.225-1.783 7.789-8.227 10.239-13.784-1.86-4.31-2.91-9.43-7.089-11.421-0.939-2.474-2.051-4.775-3.15-7.089-4.66-1.56-11.16-1.57-14.17 1.57zm50.02 9.46c0.572-1.348 5.093-4.156 3.544-4.726-1.08 1.41-4.47 2.6-3.54 4.73zm8.27-4.34c-1.2 2.607-4.641 2.973-5.12 6.301 0.525 0.562 2.231 0.562 2.757 0 0.009-0.928-0.678-1.16-0.394-2.363 2.236-1.046 4.37-2.194 5.514-4.332-1.25-0.19-1.4 0.71-2.76 0.39zm7.09 1.18c-1.616 2.848-6.401 2.525-7.482 5.907-0.054 1.629 2.534 0.617 1.969 2.757-3.211-0.921-6.052-1.003-9.452-0.394 0.25 2.77 2.071 3.968 3.544 5.514 2.582-0.586 7.875-1.938 8.271 1.575-12.991 0.031-24.525 4.503-27.174 16.146 2.076-0.002 4.56-2.981 6.301-0.788-0.729 2.554-4.365 2.199-6.695 3.15-2.868 4.221-7.169 7.009-9.452 11.815 2.121 1.73 5.083 1.973 7.483 3.544 1.741 1.14 2.807 2.964 4.332 4.332 3.218 2.888 6.243 5.165 9.452 7.482 3.094-1.894 5.464-4.512 8.664-6.301-0.838-1.365-3.046-2.494-0.788-3.938 1.946-0.371 1.327 1.823 3.15 1.575-0.17-1.06-1.478-2.02-0.394-3.15 5.78 1.184 7.204-2.603 12.996-2.363 0.926-0.123 0.233-1.866 1.575-1.575 1.396-0.083 0.778 1.848 2.363 1.575 2.846 0.436 7.94-1.376 7.483 2.363-4.212 0.198-13.744-1.828-16.935 1.575 4.798 1.294 9.861 3.602 14.965 5.12 3.171 0.943 7.561 0.441 9.452 3.544-4.895 1.251-9.236-1.591-13.784-3.15-2.121-0.727-4.742-0.881-6.695-1.575-0.547-0.194-1.024-1.015-1.576-1.182-1.309-0.396-2.796-0.34-3.938-0.787-1.522-0.598-3.35-0.175-3.544 1.575 8.129 7.092 18.361 13.76 31.899 14.178 0.315 1.89-1.516 1.635-2.363 2.362-0.841-0.277-4.621-1.141-4.332 0 1.59 1.56 6.314 3.746 4.332 6.302-4.912-2.309-6.68-7.761-12.208-9.452-1.108 1.712-4.021 4.676-5.12 6.301-0.97 1.435-1.539 3.695-2.757 5.514-1.393 2.08-3.504 3.554-3.544 5.12-0.074 2.894 4.545 7.18 6.301 8.271 0.865-0.447 1.308-1.317 2.363-1.576 6.209-1.272 9.271-5.693 13.784-8.664 0.453-1.646 0.211-3.989 1.575-4.726 1.012 0.038 0.563 1.537 1.576 1.575 1.442-2.627 3.561-4.578 6.301-5.907 1.883-5.411 6.584-9.344 11.814-11.814 3.983-1.882 8.778-4.008 12.602-4.332 3.852-0.326 7.321 1.282 11.027 1.182-1.445-9.451-6.306-15.486-12.208-20.479-0.572 1.168-1.536-0.519-2.757 0-0.293-1.212 1.081-0.756 0.788-1.969-1.14-1.485-3.908-1.343-3.938-3.938 3.075-0.905 4.383 3.18 7.088 3.938-1.105-5.982-5.511-8.666-7.876-13.39-5.947-5.883-13.185-12.524-24.417-11.815-1.979-2.353-8.282-0.381-10.239-2.757 0.969-1.716 4.554-0.397 6.301-0.394-4.512-5.882-15.333-1.422-19.297 1.181-1.744 1.146-3.336 4.569-5.514 2.757 2.037-4.264 7.907-4.695 10.633-8.27-1.31-1.81-3.43-2.84-5.88-3.54zm-107.91 13.39c-0.217 2.307-0.461 5.735 1.969 7.089-0.352-2.208 2.941-4.013 4.332-1.969-1.542 3.84-3.429 7.335-3.544 12.603 8.93 1.199 14.887 6.899 22.054 9.451 6.216 2.213 10.915-1.452 17.722-0.394 1.101-1.007-1.917-1.721-0.394-3.15h2.756c1.527-2.149 3.22-4.132 5.908-5.12 1.142-2.665 2.867-4.746 4.332-7.089-5.365-1.085-10.491-4.451-14.965-5.119-0.211 4.992-0.032 8.398-1.182 11.421-3.398-2.204 0.624-9.298-1.181-13.784-2.376-1.825-5.749-2.653-6.695-5.907-5.632-1.72-12.652-2.05-15.753-6.301-4.075-1.176-5.905-4.597-11.421-4.332-0.281 3.75-3.541 8.25-3.95 12.6zm89.001-4.33c0.646 0.065 0.646-2.427 0-2.363-0.35 0.31-1.74 2.41 0 2.36zm100.03-2.36c-0.853-0.065-1.662 0.829-1.969 0.788 0.257 7.736-1.063 20.348 0 29.931 6.959-0.24 11.233 0.576 16.147 0-1.65-4.907-10.028-0.7-10.24-7.089 1.997-6.09 12.825-6.516 9.846 2.757 1.423 1.465 2.653 3.123 4.332 4.332 10.973-0.047 20.103 0.653 31.9 0.394-1.133-9.369 0.355-21.359-0.788-30.718-14.18-0.5-36.36 0.6-49.23-0.39zm-101.21 6.3c-0.232 1.413 0.458 1.905 0.788 2.757 1.713-0.65 4.219-0.507 5.12-1.969-1.017-1.006-2.527-0.058-3.544-1.576-0.37 0.69-1.24 0.87-2.37 0.79zm337.9 3.15h2.757c0.114-1.953-0.804-2.872-2.757-2.757v2.76zm-4.72-0.79c0.573 0.608 2.017 0.347 3.151 0.394v-1.575c-1.55-0.1-2.74 0.15-3.15 1.18zm-66.56 12.61c2.195 0.568 3.759-0.976 4.726-0.394 0.809 5.438-0.229 9.949 0.788 16.146-1.011 0.04-0.633 1.468-1.182 1.97-1.395-0.227-2.133 0.884-3.544 1.181-2.083 0.439-5.703-0.513-7.089 1.182 1.664 1.382 3.267-0.655 5.119-0.394 0.738 0.75 0.043 0.989 0 1.97 1.435 0.252 0.487-1.877 1.575-1.97 16.141-2.032 29.265 1.273 44.108 0-2.254-9.75 3.129-17.229 9.058-21.267-1.105-1.52-2.256-2.994-2.757-5.119 1.144-1.663 3.424-0.323 5.907 0 2.476 0.322 5.412 0.354 7.877 0.787-0.768-1.201-1.251-2.687-1.575-4.332-18.157-0.56-44.567-0.078-63.405-0.787-0.52 2.9-0.98 8.7 0.38 11.02zm69.71-5.52c-0.606-1.39 0.212-1.762-0.395-3.151-2.013 0.176-3.877 0.202-3.938-1.575-0.87 2.41 1.9 4.33 4.33 4.73zm1.97 0c1.828-0.142 2.597-1.342 3.15-2.757-0.653-0.66-2.312-0.313-3.544-0.395-0.59 1.21-0.11 2.05 0.39 3.15zm-13 18.51c0.22-0.766 1.554-3.107 2.362-3.938 2.773-2.845 10.461-3.423 11.027-6.695 0.561-3.239-2.39-3.132-3.938-5.514-4.172-0.534-9.874-2.226-14.571-1.575 0.741 3.066 7.723-0.108 8.664 2.757-1.627 1.17-4.276 0.196-6.694 1.182-0.85 2.329-3.262 2.792-4.727 4.726-5.137 6.787-3.407 18.453-1.181 26.78 4.55-1.62 5.635-6.705 10.239-8.271-1.54-4.15-1.93-6.85-1.18-9.46zm-217-9.84c1.073 1.435 3.88 0.682 4.726-0.395 0.07-3.4-4.99-2.73-4.73 0.4zm148.87-1.58c-4.848 0.182-9.875-0.014-14.571 0-0.705 3.426-0.462 8.329-0.394 11.421 3.927-0.011 8.035 0.159 11.421-0.394 0.605-2.151 0.349-5.165 0.394-7.876 0.126-1.045-2.206 0.368-1.575-1.182 3.127-1.6 8.439-1.013 12.996-1.182-1.88-2.44-5.73-0.88-8.27-0.79zm70.89 11.03c-1.407 3.063-0.213 5.84 0.394 9.059 1.198-1.165 4.488-0.238 5.12-1.97-0.899-0.808-0.726-2.688-2.363-2.757 0.336 1.508 0.741 3.056-1.182 3.15-2.807-3.218-0.073-7.25 2.757-9.451 3.86-3.003 10.042-2.494 9.452-8.271-0.504-0.021-0.546-0.505-1.182-0.394-1.15 7.1-10.38 4.92-13 10.63zm-65.38-2.76c-2.622-0.054 0.662-5.604-1.182-5.907-1.429 1.756 0.141 5.404-0.394 8.664 0.807 0.609 3.525 0.609 4.332 0-1.182-2.842 0.706-6.359-0.394-9.058h-1.969c-0.51 1.06 2.02 5.6-0.4 6.31zm-3.54-0.39c0.736-0.891 0.538-4.196 0-5.12-0.503-0.021-0.546-0.505-1.182-0.394-0.68 1.49-0.44 5.03 1.18 5.51zm8.27-5.12c-1.488 2.094 0.396 5.562-0.788 8.271 0.864 0.87 1.609-0.39 3.15 0-0.192-1.243 0.71-1.391 0.394-2.757-0.745-1.05-2.267 1.522-2.756-0.394 0.721-0.854-0.074-3.225 0.787-3.938 1.266-0.347 0.54 1.299 1.575 1.182v-2.757c-1.19-0.28-1.15 0.68-2.35 0.4zm-355.23 3.15c-1.799 1.435-1.759 1.741-3.15 3.544-1.617 2.096-2.749 3.604-3.938 5.907-0.868 0.832 0.505 1.164 0.394 2.363-1.503 0.859-2.415 2.312-2.757 4.332 12.258-5.419 35.114-6.818 48.834-2.757-0.305-2.8 0.595-4.393 0.394-7.089-14.443 6.034-23.605-5.665-35.838-7.877-0.59-0.459-0.963-1.137-1.969-1.181-0.361 1.47-1.071 2.06-1.964 2.77zm435.96 11.42c1.113-0.325 1.021 0.556 1.969 0.395-1.094-4.366-2.116-9.049-4.726-11.814-0.087-0.308-0.33-0.458-0.788-0.395 0.75 4.37 3.67 6.57 3.55 11.81zm-7.09-8.67c1.546-1.337 0.377-2.506-1.182-1.181 1.354 3.784 2.387 8.31 5.514 9.845-0.48-3.84-2.45-6.2-4.33-8.66zm-142.96 1.98c-2.937-0.757-6.209-2.414-9.451-2.757-9.146-0.967-17.886 1.058-22.842 3.544-0.34 1.915 1.127 2.023 0.787 3.938-1.198 3.79-1.565 8.411-4.726 10.239-1.989 5.984-2.823 12.055-3.938 18.116 4.14 2.687 5.536 8.116 11.815 8.664 0.315 1.366-0.587 1.514-0.395 2.757 2.513 1.854 5.205 5.513 3.545 10.239 1.238 0.468 2.084 1.329 3.544 1.575-1.283-8.431-6.033-13.396-9.058-20.085 2.075-6.326 8.174-8.629 11.814-13.39-0.916-1.099-2.52-2.05-3.544-3.938-0.311-0.572 0.021-1.796-0.394-2.757-0.405-0.938-0.999-0.778-1.182-1.575-0.571-2.486-0.781-6.635 2.362-6.695 0.047 1.48-0.438 2.749-0.394 3.938 0.185 4.979 3.323 6.306 4.332 9.846 3.168-2.14 3.705-5.773 5.907-8.664 3.851-5.052 10.153-6.753 16.146-9.846h3.151c-0.68-2.91-4.41-2.38-7.48-3.16zm-239.83-1.19c-1.14 2.535-4.737 2.614-3.938 7.089 8.459-0.205 14.937 0.209 22.448 0 1.292-2.384 2.93-4.421 4.332-6.695-9.02-0.68-14.75 0.09-22.84-0.39zm127.2 6.7c9.243 0.551 29.124 0.544 39.382 0.394-1.734-2.729-4.525-4.401-6.694-6.695-11.864 0.109-24.45-0.576-35.05 0.395-0.711-0.732-1.445-1.443-3.151-1.182 1.23 2.97 3.03 5.37 5.51 7.09zm255.2 1.57c-0.087-3.584-3.484-5.531-2.757-8.664h-1.182c0.34 2.34 1.06 7.56 3.94 8.66zm-84.67-7.87v1.182c1.077 0.693 4.412 0.92 3.544-1.575-1.23 0.07-2.89-0.27-3.54 0.39zm-367.44 0.79c-0.587 1.382-0.448 3.49-0.788 5.119 2.666 1.642 8.237 1.76 12.603 1.182 1.02-2.523 2.583-4.505 3.544-7.089-4.335 0.6-10.331-0.05-15.359 0.79zm233.54-0.4c2.602 2.424 4.113 5.957 7.876 6.694 1.489 0.292 3.39-0.413 5.12-0.394 3.505 0.039 7.201 0.411 10.633 0 1.194 0.013 0.381-1.981 1.575-1.969 2.334 0.402 5.589-1.076 5.514-4.332-9.33 0-22.66-0.02-30.72 0zm210.69 2.36c1.627 1.524 0.846 5.455 3.938 5.514 0.118-2.162-2.172-5.125-3.545-7.089-0.13 0.54-0.56 0.76-0.4 1.58zm-180.76 3.15c-0.828 5.04-1.652 9.858 0 14.572 0.304 1.323 2.494 2.241 1.182 3.938-3.685 0.534-2.188-4.112-3.938-5.513-0.175 1.268-0.601 2.286-2.362 1.969-1.129-3.729-2.043-7.672-2.363-12.209-2.863 0.26-6.188 1.78-9.846 2.363 0.103 2.14 2.515 3.302 3.938 4.726 4.882 4.883 10.358 9.493 15.359 13.784 1.289-4.4 1.153-8.222 1.575-12.996 1.153-0.947 2.886-1.315 4.726-1.575 1.882-3.632 4.456-6.571 4.332-12.209-4.2 1.07-8.21 2.31-12.6 3.16zm67.73 4.34c-3.151-4.05-7.719-7.001-14.177-4.727-1.032 0.543-1.356 1.795-2.757 1.969-7.59 1.132-13.818 5.123-16.935 11.815 1.852 1.955 3.925 3.688 6.695 4.726 1.576 1.836 3.362 3.463 5.119 5.12 0.09 0.697-0.396 1.972 0.788 1.575 1.862 0.156 1.796-1.617 3.938-1.182-0.284-1.203 0.403-1.436 0.395-2.363 1.283-0.685 1.971-1.967 3.544-2.362 1.427-2.513 1.825-6.052 3.938-7.877 1.579 0.874 0.38 3.107 0 4.332-1.232 3.969-4.377 6.577-6.695 8.664 2.379 0.147 4.353-0.111 6.302-0.394 1.31-0.317 2.132-2.603 3.544-1.575-0.529 5.64-8.604 3.735-13.784 4.726 0.126 1.57 0.022 2.91-0.787 3.545-1.238-0.481-2.084-1.591-3.545-0.788-2.346 3.031 2.404 5.369 4.727 5.514 0.456 0.028 1.598-0.68 2.757-0.788 5.398-0.503 5.371-2.661 7.876-5.514 2.472-2.813 5.433-4.662 6.695-5.907-0.583-0.073-0.361-0.951-0.394-1.575 5.13-2.964 4.682-9.157 5.119-16.54-1.2 0.28-1.43-0.4-2.36-0.39zm-70.49 8.27c-0.041-4.111-0.072-8.211 0.395-11.814-3.97 0.71-2.78 10.34-0.4 11.81zm228.02-3.94c-0.372-3.827-1.665-8.074-5.12-7.877-0.004 0.521-0.689 0.36-0.787 0.787-0.582 2.181-1.645 4.957-1.969 7.877-0.248 2.231 0.353 5.104 0 7.482-0.375 2.521-0.864 4.525-0.395 7.482 0.46 2.893 1.242 7.029 3.545 7.483 4.15-2.33 5.46-15.84 4.74-23.23zm-127.99 1.57c-1.636-5.314-6.891-11.546-14.178-7.483 2.873 4.29 8.597 7.58 8.271 13.784 1.95 2.513 3.874 5.053 3.938 9.452 1.522-0.972 3.962-1.026 4.332-3.151-2.22-4.16-1.95-8.37-2.36-12.6zm106.73-3.54c0.222 3.323 1.517 5.572 1.575 9.058 1.758-1.773 2.637 0.062 4.727-1.575 0.929 0.122 0.732 1.368 1.969 1.182 4.049-2.121 2.371-9.969 4.726-13.784-5.43 0.61-9.17 2.92-13.01 5.11zm-107.12-4.33c0.308 1.529 1.24 2.436 1.969 3.545 0.354-1.354 0.462-2.952 1.575-3.545-0.85-0.04-2.42-0.62-3.54 0zm-291.04 5.9c-2.73-0.938-5.183-1.099-8.271-1.969-0.939-0.265-1.759-0.99-2.757-1.182-2.422-0.465-4.524-0.582-5.907-0.787-6.13-0.911-11.042 1.099-17.328 1.969-1.887 2.552-8.509 3.372-8.271 6.695 5.469-2.019 12.258-2.02 18.904-2.363 6.148-0.318 13.278 1.053 18.116 2.757 1.544 0.544 2.52 1.409 3.938 1.969 2.051 0.81 4.301 0.731 5.908 1.575 1.834 0.965 2.886 2.996 4.726 3.545 0.549 0.501 0.171 1.929 1.182 1.969-0.191-4.77-0.846-5.989 0.788-9.451-3.75-1.84-7.05-3.35-11.03-4.72zm-0.78-2.75c5.128 1.305 9.18 3.686 13.784 5.514 0.386-1.364 2-2.239 3.15-3.544 0.746-0.847 3.183-3.548 1.969-3.545-6.75 2.54-11.72-0.55-18.9 1.57zm33.47 5.51c-3.178-2.802-5.438-7.344-11.027-7.089-2.451 2.776-5.53 6.247-7.089 9.452-0.771 1.586-2.607 2.568-1.182 4.726 3.024-0.137 4.621 1.155 5.12 3.545-1.956 2.676-2.661-1.738-5.907-1.182-3.37 10.346 7.015 15.1 6.301 24.022-1.355 0.648-3.167-1.163-3.151-3.15-2.265 2.067-4.302 4.362-5.12 7.877 7.037-2.284 13.51-5.132 18.904-9.059-0.795-5.462 2.583-9.36 1.181-12.996 3.563-1.024 0.092-6.653-1.969-7.089-1.707 0.395-2.509 1.691-4.726 1.576-0.44-0.611-1.28-0.82-1.182-1.97 5.152-1.149 8.737-3.865 12.996-5.907-0.18-1.82-1.98-1.74-3.14-2.76zm277.25-0.39c-2.011-0.311-4.181-0.482-4.726 1.575 1.512 1.75 6.203 0.633 7.482-0.394 1.133 2.085 6.025 1.139 7.876 0.394 1.202 4.573 4.177 7.376 5.907 11.421 4.105-0.752 7.784-1.93 12.603-1.969 1.706-5.515 5.187-9.254 8.271-13.391 1.993-1.025 4.098-1.941 5.119-3.938-12.992 1.223-30.355-0.518-42.139-0.395-0.19 2.18 0.44 5.17-0.39 6.71zm71.68-5.91c-2.045 0.05-3.14 1.167-4.332 1.575-2.636 0.902-5.015 1.246-7.089 2.363-1.295 0.696-4.943 3.05-5.907 3.938-1.616 1.487-3.229 4.073-3.151 5.514 0.329-0.901 2.42-1.078 3.151-0.394 0.135-1.44 1.348-1.803 2.362-2.363 1.332 0.506 1.228 2.448 3.15 2.363 1.208-0.499 2.072-1.341 3.151-1.97 0.683 0.499 1.031 1.331 2.362 1.182 1.665-3.222 2.661-1.395 5.514-0.394 1.522-0.053 1.554-1.598 2.757-1.969-0.046 1.358 0.795 1.831 2.363 1.575 0.976-4.275 1.466-9.036 3.544-12.209-2.61 1.01-5.7 0.74-7.86 0.79zm-249.29 9.06c-2.273 3.326-4.431 1.803-7.876 1.182-6.404-1.153-9.232 0.345-13.784 2.363-2.765 1.226-5.998 1.868-7.876 3.15-3.6 2.457-5.089 6.449-7.089 10.239-0.896 0.285-2.012 0.351-2.757 0.787-0.902 3.299-3.851 4.551-5.514 7.089 1.226 3.107 2.369 6.295 3.938 9.059 2.866-1.538 5.936-4.27 7.482-6.695 1.022-1.604 0.847-4.87 3.544-5.12 0.349 6.405-5.958 9.519-9.058 13.784 1.962 0.717 0.14 2.164 0.788 3.15 3.589-0.874 2.911-6.016 6.301-7.089-0.24 3.829-1.758 6.381-4.332 7.877-2.662 10.189-2.841 20.802-4.726 31.506-0.533 3.025-1.04 6.646-1.969 9.058-0.492 1.276-1.612 2.201-1.969 3.544-0.438 1.647 0.017 3.421-0.394 5.12-1.509 6.239-7.144 11.173-6.301 18.51 4.052 5.794 10.039 9.652 18.116 11.421 1.904-2.116 1.418-4.846 1.575-8.271 0.518-11.271 2.657-22.569 3.544-33.869 0.609-7.756 0.277-14.607 1.969-21.66 0.076-1.52-1.829-1.059-1.575-2.757 3.126-4.878 4.508-12.81 6.301-19.297 0.609-2.204 1.92-4.281 2.363-6.301 1.324-6.039 0.969-10.925 3.15-14.966 1.182-2.188 2.869-3.781 4.726-5.119 1.257-0.906 3.992-3.356 6.695-1.575-2.981 2.653-6.859 3.081-9.058 6.694-2.057 3.381-1.891 8.512-2.756 12.996-0.321 1.663-1.556 3.263-1.969 5.12-0.19 0.852 0.225 1.965 0 2.757-0.199 0.702-1.004 0.869-1.182 1.575-1.16 4.615-1.507 9.293-3.544 12.603 0.784 5.752-1.293 10.235-1.969 14.965-0.585 4.093 0.09 9.094-1.182 12.209 3.694 2.738 4.987 7.878 7.089 12.208 0.525 0.656 2.231 0.132 2.757 0.788 2.728 5.017 9.112 6.377 10.633 12.602-0.401 0.518-0.386 1.452-0.788 1.97 1.56 6.448 4.108 11.907 7.089 16.935 7.035 4.517 11.708 11.396 17.328 17.328 1.415 3.26 5.677 7.153 3.544 11.42-3.905-9.091-9.797-16.194-16.934-22.054 0.271 4.084 1.358 7.425 1.969 9.846 0.581 2.302 0.419 4.939 1.182 7.482 0.889 2.968 3.244 6.861 4.332 8.664 3.416 5.661-6.021 8.268-2.757 14.571 8.028 0.341 15.999 0.423 21.267 2.757 1.239 0.549 1.967 1.92 3.151 2.363 4.751 1.778 8.726 0.785 10.633-1.969-1.013-10.957-2.095-23.778-4.726-34.263-4.205-2.964-3.707-10.158-5.12-16.146-1.741-7.385-6.097-15.227-8.27-21.267-4.857-4.689-5.63-12.863-7.876-20.085-0.481-1.545-1.915-3.141-2.363-4.727-0.166-0.587 0.228-1.406 0-1.969-2.252-5.547-8.908-9.684-9.058-15.359-1.034-0.673-2.27-1.144-1.969-3.15-3.884-1.366-6.686-3.815-10.239-5.514-0.938-0.769-3.653 0.24-3.938-1.182 0.409-1.429 1.23-2.444 2.363-3.15 7.887-1.307 10.196 5.01 15.753 4.727 0.797-3.734-2.971-6.183-4.332-9.059-1.226-0.541-2.585-1.223-3.938-1.969-1.068-0.589-3.435-0.776-3.15-2.757 8.433-0.949 10.459 7.919 14.965 12.208 1.047-4.283 3.344-5.604 2.756-10.633-1.218-10.428-12.495-19.025-14.177-28.749-0.424-1.413-2.521-1.154-2.363-3.15 2.314-1.41 4.178-0.998 7.876-1.182-0.295-1.28-0.713-2.438-1.181-3.544-2.605-0.505-1.362 2.838-3.938 2.362 0.001-1.916 2.185-4.846 4.726-5.513 1.65 2.682 2.909 5.754 4.332 8.664-1.577 1.657-4.565-0.191-7.483 0.394 1.346 9.334 10.848 17.183 13.784 26.779 0.558 1.825 1.391 4.854 1.181 7.089-0.317 3.379-3.797 7.125-1.575 12.209 4.156 1.805 12.785 1.056 17.329 1.182-1.007-3.144-0.413-6.423-1.575-9.452-0.715-1.86-2.922-3.788-3.938-6.301-0.295-0.729 0.213-1.702 0-2.363-0.084-0.262-1.055-0.896-1.182-1.182-1.427-3.21-3.035-4.699-4.332-7.089-2.183-4.02-3.673-10.591-2.363-16.146 1.368-5.799 7.501-11.703 11.42-14.571 1.91-1.397 4.723-1.524 5.907-3.544-12.847-0.36-26.883 1.099-40.169 0 0.33 3.73 3.09 5.05 2.76 9.45zm264.65 15.36c3.006-6.79 0.022-19.166-2.756-24.417-1.245-0.616-1.729 0.217-3.151 0.394-3.024 6.717-3.604 17.378-1.575 25.992 1.163 1.2 2.407 2.319 4.332 2.757 0.55-1.78 2.3-2.81 3.15-4.72zm-128.78-24.42h-0.788c-1.499 3.474-1.213 5.878-1.575 9.846 1.55-0.001 3.533-2.506 4.332-0.788-1.803 3.055-5.611 4.104-4.332 10.239-0.5 1.338-2.184 1.492-2.362 3.15 1.14 3.609 3.555 2.84 7.482 2.363 0.753-1.873 1.867-3.384 3.938-3.938 2.169 0.719 1.58 4.196 3.544 5.12 1.578-1.341 3.134-2.568 1.575-5.12-0.876-0.306-2.136-0.228-2.363-1.182 0.307-1.662 1.762-2.177 3.151-2.756-0.193-1.77 0.199-2.951 0.394-4.332-1.426 0.106-2.716-1.107-1.575-2.363-1.798-0.354-2.232 0.655-3.545 0.787-1.178-1.926-3.962 0.166-4.332-2.362 0.573-1.659 2.931-1.533 3.151-3.545-3.08-0.87-4.05-3.84-6.7-5.12zm-333.57 1.18c0.402 2.036 0.143 2.56 0 4.726 3.373-0.171 5.016-2.072 5.513-5.12-2.054-0.14-4.024-0.51-5.513 0.39zm256.77 36.23c2.365-3.597 3.1-10.742 3.545-14.966-2.759-3.103-6.564-6.662-9.452-9.451-1.141-1.102-2.077-2.538-3.15-3.545-1.431-1.341-3.411-1.884-4.726-3.15-1.529-1.474-3.413-6.023-6.302-4.726-7.1 3.189-16.605 10.835-16.934 20.479-0.275 8.054 4.525 12.777 8.665 17.722 1.86 1.667 6.794 3.174 4.726 6.302-2.424 0.061-2.656-2.07-4.726-2.363 2.396 6.4 10.577 7.014 12.996 13.391-0.804 0.115-0.772 1.065-1.575 1.181-3.435-0.932-4.627-6.092-7.877-5.907 0.604 2.941 0.72 6.369 2.757 7.877 4.605-0.045 13.444 0.18 18.116 0 1.44-7.47 3.41-14.43 3.94-22.83zm103.18-29.53c-0.103-1.152 0.891-1.21 0.788-2.362-0.504-0.022-0.546-0.505-1.182-0.395-0.54 0.53-0.75 2.75 0.39 2.76zm-227.63 7.87c-3.067-4.285-9.115-5.588-12.208-9.846h-1.182c-3.141 3.16-6.566 6.036-10.633 8.271-1.939-0.949-3.221-2.556-4.726-3.938-2.292 0.858-4.34 1.961-5.514 3.938 0.694 3.112 2.414 5.2 1.969 9.451 3.502 4.506 7.867 8.148 9.452 14.571 2.209 0.548 3.867 1.647 5.907 2.363 2.415-0.998 4.021-2.805 6.301-3.938 0.546-0.503 0.241-1.859 0.788-2.362 3.08-1.982 5.064-4.217 7.089-7.089 1.08-1.532 1.648-3.686 2.757-5.12 1.375-1.78 3.897-2.552 3.938-5.119-1.2-0.5-2.15-1.26-3.95-1.17zm235.11-7.48c1.433 0.251 1.548-0.816 1.575-1.97-0.503-0.021-0.545-0.505-1.181-0.394 0.01 0.93-0.68 1.16-0.4 2.36zm-102.39 5.91c0.618-2.271 1.164-4.612 1.97-6.695-0.504-0.021-0.546-0.505-1.182-0.394-0.73 1.64-1.42 5.39-0.79 7.09zm113.42-2.36c1.149 2.704 0.45 4.905-1.575 6.301-1.972 0.266-3.049-0.364-4.726-0.394-0.703 1.267-1.425 2.514-3.938 1.969v2.363c2.938 0.469 2.982 3.657 2.363 6.695 6.094-3.096 11.406-6.972 18.903-8.664-0.631-3.701-3.15-5.514-4.332-8.664-2.21-0.11-4.45-0.35-6.69 0.38zm-86.64-0.4h-0.788c-3.688 5.764-10.086 8.817-13.783 14.571 1.449 2.357 2.038 5.575 4.332 7.089-1.624-6.533 3.772-14.09 7.876-11.027-0.142 1.434-0.799 2.352-1.182 3.545 0.876 0.306 1.536 0.827 2.757 0.787 1.302-0.93 1.224-3.24 3.545-3.15 0.566 0.221 0.961 0.614 1.182 1.182-0.357 1.48-2.013 1.663-1.97 3.544 1.357-0.017 3.407 2.937 4.332 0.788-0.41-1.297-3.357-0.056-2.757-2.363 0.044-1.006 1.319-0.781 2.363-0.787-0.003-2.76 2.331-3.183 3.938-4.332-0.239 1.795 0.881 1.619 1.969 1.181-1.67-5.96-6.97-8.26-11.82-11.03zm125.24 4.33c0.074 1.244 2.909 0.913 3.544 0.394 0.616-1.244-0.217-1.729-0.394-3.15-1.97 0.01-2.23 1.72-3.15 2.76zm-5.91 0.4h1.575c-0.175-0.744 0.535-2.374-0.788-1.969-0.17 0.75-1.13 0.71-0.79 1.97zm-61.83 9.05c1.104 0.865 0.404 3.533 2.362 3.545 1.569-2.946 1.392-8.348 0.395-11.814h-1.182c-1.13 3.02 1.07 7.05-1.57 8.27zm11.81-5.9c-0.989 2.687-4.29 3.062-6.301 4.726 0.782 3.539-1.407 4.107-1.575 6.695h6.301c-0.608-3.871-0.977-8.901 3.15-8.271v-3.15h-1.57zm98.85 14.18c-6.241-4.479-13.539-7.745-21.267-10.239-1.702-0.549-3.388-1.101-5.12-1.575-9.709-2.663-26.499-3.875-36.625-0.788-0.905 0.276-1.788 1.194-2.757 1.575-1.231 0.485-2.625 0.379-3.544 0.788-1.74 0.774-3.023 2.276-4.727 3.15-5.794 2.975-11.564 4.372-16.146 8.271h-2.757c-2.578 2.409-6.266 3.435-9.058 5.514-1.446 1.077-2.571 2.236-3.938 3.15-2.47 1.651-4.424 3.28-6.301 4.726-4.973 3.83-11.015 6.23-14.571 11.027-5.607 2.065-9.386 6.853-14.178 10.239-2.36 1.668-4.976 3.072-7.483 4.726-2.393 1.578-4.707 3.507-7.088 5.12-4.71 3.189-9.753 6.395-14.966 9.451-10.432 6.118-21.807 11.93-37.413 10.634-1.155 1.081-0.865 1.818-1.182 3.15-0.521 0.393-3.105 2.05-1.182 2.363 5.748-0.784 11.003-1.525 16.147-2.363 6.356-1.035 9.199-2.474 14.178-4.726 9.166-4.147 16.581-9.163 24.417-13.784 10.944-6.455 20.934-14.231 30.718-20.479 5.107-3.262 9.857-6.843 14.965-10.239 8.243-5.481 17.565-10.457 26.387-14.966 2.243-1.146 4.154-2.588 6.301-3.544 2.926-1.303 6.237-2.111 9.452-3.15 3.449-1.115 6.702-2.771 9.846-3.151 4.869-0.587 10.416-0.401 14.571 0 11.615 1.125 21.188 4.889 30.324 8.664 8.196 5.982 15.113 11.457 20.872 19.298 1.874 2.551 4.269 5.004 5.907 7.482 4.267 6.451 7.804 13.625 16.147 15.359-3.12-18.96-16.15-35.78-29.94-45.67zm-150.04-1.19c1.187 2.096 3.197 3.367 5.12 4.726 0.729 0.848 0.473 2.679 2.363 2.363 0-2.757-0.668-4.846-0.395-7.876 1.853-1.432 4.224-1.132 7.089-0.788 0.115-2.013 0.659-3.476 2.757-4.332 1.022 0.685 0.798 2.615 0.788 4.332h6.694c-0.532-2.252 3.04-2.455 1.97-3.938-2.14 0.486-3.9 1.352-6.302 1.575-1.766-2.172-3.834-4.041-4.332-7.482-6.44 2.64-6.57 11.57-15.76 11.43zm157.53 0.4c-0.311-3.496-1.086-6.527-2.757-8.664 0.48 3.32 1.96 5.65 2.76 8.66zm-212.28 29.53c2.375-2.137 1.703-5.334 2.363-8.271 0.523-2.329 1.977-5.15 1.575-8.271 2.176-6.493 2.633-14.488 4.332-20.479h-1.182c-2.81 11.89-5.04 24.36-7.09 37.02zm86.25-33.47c-0.563-1.176 0.322-1.339-0.394-2.363-1.584-0.271-2.248 0.377-3.544 0.394 0.664 1.298 0.233 2.519 0 3.938h11.026c0.691-1.767-0.047-4.382-1.575-5.119-1.81 1.09-2.22 3.56-5.53 3.15zm-243.77 4.33c1.134 0.047 2.578-0.216 3.15 0.394-0.983 3.755 1.67 6.887 1.575 11.027 4.763-0.3 7.718 1.208 10.239 3.15-0.289 2.444 1.899 3.914 3.151 5.907 0.928 0.009 1.159-0.679 2.363-0.394 0.398-2.311-2.98-5.545 0-6.695 1.153 0.554 1.211 2.202 1.182 3.938 4.585 2.955 11.272 1.759 18.509 1.182-1.562-2.57-3.399-5.392-6.695-5.12-0.326-1.113 0.555-1.021 0.394-1.969-3.373-1.592-3.046-6.438-6.695-6.695-0.884-0.062-3.031 0.991-3.938 1.575-2.301 1.482-3.82 4.822-7.089 4.726-1.749-2.844-5.211-5.186-9.846-3.938-0.005-0.783-1.074-0.501-0.788-1.575-0.03-2.109 3.364-0.188 3.151-1.576-2.338-3.7-4.395-7.682-7.876-10.239-0.45 1.87-0.51 4.17-0.76 6.28zm169.34-3.54c0.061-0.979-0.619-1.219-0.788-1.969h-1.575c-0.36 1.79 1.29 1.59 2.36 1.97zm16.93 0.39c0.221 1.963-0.582 3.428-1.181 5.513 4.633 7.707 11.979 12.699 18.903 18.116 0.358-0.691 1.38-0.721 1.969-1.182 0.188-8.064-4.146-11.605-4.726-18.903-2.324-0.981-3.224-2.919-5.514-2.757-2.096 0.148-3.405 3.96-5.907 2.363 0.503-1.467 1.259-2.68 1.575-4.332-2.34-1.65-2.12 2.2-5.11 1.18zm-19.29 13.78c1.471 5.428 2.478 11.439 3.544 16.146 2.223 0.122 3.503-0.698 5.907-0.394 1.422-2.17-0.542-4.249-0.787-6.301-0.431-3.597 0.161-7.462-0.788-11.027-0.752-2.827-2.911-4.721-2.757-7.876-2.146-0.742-3.71-2.066-5.513-3.151-1.57 4.96-0.7 8.55 0.4 12.6zm38.98-11.02c1.823 3.691 5.702 5.325 8.664 7.877-1.96-3.31-4.67-7.9-8.66-7.88zm20.09 0c-1.683 0.159-5.364-0.806-4.332 2.757 5.675-2.823 15.531-0.404 25.205-1.181 4.68-0.376 9.878-0.333 14.571-0.395 1.802-0.023 4.585 0.513 5.119-1.575-13.82 1.1-26.99-0.9-40.56 0.39zm145.71 3.93c-0.156-1.287-0.342-2.546-1.575-2.757-0.02 1.48-0.29 3.2 1.58 2.76zm-196.12 2.37c0.954 2.745 1.16 5.835 1.969 8.664 1.348 0.166 1.184-1.18 1.97-1.575-0.118-5.327 0.708-10.585-5.514-11.814-0.49 1.52 0.99 3.05 1.57 4.72zm-131.14 3.54c-0.225 4.354 2.266 7.439 0 10.634-7.88 3.098-16.982-0.372-25.205 2.757 0.332 0.981 0.516 2.109 0.394 3.544 9.729 0.229 23.291 0.747 32.687 0.394 1.785-0.066 3.745-1.937 4.332 0.788-12.992 2.441-23.507-0.029-36.625 1.182 1.081 1.293 3.925 1.119 5.514 1.182 12.072 0.468 23.109-0.137 32.293 0 0.019-2.79 1.008-4.987 0.788-7.483-0.087-0.988-0.798-2.148-0.788-3.15 0.017-1.625 1.074-2.968 0.788-4.726-0.625-3.829-5.988-6.423-4.726-11.421-0.503-0.021-0.545-0.505-1.181-0.394-1.28 3.7-5.32 4.65-8.26 6.7zm-44.9-5.91c-4.207 3.802-9.592 6.424-15.359 8.664 2.836 3.552 9.203 6.144 14.177 3.15 0.874-1.751 1.252-3.999 3.938-3.938 0.02-3.56-0.16-6.91-2.76-7.87zm-27.56 7.88c-2.158-0.945-3.321-1.032-5.908-1.575-1.72-0.362-3.199-1.628-4.726-1.97-4.683-1.048-8.15-1.519-12.996-1.575-2.334-1.946-5.542-0.79-8.664-0.787-4.197 0.003-8.264-0.349-12.603 0-3.402 0.272-6.867 0.953-10.239 1.181-5.915 0.399-8.822 1.588-12.996 3.151-3.147 1.178-6.937 1.798-8.271 4.332 8.292-2.429 18.558-6.286 29.143-7.089 19.235-1.46 34.117 1.481 46.865 5.907 0.609 0.211 2.441 2.669 3.15 0.394 0.57-1.82-1.77-1.52-2.75-1.96zm377.28 3.55c-6.86-4.556-14.771-7.536-24.023-9.058-12.745-2.096-30.111 0.963-38.595 6.694-10.979 7.419-21.165 15.355-29.536 24.812-1.562 1.764-2.663 3.767-4.332 5.514-1.634 1.709-3.778 3.042-5.12 4.726-1.471 1.846-2.484 3.826-3.938 5.514-1.87 2.171-4.114 4.393-5.514 6.301-2.419 3.3-5.827 5.334-8.27 8.271-3.736 1.89-6.395 5.608-10.239 7.482-2.556 1.245-5.555 1.004-7.483 3.15 8.779-0.324 14.998-5 19.298-9.451 6.205-6.425 12.059-13.12 17.722-19.691 3.171-3.679 6.459-7.428 9.452-10.633 5.974-6.396 11.707-13.01 18.903-17.723 8.515-5.576 18.325-10.962 29.143-12.603 5.331-0.808 13.571-1.234 20.873 0 10.949 1.854 17.775 6.899 27.174 11.815-0.9-2.43-3.45-3.75-5.5-5.11zm-139.42 1.18c2.249-0.376 3.949-1.302 5.514-2.363-1.602-3.519-4.35-5.89-7.483-7.876-0.06 4.07 3.07 6.36 1.97 10.24zm9.85-4.73v-1.575c-0.921 0.129-1.627 0.473-2.363 0.787-0.703-0.741-1.065-1.823-1.969-2.363 0.53 1.8 1.79 4.63 4.33 3.15zm13 0.79c2.604 0.079 9.366-0.94 11.814 0 0.459 0.066 0.428 0.623 0.394 1.182 2.222-1.323 4.729-2.36 5.907-4.726-6.94 0.95-16.02-2.45-18.11 3.55zm-71.68 14.57c2.073 0.258 4.38 0.712 6.694 0-0.895-6.011-1.337-10.236-2.756-15.358-0.087-0.308-0.33-0.458-0.788-0.395-1.58 4.91-1.94 11.58-3.14 15.76zm32.69-10.24c-0.231-0.819-0.828-1.272-1.182-1.969-1.948-0.507-3.021-3.681-4.727-3.15 1.246 5.712 5.727 8.188 7.089 13.783 2.069-1.213 4.782-1.782 6.302-3.544-2.85-1.35-4.7-3.71-7.48-5.12zm27.96 2.76c-1.278 2.158-3.718 4.064-4.726 7.089-0.616 1.847 0.466 5.635-2.757 5.514-1.251-2.925 2.156-5.621 1.182-8.271-5.832-1.197-9.811 0.669-11.815 5.12 3.94-0.396 6.204-4.558 11.027-2.757-0.42 0.893-1.194 1.431-2.363 1.575 2.503 3.129-1.101 6.591-2.757 9.058-5.126-0.887-10.275-0.788-15.752-1.969-0.162 0.495-0.509 0.805-1.182 0.787-1.307-0.578-4.299-1.619-4.332 0.788 3.144 1.685 7.543 0.457 11.421 0.788 3.737 0.318 7.67-0.146 11.026 0.787 2.672-1.923 5.266-3.924 8.271-5.514-0.146-2.755 1.41-4.571 2.363-5.907 3.269-4.585 5.914-7.991 14.178-5.907 1.708-1.311 3.935-2.104 4.726-4.332-3.713 0.084-5.289 0.139-8.664 0.787-2.718-1.089-4.249-3.364-5.514-5.907-6.09-1.17-4.49 3.95-4.35 8.27zm-245.35-4.73c2.964 3.206 7.986 4.354 11.42 7.089-0.22-5.83-6.56-8.35-11.42-7.09zm33.08 13.39c-0.612-0.475-1.535-1.258-2.363-0.394v1.575c2.785 0.177 8.609 1.449 11.421-0.394-1.773-0.911-0.341-3.261-1.575-5.12-2.249 0.508-2.477 3.037-4.726 3.545-0.393-0.526-1.064-0.773-1.181-1.575 0.941-1.29 2.218-2.246 3.544-3.151 0.376-4.839-3.041-5.886-5.12-8.27-3.572-0.305-7.386-0.858-9.058 2.362-1.677 0.89-3.364 2.188-5.907 2.757-1.325 0.297-3.961-1.019-4.332 1.182 2.682 0.515 6.286 1.152 9.058 0.394-0.816-1.313-1.002-2.675 0.788-3.15 0.753 1.085 1.609 2.066 2.363 3.15 2.875-0.669 7.018-0.07 9.058-1.575 0.888 0.852-0.326 1.344 0 2.757 0.619 0.038 1.366-0.053 1.182 0.788 0.085 1.528-2.377 0.511-2.363 1.969-0.02 0.59 1.42 2.42-0.79 3.14zm169.34-11.02h7.089c-0.2-4.02-6.53-2.99-7.09 0zm-210.69 23.62c2.589-6.635-3.777-14.058-9.058-17.722-1.041-0.723-2.047-2.03-2.756-2.363-2.468-1.158-4.77-0.873-6.695-1.182-0.754-0.121-1.036-0.744-1.575-0.787-2.883-0.231-5.748-0.307-7.876 1.181 16.378 0.295 24.585 8.759 26.386 23.63 1.046-0.004 2.249 0.148 2.757-0.394 0.57-1.75-1.32-1.03-1.17-2.37zm218.96-21.66c0.036 1.774 1.118 3.507 1.575 5.514 0.375 1.646-0.418 4.547 1.575 5.119 0.798-1.172 1.589-2.349 2.363-3.544-1.63-2.35-2.81-7.11-5.52-7.09zm-91.36 1.97c3.4 1.325 4.973 4.479 9.452 4.727 0.81 0.634 0.76 2.128 2.363 1.969 1.083-1.746-1.792-2.672-3.15-3.544-2.543-1.634-5.109-3.854-8.664-3.938h-0.788c0.04 0.48 0.11 0.93 0.79 0.78zm309.54 7.09c1.198-1.695 3.635-4.233 2.362-7.089-0.27 2.63-2.74 5.13-2.36 7.09zm-409.58-4.33c-0.7 1.458 0.61 2.632 0.788 4.332 0.898-0.109 1.48 0.095 1.576 0.788 1.877 3.306-0.276 8.202 1.969 10.239-0.429-2.661 0.998-3.465 0.788-5.907-0.027-1.417-1.797-1.092-1.576-2.757 1.494-1.458 2.788-0.671 5.12-1.182 0.581-2.781 0.552-3.754 1.181-6.301-3.25 0.18-5.96 0.48-9.85 0.79zm-1.18 4.73c-0.194-2.037-0.752-3.711-1.969-4.726-0.8 1.62 0.37 4.24 1.97 4.73zm114.21 2.36c1.279 1.175 2.723 3.978 4.332 3.545 1.093-2.989 0.437-6.563 0-8.664-2.6 0.55-3.38 2.92-4.33 5.12zm73.25-1.97c2.231 0.359 2.552-2.874 0.395-2.757-0.95 0.91-0.6 1.27-0.4 2.76zm-265.83 1.18c-0.565-1.273-2.756-0.92-3.938-1.576v1.576c2.099-0.17 3.447 0.01 3.938 0zm252.84-1.18c-3.768 0.158-9.637-0.923-9.058 2.362 1.395 0.214 0.969-1.395 2.363-1.181 0.342 0.576 0.589 1.248 1.575 1.181 3.941-1.898 7.314 0.323 11.814 0v-2.757c-1.83 0.73-4.06 0.29-6.68 0.4zm-20.88 0.79c-10.351 0.483-18.967-1.09-29.931 0 0.044 0.48 0.118 0.933 0.788 0.788 5.855 0.537 11.868 0.019 17.329 0.394 1.042 0.071 1.503 0.378 1.969 0.394 0.67 0.023 0.811-0.709 1.575-0.787 0.582-0.06 1.438 0.797 1.969 0.787 1.811-0.03 3.441-0.428 5.12-0.394 2.716 0.056 6.01 1.051 8.271-0.787-2.57-1.24-4.99-0.49-7.09-0.39zm-231.96 1.57c1.656-0.08 1.654 1.497 3.15 1.576 0.005-0.783 1.075-0.501 0.788-1.576-1.743-0.06-3.252-2.13-3.938 0zm116.18 0.4c-0.03 1.399 4.302 1.088 4.332 0-1.72 0.3-3.65-0.49-4.33 0zm5.51 0c-0.086 0.494-0.613 0.805 0.394 0.787 4.434 1.401 9.636 1.143 13.784 1.97 2.116 0.421 3.8 1.567 5.514 1.575-0.276-1.721 0.669-2.219 0.394-3.938-6.59 0.15-15.47-0.29-20.07-0.39zm-102.39 10.24c-2.902-2.221-4.89-4.793-7.876-6.695-2.202-1.402-4.262-2.818-6.695-2.757-0.017 0.542 0.186 0.865 0.394 1.182 1.147 1.688 3.218 1.786 4.726 2.757 4.468 2.877 7.924 7.321 13.784 8.664-0.69-2-2.77-1.96-4.33-3.15zm242.99 1.97h7.482c0.603-3.826-0.067-6.807 0.788-10.633h-6.695c-1.78 3.3-0.26 7.45-1.58 10.63zm133.11-7.88c-1.434 0.121-2.562-0.062-3.544-0.395-4.054 0.935-6.621 3.356-10.239 4.727-4.056 3.952-6.982 9.033-10.239 13.783-2.075 7.335-1.446 17.949 1.181 24.023 5.413 7.843 11.838 15.521 23.236 16.935 16.043 1.988 27.248-6.644 32.687-18.116-0.977 0.059-1.911 0.073-1.969-0.787 1.709-1.252 0.518-2.075 0-3.938 6.844-18.299-11.113-38.329-30.718-34.263-3.321 0.688-6.146 3.27-10.239 3.938-0.624 1.608-2.237 2.226-3.938 2.757-0.946 1.143-1.724 4.15-3.545 3.15 3.438-7.064 11.272-9.732 19.298-12.209-1.14-0.05-1.8-1.59-1.97 0.41zm-148.47 3.94v3.545c4.603 0.169 6.902 0.203 11.421 0.394-0.787-2.86 0.293-5.228 0-8.664-5.3 0.09-8.43 2.34-11.42 4.73zm166.19-1.58c-0.94-2.607-5.812-3.371-9.059-2.362 3.4 0.41 6.24 1.38 9.06 2.36zm-393.82-0.79c1.598 3.39 5.505 4.472 9.058 5.907 0.272 1.585-1.658 0.967-1.575 2.363 1.278-0.229 1.832 0.268 2.757 0.394 0.695-0.659-0.35-1.319 0-2.757 0.816-0.234 2.587 0.486 2.757-0.394-1.57-5.78-6.98-6.89-13.01-5.51zm66.55 1.19c0.353-0.698 1.599-0.502 1.182-1.97h-1.182c-0.22 0.24-0.92 1.86 0 1.97zm129.57 4.72c3.021 1.073 7.071-0.191 9.846 0.394 0.6-1.771 1.116-5.699 1.575-6.301-3.71 0.83-12.88-1.94-11.43 5.91zm246.54 0c-1.028-1.997-3.303-4.829-5.12-4.726 1.72 1.56 2.69 3.87 5.12 4.73zm-322.94-4.33c-2.798 1.656-6.519 0.673-10.239 1.182-1.314 0.179-2.599 0.989-3.938 1.182-2.801 0.401-4.854 0.528-6.695 0.787-2.297 0.323-5.241-0.283-6.695 1.575 1.93 0.478 4.929-0.096 8.664 0.788 1.905-2.013 4.344-1.115 6.695-1.575 0.799-0.156 1.547-0.961 2.363-1.182 1.204-0.326 2.625 0.266 3.938 0 0.638-0.129 1.226-0.711 1.969-0.788 1.846-0.191 4.539 1.117 5.907-1.182-0.06-0.87-0.99-0.86-1.97-0.8zm104.76 1.57c-0.412 1.558-2.635 1.304-2.757 3.15 2.66 1.09 4.97-1.93 2.76-3.15zm35.05 2.76c3.594 1.651 8.398 0.785 9.846-2.363-3.11 0.29-9.21-1.58-9.85 2.36zm-50.8 0.4c2.298 0.952 5.053-0.617 8.271 0.394-0.341-0.972 0.101-2.726-1.182-2.756-0.31 2.85-5.93 0.38-7.09 2.37zm-123.66 0.39c0.037-1.627-2.293-2.938-3.544-1.969 0.98 0.84 1.32 2.35 3.54 1.97zm-19.7 3.54c3.497-0.322 8.06-0.294 12.208-0.394 2.149-0.052 5.181 1.256 6.301-0.788-4.434-2.442-17.33 1.819-18.116-2.757-0.33 1.09-1.27 2.86-0.39 3.94zm359.56-1.97c0.442 3.099 2.196 6.022 2.757 8.664 2.56 12.054-0.194 22.03-3.938 29.93-2.246 4.74-4.997 8.777-7.089 12.603-10.856 11.315-29.66 18.261-47.652 13.784-1.356-0.338-3.348-1.037-4.727-1.575-13.044-5.092-25.335-17.875-29.143-32.294-1.069-4.051-0.835-7.651-1.182-11.814-0.074-0.897 0.818-3.309-1.182-3.545-2.069 0.694-1.183 3.659-1.182 5.12 0.015 13.31 6.409 24.022 12.996 31.112 4.515 4.858 9.3 8.473 14.966 11.421 6.722 3.497 17.475 6.193 27.961 5.119 13.896-1.423 25.188-9.186 31.9-17.328 1.313-1.594 2.586-3.934 5.119-3.938-7.674 10.65-18.979 19.414-33.475 22.055-23.797 4.334-42.165-7.379-51.984-21.66-4.169-6.062-7.701-14.195-8.664-22.055-0.188-1.526 0.068-3.397 0-5.119-0.056-1.371 0.915-4.102-1.182-4.727-2.501 0.936-1.678 4.211-1.575 5.908 0.832 13.819 6.967 25.449 14.178 33.475 7.81 8.692 21.565 16.001 35.838 16.935 12.742 0.833 23.903-2.898 31.899-7.877 2.117-1.318 4.642-2.633 6.301-3.938 4.438-3.489 7.697-8.806 10.634-13.783 6.484-10.996 10.553-28.809 5.513-43.715-0.529-1.567-0.871-4.435-3.15-3.938 0.218 3.504 2.44 6.941 3.15 11.026 2.15 12.372-1.28 25.489-5.513 33.081-0.785 1.407-1.414 3.713-3.151 3.545 0.028-1.944 1.376-3.923 2.363-5.907 5.722-11.501 8.072-30.251 0.788-41.745h-1.182c0.2 0.57-1.55 0.96-0.41 1.18zm-403.66-0.78c-3.029-0.095-8.31-0.169-9.845 1.575 6.258 0.512 11.711 1.064 18.116 0.394-1.18-2.34-5.51-1.89-8.28-1.97zm35.83 0.78c-6.048 0.192-13.003-0.776-21.267-0.395-0.688 0.635-4.501-0.04-5.12 1.182 0.27 1.464 2.164 0.745 3.151 0.788 7.241 0.311 14.918-0.091 21.66 0 2.27 0.03 6.155 1.234 6.301-1.575-1.32-1.23-3.13-0.05-4.72 0zm179.19 0c-16.507-0.172-35.146-0.165-51.984 0-0.307 0.086-0.458 0.329-0.394 0.787 1.518 1.567 3.289 0.335 5.12 0.394 11.777 0.381 23.492 0.417 35.837 0.395 9.727-0.019 23.619 1.234 32.688 0 1.228-0.168 3.362 0.553 3.938-1.182-8.66-0.42-16.64-0.31-25.22-0.4zm199.67 19.3c-0.014 7.431-2.52 14.353-3.938 20.479-2.182 2.938-3.718 6.521-5.513 9.846-0.842 1.177-2.341 0.82-1.576 2.757-8.16 9.472-20.809 19.517-37.807 20.872-14.181 1.132-25.239-2.773-34.656-8.27-1.424 0.091-2.181-2.52-3.15-1.575 8.421 6.808 20.74 11.853 33.475 11.814 13.68-0.041 26.19-5.634 35.051-12.603 0.683-0.761 0.892-1.996 1.575-2.757 6.66-3.71 9.146-11.596 13.39-17.722 0.191-0.896 0.781-2.012 0-2.757 3.179-3.151 4.618-9.94 5.119-16.935 0.485-6.775-0.456-11.798-1.575-16.54-0.64-2.714-0.785-6.46-3.938-6.302 1.53 5.92 3.56 12.49 3.55 19.68zm-344.99-17.72c7.055 0.386 16.02 0.665 22.448 0.787 2.51 0.048 5.755 0.413 6.695-1.575-9.098-1.142-20.822 0.343-29.931-0.787-0.28 1.07 0.79 0.79 0.79 1.57zm248.5 35.05c0.793 2.2 1.121 2.852 1.969 4.332 0.852 1.484 1.195 2.462 1.97 3.544 9.275 12.968 25.253 21.338 41.351 20.085 5.979-0.465 10.149-2.125 14.572-3.938 10.012-4.105 15.903-10.418 20.872-18.903 1.271-2.172 3.133-4.773 3.938-7.089 3.508-10.09 2.998-25.669-1.575-33.869-0.396 0.001-0.469-0.319-0.788-0.394-3.469 2.438-6.919 4.896-10.633 7.089 3.356 7.681 2.289 16.304 0 22.842-2.305 6.581-5.873 11.101-11.027 14.965-0.813 0.61-1.892 0.886-2.757 1.575-0.968 0.772-1.427 1.76-2.362 2.363-4.237 2.731-10.06 3.623-16.541 3.15-3.789-0.276-8.236-1.39-11.814-3.15-1.76-0.866-3.368-2.57-5.12-3.938-1.881-1.47-3.625-2.633-5.119-4.332-4.846-5.51-7.18-10.498-8.271-17.722-5.284-1.018-7.778-4.824-12.209-6.695-0.9 7.9 1.69 14.94 3.54 20.09zm118.15-31.51c0.692-3.027-3.146-1.629-4.726-1.969-2.476-0.533-4.57-2.109-5.907-1.575 3.15 1.35 6.9 4.09 10.64 3.54zm-369.01-0.39c3.221 3.343 3.812 9.315 6.695 12.996 0.162-4.979-3.666-10.742-5.12-14.178-0.503-0.021-0.545-0.505-1.182-0.394-0.13 0.53-0.57 0.75-0.4 1.57zm48.05 24.81c-0.323 3.492-0.907 9.342-1.182 12.603-0.324 3.847 1.189 8.025-0.788 11.027-9.631-1.79-16.553-6.289-22.448-11.815 0.328 1.744 0.93 3.693 1.575 5.514 0.65 1.834 0.967 3.778 1.575 5.514 0.716 2.042 2.062 3.408 2.363 5.514 0.376 2.635-0.28 5.432 0 7.876 1.123 9.781 6.983 17.158 8.665 25.599 9.944-1.561 17.128 3.965 24.811 5.12 3.109 0.467 8.744 0.691 9.846-1.182 0.477-2.446-1.886-2.052-1.969-3.938-0.443-8.354-3.164-19.677-4.726-27.567-0.255-1.288-0.036-2.823-0.394-3.938-0.361-1.127-1.454-1.95-1.969-3.15-2.331-5.433-4.001-11.346-6.695-15.753-0.99-1.619-1.906-3.636-2.757-4.726-1.106-1.416-4.082-2.124-2.757-4.727 2.336 1.077 3.992 2.835 6.301 3.938-0.168 0.751-1.125 0.713-0.788 1.97 1.569 1.581 2.227 4.074 3.938 5.513 1.197-2.652-0.922-4.162 0-7.089-1.333-1.817-3.514-2.787-3.15-6.301-1.324-2.09-4.074-2.753-4.332-5.907 0.287-0.895 1.185-1.178 1.969-1.575 3.833 2.861 5.935 7.454 7.482 12.603 1.516-3.414 0.806-8.077 0-10.24-4.376-2.187-6.773-6.354-9.846-9.845-0.079-2.153-1.317-3.146-1.575-5.12-0.562-0.094-0.664-0.648-1.182-0.787-1.62 5.45-1.27 13.47-1.95 20.89zm354.04-19.3c-4.624 8.372-16.931 9.061-28.355 10.633-1.803 3.202-1.585 6.62 0.788 9.058 13.217 2.121 21.706-4.658 29.931-9.846 0.223-3.898-0.229-7.122-1.182-9.845h-1.19zm-437.93 9.06c-0.548-0.051-0.949-0.782-1.575-0.788-9.65-0.081-23.5 0.736-31.506 0.788-6.689 0.043-9.505-0.656-13.784 1.575-2.961 1.544-5.175 2.727-7.876 3.938-1.269 0.569-3.102 1.021-3.938 2.362 8.472 0.504 17.222-0.493 25.205-0.394 0.933 0.012 1.823 0.737 2.757 0.788 3.81 0.206 7.823-0.462 11.815-0.395 17.674 0.302 40.341-0.47 60.255 0.395-0.58-3.206-0.387-6.062-1.182-8.271-1.953-0.509-1.935 0.953-3.544 0.787-0.826-0.922-1.557-0.665-2.757-0.787-7.619-0.777-12.364 0.369-21.266-0.788-1.235 2.679 0.63 6.094-1.969 7.483-3.721-0.974-1.007-4.213-1.969-7.089-2.87-0.63-5.75 0.66-8.67 0.39zm43.32 5.12c0.147 0.993-0.74 2.939 0.788 3.151h1.182c-0.255-3.421-1.107-6.244-2.757-8.271-0.22 1.63 0.55 3.48 0.79 5.12zm4.73 3.15h9.846c1.485-2.062 4.479-4.264 3.544-7.483-3.768 0.363-9.75-1.092-15.752-0.787 0.19 3.35 1.71 5.38 2.36 8.27zm-121.3 5.12c0.998-3.6 2.852-8.435 1.575-12.996-0.046 4.56-1.536 9.75-1.575 13zm214.63-5.51c6.086-0.123 12.367 1.408 19.297-0.787-0.227-3.641 3.234-3.593 4.332-5.907-9.528 0.086-16.808 0.353-27.173-0.395 0.9 2.65 2.45 4.65 3.54 7.1zm-106.33 2.76c-10.218-0.15-22.84-0.787-32.688-0.787-19.895 0-40.333 0.718-61.042 0-0.161-0.672-0.508 0.083-1.181 0-0.881 0.17-0.16 1.94-0.394 2.757 33.006 0.501 66.819 0.323 96.486 1.182 2.246 0.064 5.405 0.606 6.301-0.788-0.68-4.5-4.45-2.32-7.48-2.36zm10.63 3.15c0.659-0.653 0.313-2.312 0.394-3.545h-1.969c0.28 1.44-0.08 3.5 1.58 3.55zm2.37-3.15c-0.13 1.443 0.438 2.188 0.788 3.151 3.868 0.192 7.747 0.396 7.876-3.151-3.24-0.74-5.85-0.2-8.67 0zm95.3 0c-0.789 0.784 0.124 1.875 0.395 2.757 4.228 0.892 10.222 0.018 14.571 0.788 0.584-0.872-0.522-2.685-0.788-3.938-6.5 0.29-9.4 0.01-14.17 0.39zm23.24 1.57c-1.496-0.127-5.812 0.687-5.513 1.97 3.038 0.464 7.27 0.908 9.058-0.788-1.13 0.12-2.12-1.06-3.55-1.18zm13.39 1.97c4.333 0.71 10.005 0.941 15.753 0.787 6.298-0.168 12.648-0.349 16.54-1.181-7.99-1.23-21.83-1.53-32.29 0.39zm-133.51 8.66c0.408-1.339 0.057-5.299-0.394-7.089-0.503-0.021-0.545-0.505-1.181-0.394 0.33 2.69-0.41 6.45 1.57 7.48zm53.17 4.34c1.611 1.015 3.41 1.841 5.513 2.363 1.72-4.065-2.542-7.953-3.544-11.815-0.238-0.812 0.636-2.735-0.788-2.362-1.63 3.3-2.5 7.4-1.18 11.82zm165.4-11.03c-3.938-0.167-9.748-0.388-14.966-0.394-4.15-0.005-8.27-0.338-11.026 0-0.889 0.109-2.976-0.367-3.15 1.575 9.097 0.739 19.924-0.096 30.324 0.394 1.469 0.069 4.73 1.622 5.514-0.787-1.87-1.51-4.24-0.69-6.68-0.79zm-226.44 9.06c-1.527-0.011-3.1-0.738-4.726-0.787-10.051-0.303-21.763-0.095-31.506 0-25.499 0.246-50.457 0.293-73.251 0-0.567 0.221-0.961 0.614-1.181 1.182 0.017 0.542-0.186 0.864-0.394 1.182 5.748 0.745 10.348 0.315 16.147 0.394 34.396 0.462 69.707 0.624 100.42 0-0.87-4.38-2.64-1.94-5.5-1.96zm7.87 2.36c0.813-0.952 0.879-2.478-0.394-3.15-0.53 0.57-0.81 3.12 0.39 3.15zm2.76 0c2.166-0.196 5.16 0.435 6.695-0.394 0.028-1.473-0.633-2.256-1.575-2.757-1.497 0.303-3.373 0.541-5.514 0-0.17 1.35 0.16 2.21 0.4 3.15zm220.54-1.97c-10.41-0.217-19.115-0.313-27.567-0.395-3.535-0.033-6.648-0.359-9.846-0.394-2.719-0.029-5.816 0.355-8.664 0.394-2.854 0.039-5.527-0.361-8.271-0.394-1.241-0.015-2.308 0.757-3.544 0.788-4.604 0.116-11.992-0.636-14.571-1.182-3.311 1.354-8.671 0.546-13.784 0.394-10.979-0.326-22.852 0.656-31.899 0.394-0.889-0.025-2.786-1.435-3.15 0.395-0.249 3.043 2.752 2.127 4.332 2.362 6.642 0.99 12.859 0.788 18.903 0.788 39.396 0 62.343-0.305 97.668 0.394 2.404 0.048 5.158 0.781 7.089-0.394-0.7-3.67-3.98-3.09-6.7-3.15zm-224.09 5.12c0.796 11.641 0.201 23.854 1.575 34.263 0.2 1.515 0.936 3.095 1.181 4.726 0.205 1.357-1.19 4.008 1.182 4.332-0.444-3.913-0.159-9.395-0.394-14.571-0.402-8.847-1.231-17.874-1.969-26.386-0.085-0.981 0.749-3.057-0.788-3.544h-0.788v1.18zm36.24 43.71c-2.86-0.509-6.046-0.684-8.664 0.787 5.408 0.059 9.347 5.442 14.965 7.089 1.147 0.336 2.727 0.105 3.938 0.394 4.839 1.152 12.465 3.594 16.147 0.788 0.276-1.72-0.67-2.218-0.394-3.938-9.28 1.97-18.37-3.76-26-5.12zm-27.96 1.97c-0.423 0.965-0.402 4.854 1.969 4.332-0.404-3.029 2.224-3.026 3.938-3.938-1.32-1.38-4.49-0.29-5.91-0.39zm94.51 8.67c-4.261-0.479-5.067-2.341-8.271-3.544-0.775-0.292-1.849 0.213-2.757 0-0.715-0.169-1.492-0.947-2.363-1.182-4.093-1.104-8.441-0.802-12.996-1.575-0.395-0.002-0.469 0.318-0.788 0.394-0.183 1.315-0.221 4.067 0 5.514 5.196 2.142 12.593 2.114 19.297 3.938 2.098 0.57 4.157 2.127 6.301 2.362 3.088 0.339 5.911-0.505 8.664-1.182 0.073-1.647 0.535-3.407 0-5.513-2.65-0.06-3.74 1.15-7.08 0.78zm-24.81 6.3c2.651-2.683 7.014 0.241 9.452-1.97-3.87-0.68-8.5-2.34-9.45 1.97zm-10.63 1.97c0.651 0.924 2.298 0.853 3.938 0.787v-1.575c-2.1-0.09-2.81-0.53-3.94 0.78z"
   id="path2390" />
	<path
   d="m185.1 358.38c0.72 4.12 3.44-1.64 0 0z"
   id="path2392" />
	<path
   d="m225.27 5.12c-0.401 6.642 0.557 11.465 0.394 16.541-0.125 3.875-0.493 7.793-0.394 12.603 6.474 0.874 12.208 0.097 19.297 0.394-1.454-7.864-4.012-16.304-6.301-24.023-0.629-2.122-2.503-5.156 0-6.695 2.571 1.018 1.845 4.512 2.363 6.695 0.272 1.148 0.905 2.408 1.181 3.544 0.818 3.361 1.819 6.977 2.757 10.633 1.078 4.198 1.073 8.44 4.332 10.239-2.437 2.724 0.709 6.856 1.576 9.846 15.269-0.252 25.711-0.049 42.926 0-3.304-11.382-6.673-23.174-9.845-35.05-0.314-1.176-2.62-3.221-0.394-4.332 3.568 0.388 2.604 4.57 3.15 6.695 2.663 10.354 6.514 22.197 9.059 32.688 11.875-0.05 26.286 0.034 39.382 0-2.555-10.761-5.43-21.564-8.664-32.688-0.635-2.183-2.41-4.192-1.575-6.695 4.214-0.63 3.096 3.869 3.544 5.907 2.275 10.33 6.765 22.743 9.059 33.475 14.549 0.078 26.187 0.237 39.382 0.787-0.295-5.396-2.654-11.152-4.332-16.934-1.7-5.86-3.176-11.712-4.726-16.934-0.585-1.97-2.774-4.183-1.575-5.908 3.915-0.979 2.843 3.125 3.544 5.908 0.775 3.078 1.851 6.281 2.757 9.452 2.682 9.382 5.036 18.347 8.271 27.567 4.157 11.851 6.519 24.194 10.633 35.838 0.509-18.547 0.429-38.519 0.394-57.498-0.01-5.457-0.043-11.931 0-17.328 0.009-1.08-1.98-3.404 1.182-3.544 1.671 0.752 1.143 4.393 1.182 7.876 0.071 6.346-0.329 13.247-0.394 19.691 9.014 1.672 23.201 0.377 34.656 0.788 0.812-6.991 0.166-16.075 0.394-23.235 0.063-1.987-1.743-6.018 1.182-6.301 1.77 0.056 0.834 3.564 0.787 5.907-0.111 5.654-0.875 15.756 0 21.267 0.189 1.188 0.109 2.137 1.182 2.757 0.108 1.552-1.684 1.204-1.575 2.757 0.807 52.897 0.347 96.725 0 143.74 0.195 1.478 2.026-0.245 2.363 1.575-1.118 0.943-0.389 1.45-0.394 3.15-6.706 0.458-14.106 1.309-20.479 0.788-1.023-0.083-2.171-0.717-3.15-0.788-13.442-0.966-26.795 0.781-40.17 0.394-14.244-0.413-28.514 0.052-42.927 0-29.964-0.109-63.947-1.696-99.243-0.394-1.648-0.804-2.224-1.646-3.938-1.575-1.437-12.14 0.125-25.387 0-37.02-0.293-27.338 0.531-53.925 0-81.915-0.192-10.121 0.185-23.952-0.788-35.837-0.678-8.29 0.3-17.435-0.394-25.205 0.139-0.518 0.693-0.62 0.788-1.182 2.04 0.512 1.25 1.858 3.56 1.579zm0.39 31.505c-0.881 15.299-0.157 34.813-0.394 51.984 12.494 0.733 23.252 0.199 34.262 0.394 0.166-4.331-2.02-8.301-3.15-12.603-1.267-4.818-2.958-11.042-3.938-14.965-2.199-8.795-4.475-16.899-7.089-24.811-6.56 0.001-13.13 0.001-19.69 0.001zm167.77 1.182c-0.854 19.139 0.584 33.622-0.788 51.59 12.125 1.134 24.855-0.239 35.838 0.394 0.064-14.433-0.06-37.061 0-52.772-10.896-0.254-20.414-0.377-34.263-0.394-0.56 0.103-0.45 0.864-0.79 1.182zm-142.57 9.845c4.058 13.533 7.278 27.903 11.421 41.352 15.36-0.119 28.323 0.008 42.533 0 0.163-3.002-1.135-6.068-1.969-9.058-3.024-10.831-6.153-22.051-8.664-33.081-15.33 0.407-29.88-0.748-43.32 0.787zm45.29-0.393c3.724 14.129 7.277 28.429 11.421 42.139 13.449-0.998 25.368 0.5 39.776 0 0.412-1.409-0.397-2.978-0.788-4.332-0.441-1.531-0.693-3.154-1.182-4.726-2.796-9.003-5.963-18.367-8.27-27.174-0.576-2.2-0.329-4.562-1.97-6.301-14.35 0.4-25.25-0.4-38.99 0.394zm41.75 0c3.894 14.09 7.775 28.194 11.814 42.139 10.788 0.42 26.637 0.252 40.17 0.394-0.604-7.035-3.906-13.733-5.907-20.873-0.304-1.084-0.017-2.055-0.394-3.151-0.264-0.764-0.929-1.556-1.182-2.363-1.809-5.782-2.882-11.156-4.726-16.146-13.43 0.236-25.12-1.098-39.77 0zm-31.9 44.108c-0.17 14.831-0.435 23.922-0.394 38.988 14.959-0.255 28.565 0.519 41.351-0.394-0.766-12.613 1.154-26.331 0-38.595-16.04 0.464-25.22-0.168-40.96-0.008zm-79.55 0c-0.495 0.162-0.805 0.508-0.788 1.182-0.666 9.681-0.287 24.831-0.394 37.413 7.422-0.464 23.02 0.375 32.687 0-1.101-12.01 0.145-26.733 0-38.201-10.32-0.514-20.37-0.123-31.51-0.392zm34.65 0c-0.495 0.162-0.805 0.508-0.788 1.182-0.166 10.846-1.2 24.868-0.788 37.413 14.391-0.137 31.548 0.304 44.502 0-0.932-10.237 0.084-26.336-0.395-38.201-14.12-0.767-26.26-0.133-42.52-0.392zm88.22 1.181c0.212 11.87-1.051 26.977-0.394 37.807 14.29-0.004 30.131 0.01 42.139 0-0.037-13.482-0.002-24.857 0-38.594-15.291 0.113-28.165-0.039-40.563-0.394-0.57 0.215-0.97 0.609-1.19 1.176zm44.11-0.787c-0.9 11.79-0.038 25.768-0.395 38.594 12.705-0.371 25.052 0.71 35.444 0-0.224-12.518 0.471-27.582-0.394-38.201-14.17-0.371-22.17-0.127-34.66-0.398zm-167.38 40.169c-0.495 0.162-0.805 0.508-0.788 1.182 0.067 15.02-0.046 32.241 0 48.44 10.971-0.34 21.954 0.865 32.293 0.394-0.096-17.283-0.13-33.725 0-49.622-10.34-0.1-21.5 0.34-31.5-0.39zm33.48 0.39c-0.092 15.379-0.565 34.016 0 49.622 13.292 0.332 28.112-0.205 44.108 0 0.582-14.658-0.711-35.103 0.395-49.228-14.67-0.98-32.29 0.04-44.51-0.39zm46.08 0.4v0.788c0.38 6.627-0.355 12.235-0.395 17.722-0.062 8.811 1.38 19.905 0 30.718 15.446-0.195 29.016 0.473 41.745 0 1.682-2.932 0.187-5.996 0-9.058-0.423-6.968 0.339-14.351 0-22.054-0.266-6.058-0.745-12.019 0-18.116-11.13-0.21-28.02 0.1-41.35 0zm43.71 0c-0.24 0.022-0.466 0.059-0.394 0.394-0.783 13.966 0.538 33.929 0 48.834 12.787-0.325 29.144 0.745 42.532 0-1.373-6.87-0.251-13.844-0.394-21.267-0.161-8.42-0.833-19.276 0-27.961-15.32 0.27-28.43 0.05-41.75 0.01zm44.11 0c-0.495 0.161-0.806 0.508-0.788 1.181 0.87 15.694 0.128 31.511 0.394 48.44 8.675 0.161 19.11-0.215 27.568 0 2.864 0.073 5.643 0.592 7.876 0-0.06-14.054-0.156-33.11 0-49.228-11.34-0.48-23.81 0.07-35.05-0.39zm-92.16 51.59c1.296 0.016 1.96 0.665 3.544 0.394-0.12-1.74-2.45-1.13-3.54-0.39zm14.58-0.39c-3.907 0.044-9.079-0.498-10.239 0.394 4.436 0.428 12.018 0.085 16.54 0.394-0.97-1.54-3.94-0.81-6.3-0.78zm102.78 1.18c3.34-0.299-4.08-0.368-5.119-0.787 0.25 1.36 4.48 0.84 5.12 0.79z"
   id="path2394" />
</g></g></svg>
