<?xml version="1.0" encoding="UTF-8" standalone="no"?>
<svg
   id="putting_the_axle_on_the_chassis_xA0_Image_1_"
   style="enable-background:new 0 0 629.569 503.066"
   xml:space="preserve"
   viewBox="0 0 629.569 503.066"
   version="1.1"
   y="0px"
   x="0px"
   sodipodi:docname="line_2_johnny_automatic_putting_the_axle_on_the_chasis.svg"
   inkscape:version="1.2.2 (1:1.2.2+202305151914+b0a8486541)"
   xmlns:inkscape="http://www.inkscape.org/namespaces/inkscape"
   xmlns:sodipodi="http://sodipodi.sourceforge.net/DTD/sodipodi-0.dtd"
   xmlns="http://www.w3.org/2000/svg"
   xmlns:svg="http://www.w3.org/2000/svg"
   xmlns:rdf="http://www.w3.org/1999/02/22-rdf-syntax-ns#"
   xmlns:cc="http://creativecommons.org/ns#"
   xmlns:dc="http://purl.org/dc/elements/1.1/"><defs
   id="defs579" /><sodipodi:namedview
   id="namedview577"
   pagecolor="#ffffff"
   bordercolor="#666666"
   borderopacity="1.0"
   inkscape:showpageshadow="2"
   inkscape:pageopacity="0.0"
   inkscape:pagecheckerboard="0"
   inkscape:deskcolor="#d1d1d1"
   showgrid="false"
   inkscape:zoom="0.74004547"
   inkscape:cx="210.12222"
   inkscape:cy="326.3313"
   inkscape:window-width="1846"
   inkscape:window-height="1016"
   inkscape:window-x="0"
   inkscape:window-y="0"
   inkscape:window-maximized="1"
   inkscape:current-layer="layer2" />

<metadata
   id="metadata574"><rdf:RDF><cc:Work><dc:format>image/svg+xml</dc:format><dc:type
         rdf:resource="http://purl.org/dc/dcmitype/StillImage" /><cc:license
         rdf:resource="http://creativecommons.org/licenses/publicdomain/" /><dc:publisher><cc:Agent
           rdf:about="http://openclipart.org/"><dc:title>Openclipart</dc:title></cc:Agent></dc:publisher><dc:title>putting the axle on the chasis</dc:title><dc:date>2008-03-06T04:37:33</dc:date><dc:description>Wide Road Ahead! The Building of an Automobile by Henry B. Lent New York THE MACMILLAN COMPANY 1934 archive.org states as PD</dc:description><dc:source>http://openclipart.org/detail/15513/putting-the-axle-on-the-chasis-by-johnny_automatic</dc:source><dc:creator><cc:Agent><dc:title>johnny_automatic</dc:title></cc:Agent></dc:creator><dc:subject><rdf:Bag><rdf:li>assembly line</rdf:li><rdf:li>car</rdf:li><rdf:li>clip art</rdf:li><rdf:li>clipart</rdf:li><rdf:li>externalsource</rdf:li><rdf:li>factory</rdf:li><rdf:li>image</rdf:li><rdf:li>industry</rdf:li><rdf:li>media</rdf:li><rdf:li>png</rdf:li><rdf:li>public domain</rdf:li><rdf:li>svg</rdf:li><rdf:li>transportation</rdf:li></rdf:Bag></dc:subject></cc:Work><cc:License
       rdf:about="http://creativecommons.org/licenses/publicdomain/"><cc:permits
         rdf:resource="http://creativecommons.org/ns#Reproduction" /><cc:permits
         rdf:resource="http://creativecommons.org/ns#Distribution" /><cc:permits
         rdf:resource="http://creativecommons.org/ns#DerivativeWorks" /></cc:License></rdf:RDF></metadata><g
   inkscape:groupmode="layer"
   id="layer2"
   inkscape:label="Layer 1"><g
     clip-rule="evenodd"
     fill-rule="evenodd"
     id="g572"
     style="enable-background:new 0 0 629.569 503.066">
	<path
   d="m352.78 4.175c2.403 1.907 0.835 6.255 0.835 11.272 0 13-0.934 26.435-0.835 37.573 0.436 48.836 0.017 95.627-0.835 145.28-2.839-0.145-1.598-3.758-1.67-5.01-0.854-14.934 0.549-28.945 0.418-41.749-0.308-30.053 0-63.824 0-99.361 0-11.549 0.23-23.435 0.417-35.068 0.068-4.241-0.797-9.879 0-11.689 0.36-0.606 0.62-1.318 1.67-1.247z"
   id="path486" />
	<path
   d="m604.52 6.262h1.253c1.392 4.195 0.417 8.921 0.417 13.359 0 39.181 0.463 73.604 0 110.63-0.277 22.134-0.96 41.199 0 62.205 0.118 2.577 0.538 5.584-0.835 7.932-2.566-0.581-1.543-3.434-1.67-5.01-0.937-11.589 0-26.834 0-42.166 0-46.221-0.068-98.325 0.418-145.7-0.13-0.67 0.39-0.714 0.41-1.248z"
   id="path488" />
	<path
   d="m269.7 212.08c-1.22 2.397-4.67 2.566-5.845 5.01-1.9-1.3-2.659-3.743-4.592-5.01 1.29-5.4 8.1-0.69 10.43 0z"
   id="path490" />
	<path
   d="m165.33 212.5c-1.054 3.331-6.865 2.031-10.02 2.087-17.874 0.316-33.33 0.078-50.098-0.417-15.012-0.443-30.5 0.582-46.34 0.417-3.177-0.033-6.433-0.492-9.603-0.417-12.474 0.294-25.991 0.299-39.661 0-2.407-0.053-6.275 1.905-7.932-1.252v-1.252c0.338-0.08 0.416-0.419 0.835-0.417 8.781 0.852 18.125 0.979 28.806 0.835 5.432-0.074 10.838 0.068 16.282 0 10.017-0.126 20.44 0.521 30.059 0.417 14.895-0.161 30.265-0.711 45.088-0.417 11.039 0.218 25.686 0.465 37.573 0 1.56-0.06 3.64-0.81 5.02 0.42z"
   id="path492" />
	<path
   d="m278.47 212.08c1.333 1.01 1.745 4.054 0.417 5.427-2.66 0.572-2.612-1.562-5.01-1.252-0.883 2.66 0.989 7.179-2.922 7.515 0.213 1.744-0.233 2.829-0.835 3.757-3.298-0.114-4.876-1.47-7.515-1.252-0.053-5.509 5.904-1.429 7.515-5.427 0.093-0.23-0.866-2.233-0.835-2.922 0.066-1.47 1.373-4.753 2.505-5.427 1.62-0.97 3.83-0.16 6.69-0.43z"
   id="path494" />
	<path
   d="m163.24 224.19c-1.193 2.865-4.984 1.659-7.097 1.67-46.287 0.249-86.292-0.56-129.42-1.252-5.704-0.092-10.794 0.849-17.534 0.835-1.378-0.003-3.812 0.539-4.592-1.252-0.773-0.736 0.107-1.293 0.835-1.67 27.545-0.177 53.542 0.739 79.739 0.835 14.141 0.052 27.895 0.638 40.913 0.417 12.67-0.22 25.75-1.15 37.16 0.41z"
   id="path496" />
	<path
   d="m627.06 224.6c0.563 2.576-3.562 2.011-6.68 2.087-18.988 0.464-35.69-0.417-56.36-0.417-23.794 0-48.152 0.429-69.719-0.835-0.501-0.548-0.163-0.657 0-1.252 0.338-0.079 0.416-0.419 0.835-0.417 42.322-0.598 84.816 1.721 124.83 0.835 2.3-0.05 4.94-1.69 7.09 0z"
   id="path498" />
	<path
   d="m285.56 240.05c0.345 1.18-0.588 1.082-0.417 2.087-1.18 0.345-1.082-0.588-2.087-0.417v-1.67c0.54-0.57 1.98-0.57 2.51 0z"
   id="path500" />
	<path
   d="m247.99 253.41c-1.924 1.973-2.353 5.44-4.175 7.515-2.937-1.821 0.949-6.545 2.505-7.932 0.87-0.17 1.11 0.29 1.67 0.42z"
   id="path502" />
	<path
   d="m48.016 255.5c-0.162 2.286-1.908 1.37-3.757 1.252 0.053-0.749-0.511-0.88-0.417-1.67 1.183-0.97 2.747 0.34 4.174 0.42z"
   id="path504" />
	<path
   d="m271.79 257.17c0.674-0.118 0.719 0.395 1.252 0.417 0.668 3.786 4.747 4.16 5.845 7.515-3.4 0.27-7.47-4.42-7.09-7.93z"
   id="path506" />
	<path
   d="m270.12 275.54c0.279-4.146-2.458-7.472-5.01-10.02-2.623-0.856-5.676-1.282-6.68-3.758 3.914-1.947 14.418 7.352 14.194 11.272-0.05 0.92-1 3.23-2.5 2.51z"
   id="path508" />
	<path
   d="m253.84 268.86c0.968-0.134 1.603 0.066 2.087 0.417 0.302 1.275-0.427 1.521-0.417 2.505-1.006 0.171-0.907-0.763-2.087-0.417-0.06-1.03-0.07-2.01 0.42-2.5z"
   id="path510" />
	<path
   d="m134.85 277.21c-1.812 0.143-0.804-2.536-1.67-3.34-0.722-1.505-3.013-1.44-3.34-3.34 2.38-0.53 7.1 4.11 5.01 6.68z"
   id="path512" />
	<path
   d="m260.93 277.21c3.285 0.488 6.504 6.007 2.922 8.35-2.019-0.165 0.096-2.046-0.417-3.34-0.07-2.26-3.42-3.1-2.5-5.01z"
   id="path514" />
	<path
   d="m258.01 279.3c3.136 1.456 3.707 5.478 3.34 10.438-3.023 0.239-1.841-3.726-2.087-6.263-0.26-1.56-1.71-1.92-1.25-4.18z"
   id="path516" />
	<path
   d="m154.06 290.57c2.562-0.188 3.815 3.446 2.087 5.01 1.687-0.708 3.232-0.277 4.592-0.835 2.321-0.952 2.905-3.652 5.427-4.175 0.51 4.303-4.987 7.443-10.437 5.845-1.08-1.25-2.87-3.65-1.67-5.83z"
   id="path518" />
	<path
   d="m247.99 297.66c2.139-0.174 1.266 4.364 0.835 5.428-2.49-0.18-0.69-3.8-0.83-5.43z"
   id="path520" />
	<path
   d="m287.65 301c0.702 1.981-2.402 2.302-2.087 0.418 1.01 0.17 0.91-0.76 2.09-0.42z"
   id="path522" />
	<path
   d="m255.5 318.96c-2.213-0.349-1.836-2.459-2.922-3.758-4.075-4.87-10.358-6.977-16.282-10.02-0.257-0.371-0.504-0.746 0-0.835 3.899-1.515 11.888 4.554 15.447 7.515 2.52 2.1 5.73 3.25 3.75 7.1z"
   id="path524" />
	<path
   d="m223.78 323.97c-0.135-7.519-3.641-11.667-7.932-15.029-0.118-0.675 0.395-0.719 0.417-1.253 4.02 0.74 13.4 10.48 7.51 16.28z"
   id="path526" />
	<path
   d="m284.31 337.33c-1.824-0.541-2.37-2.361-2.505-4.593-2.89-5.459-6.678-10.021-10.437-14.611-1.201-0.47-2.462-0.877-3.34-1.67v-1.253c3.756-0.262 5.279 2.75 7.932 5.845 1.294 1.51 3.155 2.79 4.175 4.175 1.253 1.701 1.909 4.226 2.922 6.263 0.96 1.87 3.4 4.12 1.27 5.83z"
   id="path528" />
	<path
   d="m171.17 327.31c3.836 0.756 7.697 1.488 8.768 5.01-3.413 1.777-3.255-3.349-7.515-2.088-0.42-0.96-1.43-1.35-1.25-2.92z"
   id="path530" />
	<path
   d="m282.64 345.68c0.808 2.519-1.525 2.025-2.922 2.505-3.027 1.038-6.653 1.697-10.02 0-1.811 0.032-3.256 2.071-5.01 0.835-0.716-1.982 1.703-3.172 3.34-3.34 1.525-0.156 4.292 1.551 7.515 1.252 3.06-0.29 4.79-2.43 7.1-1.25z"
   id="path532" />
	<path
   d="m111.89 376.99v1.67c-1.687 0.693-5.32 0.147-6.68-0.835-1.5-0.031-3.399 0.338-3.757-0.835 1.75-4.16 7.84-1.8 10.44 0.01z"
   id="path534" />
	<path
   d="m450.05 375.32c0.489 3.875-8.147 2.114-9.602 5.427-7.668 2.153-13.788 5.935-18.787 11.272-1.659 1.771-2.405 4.924-4.175 6.262-0.928 0.701-0.94-0.735-2.087-0.417-0.255 0.07-0.761 1.675-1.67 1.67-9.261-1.276-18.486 0.195-26.302-0.835-1.747-0.23-3.258-1.673-5.01-0.835-2.684-1.461-5.835-2.433-9.185-3.34-6.092-1.651-12.854-3.124-19.204-5.01-2.954-0.878-6.406-1.348-7.933-3.34 0.318-3.686 4.552-1.56 6.68-1.67 8.015-0.416 19.408-2.558 28.807-3.34 11.103-0.925 22.238-1.533 32.146-2.505 4.227-0.415 7.636-0.24 10.854-1.67 0.655-0.292 1.593-0.155 2.087-0.418 1.074-0.57 1.301-1.46 2.505-1.67 2.715-0.473 4.88 0.612 7.515 0.835 4.68 0.39 9.33-0.87 13.35-0.42zm-64.29 7.51c-7.177 0.658-12.789 1.54-20.456 2.087-1.96 0.14-4.104-0.069-5.845 0.835 11.612 0.776 21.797 0.356 32.146 0.835 1.489-1.434 2.176-3.669 5.845-2.922 1.063 0.606 1.273 2.065 1.67 3.34 2.844-0.2 5.085 0.203 7.515 0.417 0.844-3.141 2.847-5.256 5.428-5.01 3.137 0.299 2.848 3.915 5.01 5.428 2.631 0.404 3.008-1.445 3.757-2.923 0.795-1.571 2.948-1.783 2.505-4.592-13.98 1.07-24.9 1.32-37.58 2.48zm-21.29 5.85c-0.101-0.641-0.688-0.062-0.836 0.417 3.685 1.264 7.237 1.949 11.272 2.088 3.798 0.13 7.456-1.116 11.272-1.253 3.943-0.141 7.686 1.449 11.689 1.67 6.312 0.348 13 0.017 19.204-0.417 0.731 1.445 2.421 2.446 2.505-0.418-14-1.88-36.93-1.33-55.09-2.09z"
   id="path536" />
	<path
   d="m99.367 380.33c0.391 1.921-1.336 1.725-2.087 2.505-2.046-2.268-6.276-2.353-8.767-4.175 2.429-3.64 8.878-0.31 10.854 1.67z"
   id="path538" />
	<path
   d="m87.677 384.08c-1.272 3.222-4.252 0.781-7.097 0-2.548-0.699-5.651 0.176-6.68-1.67 2.678-5.18 11.12-0.76 13.777 1.67z"
   id="path540" />
	<path
   d="m610.36 383.67c-1.904 2.052-4.85 4.497-7.932 4.175-2.669-0.279-4.354-3.243-6.681-3.758 1.559-3.204 9.22-0.921 12.107-2.505 0.8 0.73 2.57 0.49 2.5 2.09z"
   id="path542" />
	<path
   d="m72.648 387.01c0.313 1.705-0.89 1.894-1.67 2.505-2.759-0.713-5.303-1.958-8.767-2.923-0.046-1.038-0.783-1.292 0-2.087 4.246-1.55 8.071 0.78 10.437 2.5z"
   id="path544" />
	<path
   d="m237.97 387.42c1.828 0.359 2.016 5.717-0.835 5.01-0.4-1.27-1.16-4.91 0.83-5.01z"
   id="path546" />
	<path
   d="m299.76 391.6h2.087c-0.051 1.062-0.607 1.619-1.67 1.67-0.33-0.37-0.45-0.94-0.42-1.67z"
   id="path548" />
	<path
   d="m212.09 400.37c-2.097 0.184-2.029-2.978-0.835-3.758 2.42-0.47 2.72 3.44 0.83 3.76z"
   id="path550" />
	<path
   d="m214.17 402.04c1.558-0.167 2.45 0.333 2.505 1.67-1.07 0.94-3.17 0.39-2.51-1.67z"
   id="path552" />
	<path
   d="m357.79 404.54c0.032 1.842-0.889 2.729-2.506 2.922-2.29-1.78 0.47-5.34 2.51-2.92z"
   id="path554" />
	<path
   d="m347.35 404.12c1.495-0.242 1.27 1.235 1.252 2.505-2.13 0.83-1.94-1.75-1.25-2.5z"
   id="path556" />
	<path
   d="m412.48 404.54c1.803 0.146 2.777 1.119 2.923 2.922-0.83 0.006-0.531 1.14-1.67 0.835-1.7-0.27-2.62-2.8-1.25-3.76z"
   id="path558" />
	<path
   d="m387.01 408.72c0.488 1.178 0.083 1.772-0.418 2.922h-2.087c-1.57-1.61-0.36-3.52 2.51-2.92z"
   id="path560" />
	<path
   d="m414.98 410.38c0.409 1.909-2.076 2.307-2.922 1.67-0.4-1.89 1.76-2.62 2.92-1.67z"
   id="path562" />
	<path
   d="m603.27 419.57c-0.812 1.793-3.614 1.31-4.174-0.418-0.14-3.81 4.27-2.45 4.17 0.42z"
   id="path564" />
	<path
   d="m228.79 422.91c0.674-0.118 0.719 0.395 1.252 0.417 2.07 10.511 2.772 20.233 5.845 29.224 0.95 2.782 2.852 5.276 4.175 7.933 2.619 5.257 5.061 10.607 7.932 15.864 0.971 1.776 4.473 5.351 2.087 7.098-2.696-0.644-2.03-4.649-4.592-5.428-0.793-3.471-2.78-6.5-4.592-9.603-0.914-1.564-1.391-3.603-2.505-5.845-1.753-3.528-3.786-6.453-5.01-10.437-2.592-8.439-5.2-17.519-5.01-27.972-0.13-0.66 0.38-0.71 0.41-1.24z"
   id="path566" />
	<path
   d="m519.35 311.86c39.121 0.056 73.24-0.293 104.79 0.418 1.778 0.04 5.333 1.422 5.427-1.253-3.615-1.008-7.606-0.417-11.689-0.417-37.72 0-59.122-0.158-96.438-0.835 1.402-3.542 4.304-1.738 6.68-1.67 10.86 0.312 23.957-0.63 35.068-0.418 21.835 0.418 41.071 0.305 63.458 0.418-1.114-2.659-4.235-1.29-6.263-1.253-2.663 0.049-5.592-0.344-8.35-0.417-20.608-0.546-58.151 1.342-80.574 0-2.727-0.163-6.005 0.811-8.35-0.835 3.118-3.32 8.638-1.056 12.942-1.253 24.574-1.127 55.912-0.322 86.419 0 1.375 0.015 4.371 1.166 5.427-0.835-1.247-1.272-3.564-0.771-5.01-0.835-34.534-1.524-64.513 1.396-97.273-0.835-0.202-3.738 4.123-2.507 6.263-2.505 4.148 0.005 7.493 0.021 10.854 0 23.504-0.145 52.646-0.166 82.244 0.835 0.741 0.025 2.661 1.291 2.922-0.417-0.382-2.169-3.081-1.178-4.175-1.253-6.811-0.47-12.062-0.206-17.951-0.417-26.238-0.942-46.392 0.033-73.478-0.418-2.083-0.034-4.701 0.291-5.427-0.835 0.478-2.606 2.972-1.992 4.175-2.087 4.532-0.356 9.764 0.351 14.611 0.417 17.795 0.244 38.515-0.654 57.195-0.417 6.308 0.08 12.448 0.153 18.369 0.417 2.258 0.101 5.851 1.858 7.515-1.252-1.585-1.261-5.615 0.365-6.68-0.418 0.289-4.149 4.118-1.269 5.845-1.67 0.763-1.451 1.544-4.683 1.253-5.845-32.113 1.265-59.255-0.417-90.177-0.417-3.48 0-8.054 1.003-9.602-1.253 35.86 0.211 60.468 0.114 93.516 0 2.002-0.007 4.967 1.8 6.263-0.417-1.423-3.24-1.752-1.058-4.593-0.835-20.473 1.601-38.38-1.265-54.69-0.418-13.939 0.724-25.922 0.079-40.495-0.417-1.229-3.189 3.206-2.899 4.592-2.088 6.96-0.986 14.788-0.433 22.962-0.417 19.262 0.035 38.209 0.835 60.117 0.835 3.345 0 7.655 1.001 10.438-1.253-1.735-0.83-4.186-0.869-6.263-0.835-24.606 0.406-55.424 0.13-83.496-0.417 1.435-3.709 6.12-2.505 9.185-2.505 33.039 0 59.522 0.633 81.826 0.835-0.144-8.689 0.479-19.765-0.835-26.302 0.258-0.995 1.819-0.686 1.253-2.505-11.667-0.801-25.075-0.478-35.486-0.417-0.487 10.02-1.539 17.028 0 26.719-16.213-0.688-35.772 0.066-53.855-0.835-0.326-1.858 0.557-2.506 0.418-4.175 2.413-2.188 6.827-3.33 11.271-4.593 6.992-1.986 17.382-6.389 24.214-4.592 2.164 0.568 3.498 3.407 5.845 1.252-0.316-2.606-4.446-3.949-6.262-4.175-9.338-1.162-20.451 4.184-27.554 6.263-1.311 0.206-1.104-1.439-2.088-0.418-1.613 0.474-2.459 1.716-4.592 1.67-1.161-1.204-0.137-4.595-2.923-4.175-1.459 0.736 1.033 4.795-1.252 6.263-2.354-0.938 0.092-5.02-1.67-5.845-1.241-0.668-3.496 1.223-3.758 2.922 0.326 1.344 2.954 0.386 2.923 2.088-0.803 1.645-2.149 2.884-3.34 4.175-1.19 1.29-2.534 2.478-3.758 3.757-7.912 0.961-14.491-0.562-22.544 0-0.645 1.289 0.284 2.781 0.418 4.593 0.306 4.152-1.076 8.845 0.835 10.437 1.57 0.318 0.288-2.217 2.087-1.67 1.264 0.574 1.491-0.198 3.34 0-0.952 8.371-0.155 18.492-0.417 27.554-7.762 3.404-18.237-3.806-19.204-8.35-0.33-1.548 0.322-3.238 0.417-5.01 0.23-4.285-0.363-9.724-0.417-15.029-0.232-22.832 0.862-53.718 1.252-71.807 5.014 0.461 10.015 0.99 15.447 0.835 34.481-0.987 79.732 0.163 110.22 0 1.624-0.009 3.727-0.17 5.428-0.417 1.274-0.186 4.615 1.058 4.592-2.087-1.506-1.282-3.225-0.112-5.01 0-4.481 0.281-9.305 0.503-14.194 0.417-33.378-0.583-76.356-0.407-113.97-0.417 1.126-2.604-0.357-4.117-1.252-5.845-3.555 0.456-7.238 0.216-10.021 0 0.209-2.297-0.46-5.47 0.418-7.097 30.035-0.316 61.084 0.374 84.749 0.417 6.192 0.011 12.45 0.491 18.369-0.417-0.634-46.787 1.589-100.65 0-150.29-0.495-15.472 1.748-30.25 0.417-44.253-4.195-0.342-2.531 3.963-2.505 6.262 0.094 8.065 0.258 20.872-0.417 29.224-11.326 0.589-26.286 0.97-35.903-0.417-1.11-9.847 0.119-26.138 0.417-35.903-5.482-0.221-3.11 6.57-2.922 10.854 0.373 8.484-0.197 20.144 0 25.466-14.567 0.28-27.077-0.536-41.748-0.417 0.394-10.653 0.53-24.655 0.417-35.486-4.95-0.308-2.69 3.812-2.505 6.68 0.234 3.621-0.464 7.208-0.417 10.854 0.088 6.941 1.659 13.605 0 18.369-4.685-0.473-13.501-0.935-18.787 0.417-2.853-2.622-2.837-5.767-5.427-9.185-2.744-3.619-8.716-6.633-9.603-10.854-0.857-4.081 2.37-10.956-0.835-15.029-3.333 0.466-2.131 4.167-2.088 7.097 0.043 2.882 0.309 6.185-0.417 8.767-4.554-0.378-6.465 1.885-9.603 2.922 0.71-4.315-0.127-8.055 0-12.524 0.073-2.574 1.729-6.677-0.835-8.767-1.641 2.39-1.447 4.778-1.252 7.932 0.3 4.851 0.869 11.618 0 16.282-0.517 2.771-2.767 4.256-3.758 6.262-1.235 2.502-0.686 4.746-2.505 6.68-7.931 0.532-16.675-0.281-25.466 0.417-0.584-10.067 2.03-20.533 2.505-29.224 0.135-2.479 0.688-6.715-2.505-7.932-2.297 2.493-0.4 5.725-0.418 8.767-0.026 4.842-1.225 9.949-1.67 15.029-0.399 4.567 0.943 9.508-0.835 13.777-1.934-0.445-6.008-0.462-9.602-0.417-0.347-13.171 0.554-25.69 0-35.903-4.289 0.349-2.653 5.413-2.505 9.185 0.347 8.862 0.722 18.011 0 26.719-14.904-0.22-25.024 0.129-37.991-0.835 0.962-6.744 0.068-15.697 0.418-23.379 0.191-4.225 1.61-9.542-0.835-11.689-3.281 3.198-1.063 8.797-1.253 13.359-0.281 6.758 0.541 14.782-0.417 22.126-1.919-2.107-0.491-4.9-0.418-7.097 0.32-9.611-0.636-19.361 0-28.806-3.523 1.229-2.842 7.147-2.505 11.272 0.359 4.398-0.042 7.97 0 11.689 0.416 36.532 0.279 78.962-0.418 118.56-0.297 16.905 0.256 34.906 0.418 54.69 2.53-0.382 1.219-3.379 1.253-4.592 0.207-7.391-0.116-12.824 0-18.787 0.244-12.626-0.243-25.905 0.835-37.991 1.819 4.223 0.422 9.027 0.417 13.359-0.015 13.43-0.36 24.91 0 34.233 0.099 2.559 0.917 5.298 0.835 7.933-0.047 1.495-1.048 2.879-0.417 4.175 38.802 0.63 74.672 0.582 115.22 0.417-0.208 2.296 0.46 5.47-0.417 7.097-35.341-0.502-63.479-0.166-98.526-0.417-27.004-0.194-56.586-1.422-85.166-0.835 0.065 2.57-1.48 3.529-2.505 5.01 0.814 0.855 2.803 0.537 3.757 1.252 0.8 1.983 1.95 3.617 3.34 5.01 5.391 14.438 9.649 27.76 14.194 42.583-0.795 1.987-2.674 2.892-3.757 4.593-3.545 1.276-6.149 3.879-9.185 5.845-1.622 1.05-3.962 1.477-5.01 3.34 1.221 2.538 3.693 4.427 5.01 7.097 0.684 1.387 0.634 3.15 1.252 4.593 0.358 0.835 1.265 1.229 1.67 2.087 1.269 2.689 1.392 6 2.505 8.768 0.562 1.398 1.427 2.703 2.087 4.175 1.937 4.316 4.091 8.794 5.845 12.941-4.414 4.074-9.655 8.906-14.612 11.689-0.803 0.451-2.422 0.123-2.087 1.67 3.978 1.323 8.565 0.789 12.942 0.835 34.205 0.358 60.208 0.098 86.418 0.835 6.253 0.177 12.334-0.248 18.369 0 8.899 0.366 18.193 0.696 23.797 0.835 2.288 0.057 5.285-1.068 7.097 0.835-3.996 1.817-8.509 0.503-12.524 0.418-13.877-0.295-29.165 0.24-44.67-0.418-9.815-0.416-21.502-0.417-32.146-0.417-17.499 0-34.348 0.26-49.263-0.418-3.43-0.155-6.648-1.5-10.02 0-0.95 1.943 3.488 1.685 2.505 5.01-1.725 0.78-4.962 0.048-5.845 1.67-0.881 1.756 2.446 1.397 1.252 2.088-3.677 1.377-4.006-4.011-5.427-6.263 1.947-2.646 5.849-3.335 7.097-6.68-4.297-6.696-10.518-11.469-15.864-17.116 0.443-5.313-1.284-8.457-2.922-11.689 3.639-7.038 10.901-12.341 9.602-22.962 1.843-2.058 3.486-5.366 1.67-8.767 2.185-4.613 6.72-9.836 7.098-16.7 0.209-3.801-0.411-9.792-2.923-12.524-0.503-0.548-2.54-1.17-4.175-2.087-1.306-0.732-2.58-2.042-3.757-2.505-4.456-1.751-7.804-0.648-12.107-0.417 0.987-1.1 0.772-3.403 1.67-4.592 4.58 0.483 10.169 1.02 15.447 0.835 2.781-0.097 6.601 0.509 6.68-2.505-4.597-0.233-11.295 0.972-17.535-0.417 0.288-2.635 2.833-3.012 2.505-6.262 0.246-1.498-2.493-0.012-2.087-1.67 3.067-5.01 0.41-9.756-0.417-15.864 18.431 0.052 33.549 0.547 52.603 0.417-0.031-25.664 0.337-48.764 0.417-73.06 0.136-41.215 0.57-81.896 0.835-117.31 0.014-1.795 1.246-4.44-1.252-5.427-3.051 0.097-1.771 4.881-1.67 7.515 0.316 8.207-0.24 20.119 0 28.389-10.811-0.143-25.35 0.282-33.816-0.417 0.337-8.394-0.353-18.816 0-27.971 0.091-2.366 1.787-6.248-0.835-7.932-2.216-0.546-1.014 2.326-2.505 2.505 0.977 6.794 0.722 13.368 0.835 20.457 0.328 20.516 0.531 42.269-0.417 59.7-4.347-22.312-9.037-45.541-13.36-68.05-1.003-5.226-0.846-10.604-2.922-15.447-4.211 1.095-1.411 6.051-0.835 8.767 0.68 3.205 0.951 7.012 1.67 10.437 0.914 4.354 2.918 9.381 3.757 14.194 0.773 4.434 1.71 7.456 1.67 11.272-15.245-0.037-30.07-0.015-43.835 0-1.789-10.561-3.885-24.342-6.262-33.816-0.907-3.613-0.425-8.277-2.922-10.02-3.305 0.639-1.608 3.684-1.252 5.427 0.756 3.704 1.979 6.956 2.505 9.602 1.906 9.589 4.769 19.996 5.427 29.224-14.949-1.201-29.944 0.279-43.835-0.835-1.751-11.996-4.277-25.519-6.68-37.156-0.677-3.28 0.317-8.307-3.34-9.602-2.096 2.69 0.117 6.478 0.835 9.602 2.394 10.419 4.821 22.775 5.845 32.981 1.062 0.886 1.004 2.892 1.252 4.592-9.27-0.092-17.019-0.089-25.884 0-1.556-6.285 2.286-13.262 1.252-20.039 0.628-1.181 1.84-1.778 2.087-3.34 2.311-8.87-4.026-10.497-5.427-14.612-0.762-2.238 1.017-5.133-1.252-6.68-0.422 0.691-1.773 0.454-2.505 0.835-0.523 1.897 0.339 5.695 0 8.767 1.241 3.853 7.346 4.786 5.845 10.02-1.218-2.058-4.105-4.732-7.097-2.505 0.127-1.797 0.03-3.369-1.67-3.34-1.875 1.595-0.587 4.486-0.835 7.097-0.306 3.222-2.023 5.963 0 9.185-2.37 4.866-5.084 9.388-7.515 14.194-2.192-0.244-3.161 0.736-5.427 0.417-2.33-4.25-1.977-9.613-2.922-14.612-0.348-1.84-1.393-3.47-1.67-5.427-0.947-6.693-1.671-11.902-2.922-17.534-0.289-1.301-0.164-3.511-1.67-4.175-3.393 0.695-1.343 4.943-0.835 7.097 1.983 8.408 4.491 18.678 5.01 26.301-3.354-1.317-6.903 0.725-10.437 0.835-6.488 0.203-12.298-0.612-18.369-0.417-0.651-12.153 1.408-28.289-1.252-37.156-1.953-0.422-1.387 1.674-3.34 1.252 0.746 11.457 0.911 22.854 0.835 35.903-2.219 0.245-3.945-1.258-4.175 1.252-0.366 2.454 3.106 1.069 4.175 2.087-0.514 27.994 0.869 56.434 0.417 86.001-0.128 8.414-1.109 12.045-4.175 17.952-2.007-1.193-3.848-2.553-5.01-4.592 0.344-2.022 1.623-3.108 2.087-5.01 1.189-4.862-1.769-10.215-1.67-15.029-0.168-1.641-1.835-1.783-2.087-3.34 1.214-1.625 1.123-3.59 1.252-5.427 0.802-11.41 0-24.885 0-38.408 0-22.749-0.635-41.288-0.417-61.37 0.029-2.723 1.437-7.469-2.087-7.515-1.831 1.679-0.481 3.939-0.417 5.845 1.191 35.551 0.255 71.081 0.835 104.79-5.644-3.68-9.816-8.831-17.952-10.02 0.655-33.329-0.215-63.681 0-99.361 0.179-2.187 2.941-1.79 2.505-4.592-2.496-0.946-4.029 1.192-5.791 2.412 0.02 0.772 0.029 1.544 0.033 2.317 0.107-0.047 0.213-0.096 0.331-0.136 1.434 3.08 0.064 6.272 0 9.602-0.081 4.142 0.835 8.503 0.835 12.942 0 22.415-0.556 45.856-0.417 65.962-13.551-0.805-29.674-0.678-43.418-1.252 0.299-21.435-0.594-38.106 0-53.021 14.809-0.776 22.831 0.566 36.739 0 2.369-0.096 6.683 0.345 5.845-2.922-14.391 0.504-25.314 0.137-43.001 0.417-0.421-10.33-0.022-21.3 0-28.389 0.007-2.227 0.876-6.991-2.505-7.097-1.645 3.752 0.06 8.698 0 13.359-0.094 7.415-0.159 15.224 0 22.126-7.978-0.101-17.24-0.542-27.971-0.417v2.922c3.445 1.366 8.147 0.192 12.524 0 5.784-0.254 11.414-0.281 15.447 0 0.301 18.434 0.775 37.324 0.417 53.438-3.357-0.379-6.374-0.463-8.767 0-0.589-1.436-2.719 0.258-2.505-1.252-4.95 2.092-11.421-0.389-17.13 0.843-0.457 5.186 4.76 2.678 7.515 2.505 6.302-0.396 13.746 0.884 20.874 0 0.765 10.713 0.361 28.253 0.417 39.661-8.306-0.279-15.473 0.011-22.961 0-1.91-0.002-4.73-1.388-5.427 1.252 1.023 3.462 4.72 0.977 7.515 0.835 6.013-0.305 14.283 0.174 21.292 0.417-0.273 15.897-1.111 36.865 0.417 55.525-11.286 0.124-20.682-0.312-29.641-0.835-1.077 0.573-0.092 2.558 0 3.34-1.89-0.637-0.903 1.602-1.67 2.087 3.246 1.557 7.176 0.199 10.854 0 3.921-0.212 8.038-0.059 12.107 0 20.092 0.289 38.854 0.021 56.36-0.835-0.084-10.436 0.771-22.381 0-36.739 5.357-0.905 7.287-5.237 12.107-6.68 1.068 0.602 0.952 2.388 1.252 3.757 1.546 0.681 2.686 1.768 4.175 2.505-1.094 10.068 0.059 21.308 0 29.642-0.021 3.029-2.115 8.182 1.252 9.185 1.636-2.015 0.873-5.204 0.835-7.932-0.148-10.535 0.165-20.86 0-30.477 2.985 1.726 5.341 4.036 7.515 6.262 1.882 1.928 2.474 3.353 2.505 6.68 0.067 7.242-0.687 16.845-0.417 22.962 0.753 0.917 1.629 1.711 2.087 2.922 5.509 0.304 11.292-1.75 15.864 0 3.023 1.157 4.409 4.656 6.68 5.845 1.23 0.644 4.257 1.384 6.68 2.087 2.347 0.681 5.126 1.481 7.097 1.67 5.41 0.517 5.969-1.929 10.437-2.087 1.094-0.039 2.512 0.727 3.757 0.835 3.745 0.326 8.52-0.728 10.854 2.505-1.185 11.419 3.854 19.649 10.02 25.049v2.087c4.159 2.579 7.024 6.666 10.437 10.02 3.41 3.351 7.013 6.73 12.107 8.35 2.641 4.819 10.996 0.923 15.864 2.088 2.21 2.392 2.753 5.289 5.845 5.427 3.09 0.138 4.633-3.647 7.932-3.757 5.872 2.113 0.773 6.521 1.252 10.02 0.353 2.573 2.412 1.839 2.922 4.592-0.286 1.7-1.645 2.416-2.087 4.175-0.792 3.148 0.699 7.105-1.252 9.603-1.859-1.203-4.134-1.989-5.845-3.34-0.004-1.109 0.158-2.385-0.417-2.923-3.306-2.956-5.115-7.409-8.35-10.437-7.505 1.623-18.304-5.387-20.457 3.757-6.094 1.687-9.466 8.685-7.097 16.282-1.435 3.469-5.815 6.107-6.262 9.185 4.216 1.033 9.734-2.173 13.777-0.418 1.438 2.814-1.186 3.604-2.505 5.845-2.842 4.826-3.519 11.822-5.845 17.534-1.54-2.313-1.917-5.002-3.34-7.932-2.815-5.798-9.187-11.622-5.427-17.534-2.649-1.15 0.2-4.418-0.835-6.263-2.951-0.863-1.622 2.554-3.34 2.923-4.692-3.519-10.432-5.989-14.194-10.438 2.042-4.639 4.336-9.023 9.185-10.854 3.024 3.415 7.395 4.971 10.02 8.768 0.558 0.808 0.583 2.107 1.252 2.922 0.828 1.009 2.396 1.561 3.34 2.505 1.018 1.018 1.017 3.267 2.922 2.923 0.403-3.496-2.969-5.593-5.01-7.933-2.242-2.569-4.499-5.269-6.68-7.515 1.055-1.221 1.448-2.713 0.835-4.592-7.194-3.961-11.522-10.073-18.787-13.359-2.926-1.324-5.077-2.336-8.767-2.088-6.93-4.858-12.938 2.719-17.117 5.845-5.806-0.377-10.872-3.52-16.699-2.505-2.919-1.829-7.888-3.125-11.689-3.34-9.014-0.509-12.803 5.479-16.282 12.524-1.91-0.305-3.203-3.024-5.01-2.087 0.148 3.053 3.422 2.979 4.592 5.01-0.664 2.208 1.351 4.711-0.417 5.427 0.07-0.905-1.481-0.189-2.087-0.417-1.159-1.418 2.188-1.581 0.835-3.34-1.1-1.405-3.641-1.369-5.01-2.505 1.437-15.263-19.694-19.999-30.894-12.524-3.078-5.979-14.562-9.987-20.039-4.175-11.214-3.883-23.993-0.621-30.059 4.592-1.663 1.43-4.114 3.067-2.922 5.428 2.624-0.285 3.719-3.059 5.845-4.593 7.442-5.37 21.926-5.78 31.311-2.505 2.412 0.842 5.206 2.013 6.262 3.758-5.118 0.219-10.668-2.671-17.534-2.088-5.139 2.025-11.064 1.154-15.447 3.758-2.294 1.362-2.929 3.709-5.427 4.592-1.532-0.295-6.221-2.142-6.68 0.418 3.137 2.708 10.8 0.889 12.524 5.01-1.443 1.216-1.388 3.055-3.757 3.757-2.728 0.809-5.976-0.772-7.932-0.417-0.083 5.669 0.189 11.268 0 17.534-0.252 8.333 0.036 16.441-0.835 22.544-0.105 1.497 1.254 1.529 1.252 2.922-0.928 30.717-0.149 61.421 0.417 91.429 2.227 0.946 4.803 1.599 7.515 1.67 6.523 0.171 14.36 0.011 21.292 0 2.793-0.004 6.074-0.68 9.185-0.417 1.417 0.119 4.457-0.15 5.01 1.67-12.942 0.249-29.53-0.304-42.583 0-0.921 4.483-1.131 9.286 2.087 11.271 3.528-0.273 7.125 0.238 9.602 0.418 24.106 1.75 57.317-3.744 73.895 4.175-26.111 1.54-58.058 0.657-84.749 0.417-0.787 2.152-1.795 4-2.087 7.098-0.686 7.267 0.427 12.05 0.835 17.116 0.503 6.254-0.24 15.387-1.252 20.457 1.426 1.698-0.345 4.426 0.835 6.68 1.186 1.062 1.669-1.107 2.922-1.253 0.823 1.104 2.419 0.744 3.757 0.835 9.009 0.614 16.798 0.413 25.884 0 2.962-0.134 5.929-0.871 8.767-0.835 0.632 0.009 1.505 0.794 2.087 0.835 3.119 0.223 6.083-0.081 8.35-0.835 12.151 1.429 23.564 1.094 34.651 0.835 9.397-0.219 18.297 0.431 26.301 0.418 5.641-0.009 11.445-0.861 17.117-0.835 14.007 0.065 30.083-0.365 45.506 0 1.586 0.037 2.614 0.297 4.175 0.835 14.866-1.626 28.833-0.857 43.835-1.67 0.903 1.185 2.49 1.686 2.922 3.34-1.17 1.892-1.939 4.184-3.34 5.845-3.22 0.819-7.264 3.029-11.272 1.67-1.841 1.916-5.745 1.77-7.932 3.34-0.248 2.275 2.407 2.583 3.757 3.34 1.585 0.889 3.203 2.333 4.592 2.923 2.941 1.247 6.362 0.974 8.767 1.252 3.769 0.436 10.446 0.842 13.777 2.505 7.123-1.726 13.817 1.119 20.039-1.67 1.087-0.562-0.264-2.915 0.417-2.922 1.543 0.012 1.514-1.548 2.505-2.088 0.119-2.206-0.023-4.151-0.835-5.427-2.452 0.808-4.918 2.699-8.35 2.922-6.477 0.419-11.216-1.777-15.447-3.34-3.045-1.125-7.264-1.67-5.427-5.01 1.21 0.515 1.417 3.602 3.34 2.087 2.183-5.142-4.403-5.837-2.922-10.437-1.116-0.276-2.608-0.175-3.34-0.835-3.121-4.618-0.355-11.684-0.835-19.204-0.606-9.503-5.263-16.956-4.592-27.137 0.485-7.365 6.326-11.838 6.68-19.204 0.075-1.177 1.984-0.521 1.67-2.087-1.583-3.767 1.364-9.599 3.757-12.107 0.5-3.675 1.78-6.569 4.175-8.35 1.938-4.922 4.576-10.551 7.097-14.611 0.746-1.202 1.951-3.443 3.34-3.34-0.41 3.243 1.084 6.347 2.087 8.767 0.548 1.323 0.397 3.354 2.087 3.34 1.104-4.34-2.212-8.627-2.087-12.524 0.086-2.697 0.135-7.01 2.922-7.933 2.279-0.608 0.387 2.953 2.922 2.088 2.159-1.813-0.529-3.205-0.417-5.428 0.509-2.489 3.414-4.553 2.505-7.097-3.905 0.409-2.719 5.909-5.427 7.515-0.551-4.726 1.379-6.971 1.67-10.854 3.161-3.093 6.937-4.985 11.272-6.68 2.131-0.833 4.751-1.891 6.68-2.088 7.218-0.737 15.504 3.845 21.709 0 0.911 2.341 3.955 0.701 5.427 0 1.532 2.269 3.174 5.89 4.593 9.603 2.005 5.25 5.415 11.375 3.757 18.787-0.423 1.888-2.493 3.042-2.922 5.427 0.835 1.53 2.297 2.435 2.922 4.175-0.433 1.099-0.5 2.562-0.417 4.175 3.622 3.959 5.251 9.373 7.097 15.029 0.94 2.882 1.292 6.106 2.087 8.768 0.516 1.723 2.062 2.928 1.67 4.592-1.752-0.613-2.182-2.55-4.175-2.922-1.857-1.815-3.082-6.308-5.845-5.845 0.001 3.553 3.235 6.198 5.845 8.35 2.79 2.3 6.23 4.502 9.185 6.262 3.6 5.169 8.338 9.554 7.097 17.534-1.976-1.477-4.115-2.598-6.262-4.175-1.866-1.37-3.883-4.287-6.68-3.34-0.432 1.742 1.709 1.961 2.505 2.505 3.155 2.158 5.606 4.458 8.35 6.68 3.202 0.609 7.244 1.824 9.602 3.758 1.396 1.145 3.604 4.127 4.175 5.845 0.568 1.705-0.005 4.795 0.418 7.515 0.533 3.427 2.295 5.503 1.252 8.767 0.563 1.651 1.921 4.307 0.835 6.263 2.19 1.985 2 6.35 3.758 8.767-0.455 1.403 1.059 3.665 0.835 4.593-3.454 1.701-6.78 3.514-11.272 3.34-6.912-0.268-15.301-2.647-21.291-4.175-1.977-10.27-6.408-18.084-8.35-28.389 2.733 1.58 5.287 3.341 6.68 6.262 4.345 1.812 6.367 6.844 8.767 10.854 1.176 1.965 2.607 3.863 3.758 5.845 1.025 1.768 1.604 5.293 4.175 5.01 0.344-2.091-1.45-4.082-2.505-5.845-3.512-5.869-7.094-12.256-11.689-16.699 0.055-1.028 0.063-2.011-0.418-2.505-4.505-2.869-8.747-6.003-13.359-8.767-5.873-5.846-10.086-14.221-12.524-23.379-1.28-4.809-3.089-8.759-5.427-12.524-2.227-3.588-6.909-7.043-5.01-11.689 2.509 2.7 5.121 5.87 7.097 8.35 1.767 2.217 2.792 4.022 4.592 5.845 2.594 2.626 5.45 4.643 7.515 7.515 3.871 0.509 5.706 6.812 10.02 4.175-1.057-2.542-3.934-2.49-5.845-3.758-2.469-1.637-4.587-4.211-6.68-6.262-2.364-2.317-4.522-4.351-6.68-6.68 0.046-1.039 0.783-1.293 0-2.088-3.085-3.455-5.252-7.828-7.932-11.689 1.408-0.958 0.937-3.794 2.922-4.175 2.481 2.251 4.458 5.005 8.35 5.845 0.635-5.506-4.565-5.176-5.427-9.185 7.002-3.156 12.267-8.051 14.194-16.281-3.047-0.389 0.087-5.979-3.757-6.263-1.483 1.505-0.926 2.831-0.835 5.428-1.52 3.072-2.377 6.808-5.01 8.767 1.387-3.941 2.584-12.866-1.252-15.029-2.105 1.93 0.338 4.424 0.417 6.68 0.088 2.483-1.016 4.391-1.67 6.68 0.12 1.133 0.537 1.968 1.252 2.505-0.99 0.68-2.415 0.926-3.757 1.253-0.869 1.496-2.053 2.678-2.922 4.175-10.499 6.37-17.191 17.499-28.389 22.961-2.036 0.993-4.74 0.198-5.01 3.758 11.978-2.5 19.945-12.615 28.389-20.039-5.055 15.818-14.837 26.911-27.554 35.068-1.894 1.92-2.849 4.853-5.845 5.427-1.97 0.378-4.601-2.33-5.845 0.418 1.255 2.263 4.696 2.873 6.68 2.505 3.834-0.713 5.934-6.434 8.767-7.515 1.807 1.32 2.295 4.018 1.67 6.68 3.573 2.042 2.73 6.074 3.34 10.854 0.281 2.198 0.87 4.082 0.835 5.845-0.104 5.23-1.795 10.825-2.922 14.611-0.466 1.564-0.402 3.364-0.835 5.01-0.292 1.108-1.099 2.141-1.252 3.34-0.338 2.646-0.072 6.365 0 9.603 0.053 2.379-0.735 6.296 1.67 7.515 3.062-1.65-0.554-7.463 1.252-10.438 13.535 0.323 33.882 0.633 50.516 0.835 1.713 0.213 2.311-2.072 3.34-1.252-0.466 3.418 0.73 9.783 3.757 9.603 1.462-1.355-1.247-4.286 0-5.428 7.133 1.136 16.224 4.238 23.797 3.34 2.844-0.337 5.683-2.551 7.932-1.252-1.215 2.352-3.491 4.186-5.845 5.01-1.074 0.376-2.642 0.092-4.175 0.417-1.208 0.256-2.264 1.173-3.34 1.253-3.509 0.26-8.92-0.64-12.106-1.253-1.94-0.374-5.328-3.104-6.263 0 2 3.688 7.876 1.58 11.689 2.923 2.27 0.798 3.322 3.266 5.428 3.757 5.97 1.393 10.587-1.824 14.611-0.835 1.897-1.997 0.944-4.771 0-7.098 4.845 1.097 3.144-6.981 3.34-10.02 4.15-0.061 8.172-0.492 12.107-0.417 1.317 0.025 2.258 0.844 3.34 0.835 1.618-0.014 3.406-0.812 5.01-0.835 0.599-0.009 1.019 0.821 1.67 0.835 1.706 0.034 3.833-1.501 5.428 0 0.384-0.729 1.305-0.922 2.505-0.835 6.824 1.284 10.872-1.17 18.369 0.835 2.056-1.594 4.437-0.394 6.68-0.418 4.228-0.046 8.642-0.875 12.941-0.835 1.002 0.01 1.979 0.773 2.923 0.835 2.4 0.159 5.035-0.749 7.515-0.835 5.418-0.187 11.283 0 16.281 0 16.225 0 32.699-0.035 49.264 0 5.869 0.013 11.978 0.601 17.951 0.418 1.183-0.036 1.795-0.733 2.923-0.835 3.174-0.287 7.321 0.384 10.854 0.417 30.938 0.299 70.187-0.15 100.61 0-1.244-14.109-0.739-35.661-0.835-50.933-2.135-0.787-5.573-0.271-8.35-0.417 2.397-1.224-0.318-3.787 1.252-5.01 3.243-0.57 5.182-0.312 7.515 0.835 0.187-3.749 0.433-6.947-0.417-10.438-2.48-0.304-6.312 0.746-7.515-0.835 1.837-1.663 7.375 0.745 8.767-1.252-2.208-10.045 0.121-21.174-0.417-30.477-3.48-1.447-6.199 1.255-10.438 0.418-0.938 0.731-0.822 2.518-1.252 3.757-5.169 4.434-10.291 8.913-14.194 14.612 3.117 4.675 9.03 6.556 14.194 9.185-1.579 1.793-4.831 1.894-7.098 1.67-4.334-0.429-9.285-2.779-12.942-3.34-1.68 0.611-4.299 1.335-6.262 0.417 0.773-1.452 3.052-1.401 2.922-3.757-4.636-1.403-12.093 0.054-13.359 3.757-5.787 0.128-12.325 0.312-19.204 0-8.768-0.398-19.116-0.714-27.136-1.252-1.789-0.12-4.128 0.814-5.428-0.835-0.443-2.684 2.843-1.608 3.758-1.67 4.604-0.313 9.682 0.233 14.611 0.417 6.799 0.254 13.85 1.183 20.457 1.253 6.049 0.063 10.6-1.988 15.864-2.923 5.363-0.952 10.275-1.056 14.194-4.175 1.997-1.59 3.298-3.887 5.01-6.262-6.589-3.552-11.279-10.753-20.039-11.272-41.953-2.488-87.71-2.433-123.99-4.592-1.553-0.439-0.818 1.407-1.67 1.67-0.766-1.511-2.906-1.255-4.593-0.835-0.21 1.362 2.076 0.885 0.835 2.087-13.253 3.029-23.832 8.731-30.059 18.787-0.349 1.043-3.263-0.479-2.922 1.252 1.597 1.626 4.427 0.688 6.262 0.835 2.312 0.187 4.114 0.723 6.263 0.835 4.589 0.24 9.131-0.146 13.776 0 21.66 0.682 48.296 1.224 71.808 2.505 2.37 0.129 6.87-1.062 7.932 2.088-3.002 1.628-5.962 0.376-9.185 0.417-24.793 0.319-53.138-2.233-80.991-3.34-10.744-0.427-22.183-0.045-33.398 0-10.33 0.042-21.849-0.998-32.146-1.252-3.081-0.076-6.468 0.438-8.767 0-1.758-0.336-6.329-2.397-5.846-3.758 3.027 0.409 7.671 2.684 10.021 0 1.776 0.147 5.252 2.661 6.68 0.418-0.107-1.188-1.871-1.072-2.505-1.253-7.308-2.073-14.184-4.142-21.292-5.845-3.388-2.597-8.893-3.075-12.942-5.01-3.94 0.979-8.877 1.204-13.359 1.67-3.156 0.328-6.72 1.093-9.184-0.417 1.297-2.249 4.762-1.004 7.514-1.253 1.138-0.103 2.158-0.689 3.34-0.835 2.043-0.251 5.416 1.034 5.845-1.252-5.206-2.313-11.937-3.587-16.699-5.428-1.621-0.627-4.049-1.197-4.592-2.922 2.506-0.928 4.593 1.396 6.68 2.087 3.109 1.029 6.85 1.803 10.437 2.923 3.458 1.079 7.138 2.9 10.438 3.34 5.98 0.794 10.133-0.944 14.611-1.253 6.238-0.43 11.312-0.376 16.282-0.835 14.788-1.364 30.933-2.415 45.923-4.175 2.178-0.256 5.378 0.604 6.68-2.087-3.396-1.02-7-0.243-10.854-0.418-20.155-0.916-41.51-1.102-61.37-2.087-0.575-0.538-0.413-1.813-0.417-2.923 14.518 2.093 31.418 0.247 46.758 1.253 6.103 0.399 12.248 1.103 17.952 1.252 13.944 0.366 28.414 0.648 43 1.253 17.017 0.704 33.111 0.192 50.099 1.252 12.801 0.799 25.436 1.357 37.99 1.67 1.246 0.007 1.42 1.086 2.505 1.253 2.507-1.383 4.275-0.566 6.263-0.418 2.857 0.213 4.534-0.273 6.262-0.417 8.353-0.695 16.906 0.857 25.884 1.252 11.365 0.5 24.985-0.617 32.146 1.67 3.281-2.706 7.926-1.392 13.359-1.67 0.366-3.151 0.289-7.97-1.252-10.438-0.028-1.697 1.323-2.016 1.252-3.757-2.571-4.188-0.622-11.025-0.835-17.117-0.389-11.131-0.938-23.191 0.418-31.729-33.575-1.026-68.144 0.02-97.691-0.835-2.11-0.061-4.271 0.543-6.262 0.418-1.763-0.11-4.253-2.341-5.845 0-0.396 4.92 6.773 0.416 7.932 2.922-1.144 4.407-10.558-1.459-12.524 2.505 0.927 0.911 3.439 0.81 6.263 0.835 2.745 0.025 6.788-1.257 6.262 2.088-3.865 0.866-8.587 0.876-13.359 0.835v-5.845c1.9-1.93 4.3-3.43 6.24-5.38zm101.45-18.37h-5.428c-0.43-3.47 5.83-3.29 5.43 0zm-7.1-0.83c-1.525 1.599-3.721 0.36-6.68 0.835 0.28-3.07 5.26-2.18 6.68-0.84zm-7.09-2.09c0.438 2.245-1.864 1.764-2.504 0.835 0.04-1.06 1.39-0.83 2.5-0.83zm-2.51 2.92c-2.137 0.328-3.033-0.585-5.01-0.417 1.11-1.41 4.96-2.65 5.01 0.42zm-6.68-0.83c-0.483 1.604-3.658 0.518-5.428 0.835-0.09-3.26 4.19-1.92 5.43-0.84zm-28.39-1.26c1.474 0.058 1.867 1.194 3.34 1.252 1.515-1.437 4.98-2.595 6.68-0.417 1.476-1.309 4.661-1.991 5.428 0.417 1.533 0.143 0.387-2.396 2.505-1.67 1.174 0.078 1.778 0.727 1.67 2.088-8.496 0.966-18.781 0.145-27.972 0.417 1.51-3.7 6.52 0.71 8.35-2.09zm-8.76 1.67c-0.444 0.947-2.624 0.158-3.758 0.417 0.19-2.16 2.93-1.82 3.76-0.42zm-8.35-1.67c0.692-0.699 2.451-0.332 3.757-0.418-0.208 1.74-1.741 2.155-3.34 2.505-0.36-0.48-0.56-1.11-0.42-2.08zm-1.26 1.26c-0.551 0.523-4.693 1.097-4.592-0.417 2-0.75 3.08 0.33 4.59 0.42zm44.68-42.17c-0.019-0.714 0.311-1.082 0.835-1.252 12.616 0.269 19.525-0.241 30.059 0.417-0.158 9.054 0.215 15.743 0.418 23.796-10.426 0.938-20.837 0.222-31.312 0.418-0.98-8.47 0.33-13.97-0.01-23.39zm-58.04 20.04c0.134 0.979 0.66 1.566 0.418 2.922-0.607 0.646-2.138 0.368-3.34 0.418 0.14-1.96 1.22-2.96 2.92-3.34zm-0.83 5.43c-0.412 1.93-3.581 2.939-5.427 2.088 0.15-3.08 3.04-2.72 5.43-2.09zm-9.18 15.86c3.332-0.422 6.298 0.975 9.185-0.835 1.817-0.425 1.92 0.864 2.923 1.253 1.579-2.293 4.348-1.474 5.845 0.417-4.965 1.659-11.212 0.43-17.952 0.835v-1.66zm58.44-96.02c-11.052 0.654-22.377 0.238-35.485 0.417-1.497-16.224-0.535-36.958-0.835-55.108 0.306-0.39 0.759-0.632 1.252-0.835 10.544 0.221 26.188 1.39 35.068 0 0.04 18.62-0.03 38.11 0.01 55.52zm-35.48-153.22c10.434 0.477 27.351 0.923 35.485 0-0.078 18.793 0.104 37.32-0.417 54.69-11.439-0.965-25.683 0.151-35.903-0.835-0.571-16.215 0.575-36.021-0.418-53.021 0.12-0.37 1.12-1.827 1.25-0.834zm-0.42 55.943c12.327 0.563 24.694 0.688 35.486 0.835 0.97 12.25 0.142 26.298 0.417 39.243-11.414 1.481-25.933-0.896-35.903 0.417-0.988-13.033 0.036-28.171-0.835-39.243 0.35-0.336 0.24-1.142 0.83-1.251zm-183.27 38.824c-1.914-1.679-0.835-6.571-0.835-11.689 0-9.813 0.167-19.237 0.418-27.136v-1.252c0.484-0.068 0.742 0.092 0.835 0.417-0.28 12.991 0.57 26.591-0.42 39.661zm0.41-41.329c-1.539-0.946-0.822-3.87-0.835-6.262-0.078-14.43 0.066-32.274 0-45.923v-1.252h1.252c0.21 17.897-0.6 36.863-0.42 53.437zm40.08 99.779c-12.801-0.069-24.361-0.172-37.991-0.835-0.688-18.147-0.647-38.704 0-55.525 9.039 0.886 25.827-0.981 37.991 0.417-0.05 18.8-0.89 33.62 0 55.94zm0-58.45c-13.413 0.371-25.195 0.524-38.408 0 0.142-15.007-0.196-27.077 0.417-39.243 13.833-0.572 22.854 0.023 37.991 0-0.13 13.463-0.71 25.093 0 39.243zm0-41.329c-12.496-1.054-27.061 0.362-38.408-0.835 0.914-17.926 0.215-37.467 0.835-52.603 11.62 1.099 25.583-0.339 37.99 0.835 0.12 20.109-0.35 33.859-0.42 52.603zm14.61-52.603c9.554-0.844 16.877-0.461 25.467-0.835-1.281 7.822-1.27 18.277-2.088 28.389-0.763 9.433 0.878 19.181-3.34 25.466-3.58-0.013-7.131-0.902-11.271 0-3.359-4.017-3.243-11.508-5.845-16.282-1.16-12.363-3.24-25.198-2.92-36.738zm18.37 54.273c0.01 3.767-7.47 3.908-7.932 0.417 2.83-0.744 5.01 0.48 7.93-0.417zm-30.47-54.273c2.422-0.917 6.499-0.18 9.602-0.417 0.068 17.271 1.965 38.187 7.933 53.021-6.724-0.184-11.229-0.184-17.952 0 0.2-15.474 0.54-34.489 0.42-52.604zm43.83 152.38c-12.102 0.089-32.532 0.005-44.67 0 0.442-17.286 0.875-37.692 0-55.108-0.019-0.714 0.31-1.081 0.835-1.252 11.243 0.873 29.458-0.163 44.253 0.835-0.25 17.71-0.34 37.09-0.42 55.52zm0.42-58.03h-44.671c0.019-13.305-0.185-26.57 0-39.661 1.877-0.273 6.498 0.037 10.02 0 2.495-0.026 6.086-0.909 7.933-0.417 3.708 0.987 5.315 5.815 9.185 5.845 3.267 0.024 5.327-3.005 7.932-5.427 3.104 0.237 7.181-0.5 9.603 0.417 0 16.01-0.55 26.88 0 39.24zm0-41.749c-2.215 0.504-5.521 0.672-8.35 0 1.189-4.151 1.223-9.424 1.67-14.194 1.231-13.132-0.058-27.627 2.922-39.244 1.277 0.303 1.229-0.72 2.505-0.417 2.268 0.975 1.215 4.027 1.253 5.845 0.31 14.996-0.23 32.58 0 48.01zm-2.92-55.525c0.093-2.552 1.144-4.145 2.088-5.845 1.889 0.338 0.114 4.339 1.252 5.427-0.82 0.489-2.34 1.372-3.34 0.418zm-117.32 154.05c-8.861 0.503-23.25 0.828-33.398 0-0.899-16.087 0.426-35.09 0-53.438-0.036-0.592-0.069-1.182 0.418-1.252 9.324 0.43 22.487 0.417 32.98 0.417 0.66 17.82-0.28 31.5 0 54.27zm-33.39-152.8c10.11-0.15 24.691 0.842 33.816 0-0.135 18.083 0.341 41.898-0.418 54.273-12.081-0.082-22.464 0.028-33.815-0.417 0.5-18.068 0.32-37.067 0.42-53.856zm-0.42 57.195v-0.835c12.01-1.057 22.579 1.077 33.398 0 1.768 12.836-0.153 26.719 0.835 39.661-11.37 1.335-20.897-0.734-33.398 0.417-0.902-5.88-0.787-11.883-0.835-17.534-0.06-7.25 0.67-13.65 0-21.717zm-223.36 26.717c3.712 1.702 1.638 9.174-1.67 10.02 1.622-2.82 2.801-6.65 1.67-10.02zm-42.583-27.552v-0.835c14.78-0.384 25.392 0.743 43.418 0.417 0.913 2.288 0.184 6.218 0.417 9.185-9.307 0.573-14.636 5.125-19.622 10.02-2.774-3.163-7.869-2.022-9.185 1.67 0.337 2.585 2.672 3.173 3.758 5.01-0.795 4.97-3.541 8.82-2.923 12.942h-15.028c-1.028-4.695-0.341-9.65-0.417-14.194-0.137-8.15-0.094-15.49-0.418-24.222zm22.544 21.292h1.253c-1.38 1.965 2.017 1.443 3.34 2.087 0.523 0.255 0.804 1.363 1.252 1.67 0.551 0.377 1.488 0.107 2.087 0.417 2.245 1.162 5.024 4.196 7.097 5.845-0.269 1.263-0.652 2.409-2.087 2.505-2.839-4.536-8.772-5.979-11.689-10.437-0.749-0.053-0.881 0.511-1.67 0.417-0.303-1.27 0.72-1.22 0.417-2.5zm-21.709 75.15c-1.062-18.334 0.22-38.786-0.417-55.525 5.195-0.832 9.433 0.187 15.029-0.417 1.537 2.499 0.965 7.106 2.922 9.185 0.731 1.479-0.278 1.026-0.417 2.505 5.093 7.345 13.486 13.44 26.302 11.689 0.401 10.559-0.362 23.603 0.417 32.564-15.095 0.54-31.014 0.2-43.836 0.02zm59.282-73.9v-2.087c5.983 1.114 5.016 9.179 5.845 15.447-0.544 1.903-2.149 1.128-1.252 3.757-1.545-1.099-2.79-0.623-4.592 0 0.626-5 3.482-13.1-0.001-17.12zm8.351 34.24c-2.611-1.146-4.584-2.93-7.097-4.175 0.458-1.491 1.432-2.465 2.922-2.922 2.775 1.35 7.285 3.39 4.175 7.09zm111.05 338.57c0.75-2.312 5.811-0.312 7.097-2.088 1.017 0.235 2.147 0.357 2.087 1.67-3.65-0.68-6.86 2.45-9.19 0.42zm37.57 2.51c1.643-0.178 2.803-1.74 4.592-0.835 0.288 2.444-2.896 1.421-4.175 1.67-7.459 1.449-19.509-2.031-25.466-5.428v-1.252c0.336-0.222 0.678-0.436 1.252-0.418 6.16 2.64 15.05 7.2 23.81 6.26zm40.08-178.68c2.03 2.354 5.312 4.202 6.263 7.515-2.349 0.853-3.243 3.159-5.845 3.757-1.256-1.666-2.259-3.585-3.757-5.01-0.162-6.935-4.673-9.521-6.262-15.029 3.87 2.13 6.75 5.45 9.61 8.77zm-20.87-87.26c-0.754 0.716 0.128 1.642 1.252 1.67-0.966 2.657-6.433 1.938-6.68-0.835-5.254 1.079-5.412-2.938-8.35-4.175-0.523-5.727 0.434-8.399-1.252-12.524-0.127-1.101 0.872-1.077 1.67-1.252-0.875-11.854 17.141-4.282 23.796-6.262 1.608 3.907-0.687 9.047 0.835 11.689-4.73 2.94-5.18 10.14-11.28 11.69zm-53.44 11.69c-2.788-0.276-5.135-0.239-6.68-2.505 2.279-2.73 6.164-3.855 7.932-7.097 2.199 0.723 3.467 2.378 4.175 4.592-2.34 1.14-6.21 0.74-5.42 5.01zm-7.52-6.26c2.902-3.638 6.314-6.767 7.932-11.689h2.087c-0.93 6.3-4.88 9.59-10.02 11.69zm11.28-5.43c1.105-3.248 3.147-8.795 1.67-12.942-0.079-1.174-1.362-1.143-1.67-2.087-0.055-1.029-0.063-2.012 0.417-2.505-2.249-2.363-7.728 1.066-10.02-1.252 0.501-2.004 4.374-0.636 4.592-2.922-0.942-2.16-2.936 0.654-4.175-0.417 1.153-1.352 3.776-1.233 5.01-2.505-1.815-2.263-4.463 1.574-6.262 0.417 1.012-2.049 3.935-2.188 6.262-2.922-1.382-3.967-5.031 0.372-7.515 0.417v-2.505c1.755-0.75 3.146-1.863 5.427-2.087 3.475 2.328 8.044 3.348 9.185 7.932 1.142 4.589-2.266 9.999 0.835 13.777 1.349-0.46 0.709-2.909 1.252-4.175 1.853-0.217 3.909 2.695 6.262 3.34-0.104 0.453-0.83 0.283-0.835 0.835 5.394 4.705 0.162 18.475-6.262 15.029-0.69-0.36-4.22-5.39-4.2-5.44zm30.89-92.26c-17.211-0.096-30.361-0.172-44.67-0.417-0.018-11.313-0.018-27.93 0-39.243 15.446-1.334 29.196-0.194 44.67-0.417-0.97 11.96 0.36 25.07 0 40.08zm-25.47 70.55c-0.542-3.948-3.344-5.921-4.592-9.185 8.626 0.695 24.106 0.471 32.146 0 0.95 1.972-0.032 5.876 0.835 7.932-0.833 1.95-3.602 1.964-3.757 4.592-5.696-0.107-16.039-1.359-23.379 0.417-0.402 1.793 2.051 0.732 2.087 2.087 7.129-1.18 16.095 0.306 21.292-0.835 0.426 2.914 2.61 4.07 3.757 6.262-1.93 2.105-2.242 5.829-3.34 8.767-8.904-4.038-16.02-9.864-25.049-13.777-0.44-2.35 0.28-4.18-0.01-6.27zm28.81 20.46c3.013-0.671 3.335 3.186 2.922 4.592-2.65 0.32-4.12-2.4-2.92-4.59zm-7.93-31.73c-8.167 0.031-19.44 0.512-27.554 0-1.07-0.068-3.045 0.734-3.34-0.835 15.352-0.005 24.18 0.222 38.826 0-1.9 2.31-5.2 0.82-7.94 0.83zm-40.08-57.61c0.338-0.079 0.416-0.419 0.835-0.417 12.069 0.943 29.521 0.988 43.418 0.417 1.021 18.755-0.864 33.434 0.417 55.108-17.738-0.271-27.582 0.193-44.67-0.417-0.76-15.7 0.37-33.09-0.01-54.69zm28.81 83.91c6.529 1.96 10.791 6.187 16.282 9.185 1.28 1.225 1.719 3.291 3.757 3.757-0.515 2.239 1.631 3.388 2.922 2.505 1.312-0.712-0.468-2.929 0.417-3.34 3.404-0.929 6.44 0.336 10.437 0 2.512 1.614 0.396 4.905 0 7.932-0.444 3.398 0.021 6.323-2.087 7.932-7.18-0.191-13.174-5.091-19.622-3.34-5.605-3.718-10.604-8.042-16.699-11.272 2.85-3.12 5.05-6.91 4.59-13.36zm39.66-28.39c0.271 0.194 2.051 2.382 2.505 2.922 0.961 1.144 2.434 1.752 1.67 3.34-3.68-1.368-7.798-2.694-12.107-2.087-4.344 0.612-7.542 3.742-10.437 5.01-4.17-11.18 11.88-13.85 18.37-9.18zm14.61-0.41c-3.267-0.067-7.021 0.899-10.02 0-3.451-1.035-6.216-4.088-9.602-4.592-7.141-1.063-9.899 3.053-16.282 4.592-1.395-2.578-0.446-5.22-0.417-7.932 0.069-6.671-0.243-14.104 0-21.709 0.114-3.551 0.402-7.196 0.417-10.854 0.019-4.517-0.994-9.135 0-13.359v-1.252c13.786 0.965 29.356 0.146 43.835 0.417 1.1 17.104-1.072 35.933 0.418 54.273-2.84 1.63-5.51 0.46-8.36 0.41zm7.93-96.859c-0.106 13.794 0.425 29.499 0.418 40.496-13.988-1.181-30.701 0.364-44.671-0.835 0.746-11.809-0.154-25.354 0-38.408-0.018-0.714 0.311-1.082 0.835-1.252h43.41zm-10.44-48.428c1.822 3.07 1.472 6.631 2.087 10.02 0.534 2.937 1.925 5.868 2.505 8.767 0.626 3.126 0.708 6.247 1.252 9.185 1.187 6.407 3.124 12.206 3.34 18.369-1.14-0.767-2.796-0.049-4.175 0-12.08 0.432-27.27-0.325-39.661 0-1.59-16.362-5.925-29.979-8.35-45.506 15.61-1.25 28.03 0.018 43-0.835zm-45.5 0.417c2.911 15.678 6.98 31.946 8.767 45.506-11.624 1.517-22.942-0.827-33.398-0.417-2.044 0.08-5.732 1.442-10.02 0.835-3.775-15.174-6.693-31.438-9.185-45.923 17.48-0.174 29.22 0.458 43.83-0.001zm-46.34 0c2.865 15.365 5.925 30.535 9.185 45.506-9.46 0.901-21.782-0.002-29.641 1.252-1.426-15.504-3.852-31.943-5.01-47.176 8.23 0.781 15.47 0.066 25.46 0.418zm8.77 143.61c-3.568-0.481-6.229-2.104-9.602-1.67-3.306 0.425-5.723 3.487-8.767 3.757-2.709-18.747-3.375-36.312-5.845-55.943 8.201 0.04 16.267 0.255 24.214-0.417 0.54 17.08-0.44 36.7 0.01 54.27zm-15.87 22.55c0.386-1.562 1.703-2.194 2.087-3.757-0.714-1.217-1.52 0.946-2.922 0.417 1.152-2.619 2.011-4.745 2.087-7.515 2.17 1.587 3.566 3.948 6.262 5.01-0.708 3.467-0.747 7.604-5.01 7.515 0.617-1.609 2.847-1.606 2.922-3.757-2.48-1.62-2.99 2.3-5.43 2.1zm-15.03-112.3c0.339 2.797 0.896 5.846 1.252 8.767 0.353 2.896 0.098 5.651 0.418 8.35 0.202 1.703 1.056 3.054 1.252 4.592 0.552 4.315 0.269 8.513 1.67 12.524-4.891-0.505-13.057-0.686-20.039-0.417-0.838-13.576-0.337-29.049 0-38.408 4.843-0.569 9.848-0.193 14.194-0.417 2.37 0.834 1.07 3.455 1.26 5.015zm-15.86 35.9c6.097-1.008 12.525 0.79 20.04-0.417 2.845 18.948 3.209 37.825 6.68 55.943-4.484-1.69-6.066-5.643-8.35-10.02-1.087-2.084-1.602-4.146-2.505-6.263-0.627-1.471-2.124-3.004-2.922-4.592-0.9-1.792-1.153-3.663-2.087-5.01-0.823-1.187-2.137-1.642-3.34-2.922-1.016-1.082-1.533-2.94-2.505-3.757-1.532-1.289-3.917-1.428-5.427-2.922 0.56-6.27 0.44-13.21 0.43-20.04zm46.76-2.09c-7.773 0.941-14.761-0.351-24.214 0-2.054-12.419-3.168-25.777-4.593-38.826 12.37-0.038 18.774-1.092 28.807-0.417-0.43 14.703 0.9 28.333-0.01 39.243zm-40.92-116.06c2.417-0.329 2.593 1.582 5.01 1.252-0.179 1.63-2.82 0.798-2.505 2.922-1.45-0.08-1.585-1.477-2.922-1.67-0.05-1.029-0.06-2.011 0.42-2.504zm4.18 7.514c1.005 2.226-0.494 5.192-3.34 5.845-1.307-1.894-1.899-4.502-2.087-7.515 1.84 0.521 3.35 1.381 5.43 1.67zm-6.68 7.515c1.756 0.61 2.485 2.246 5.01 2.087 0.552 2.649 0.393 6.008 1.252 8.35-3.244 1.079-7.807 0.072-11.272 0 0.99-4.156 3.27-7.019 5.01-10.437zm-6.68 13.359c3.899-0.276 8.903 0.554 12.107-0.417 0.355-0.077 0.394 0.163 0.417 0.417 2.573 14.937 4.352 30.109 5.845 46.758-4.396 0.004-11.507 0.099-15.864-0.417-1.079-0.711-1.383-2.547-1.67-3.757-1.657-6.987-2.832-15.132-4.175-22.961-0.525-3.064-2.257-6.45-2.087-8.768 0.132-1.797 1.677-4.207 2.505-5.845 0.92-1.868 2.14-3.347 2.9-5.01zm1.25 108.55c-4.495-0.091-7.94-1.797-12.524-1.252-2.912 0.346-5.758 2.545-8.35 2.087-2.284-0.403-4.795-1.917-7.515-2.505-0.836-0.18-2.101 0.229-2.922 0-4.058-1.133-7.762-3.574-11.272-5.01 1.289-3.131 1-8.293 0.417-12.524 14.793 0.151 27.38 0.433 41.748 0 1.49 5.89-1.08 13.29 0.41 19.2zm-41.75-59.704c3.924-0.947 9.582-0.16 14.194-0.417-2.552 6.087-5.87 12.093-8.767 18.369-0.896 1.939-2.02 3.853-2.922 5.845-0.932 2.056-0.641 4.901-2.922 6.262 0.05-7.59-0.4-20.71 0.42-30.054zm41.33 38.824c-14.04-0.777-28.35-0.452-41.748-0.417 5.501-13.424 11.799-26.052 17.952-38.826 6.266 0.928 17.174-0.185 24.631 0.835-1.77 13.161 0.43 25.971-0.83 38.411zm-4.59-87.67c-0.724 2.06-0.882 4.685-2.922 5.428 0.406-2.494-0.983-3.191-0.835-5.428 1.71 0.406 2.68-1.033 3.76 0zm-2.92 15.447c1.718 11.066 4.727 22.41 6.262 31.311-7.863-0.391-15.61-0.396-21.292-0.835 4.12-11.048 9.716-20.621 14.194-31.311 0.37 0.185 0.75 0.367 0.84 0.835zm-34.65-22.961c7.368-1.82 21.144 1.42 29.641-1.252 1.311 4.93 2.008 8.969 2.922 13.777 0.324 1.702 1 3.271 0.835 4.593-0.2 1.607-1.543 2.244-2.505 4.175-2.176 4.368-3.673 9.721-5.845 14.194-1.466 3.019-3.284 5.815-4.592 8.767-1.441 3.251-2.851 6.229-4.175 9.185-5.33-0.236-11.632 0.499-16.282-0.417 1.05-19.799-0.2-35.86-0.01-53.022zm-4.18 103.53c1.68-0.152 1.888 3.654-0.417 2.922-0.94-0.93 0.03-2.09 0.42-2.92zm3.76 50.93c2.108 1.967 10.384-1.724 12.107 1.252-4.01 0.29-10.34 1.58-12.11-1.25zm1.25-2.5c0.455-6.238 0.31-10.941 0.417-18.787 2.891-0.351 3.067 2.011 4.592 4.593 1.004 1.699 2.345 2.875 2.505 3.34 0.63 1.827 0.226 4.467 0.835 6.68 0.459 1.667 1.461 2.956 1.67 4.592-2.4 0.51-6.61 0.21-10.03-0.41zm22.96-9.6c-0.825-0.718-0.826-4.142 1.252-3.34 0.43 1.95-0.68 2.37-1.25 3.34zm2.92-14.61c-2.312 1.765-3.467 4.571-5.845 6.262-0.717 1.928-1.47 3.818-2.922 5.01-0.303-1.277 0.72-1.228 0.417-2.505-1.393-1.184-1.446 1.646-2.922 1.67 0.103-1.289 0.423-2.36 0.835-3.34-0.905-1.278-2.35 0.4-3.757 0-0.355-1.576 1.387-1.96 0.417-2.922-1.132-0.835-1.929-0.055-1.252-2.088-0.804-0.811-1.68 0.439-2.922 0.418 0.315-3.099-3.963-1.604-3.34-5.01-2.814 0.191-2.401-3.217-4.592-2.505 0.032-4.903-5.869-3.872-7.515-7.097 0.375-1.712 1.277-2.897 2.087-4.175 4.032 2.092 7.553 4.693 12.524 5.845 0.687 2.375 3.354 2.77 6.68 2.505 4.357 3.079 13.004 4.191 17.952 4.175-1.58 1.94-3.96 2.33-5.86 3.78zm15.87 28.38c-1.561-0.248-3.117-0.502-3.34-2.087 1.08-0.66 3.55 0.16 3.34 2.09zm-4.59-7.93c-1.65-1.411-2.148-3.975-5.427-3.757-0.426 2.102-0.261 3.325-0.835 5.845-1.911-1.197-1.347-3.821-1.252-5.01 0.25-3.151 2.626-7.123 5.427-8.768 1.721-1.01 4.781-0.625 5.845-2.087 2.25 0.535 6.915 0.767 7.515 4.175-0.977 1.11-2.908 1.267-4.592 1.67 1.812 5.006 7.437 6.201 10.02 10.437-1.958 0.716-3.626-1.326-5.01-2.505-2.655-2.264-4.974-4.743-7.515-7.515-1.011-1.104-1.535-3.468-3.757-2.922-1.923 1.249 0.762 5.128-1.67 6.262 0.402 1.408 2.019 1.6 3.34 2.088 0.129 0.984 1.45 0.776 1.252 2.087 1.922 0.704 3.3 2.161 5.01 3.34 1.388 0.957 3.833 1.637 4.175 3.757-4.58-1.95-7.91-5.16-12.52-7.09zm19.2 15.45c0.129-0.984 1.45-0.777 1.252-2.087 0.778 0.057 1.396 0.274 1.67 0.835 0.28 1.67-1.58 1.2-2.92 1.26zm6.26-5.43c-1.8-2.255-6.336-2.944-7.932 0-1.662-0.729-2.71 0.508-4.175-0.417 0.73-7.58 12.9-6.78 12.1 0.42zm8.77 10.44c-1.95-0.096 0.899-1.243 0.417-2.505-0.708-1.082-1.942 0.809-3.34 0.417-0.443-1.557 1.566-0.661 1.253-2.087-3.016-0.464-4.323-2.636-5.428-5.01 2.698-5.954-3.329-9.708-7.515-10.437-2.441-3.172-2.963-6.891-4.175-10.437-0.442-1.294-1.206-3.469-2.087-4.593-2.509-3.2-7.976-4.363-12.107-3.757-4.145 0.608-7.362 4.031-10.854 4.175 0.056-2.825 3.612-4.546 6.262-6.263 3.587-2.323 5.123-2.806 9.602-2.505 1.032 0.069 2.596-0.36 3.757 0 2.878 0.892 3.998 4.117 6.68 5.428 0.377 2.127 1.362 3.648 2.505 5.01 0.636 5.889 4.493 11.07 7.932 15.029 2.909 3.348 6.039 6.571 9.185 9.185-0.33 2.92 0.49 6.82-2.09 8.35zm2.09 27.55c3.913 0.126 9.062 4.056 14.612 3.34 2.387-0.308 3.618-2.01 5.845-1.67 2.271 0.234 2.149 2.861 3.34 4.175 1.728-0.36 3.055-1.12 5.01-1.252 2.821 3.023 2.705 8.984 4.175 13.36-16.66 2.59-23.96-10.24-32.98-17.95zm54.27 47.18c0.245-1.438-1.377-3.557-1.252-5.428 0.158-2.364 2.299-4.28 2.087-6.262-0.215-2.013-2.132-2.479-2.505-4.175 2.635-4.677 1.282-8.692-2.922-11.272v-2.087c-1.122-0.549-1.5-1.841-2.505-2.505-1.292-3.031-0.457-7.422-1.67-9.602-2.68 1.238-1.275 4.399-1.252 7.932-1.915-0.869-2.948-2.618-3.34-5.01-2.303 0.513-1.097 3.38-0.835 4.175 0.847 2.566 5.012 4.409 6.262 5.845-0.972 2.368-3.763 2.917-5.845 4.175-5.508-3.538-7.141-10.951-7.097-20.04 1.769-0.632 3.642-2.315 5.845-1.252 1.127-0.125 0.749-1.756 1.67-2.087 5.307 1.329 8.987 4.826 12.524 8.35 2.948 0.809 4.617 2.898 7.097 4.175 6.056-1.243 10.636 2.386 16.699 2.505 1.112 0.935-0.59 2.092 0.417 2.922 2.6-1.008 4.995-0.389 7.097-1.252 1.941 0.424 2.195 2.536 4.592 2.505 1.307 1.9 4.484 5.89 7.097 3.757-1.588-2.169-4.786-2.729-6.68-4.592 1.485-2.154 10.938 1.598 10.02-4.175-5.174 2.125-11.858 1.692-17.117 0 3.103-4.662 4.136-12.447 1.67-18.369 5.123-2.217 10.907-3.732 15.864-2.087 0.961 0.319 1.072 1.121 2.087 1.67 2.042 1.104 2.804 0.563 4.592 2.087 2.514 2.143 4.055 7.859 3.34 13.359-0.956 7.352-8.476 11.101-6.68 19.205-0.284 1.524-1.582 2.035-2.087 3.34 0.726 10.415-6.261 15.744-9.185 23.796-2.314 1.582-7.345 0.448-8.767 2.923-3.773-1.829-7.423-3.843-12.107-4.175-4.123-0.293-7.863 0.323-11.689-0.418-0.715-3.32-4.034-4.037-7.097-5.01-0.46-1.21 1.54-2.12 1.68-2.93zm-48.85 45.5c-2.402-0.092-4.783-2.577-7.515-4.175-2.414-1.411-5.763-4.124-8.768-2.087-0.243 1.495 1.236 1.27 2.505 1.252 3.018 3.245 8.913 3.612 10.855 7.933 0.337 1.59-1.224 1.281-1.252 2.505 0.522 2.122 2.885 2.402 4.175 3.757-1.118 2.205-5.537 1.253-8.767 1.253-6.918 0-14.716 0.188-20.04 1.67-2.265-4.04 0.698-8.301 0.835-13.359 1.693 0.044 4.857 0.889 5.845-1.67-2.952-2.196-7.531-2.767-8.35-7.098 3.364-2.896 7.333-3.189 11.272-6.262 3.036-2.367 6.33-5.31 7.097-8.35h1.253c3.69 8.17 8.34 15.35 10.87 24.64zm1.26 26.72c-1.374-4.777 1.072-11.667 2.087-16.699 4.297 1.27 8.197 2.937 12.107 4.593-0.992 4.959-2.855 6.434-2.505 11.271-0.479 0.912-1.441 1.343-2.505 1.67-0.169 1.822-0.666 3.248-0.835 5.01s0.461 3.979 0 5.428c-0.23 0.723-1.085 0.951-1.252 1.67-0.446 1.913 0.083 3.851-0.835 5.428-1.358 2.333-3.515 4.345-5.01 6.68-1.594 2.488-2.419 5.271-4.592 7.097-4.262-2.14-6.554-6.249-10.437-8.767 3.327-9.059 4.176-20.595 10.437-26.719-0.496 4.617 4.161 7.772 7.515 5.844-0.23-2.01-2.78-1.7-4.2-2.5zm33.4 1.67c-0.351 0.485-0.551 1.12-0.417 2.088-2.835 2.731-6.062 5.07-7.932 8.768-2.173 0.609-3.081 2.485-4.175 4.175-4.397 2.004-5.727 7.075-10.437 8.767 2.556-5.712 8.684-8.755 12.524-13.776 2.031-2.657 5.355-5.929 8.35-8.35 0.841-3.195 3.426-4.646 5.01-7.098h1.252c0.13 1.77-1.79 4.81-4.17 5.43zm1.67 20.04c-3.666 1.761-6.366 4.488-8.767 7.515-4.188-0.682-9.128-1.895-12.942-1.67 0.838-2.229 3.021-3.467 4.592-5.01 4.549-4.471 9.15-9.662 13.777-14.612h1.252c2.31 3.46 2.42 8.67 2.09 13.78zm-22.13 8.77c-1.085 0.78-3.986 0.587-4.592-0.417-0.002-1.812 2.885-0.733 3.757-1.67 1.4-0.43 0.65 1.3 0.83 2.09zm-9.6-0.42c3.012 1.44 6.525 2.381 8.35 5.01-0.606 2.038-3.097 2.191-5.01 2.922 0.19-2.87-2.49-4.89-3.34-7.93zm35.07-29.64c5.645 3.207 4.029-5.711 8.35-3.757-1.493 4.63-5.415 6.831-10.854 7.514 0.06-2.01 1.42-2.74 2.5-3.75zm-3.34-9.6c-1.362 0.755-0.11 1.532-0.417 3.34-2.008 0.08-1.351 2.824-2.087 4.175-2.179-2.707 1.29-5.947 1.252-9.185 1.963-1.909 3.977-3.127 7.097-2.922-0.962 1.82-2.513 3.053-2.505 5.845-1.47-0.07-1.86-1.2-3.33-1.26zm5.42-7.52c-1.737 0.712-3.461 2.219-5.845 2.088-1.614 0.334-1.31 2.587-2.922 2.922-0.166-2.821-2.364-1.393-4.175-2.087 0.74-2.461 1.663-4.739 2.922-6.68 4.808-0.259 9.112 1.782 12.524 2.505-0.06 1.5-1.64 0.92-2.49 1.26zm-11.27 17.54c0.627 2.194-1.889 2.731-2.922 3.758-3.03 3.01-6.317 6.316-9.602 9.603-4.33 4.329-8.005 9.206-12.524 13.359 2.214-5.161 5.72-9.032 7.515-14.612-0.071-6.473 1.638-11.164 4.592-14.612 2.292-1.131 4.346 0.35 6.68 0.835 2.35 0.48 5.43-0.48 6.25 1.66zm-42.16 47.59c-2.383 4.714-6.916 7.278-8.35 12.941-1.271 0.019-1.623-0.881-2.505-1.252-0.012-2.935 1.208-4.638 0.835-7.933-3.339 1.052-4.165 6.403-2.922 9.603-4.879-1.505-3.018-8.226-1.252-11.689-0.233-0.602-0.651-1.02-1.252-1.253-3.097 0.242-1.141 5.538-4.592 5.428 0.226-4.868 5.799-6.333 4.175-11.689 3.971-1.124 5.778-1.849 10.02-2.505 0.576-4.852 3.59-7.265 3.757-12.524h1.253c1.751 3.536 5.158 5.417 7.515 8.35-0.06 1.749-1.755 1.862-1.252 4.175 3.006 0.431 4.056-3.878 6.68-1.253-1.92 3.368-5.073 5.504-7.932 7.933-3.54-4.39-11.12-1.6-4.18 1.67zm-86.841-42.17c0.777 0.058 1.395 0.274 1.67 0.835-0.453 2.737-4.192 1.857-7.097 2.505-14.094 3.139-30.768 6.683-45.088 9.185-3.395 0.593-8.046 3.815-10.854 0.418 19.881-4.88 41.595-7.94 61.369-12.94zm-62.622 7.94c8.42-3.409 19.327-6.558 29.642-6.681-0.771 1.108-2.589 1.371-3.758 1.67-7.896 2.02-17.211 3.75-25.884 5.01zm36.321-7.52c1.227-1.557 4.204-1.362 5.845-2.506 2.644 0.001 5.288 0 7.932 0-1.777 0.867-4.853 0.437-6.262 1.67-2.825-0.04-4.507 1.07-7.515 0.84zm-6.262 15.87c10.192-2.114 22.288-4.869 32.981-7.098 4.308-0.897 9.25-2.292 12.524-2.087 1.054 0.065 2.674 0.554 3.34 0.835 3.064 1.291 4.15 4.768 9.185 4.175 1.789-0.159 1.612-2.284 2.922-2.923 3.958 0.912 8.052 1.689 10.854 3.758-4.857 1.903-10.141 2.796-15.447 4.175-4.904 1.273-10.004 3.445-15.029 4.175-0.979 0.142-2.287-0.232-3.34 0-4.817 1.062-9.262 3.743-14.194 4.592-0.969 0.167-1.964-0.214-2.922 0-5.805 1.296-11.363 3.623-16.699 5.428-6.948-3.351-15.398-5.198-20.457-10.438 4.344-1.99 10.069-3.32 16.298-4.61zm30.894-20.88c-6.866-0.579-15.259-0.703-22.126 0.418-2.077 0.339-4.567 0.591-7.932 0.835-9.555 0.694-17.522 4.011-26.302 5.428 3.963-3.345 8.998-3.913 15.029-5.846 3.999-1.28 8.932-2.945 14.612-3.757 3.643-0.521 7.709-0.515 11.272-0.835 1.847-0.166 5.893-0.442 8.767-0.418 4.959 0.043 10.41-0.396 15.447 0 1.327 0.104 2.795 0.789 4.175 0.835 1.637 0.056 3.718-0.579 5.427-0.417 2.139 0.202 4.221 1.777 6.262 2.087 1.865 0.284 4.002-0.188 5.845 0 2.338 0.239 5.11 1.085 7.515 1.67 14.788 3.598 29.886 11.231 41.748 18.37 1.82 1.095 5.01 2.087 5.01 4.592-6.254-2.652-12.718-7.319-19.204-8.35-0.848-0.961-2.006-1.612-2.922-2.505-17.94-5.43-39.82-10.16-62.65-12.09zm-58.448-10.43c-7.704-0.443-18.117 1.356-25.049 0 9.178-3.725 23.926 2.148 32.981-1.67 0.674-0.118 0.719 0.395 1.252 0.417-0.582 4.52-5.826 1.44-9.184 1.25zm56.36 3.34c7.361-0.261 12.164-0.064 18.787 1.252-2.432 0.969-8.481 0.261-12.942 0-2.555-0.15-5.149 0.65-5.846-1.25zm30.058-15.03c1.615-0.224 2.038 0.745 3.757 0.417 0.689-2.498-2.463-1.154-3.34-2.087 1.888-3.424-2.43-5.255-2.922-8.768 1.114-1.287 4.022-1.934 5.845-1.252 1.244-0.009 0.536-1.97 1.252-2.505-0.058-1.194-1.741-0.764-2.922-0.835 0.185-2.599 1.227-4.34 1.67-6.68 2.582-0.145 4.055 0.856 5.427 0.835 0.297 10.837-1.016 21.077 0 32.98-2.309 1.976-6.047 0.605-8.767 0.418-0.222-2.385 3.626 0.233 3.757-2.505-1.55-1.035-2.496-0.37-4.592-0.418-0.14-3.63 1.28-5.68 0.83-9.61zm32.98 24.21c3.27 2.71 9.007 5.082 13.359 7.098 4.684 2.168 13.803 4.292 11.272 10.437-9.668-5.127-18.7-11.284-29.224-15.447-3.336-1.319-6.874-2.096-10.437-3.34-7.093-2.476-17.289-4.938-26.719-5.844-0.485 0.067-0.743-0.093-0.835-0.418-0.068-0.485 0.092-0.743 0.417-0.835 15.98 0.24 27.9 4.9 42.16 8.34zm6.26-18.37c-8.822 0.73-19.991 2.486-28.389 5.01-0.522-10.641 0.048-24.811 0.417-37.991 2.81-0.305 2.952 2.058 6.262 1.253 2.918 3.483 7.429 5.373 11.689 7.515 2.649 0.134 5.92-0.354 7.932 0.417 0.22 3.538 2.293 5.222 4.175 7.098-0.14 5.96-3.66 10.53-2.08 16.69zm2.93 13.78c0.419 1.809 1.133 3.32 1.252 5.428-3.214-1.379-6.216-2.968-9.602-4.175 3.44-0.66 4.84-1.16 8.35-1.25zm4.59-0.42c6.234-0.139 12.528-1.594 18.37-0.835-2.043 4.496-4.305 9.569-5.01 14.194-5.024-1.099-8.347-3.899-12.942-5.427-0.22-3.23-1.92-4.94-0.42-7.93zm-45.92-87.25c0.78-3.285-2.996-2.014-3.34-4.175 3.386-1.089 4.371 3.271 5.01 6.263 2.041 0.11 1.028-1.994 0.835-2.923-0.315-1.519-1.508-4.397-2.505-5.01-0.924-0.567-2.599 0.294-2.922-1.252 3.792-1.346 7.282 0.312 11.272 0.835 0.923 0.12 2.131-0.195 2.922 0 0.823 0.202 1.664 1.208 2.505 1.252 7.335 0.383 9.611-8.853 17.117-7.515 1.256-0.421 0.74 0.93 0.835 1.67 11.2-0.686 17.764 6.672 22.544 13.777-3.678 0.88-6.85 2.925-8.767 5.845-1.455 2.215-1.098 5.665-3.34 7.515-3.644-0.114-3.859-3.655-6.68-4.593 0.251-1.141 2.142-0.642 2.087-2.087-0.588-1.642-1.956-0.287-2.922-0.418-2.875-0.389-4.746-2.357-7.097-3.34-1.191 3.285 3.857 3.931 3.34 7.933-0.98 0.133-1.567 0.659-2.922 0.417 0.183 4.047 6.905 3.544 9.185 2.088 2.778 0.428 4.805 3.815 7.932 2.505 4.404 3.945 9.442 7.257 14.612 10.437-0.334 1.499 0.442 2.981 0 4.593-0.111 0.403-3.384 4.589-4.175 5.427-3.597 3.81-8.656 7.207-14.195 8.768-0.11-1.363 1.62-0.885 1.67-2.088-0.431-1.552-3.963-0.822-4.592 0-3.317-0.512-6.533 0.797-10.02 0-4.268-0.976-7.384-4.286-10.02-6.68 3.726-0.336 7.319 0.672 8.35-2.922-1.077-1.185-3.288 0.027-3.757 0.835-6.554-3.702-16.037-0.623-21.292-6.263-3.701-0.465-8.259-0.861-10.02 1.67 0.809 1.819 4.023 0.523 5.427 2.505 0.379 2.05-1.75 1.591-1.67 3.34 4.338 0.036 8.781-4.059 11.272 0 1.557 0.444 0.661-1.565 2.087-1.252-1.066 2.182-0.095 6.227-2.922 7.515-5.647-1.729-11.585-3.166-16.282-5.845-0.905-0.07-0.189 1.48-0.417 2.087 2.67 2.34 7.31 2.711 10.854 4.175-1.887 3.401-3.123 7.453-5.427 10.438-2.027 0.078-1.313-2.583-3.34-2.505-0.913 0.062-0.896 1.052-0.835 2.087 0.161 1.653 2.039 1.573 2.922 2.505 1.589 1.676 2.007 4.301 3.757 5.845-0.466 5.308-2.057 11.49-1.252 16.699-3.002-0.477-6.654-0.304-9.602-0.835-0.892-3.296-2.274-5.222-3.757-8.35-0.948-1.998-1.239-3.573-2.087-6.68-1.456-5.328-0.547-8.81 2.087-14.611 0.391-0.86 1.343-1.997 1.67-2.923 0.832-2.358 0.493-4.562 1.67-6.262 0.151-0.219 1.234-0.792 1.252-0.835 0.284-0.665-0.215-1.712 0-2.505 0.463-1.706 1.851-2.9 2.087-4.175 0.186-1.002-0.485-2.388-0.417-3.34 0.198-2.775 2.147-5.274 2.087-7.933 2.268-2.304 5.395-0.326 7.932-0.417 0.874-0.032 2.094-0.865 2.922-0.835 3.472 0.127 7.042 2.169 10.02 2.087 5.398-0.148 8.952-3.462 8.767-9.602-0.146-4.84-4.093-5.995-3.757-12.942 0.55-1.537 1.58-2.595 1.67-4.592-3.56-0.213-3.899 5.146-3.34 8.767 0.583 3.781 4.437 8.656 2.505 12.942-1.816 1.662-3.552 3.405-7.515 2.922 0.05-2.196 2.241-3.526 2.505-5.845 0.401-3.523-0.768-5.07-2.505-8.35-1.489-2.811-2.096-5.911-5.01-7.097-2.418 1.829 0.128 3.47 0.835 5.427-2.061 3.771 2.858 10.589-2.505 12.107-1.827-1.901 1.082-2.765 1.67-4.593-0.783-2.139-2.974-2.87-4.592-4.175-0.237-4.217-4.051-4.854-5.01-8.35 2-1.59 2.67 2.17 4.61 0.79zm-2.93 17.11c0.68-1.547 1.097-3.356 2.505-4.175 1.28 1.68-0.22 6.01-2.51 4.17zm10.44-8.77c1.352 0.491 2.192 3.136 1.67 4.175-2.04 0.09-1.68-2.22-1.67-4.18zm-29.641-15.44c3.384-3.329 13.425-4.459 16.282-0.418-1.304 1.096-1.815-1.275-3.34-1.252-1.12 2.494 1.902 4.131 2.505 6.262 0.031 5.356 0.945 9.799-2.087 13.777-1.208 1.585-3.541 3.043-5.427 3.34-1.014-3.85 7.057-6.063 3.757-10.854-1.612 0.058-1.71 1.63-1.67 3.34-2.222 2.146-4.009 5.196-7.515 5.01-2.528-0.135-3.847-2.742-6.262-3.34-3.184-6.36 1.426-11.37 3.751-15.87zm-8.349 16.28c0.555-0.419 1.553-0.395 1.67-1.252 2.333 2.259 3.792 5.393 5.845 7.932-11.39-0.743-20.901 0.669-31.729-1.252-0.675 0.577-1.028 1.477-2.505 1.252 0.209 1.739 1.241 2.655 1.67 4.175 11.739-0.397 23.784 0.515 37.573-0.417 1.367 1.276 3.254 2.033 5.427 2.505-0.439 2.205-1.409 3.879-2.505 5.427-13.216 0.539-30.82 1.061-42.166-0.417-0.642 1.189-0.985 3.13 0 3.757 1.745-0.203 2.497-1.399 4.175-1.67 12.447 0.727 24.458-0.095 37.573 0.418-2.276 2.521-6.249 0.807-9.185 0.835-8.783 0.083-16.48 0.429-25.884 0.417-1.291-0.001-4.628-1.989-5.01 0.835 12.821 0.926 26.091 0.243 38.826 0.418 1.18 2.408 1.077 6.09-0.835 7.515-10.336 0.443-21.936-0.41-31.729-0.418-2.681-0.002-5.708 0.259-7.932 1.253-0.376 2.324 0.381 3.515 1.67 4.175 1.784-0.999 1.273-4.293 5.01-3.34 0.341 1.872-3.151-0.09-2.922 1.67 1.623 1.858 4.246 0.412 6.262 0.417 4.368 0.011 9.312 0.46 14.194 0.418 4.951-0.043 9.947-0.258 14.194 0-1.015 2.604-2.007 5.229-3.34 7.515h-30.059c-1.127 0.683-1.986 1.632-2.505 2.922 0.217 0.618 0.618 1.053 0.835 1.67 8.069 1.442 20.44-0.404 30.476 0.835-0.582 2.48-0.054 6.069-0.835 8.35-9.494 0.021-21.11-0.028-29.224 0-1.977 1.558-2.358 5.824 1.252 5.845 2.006-0.788-0.144-2.322 0-3.757 7.052-0.255 14.632-0.399 22.126-0.418 2.116-0.005 4.78-0.302 6.68 0.835-1.264 1.674-4.163 0.816-6.262 0.835-4.046 0.038-8.834-0.028-14.194 0-2.302 0.013-5.031-0.678-6.68 0.835 1.308 1.353 4.057 0.823 6.262 0.835 6.759 0.037 15.626-0.076 21.709 0 1.784 1.974 3.144 4.371 3.757 7.515-8.184 0.399-16.285-0.509-25.049-0.417-2.165 0.022-4.643-0.687-6.262 0.835 1.139 2.159 4.679 1.189 7.097 1.252 2.32 0.061 4.637 0.474 6.262 0 0.95 2.124-1.958 0.689-3.34 0.835-0.702 0.074-1.494 0.779-2.087 0.835-3.247 0.308-7.131 0.222-9.602 1.253-1.562-1.696 1.454-3.422 0.417-4.593-3.919-0.44-3.359 2.523-2.505 5.01-4.649 0.501-8.962 1.336-12.942 2.506-0.314-26.977 0.101-50.236-0.418-75.564 11.431-1.06 23.419-0.12 36.739-0.46zm9.6 8.77c-11.961 1.295-21.344-0.239-32.563 0.417-0.257-0.371-0.505-0.746 0-0.835 9.011-0.6 17.137 0.249 25.466 0 2.347-0.08 4.89-1.23 7.097 0.41zm2.92 23.38c-1.807 1.7-7.487 0.706-10.02 0.417 3.401-1.02 6.387 0.04 10.02-0.42zm-13.773 0c-0.333 1.631-4.818 0.812-5.845 0.417 1.126-0.97 4.027-0.15 5.845-0.42zm9.185 12.52c-0.651 1.048-2.175 1.156-3.34 1.252-6.755 0.559-17.497-0.909-25.466-0.835-0.068-0.485 0.092-0.742 0.417-0.835 6.244-0.461 15.882-0.008 23.379 0 1.593 0.02 3.653-1.03 5.01 0.43zm-41.748-52.18c6.117-2.84 13.911 1.044 16.699 5.428-6.721 1.87-10.147-4.62-16.699-5.43zm15.864-13.78c0.947 0.212 1.976-0.233 2.505 0 3.617 1.596 8.179 6.751 8.767 9.602 0.236 1.144-0.867 2.303 0 3.34-2.817 0.036-3.387-0.309-5.427-0.417-0.966-2.413-1.819-4.465-3.34-6.263-2.48-2.932-6.164-4.695-8.767-7.515 2.692-0.84 4.267 0.8 6.262 1.25zm-16.282 7.1c0.924-0.25 2.754-0.257 4.175-0.417 5.846-0.66 11.686 3.328 15.029 5.845-0.002 1.528-2.449 0.612-2.087 2.505-0.077 0.354 0.163 0.394 0.417 0.417-1.095 0.795-2.725-1.435-2.922-2.922-10.381-4.606-22.733 0.021-27.554 7.097-1.77-0.317-4.944 0.77-5.427-0.835-0.053-0.749 0.511-0.88 0.417-1.67 1.94-0.409 2.521 0.541 3.757 0.835 3.611-3.32 8.253-9.25 14.195-10.85zm-13.36 59.7c-0.763 1.729-3.186 1.589-4.592 1.67-7.935 0.454-16.811-1.244-26.301-0.835 0.826-1.859 3.773-1.749 5.845-1.67 1.992 0.076 4.585 0.715 5.845 1.252 1.814-2.095 4.854-0.028 7.097 0 1.072 0.014 2.268-1.149 3.34-1.252 2.623-0.25 5.276 0.65 8.766 0.84zm-39.66-25.89c7.287 0.708 20.393 0.417 30.476 0.417 2.985 0 6.894-0.919 8.767 1.253-1.475 2.502-4.982 1.552-7.932 1.67-9.491 0.378-21.631-1.5-31.729 0 0.05-1.2-0.228-2.73 0.418-3.34zm49.68-35.07c0.446 0.885-3.503 3.47-4.592 1.67 0.431-1.65 3.963-0.21 4.592-1.67zm-15.447-8.35c0.525-1.632 3.906-1.816 5.845-1.67 3.578 0.27 6.983 2.289 7.932 5.01-1.509 0.578-3.271 0.903-4.592 1.67-2.319-2.41-6.331-3.13-9.185-5.01zm7.515 11.28c1.029-0.055 2.012-0.063 2.505 0.418-0.171 1.132-1.985 1.722-2.922 0.835 0.22-0.35 0.435-0.69 0.417-1.26zm-16.282-1.26c2.528-0.008 4.481 1.183 7.097 1.67 3.333 0.62 6.09 1.104 8.35 2.505-0.193 1.895-1.406 2.768-2.505 3.757-6.616-2.338-14.673-4.827-23.796-3.34 0.195-4.42 6.396-4.58 10.854-4.6zm-25.884 20.88c12.417 1.4 24.836-0.015 38.408 1.252 0.674 3.337-3.187 2.114-5.01 2.088-8.397-0.124-21.208 0.44-30.059-0.418-1.527-0.274-1.602 0.903-2.922 0.835-0.699-0.7-0.331-2.46-0.417-3.76zm0.418 25.88c11.508 0.287 26.8-0.16 39.243 0 0.705 2.412-2.033 1.961-2.922 2.087-3.924 0.557-9.737-0.446-14.612-0.417-6.372 0.038-12.872-0.11-17.952 0-1.828 0.039-3.163 1.132-4.592 0 0.057-0.78 0.275-1.39 0.835-1.67zm2.505 12.94c-0.458 1.111-3.071 1.282-2.505-0.835 1.444-0.32 1.762 0.47 2.505 0.84zm1.252 11.69c3.346 0.163 6.982-0.41 10.854-0.417 8.479-0.016 19.241 2.155 24.631-0.835 1.521 0.302 0.714 3.181 0.417 4.175-10.328-1.736-21.519-1.007-32.146-1.253-2.464-0.057-5.668-0.09-7.932-1.252 0.767-2.5 2.851-0.49 4.176-0.43zm-0.417 13.36h-3.34c-0.054-2.35 3.045-1.69 3.34 0zm-3.34 13.36v-2.088c8.902 0.154 22.166-0.465 31.729 0.418-5.47 3.55-24.581 0.7-31.729 1.67zm16.699 20.04c-0.079 2.051-4.19 2.232-4.592 0.417 0.569-0.98 4.216-1.85 4.592-0.42zm95.185 43.84c-9.188-0.679-18.557-3.183-27.971-5.427-7.571-1.806-15.029-4.724-22.126-7.098-1.104-0.369-2.494-0.502-3.34-0.835-1.5-0.589-2.55-2.133-4.175-2.922-2.689-1.306-6.215-1.608-8.768-2.923-1.875-0.966-3.222-2.47-5.01-3.34-5.153-2.506-11.42-4.467-16.699-7.097-4.938-2.461-10.256-5.589-14.612-9.185-1.314-1.086-4.2-2.15-2.505-4.593 3.705-1.459 3.445 4.28 7.097 4.593 2.754 0.234 3.903-1.593 5.845-3.758 10.985 6.441 22.99 10.976 35.069 15.864 11.71 4.739 23.771 11.611 38.408 11.272-1.495-2.335-4.91-2.43-7.097-2.923-18.155-4.089-33.497-12.326-50.098-18.369-3.835-3.664-10.491-5.004-14.194-9.185-0.594-0.671-2.389-1.785-1.252-2.922 2.798-1.284 4.309 0.619 7.515 2.505 1.855 1.091 3.67 2.118 5.01 2.922 1.88 1.128 3.653 1.867 5.427 2.923 5.414 3.22 11.22 6.562 18.37 9.185 13.586 4.983 28.3 11.01 43.835 14.194-1.067 1.854-4.646 1.198-6.68 2.087 1.446 3.928 8.998-0.714 11.272 2.505 5.034-1.626 10.593-0.886 15.864-0.835 12.156 0.117 22.723-5.258 33.398-7.097-0.184 2.738-1.671 4.174-2.087 6.68 0.425 1.949 2.545 4.4 1.67 6.262-1.753 1.675-4.701 2.689-7.097 3.34-1.5 0.407-3.019 0.44-4.592 0.835-8.1 2.06-20.12 4.13-30.47 3.37zm102.7 2.92c-22.832-0.172-49.843-0.074-74.312-0.835 4.834-2.402 11.354-3.118 15.447-6.263 3.301 0.97 7.038 1.587 10.854 1.67 0.875 0.02 1.604 0.137 2.505 0 0.443-0.067 1.163-0.812 1.67-0.835 0.675-0.03 1.736 0.791 2.505 0.835 3.312 0.19 7.238-0.129 10.437 0 10.938 0.441 22.002-0.469 31.729 0.418 0.47 0.97-0.2 3.78-0.84 4.99zm5.01-23.8c-5.502-0.918-8.823-0.242-14.612-1.252-0.3-2.921 1.442-6.105-0.835-7.515-1.651 1.41-0.899 5.224-1.67 7.515-0.122 1.791 1.967 1.372 2.087 2.922-6.258 1.319-13.888-2.492-20.039 0 0.302-2.252 3.414-3.324 5.427-5.01 0.915-0.766 1.819-2.262 2.922-2.922 3.106-1.858 7.369-1.281 10.02-3.758 1.41 1.495 4.395 0.434 5.427-0.835 0.007-1.677-2.18-1.16-3.757-1.252-0.586-0.813-1.364-2.689-0.417-3.758 1.548-0.296 1.792 0.714 3.34 0.418 1.672 3.894 5.527 5.605 9.602 7.097-0.176 0.938-2.215 0.012-2.505 0.835 0.146 1.803 1.12 2.776 2.922 2.923 2.473-1.27-1.279-4.49 2.505-5.01 0.56 2.33-0.31 7.85-0.42 9.6zm5.43-10.85c-3.738-0.919-7.521-0.242-10.854-0.835 3.234-3.246 8.278-0.061 11.272-2.087-0.166-2.121-2.066-0.335-2.922-1.253 2.092-1.247 3.739-2.94 6.68-3.34-0.85 3.06-2.05 5.75-4.18 7.52zm2.5-28.39c-0.312-1.565 0.47-2.034 1.67-2.087-0.03 1.22-0.15 2.36-1.67 2.09zm7.52 10.85c-1.663 0.425-3.566 0.608-5.427 0.835 0.318-2.388 1.895-10.936 0.417-13.776 0.185-0.372 0.367-0.747 0.835-0.836 3.513-1.077 7.667 0.633 10.437 1.67-0.53 5.61-4.43 7.83-6.27 12.11zm7.09-28.8c-1.403 0.429-0.65-1.298-0.835-2.087-1.83 1.093-2.558 3.287-5.427 3.34-0.006-1.107 0.231-2.458-0.835-2.505-3.456 0.857-1.856 6.771-3.757 9.185-3.183-1.933 1.596-7.011-0.417-10.438 1.62-1.859 1.868-5.09 6.262-4.175 1.732 2.165 4.923 2.871 5.845 5.845-0.69-0.13-0.77 0.35-0.82 0.86zm31.32-10.44c-5.253-0.616-7.323-0.63-12.107 1.252-4.64 1.826-8.068 2.835-11.689 6.263-0.571 0.541-1.682 0.885-1.252 2.087-1.957-0.164-2.251-2.268-3.34-3.34-1.685-1.658-4.167-2.509-5.427-4.592 2.71-1.325 6.882-1.189 8.767-3.34 0.304-1.14-0.83-0.841-0.835-1.67-4.375 0.104-8.764 4.088-12.942 1.67-4.651 2.502-7.885-3.215-13.359-1.253-0.426-1.956 0.687-2.374 1.252-3.34 4.71 0.258 8.206-0.7 10.437-2.922-0.324-0.372-0.449-0.943-0.417-1.67-3.352 0.684-5.112 2.959-9.602 2.505-0.854-0.677 0.019-3.081-0.835-3.758-4.468 0.264-0.004 9.459-5.845 8.35-0.235 1.627 1.32 1.464 1.67 2.505-0.616 2.168-1.57 3.997-2.505 5.845-2.436 1.067-6.004-0.994-6.68 1.253-1.756-0.291 0.399-1.9-1.252-2.088-1.646-0.532-1.084 1.143-1.67 1.67-6.223-1.849-11.833-4.31-17.117-7.097 0.146-1.384 1.25-1.812 2.087-2.505 0.751-4.041 2.437-7.852 3.34-11.689 0.365-1.554 0.362-3.499 0.835-5.01 0.252-0.808 1.346-1.582 1.67-2.505 0.357-1.018 0.107-2.578 0.417-3.34 0.927-2.279 4.271-7.047 6.68-8.35 4.393-2.377 8.983-3.808 16.282-3.34 2.784 0.178 4.439 2.078 6.68 0.835-0.461-2.184-4.204-1.084-4.592-3.34-4.506-0.146-6.594-1.04-10.854 0-2.052 0.966-5.095 4.121-7.515 2.087-0.307-4.203 3.983-3.81 5.427-6.262 1.557 0.113 0.548 2.791 1.67 3.34 1.489-0.913 2.121-1.527 3.757-0.418 1.291-3.801-0.051-8.573-4.175-8.35-1.401 0.13-1.665 1.396-2.087 2.505-4.35 1.078-10.364 0.49-14.194 2.088 0.028-1.956-1.75-4.357-1.67-6.68 0.209-6.121 8.075-7.717 11.272-11.689 2.369 0.553 5.75 0.095 7.515 1.252 2.034 0.281 2.769-0.734 4.175 0 2.659 3.047 7.289 4.122 7.097 10.02-2.421 1.336-5.832 1.684-7.515 3.758 1.505 1.615 3.919 1.771 5.845 3.757 1.778-1.145 5.357-0.487 5.01-3.757-0.661-0.87-2.921-0.141-3.757-0.835 0.659-1.012 1.494-1.847 2.505-2.505 2.083 2.092 5.634 2.716 7.515 5.01-3.893 0.838-7.436 2.027-8.767 5.427 0.079 0.339 0.419 0.416 0.417 0.835 3.294-0.79 6.278-4.333 10.437-5.01 1.871-0.304 5.042-0.385 7.097 0.835 0.439 1.831-1.412 1.371-1.252 2.923 5.737 0.609 15.837 0.176 22.126 2.505-0.173 0.939-2.289-0.062-2.087 1.252 1.343 0.745 3.788 0.388 5.427 0.835 6.872 4.957 13.054 10.604 15.029 20.457-2.292-1.884-3.25-5.1-7.097-5.428 0.196 2.17 2.443 2.288 3.757 3.34 0.619 3.695 4.56 4.068 5.01 7.933 3.886 2.237 5.556 6.69 7.515 10.854-5.35 1.92-11.04 1.47-16.32 0.85zm-18.37 90.59c-0.509-1.3-0.972-2.646-0.835-4.593 1.485 1.021 2.978 2.032 3.757 3.758-1.77-0.5-1.84 0.67-2.93 0.83zm2.5-6.26c5.407-5.865 11.579-10.965 15.029-18.786h0.835c5.373 5.012 9.8 10.95 10.854 19.204-8.35 3.36-19.53 3.67-26.72-0.41zm364.46-7.93c1.084 0.726 0.846 2.771 0.835 4.592-1.918 1.456-4.331 0.453-6.262 0.418 0.341-2.244-0.7-3.566 0-5.01 1.74 0.93 3.1-0.34 5.43 0zm-15.86-12.94c-1.627-0.46-2.665-1.51-3.757-2.505 2.278-4.54 6.104-7.532 9.602-10.854 0.896 1.681 1.427 5.545-0.417 7.098-1.319-1.287-4.039-0.887-4.593 0.835-0.479 1.73 0.878 1.626 0.835 2.922 0.07 1.46-1.41 1.37-1.67 2.5zm2.51 1.67c2.372-5.22 6.564-10.354 12.942-9.185-1.727 4.675-6.486 6.317-8.35 10.854-1.88-0.2-3.37-0.8-4.59-1.66zm-287.65 7.51c-2.967-2.182-5.583-4.715-6.262-9.185 6.898-2.638 11.895 3.961 16.699 0 2.966 0.022 3.537 0.22 6.262 0-1.297 1.981-0.068 6.078 0 9.185-3.99 0.57-10.55-0.34-16.7 0zm273.03-0.83c3.022 1.431 8.486 0.419 10.437 2.923-0.811-0.008-3.253 0.184-2.505 2.922 0.831 1.483 1.911 0.123 3.758 0.418 0.456-1.849-0.708-2.076-0.836-3.34 0.984 0.009 1.229-0.72 2.506-0.418 0.45 2.751 0.079 8.098-0.418 11.272-4.961-0.884-10.45-1.239-14.194-3.34 0.15-3.73-0.63-8.4 1.24-10.43zm-147.37-29.64c3.176 0.833 4.325-2.196 6.68-0.835-9.424 5.604-20.028 10.029-29.641 15.446 4.59-7.95 14.7-10.36 22.96-14.62zm-8.35 17.53c-3.087 0.109-9.344-0.079-13.776 0 2.078-2.793 5.997-3.745 9.185-5.428 2.464-2.406 6.345-3.396 9.185-5.427 0.661 0.034 1.592-0.201 1.67 0.417 0.34 1.731-2.574 0.21-2.923 1.253-1.817 1.104-2.979 2.866-3.757 5.01-0.59 2.11 1.53 2.87 0.43 4.18zm8.35-3.34c-2.479-0.253-4.165 0.288-5.845 0.835-1.13-4.788 2.499-3.824 6.263-2.923 0.35 1.17-0.58 1.08-0.41 2.08zm10.02 4.18c-2.591-0.007-3.804-0.299-5.427-0.418-2.065-3.917 0.52-8.801 4.175-9.602 2.25 2.48 2.97 6.55 1.25 10.02zm4.59-9.19c1.663-1.845 2.818-5.375 1.67-8.768 1.904-0.104 2.804-0.777 5.01 0-0.732 1.494-1.126 3.327-1.253 5.428 2.229 3.283 9.023 0.57 11.69 1.252 2.21-0.712 0.613-5.231 1.67-7.097 7.48 0.325 15.27 0.363 20.874 0.835-0.653 2.3-1.665 3.922-0.418 6.262 4.775 4.134 8.995-1.669 10.438-5.845 2.549-0.323 3.906 0.547 6.262 0.418 0.631 4.123 3.516 5.698 5.845 7.097 2.618-0.558 3.454-5.046 2.088-7.097 10.642 0.407 23.955 1.544 35.485 1.252-0.646 2.136-2.997 2.569-3.757 4.593 0.867 5.146 10.08 3.436 11.271-0.418-0.333-1.754-2.235-1.939-2.505-3.757 3.688 0.301 10.698 0.76 15.029 0.417-0.507 4.686 0.877 9.695 4.175 9.185 1.21 0.233-0.64 0.651-0.417 1.253-40.32-1.76-82.59-2.46-123.14-5zm-100.19 13.36c5.571-0.341 14.264 0.423 20.039 0 0.645 0.907-2.421 3.42 0.835 3.757 2.928-0.412 0.841-2.601 0-3.757 13.494 1.284 25.233 0.164 40.495 0.835 44.337 1.949 91.312 3.91 137.77 5.427 1.694 0.029-2.018 2.654 0.417 3.758 1.318 0.204 1.475-0.753 2.923-0.418 0.621-2.152-0.996-2.065-1.253-3.34 8.602 0.051 18.897 0.515 28.807 0.418-0.465 3.153-1.181 6.056-0.835 10.02-8.388 0.996-18.577 0.22-26.719-0.418-1.52 0.197 1.375-3.092-1.253-3.34-2.658-0.201-1.727 2.893-1.67 3.34-69.222-1.474-132.55-6.566-200.39-7.097 0.44-3.68-0.24-6.01 0.82-9.18zm69.72 20.46c7.516-0.045 15.863 0.935 23.379 0.418 1.616-0.111 3.36 0.088 5.428 0 0.3-0.013 0.401-0.978 1.252-0.835 0.107 0.018 0.828 0.835 0.835 0.835 1.913-0.007 4.528-0.827 5.845-0.835 4.412-0.028 9.24 0.282 13.777 0.417 9.47 0.281 19.453 0.847 29.642 0.418 9.62-0.405 19.375 0.326 29.641 0 1.909-0.061 3.834-0.724 5.845-0.835 4.178-0.231 11.183-0.238 17.534 0 14.079 0.527 28.415-0.398 39.661 3.34-0.761 1.558-3.006 0.863-4.175 0.835-41.679-1.009-92.71 0.565-139.02 0.417-27.961-0.089-63.034-0.096-100.61 0-10.786 0.028-21.525 1.271-31.729-0.417-0.457-0.936-0.691-2.092-1.253-2.923-0.018-0.714 0.311-1.081 0.835-1.252 37.25-0.31 69.59 0.6 103.13 0.4zm-92.68-22.55v-1.67c2.058 0.03 4.528-0.354 4.592 1.67-1.58 0.73-3.42 0.19-4.59 0zm-5.01-4.59c0.97-0.283 1.117-1.388 2.087-1.67 4.632 0.23 8.891-2.641 12.524-0.835-0.145 5.293 3.765 6.534 7.515 7.932 0.724 2.547-0.379 5.345 0 8.768-1.57-0.115-7.115 0.925-7.097-2.088-1.448 0.766-3.51 2.717-5.845 1.253-0.854-1.372-0.226-4.228-0.418-6.263 1.343-0.327 2.768-0.572 3.758-1.252-1.271-3.175 0.713-3.865 1.67-5.845-6.314-2.165-15.438 2.004-20.874 2.087 0.97-1.98 4.98-3.33 6.68-2.08zm-18.79-0.42c4.205 0.197 5.438 0.222 8.768 0.418-0.319 1.066-0.615 1.919 0.417 2.505-3.209 1.021-5.258-0.262-8.767 0-0.33-0.9-1.02-2.34-0.42-2.93zm175.76-184.94c-2.423 0.917-6.5 0.18-9.603 0.417-1.97-4.02 9.97-4.16 9.6-0.42zm8.35-14.61c-5.333-0.524-12.616-0.335-17.117-0.417 1.366-16.882 2.176-36.389 3.34-54.69 0.233-0.601 0.651-1.019 1.252-1.252h12.942c0.11 14.29 0.32 36.71-0.41 56.36zm0.42-58.03c-4.588-0.355-8.129 0.136-13.359 0 0.007-12.246 2.52-25.585 1.67-40.078 4.062 0.253 9.15-0.522 12.524 0.417-0.88 11.901-0.82 27.551-0.83 39.661zm2.08-38.829c-0.019-0.714 0.31-1.082 0.835-1.252 12.387 0.796 27.88 0.048 41.748 0.417 0.593 11.857 0.29 24.583 0.417 40.078-14.688-0.701-28.189-0.248-43-0.417-0.13-13.81 0.25-26.91-0.01-38.819zm0.42 96.439c-0.394-19.388-0.486-37.646 0-55.108 0.306-0.39 0.759-0.632 1.253-0.835 11.971 0.881 27.033 0.37 40.913 0.417 0.704 19.664-0.628 35.985 0.835 55.525-13.97 1-29.67-0.1-43 0zm-1.67-153.22c0.323 4.167-0.375 7.764 0 12.942 3.742-1.662 1.121-8.379 2.088-12.942 14.057-0.66 26.999 0.169 41.748 0 0.393 16.901-0.502 36.97 0.417 53.438-1.617 1.344-3.455 0.45-5.427 0.417-11.523-0.188-26.506-0.616-37.573-0.417 0.646-13.77 0.67-29.112 0.417-40.496-1.139-0.304-0.84 0.83-1.67 0.835 0.191 14.572-0.366 26.569 0 39.661h-12.95c-0.57-8.195-0.997-15.125-0.836-24.631 0.305-1.373-0.829-0.64-0.834 0-0.396-0.023 0.553-2.197 0.834-2.922-1.59-8.601-1.337-18.562-5.01-25.884 6.21-0.727 13.05-0.537 18.79-0.001zm-16.28 17.117c-0.658-2.403-1.341-4.782-1.67-7.515 1.09 1.974 1.56 4.563 1.67 7.515zm-2.09 2.923c0.463 3.239 0.383 6.481 0.835 9.602 0.125 0.86 0.725 0.481 0.835 0.835 0.08 0.255-0.186 2.59 0 3.757 0.712 4.466 1.493 12.142 1.67 19.204-13.567-0.006-21.938 0.542-32.146 0-0.032-15.797 0.024-35.016 0-52.186-0.018-0.714 0.311-1.081 0.835-1.252 9.105 0.669 13.392-0.211 23.38 0 2.13 6.713 3.63 13.387 4.58 20.04zm-28.39-33.817c0.857-2.9 4.527-2.987 6.68-4.592 2.312 0.471 2.471 3.096 4.592 3.757h3.758c2.809 3.871 6.53 6.829 7.515 12.524-6.321 0.71-15.705 0.373-22.544 0-1.05-3.283-0.1-9.464-0.01-11.689zm-0.41 69.72c12.815-0.283 20.349-0.211 32.146-0.417-0.743 12.436-0.597 26.881-1.67 40.078-9.629-0.718-21.302-0.2-30.894-0.417 0.25-11.3 0.49-26.26 0.41-39.244zm-0.42 97.274c0.036-17.538 0.527-38.465 0.417-55.943h30.059c-1.533 18.952-2.046 38.638-3.34 55.943-8.54-0.2-18.99 0.29-27.14 0zm-154.89 13.36v-0.835c-0.068-0.485 0.092-0.743 0.417-0.835 27.388-0.047 64.656-0.004 88.924 0.417 24.685 0.429 52.869 0.105 82.661 0.417 3.683 0.039 7.81-0.61 9.186 1.252-0.03 2.761-3.354 1.589-4.593 1.67-13.267 0.86-28.72-0.199-42.583 0-15.488 0.222-31.11 0.608-45.923 0-30.66-1.25-60.56-0.36-88.1-2.08zm162.82 27.14c1.595-0.196 1.626 2.427 1.253 2.922-1.66 0.27-1.19-1.59-1.25-2.92zm6.68 16.28c-0.484 0.351-1.119 0.551-2.087 0.417-0.203-0.95-0.828-2.133 0-2.922 0.371 0.324 0.942 0.449 1.67 0.417-0.34 1.17 0.59 1.07 0.42 2.08zm-1.25 2.08c0.484-0.35 1.119-0.551 2.087-0.417 0.622 1.744 1.283 3.448 1.67 5.428-1.029 0.055-2.011 0.062-2.505-0.418-0.063-1.038 0.656-1.292 0.835-2.087-0.77-0.77-2.49-0.58-2.1-2.5zm-159.48 22.96c43.86 0.356 96.549 1.286 135.26 1.253 2.26-0.002 5.154-0.096 7.097 1.252-0.772 1.596-3.105 0.806-4.175 0.835-25.176 0.696-44.795-0.417-68.467-0.417-23.491 0-42.562-0.031-62.205-0.418-2.694-0.053-5.516 0.52-7.932-0.835v-0.835c-0.05-0.46 0.11-0.72 0.43-0.82zm141.94-1.66c0.367-1.586 3.246-0.779 2.922 0.835-1.35 0.68-2.18 0.12-2.92-0.84zm-12.52 6.26c0.816 0.006 0.921 0.729 1.67 0.835 2.523 0.354 7.28-0.133 10.02 0 0.99 0.048 3.307-1.493 3.34 0.835-1.159 3.355-5.37 1.338-7.515 1.252-31.848-1.277-65.225 0.272-93.934 0-9.286-0.088-18.503-0.343-28.389-0.417-2.691-0.021-5.69 0.22-8.35 0-1.136-0.095-4.37-0.114-5.01-1.67-0.324-0.372-0.449-0.943-0.417-1.67 49.03 0.79 89.87 0.55 128.58 0.83zm-119.4 3.76c18.649 0.021 37.541 0.676 56.36 0.835 23.535 0.199 46.627-0.01 71.807 0 2.513 0.001 6.82-1.051 8.35 2.088-1.696 2.203-5.636 0.896-9.602 0.835-44.796-0.685-73.941 0.84-122.32 0-2.032-0.035-4.418-0.049-6.68-0.418-1.823-0.297-4.692 0.438-5.01-2.505 1.22-1.55 6.22-0.85 7.09-0.84zm132.76 5.84c1.753 0.054 4.986-0.943 5.845 1.67-0.792 1.188-3.65 1.197-5.428 1.253-19.833 0.616-45.374-0.418-68.467-0.418h-51.351c-5.403 0-10.734-0.728-15.864 0.418 0.61 1.271 2.757 1.18 3.758 1.252 8.149 0.592 19.273-0.046 28.806 0 35.306 0.172 71.845-0.698 102.28 0.418 2.805 0.103 6.177-0.486 8.35 1.67-0.771 2.618-3.848 1.257-5.427 1.252-51.146-0.167-88.662-0.046-136.1-0.417 1.621 2.781 5.394 1.242 7.933 1.252 7.452 0.03 18.156 0.709 28.389 0.835 30.158 0.373 58.683-0.614 91.429 0 2.552 0.048 5.248 0.061 7.932 0 1.914-0.042 7.283-1.049 7.515 2.088-1.031 1.461-4.271 0.875-5.845 0.835-35.085-0.895-90.537 0.021-127.33-1.253-3.649-0.126-6.763-0.126-9.602 0.418-1.077-4.074-4.336-8.186-4.175-12.107 42.76 0.07 92.21-0.54 137.34 0.84zm6.26-0.84c-1.438-3.272-2.74-7.916-4.592-11.271-0.068-0.485 0.092-0.743 0.417-0.835 0.549-0.501 0.657-0.163 1.253 0 2.614 2.406 2.632 6.096 3.757 9.185 2.773 7.61 7.229 14.814 8.768 23.379-2.353-0.348-2.385-3.107-2.923-4.593-2.02-5.57-4.33-10.5-6.69-15.87zm-25.05-31.31c-11.395-0.243-21.557 0.496-34.65 0-22.234-0.844-51.768-0.211-73.895-0.835-0.514-0.183-0.857-0.535-0.835-1.253 0.338-0.079 0.416-0.419 0.835-0.417 49.061 0.825 85.395 0.32 136.52 0.835 2.276 0.022 5.424-0.695 7.097 1.252-1.046 1.598-3.22 0.806-4.592 0.835-11.8 0.26-22.67-0.24-30.48-0.41zm13.78 2.09c-2.256 4.481-7.709 7.062-10.438 11.689-2.747-0.035-4.021 0.566-5.845 0 5.107-3.242 10.313-6.386 13.359-11.689 1.53-0.09 1.61-0.57 2.93 0zm-22.96 0c-3.416 5.212-11.471 5.785-14.194 11.689h-4.592c3.636-4.156 9.478-6.108 14.194-9.185-0.8-3.9 2.82-2.7 4.59-2.5zm-27.14-0.42c-0.329 2.071-3.032 3.097-4.593 4.592-1.711 1.64-3.891 2.792-6.262 4.593-1.365 1.035-2.593 3.71-4.593 2.505 2.955-4.838 9.881-5.706 11.689-11.689h3.75zm-26.72-0.41c-1.143 2.091-3.466 3.047-5.428 4.593-0.233 0.184-0.219 1.13-0.417 1.252-0.276 0.17-1.009-0.207-1.253 0-2.454 2.081-4.187 6.125-8.35 6.263 2.297-5.079 8.854-5.897 10.02-12.107h5.43zm-25.05 0c-0.122 0.852-1.129 0.818-1.252 1.67-0.963 0.128-0.464-1.206-1.253-1.252 0.35-0.81 1.83-1.14 2.5-0.42zm-22.12 10.02c1.012-1.041 2.806-2.259 4.175-3.34 1.473-1.162 3.898-1.603 5.01-3.757 1.183-0.07 1.739-0.766 2.922-0.835 0.351-0.485 0.551-1.12 0.418-2.088 1.77 0.371 2.956-1.096 4.175 0-3.96 4.808-11.653 5.882-14.612 11.689-0.864 0.249-2.742-0.516-2.922 0.418-0.92-0.53 0.45-1.71 0.83-2.09zm-1.26-10.02c0.62-1.208 6.688-1.675 6.68 0.418-2.16-0.21-5.18 0.44-6.68-0.42zm144.45-15.45h1.252c0.064 1.328 0.947 1.837 0.835 3.34-2.48 0.49-2.65-1.97-2.09-3.34zm0-1.25c-1.565-0.535-1.31-2.221-1.253-3.34 1.61-0.33 2.28 2.41 1.25 3.34zm-0.41 7.51c-1.938 2.682-5.879 0.905-9.185 0.835-35.076-0.743-81.239-0.147-120.23-0.417-3.669-0.025-9.681-1.605-13.777 0.417 2.272 1.521 5.105 0.395 7.515 0.417 2.675 0.026 5.524 0.345 8.35 0.417 14.284 0.368 30.48-0.575 47.594 0 22.979 0.772 46.114 1.347 69.719 1.252 3.074-0.012 8.217-1.724 11.272 0.835-1.239 2.235-5.481 0.904-8.35 0.835-51.876-1.243-93.414 0.706-135.68-0.418-0.625-1.577-2.77-5.225-1.253-6.262 48.608-0.112 90.747 0.255 136.94 0.835 2.23 0.02 5.5-1.07 7.09 1.24zm-2.51-8.76c-0.196 2.259-3.108 1.219-4.175 1.252-9.512 0.296-21.642-0.303-30.476-0.417-24.081-0.312-51.595-0.75-75.564-0.835-8.788-0.031-16.992-0.458-25.467-0.417-2.111 0.01-5.069-1.358-6.68 0.835 2.737 1.535 6.328 0.835 9.185 0.835 21.315 0 39.587 0.577 61.788 0.835 21 0.244 42.309 0.012 65.544 0.835 2.089 0.074 5.992-1.44 7.098 1.67-0.139 2.618-3.136 0.812-4.175 0.835-19.2 0.41-54.582-0.417-77.234-0.417-18.651 0-38.869 0.702-63.457 0-0.152-2.777-2.442-5.621-1.253-8.35 38.783 0.637 63.609 0.835 107.71 0.835 10.714 0 21.308-0.289 29.641 0 1.98 0.06 7.53-0.55 7.5 2.5zm-147.79-8.36c51.851-0.187 87.907 0.642 136.52 1.252 2.757 0.035 7.586-0.916 9.602 1.67-0.433 2.863-5.337 1.701-8.35 1.67-29.933-0.313-65.83-0.835-103.54-0.835-9.128 0-17.833-0.153-27.972-0.417-2.16-0.05-6.9 0.97-6.26-3.34zm-2.5-3.34c1.517-2.26 6.216-1.415 9.185-1.252 12.984 0.708 27.958 0.297 42.166 0.417 31.599 0.267 60.122 0.465 84.331 0.835 3.338 0.051 8.605-1.549 10.854 2.087-0.319 1.938-2.926 0.83-3.758 0.835-38.86 0.229-73.541-1.252-107.71-1.252-10.069 0-20.366 0.284-27.554 0-2.51-0.09-5.74 0.17-7.51-1.67zm149.87 3.34c-1.374-0.237-2.296-2.41-1.67-3.34 1.62 0.06 1.71 1.64 1.67 3.34zm-1.67-5c-2.112 0.442-2.169-1.171-2.088-2.922 1.96-0.35 2.67 2.03 2.09 2.92zm-2.08-4.18c-0.971-0.421-1.346-1.437-1.252-2.922 1.904-0.374 1.688 1.373 2.087 2.505-0.5-0.06-0.75 0.1-0.84 0.42zm-6.27-11.69c0.093-1.299 2.078-0.706 3.34-0.835 0.24 2.96 1.839 4.562 2.087 7.515-3.53-0.51-3.21-4.87-5.43-6.69zm-144.03 1.67c43.943 0.743 87.912 1.004 127.33 1.252 2.938 0.019 6.12 0.292 9.185 0.417 2.683 0.11 6.288-0.386 7.932 2.505-0.306 1.831-2.899 0.816-3.757 0.835-16.982 0.366-30.949 0.223-50.516-0.417-25.835-0.846-53.688-1.252-82.661-1.252-2.752 0-6.275 0.901-8.35-1.67-0.11-0.96 0.11-1.58 0.84-1.68zm-2.5-2.5c-0.501-0.548-0.163-0.657 0-1.252 0.338-0.08 0.416-0.419 0.835-0.417 18.524 0.926 39.794 1.478 59.7 1.252 21.009-0.239 43.606 0.433 62.204 0.835 6.032 0.13 12.325-0.242 17.534 0 1.353 0.063 3.893-0.854 4.593 1.252-0.467 1.461-2.787 0.862-3.758 0.835-34.131-0.969-72.018-0.188-105.62-1.252-6.03-0.191-12.104-0.4-17.951-0.417-5.84-0.02-11.81 0.84-17.53-0.83zm4.59 7.09c21.424 1.081 51.104 1.061 72.642 1.252 20.831 0.185 42.19 0.835 64.292 0.835 2.48 0 6.684-1.279 8.35 1.67 0.053 2.215-3 1.21-3.758 1.252-10.844 0.599-23.162-0.287-34.233-0.417-30.228-0.356-54.873-0.835-90.594-0.835-3.898 0-10.693 0.342-14.611-0.417-2.089-0.405-2.933 0.601-2.922-2.087-0.02-0.7 0.3-1.07 0.83-1.24zm-2.51 7.93c-1.773-5.099-2.733-10.715-5.427-15.029-0.177-0.873 0.286-1.105 0.417-1.67 1.224 0.599 1.997 1.897 1.252 3.34 0.363 0.611 0.625 1.323 1.67 1.252 0.877 6.93 5.179 12.614 5.427 18.787-1.58-1.08-2.49-4.24-3.34-6.68zm3.76-2.92c39.267 0.414 94.681 1.277 136.93 1.67 2.554 0.023 6.701-1.284 8.35 1.67-0.754 3.103-5.391 1.355-7.932 1.252-7.666-0.312-17.337-0.017-26.719 0-22.926 0.042-46.128-0.835-74.312-0.835-9.889 0-20.327-0.039-28.806-0.417-2.481-0.111-6.499 1.304-7.932-1.67-0.54-0.55-0.54-1.55 0.42-1.67zm0 12.53c5.109 4.493 5.523 13.68 8.35 20.457-2.618 0.936-2.756-2.246-3.34-3.758-1.83-4.74-3.18-11.59-5.01-16.7zm-8.76 37.99c-0.501-0.549-0.163-0.657 0-1.253 0.338-0.079 0.416-0.419 0.835-0.417 15.506 0.55 34.522 0.446 49.68 0.835 11.012 0.282 21.19 0.104 30.894 0.417 8.541 0.275 17.719-0.746 25.049 0.835 9.139-1.085 21.438-0.807 30.894-0.835 2.648-0.008 7.494-0.664 9.185 1.67-34.209 0.408-78.096-0.398-112.72-0.835-10.54-0.14-22.62 0.01-33.82-0.42zm13.36 30.47c-2.465-4.883-5.049-10.974-7.514-17.116-1.05-2.616-2.072-4.653-2.922-7.933 0.674-0.117 0.718 0.395 1.252 0.418 0.543 1.625 1.933 3.334 2.922 5.427 1.309 2.77 1.956 6.062 3.34 9.603 1.485 3.8 5.335 8.605 5.427 13.359-2.28 0.24-1.79-2.33-2.51-3.76zm3.33-1.25c0.339-0.079 0.416-0.419 0.835-0.418 30.972 0.066 70.113 0.835 106.04 0.835 9.796 0 18.169 0.418 28.806 0.418 2.311 0 5.792-1.011 7.098 1.252-1.162 1.987-4.96 0.906-8.35 0.835-23.345-0.487-44.775 0.251-63.04 0-13.156-0.181-25.327 0.013-37.156-0.417-5.788-0.211-11.811 0.187-17.534 0-3.082-0.101-6.105-0.43-9.185-0.418-2.27 0.009-5.21 1.104-7.097-0.835-0.21-0.32-0.42-0.66-0.41-1.24zm18.79 20.46h-5.01c3.932-4.912 10.354-7.337 14.611-12.106 0.266-0.297 0.402-0.708 0.418-1.253h3.34c-4.494 3.578-8.807 7.337-13.359 10.854-0.21 1.32 0.91 1.63 0 2.51zm40.92-8.77c-4.413 0.597-5.079 4.94-9.185 5.845-0.639 1.328-0.146 1.837 0 3.34h-5.01c4.268-4.917 10.765-7.604 14.194-13.359h2.923c0.77 1.64-2.35 2.53-2.92 4.17zm23.79 6.68c0.133 0.979 0.659 1.567 0.417 2.922h-6.262c-0.117-1.508 1.828-0.954 2.505-1.67 4.269-3.663 7.905-7.958 13.776-10.02 0.491-0.622 1.048-1.179 1.67-1.67 0.71-0.153 0.788 0.326 0.835 0.835-4.62 2.91-8.65 6.4-12.95 9.61zm32.15 0.42c-0.355 1.576 1.387 1.96 0.418 2.923h-5.428c4.501-4.823 10.197-8.451 14.612-13.359 0.71-0.153 0.787 0.325 0.835 0.835-3.15 3.54-6.68 6.7-10.44 9.61zm-9.19-12.11c-29.218-0.921-67.142-0.883-104.37-1.253-0.221-0.336-0.436-0.678-0.418-1.252 0.339-0.079 0.416-0.419 0.835-0.418 31.601 0.733 72.637 0.289 106.46 0.835 10.503 0.17 20.612 0.182 27.972 0.418 2.233 0.071 5.685-1.364 7.097 1.252-13.72 0.46-24.43 0.83-37.58 0.41zm-110.21 27.56c6.026 0 12.134 0.33 17.951 0.417 35.111 0.524 66.087 0.364 102.7 0.835 2.95 0.038 6.18 0.481 9.185 0.418 2.412-0.051 5.998-2.076 7.932 0.835-0.749 1.593-3.004 0.803-4.175 0.835-21.32 0.59-38.697-0.418-65.962-0.418-25.216 0.001-51.522 0.306-75.981-0.417-0.716-0.815-0.726-2.337-1.252-3.34-0.898-1.647 2.923-1.668 2.922-3.758 39.332 0.434 83.038 0.711 123.57 1.253 4.026-0.316 8.736-0.184 15.029 0.417 1.258 0.12 3.917-1.502 3.758 1.253 0.138 2.152-2.75 1.2-3.758 1.252-7.905 0.412-19.025-0.417-30.476-0.417-32.673 0-61.896-0.418-93.099-0.418-3.203 0-6.592 0.096-9.603 0-2.384-0.075-5.398-1.485-7.097 0.835 2.46 1.95 5.77 0.42 8.35 0.42zm134.43 7.93c-31.929 1.314-58.36-1.201-82.243-0.417-17.672 0.58-33.593 0.28-54.273 0-1.799-0.024-5.146 1.098-5.427-2.088 1.363-1.573 4.051-0.825 5.845-0.835 1.978-0.01 3.846 0.246 5.427 0 1.901-0.296 5.505 0.419 8.35 0.418 17.351-0.007 34.065-0.431 48.846-0.418 18.541 0.017 36.446 0.055 53.438 0 6.599-0.021 13.107 0.228 19.622 0.418 1.714 0.05 4.801-1.192 5.427 1.67-0.75 2.24-3.7 1.2-5.03 1.26zm6.26 2.92c-2.62 1.537-5.98 0.835-8.768 0.835-42.38 0-88.248 0.851-130.67-0.418-2.227-0.066-5.518 1.373-7.097-1.252-0.367-0.861 1.376-1.581 1.252-0.835 39.38 0.362 74.119-0.564 113.97 0 8.963 0.127 16.502 0.515 24.214 0.417 2.38-0.03 5.45-1.6 7.11 1.25zm-5.85-19.62v-1.67c1.029-0.055 2.012-0.062 2.505 0.418 0.25 1.49-1.23 1.27-2.5 1.25zm-145.7 0c40.98 0.456 87.729 0.509 126.5 1.67 4.665 0.141 8.996-0.402 14.611 0 1.15 0.083 3.401-0.693 3.758 1.253-1.365 1.539-4.682 0.835-7.515 0.835-17.728 0-34.716-0.643-52.603-0.835-20.871-0.226-41.754 0.091-60.953 0-5.943-0.028-11.554-0.649-17.116-0.418-3.214 0.134-5.473 1.785-7.515-0.417-0.07-1.02-0.09-2.01 0.82-2.07zm-5.84 6.68c0.565-1.045 2.87-1.834 4.175-0.835-0.52 1.15-2.57 0.77-4.18 0.83zm4.17 9.6c-0.584-2.896-2.547-4.411-2.923-7.515 1.021-0.371 1.811-0.973 3.34-0.835 0.779 0.945 1.877 3.142 0.835 4.592 0.925 0.885 1.846 1.772 2.505 2.923-0.14 1.39-2.4 0.66-3.75 0.84zm0.84 1.67c0.555-0.433 2.792-0.016 3.757 0.417 1.578 5.241 3.679 9.959 5.01 15.447-1.305 1-3.007-0.393-4.175-0.835-0.41-6.14-2.93-10.16-4.59-15.04zm38.82 23.38c-11.124 0.482-22.477-0.074-35.485-1.252 0.838-4.72 5.409-1.977 8.35-1.67 2.609 0.271 6.089-0.278 9.185 0 4.993 0.448 13.052 0.266 17.951 0.835 0.25 0.74-1.22 1.73 0 2.08zm55.95-4.18c-14.78-0.085-27.781-0.853-40.496-1.252-3.751-0.118-6.816 0.254-10.854-0.418 13.103-0.615 36.306-0.639 52.186 0 1.313 0.053 3.203-0.061 4.175 0.835-0.78 2.41-3.73 0.85-5.02 0.84zm-5.01-3.34c-15.386-0.609-31.03-0.417-47.594-0.418-4.385 0-9.01 0.588-13.359 0.418-4.006-0.156-7.82-0.787-11.271-0.418-1.992 0.214-3.752 1.523-5.845 0.836-1.332-3.546-4.919-8.797-3.34-12.525 42.239 1.146 81.51-0.442 116.06 0 3.439 0.045 6.803 0.584 10.438 0.418 3.236-0.147 7.931 0.002 12.524 0 2.087-0.001 6.104-1.193 7.097 2.088-1.695 2.232-4.973 1.24-7.097 1.252-18.914 0.102-38.926-0.418-57.195-0.418-24.112 0-48.909 0.138-70.555-0.417-2.99-0.077-6.433-0.641-9.185 0.835 3.04 1.521 6.698 0.855 10.02 0.835 34.583-0.21 72.478 0.519 106.46 0.835 7.88 0.073 15.66 0.248 22.544 0.417 2.134 0.053 5.156-0.923 6.68 1.253-1.925 2.559-5.648 1.642-8.35 1.67-21.432 0.225-43.327-0.073-61.787-0.418-26.164-0.488-49.24-1.101-74.729-0.417 0.789 1.422 2.812 1.164 4.175 1.253 4.884 0.317 10.955-0.092 17.117 0 24.758 0.368 53.645 0.824 78.069 0.417-0.651 1.685-2.791 1.189-4.175 1.67-1.411 0.489-2.688 1.458-4.175 1.67-3.4 0.47-8.11-0.67-12.51-0.85zm26.3-1.66c-1.108-0.004-2.384 0.158-2.922-0.418 11.255-0.689 27.306 0.427 37.99 0.418 2.751-0.002 6.775-1.783 7.098 2.505-13.378 1.032-28.427 0.176-40.913 0-1.65 0.38-0.31-2.2-1.26-2.5zm-2.51 2.5c-1.418 0.721-3.06 0.29-4.592 0 0.92-1.38 3.97-2.43 4.59 0zm-11.27 2.92c1.489-1.803 5.252-2.513 7.515-1.253-1.13 1.91-4.95 1.99-7.51 1.25zm50.93 2.09c-13.28 0.071-28.015-1.662-41.748-1.67 3.201-3.242 11.437-1.814 18.369-1.67 3.85 0.08 7.666-0.051 9.602 0.835 0.534-0.579 1.972-0.256 2.505-0.835 2.197 1.615 5.081-0.486 8.35 0.417 1.557 0.431 0.63 0.21 3.34 0 1.383-0.106 5.016-0.865 6.263 1.671-1.23 2.28-4.65 1.25-6.67 1.26zm10.86 0.42c-3.122 0.431-3.644-2.571-2.505-4.175-2.934-3.469-3.618-9.186-6.263-12.942-0.357-1.332 0.657-1.291 0.835-2.088-4.686-4.638-5.26-13.387-8.767-19.204h2.505c1.245 3.995 2.648 8.057 4.175 12.107 1.475 3.912 2.62 7.981 4.175 11.689 1.137 2.71 2.756 5.979 3.757 9.602 0.45 1.71 2.51 3.15 2.06 5zm2.5 0c-5.537-11.72-9.223-25.29-14.612-37.156 0.653-2.386 0.028-2.59-0.835-4.175 2.034-0.236 3.155-2.121 4.593-3.34 1.24-1.053 2.771-2.014 4.175-3.34 1.847-1.746 6.746-5.606 7.098-7.933 0.283-1.882-1.294-3.405-2.088-5.427-0.995-2.532-1.684-5.563-2.923-8.768-2.879-7.45-7.185-18.026-10.02-25.049 5.861-4.994 11.288-10.421 18.787-13.776-1.749-5.07-3.704-9.935-5.845-14.612 0.05-1.203 1.78-0.725 1.67-2.087-1.434-0.375-2.621-0.998-3.34-2.087-0.33-1.444 0.464-1.763 0.835-2.505 0.013-1.266-2.101-0.404-2.088-1.67 0.372-3.744-3.219-5.171-2.087-8.35-0.284-0.829-1.271-0.955-1.67-1.67-0.735-5.667-3.287-9.516-4.593-14.612-0.619-0.182 0.165-0.535 0-1.252 7.206 0.443 16.407 0.375 22.544 0.417-0.591 14.351-3.701 35.911-2.087 51.768 0.847 8.314 0.702 21.142 3.34 28.806 0.53 1.543 1.88 3.052 2.505 4.593 0.812 2 0.756 3.809 1.67 5.427 0.946 1.676 2.443 3.094 3.758 4.593-0.473 19.818-1.177 43.479 0.417 62.622-5.4 0.5-12.49-0.85-19.21-0.41zm18.37-66.38c-2.162-1.839-2.717-5.2-3.758-7.933-3.008-7.9-4.068-19.241-4.592-29.224-0.662-12.632-0.228-25.465 0.418-38.408 0.23-4.632 1.384-9.154 1.67-14.612 2.08-0.563 4.454-0.834 7.097-0.835-0.39 28.53-1.09 60.37-0.84 91.01zm21.29 67.63c-4.823-0.022-11.12-0.34-17.952-0.417-1.904-19.881-0.518-39.212-0.835-59.283 4.976 3.514 10.359 6.619 18.787 6.68-0.48 16.48-0.73 36.61-0.01 53.02zm2.51-64.71c0.784 1.721 5.177-0.167 4.175 3.34-2.195 0.052-2.904 0.479-4.593-0.417-0.199-1.886 0.287-5.258 0-5.845 2.173-1.048 5.249 0.587 8.35 0 0.82 4.44-5.81 1.43-7.93 2.93zm12.94 25.88c0.386 2.553-4.469 1.725-7.097 1.67-2.782-0.058-6.826 0.664-6.263-2.087 4.27 0.17 10.24-0.66 13.36 0.42zm-13.36-2.5v-1.252c4.17-0.368 9.337-0.289 13.359 0v1.67c-3.62 0.09-9.68-0.13-13.36-0.42zm13.36 23.38c-1.009 1.191-3.423 1.213-5.01 1.253-2.604 0.065-5.457-0.885-8.35-0.417-0.034-2.562-0.442-4.029 0.418-6.263 2.904 1.439 10.482-1.756 12.941 2.087-5.577 1.02-7.271-0.351-12.941 0.418 2.26 3.7 10.62-0.56 12.94 2.92zm0 10.43v3.34c-3.608 0.247-7.788-0.086-12.941 0-1.303-2.102-0.192-4.023-0.418-7.098h0.835c3.242 0.388 10.649-1.032 12.524 1.253-2.333 2.592-8.895-0.005-12.106 0.835 1.3 3.46 9.48 0.8 12.12 1.68zm-6.68-5.42c-2.368-0.013-5.15 0.305-6.68-0.417v-2.505c0.355-0.077 0.394 0.163 0.418 0.417 0.872-0.177 1.105 0.286 1.67 0.418 3.927 1.039 10.33-2.083 11.271 1.252-1.04 1.5-4.16 0.84-6.68 0.83zm-6.26-68.05c1.245 0.006 1.419 1.085 2.505 1.252 1.228-0.595 1.579-2.314 3.34-1.252 0.343 1.873-1.197 1.864-1.67 2.922-1.946 0.137-3.293-0.325-4.593-0.835-0.35-1.18 0.58-1.09 0.41-2.09zm0 4.59c2.488 0.017 5.512-0.502 5.427 2.088-2.325 0.196-3.772-0.076-5.01 0.417-0.93-0.06-0.18-1.78-0.42-2.51zm4.59 51.35c-1.718 0.004-3.259 0.871-4.592 0.417-0.614-0.606-0.614-2.732 0-3.34 3.812 1.138 9.389-0.763 12.941 1.253v0.835c-1.34 2.69-5.53 0.82-8.35 0.83zm4.18-4.17c-2.894 0.004-6.942 0.186-9.185-0.418v-0.835c-0.067-0.485 0.092-0.742 0.418-0.835 2.01 0.039 4.708-0.049 7.097 0 2.275 0.048 5.365-0.881 5.845 1.253-0.06 2.31-2.55 0.84-4.18 0.85zm-0.42-4.18c-2.733-0.062-5.865 0.047-8.768 0v-2.088c2.359 1.028 11.151-1.612 13.359 1.253-0.21 2.28-3.07 0.88-4.59 0.84zm0.83-35.9c-2.64-0.15-6.729-1.055-9.185 0-0.942-0.312-0.164-2.342-0.418-3.34 2.883 0.597 6.561 0.397 10.02 0.417 0.25 1.35-0.27 1.94-0.41 2.92zm1.67-5.01c-0.494 0.48-1.476 0.473-2.505 0.417 0.307-1.084 0.331-2.452 1.252-2.922 0.336 0.221 0.678 0.436 1.253 0.417v2.08zm0.42-3.76c-1.307-0.085-3.064 0.282-3.757-0.417-1.78-3.19 5.76-2.35 3.76 0.42zm-17.53-9.19c0.12-3.487-0.075-5.46 0.418-7.932 5.058-0.045 10.764-1.315 16.281-0.835 0.528 0.046 2.438 0.123 2.505 1.252-0.382 2.221-3.854 1.239-6.262 1.253-2.264 0.012-5.09 0.029-7.098 0-1.519-0.022-3.698-1.065-4.175 0.417 1.273 1.608 3.688 0.769 5.428 0.835 3.463 0.133 7.267-0.194 11.689 0.418 0.241 1.354-0.284 1.942-0.418 2.922-4.893-0.148-12.124-0.83-17.116 0.418 3.722 2.326 11.504-0.312 16.699 1.252-0.739 2.009-5.869 1.46-8.768 1.253-3.71-0.27-7.21-1.15-9.18-1.26zm19.2 87.68c-2.984-0.748-12.716 1.944-13.776-2.088 0.851-0.652 8.874-1.653 10.854-1.252 2.32 0.46 3.53 0.5 2.93 3.34zm-12.94-47.6c3.726 0.432 9.315 1.125 12.106 0 0.371 0.743 1.166 1.062 0.835 2.505-3.537 0.938-8.457-0.826-12.941 0.418-0.61-0.55-0.61-2.36-0.01-2.92zm-0.42-12.52h2.505c-0.217 1.036-1.018 1.487-1.67 2.088-0.92-0.07-0.9-1.05-0.84-2.09z"
   id="path568" />
	<path
   d="m616.63 196.63c1.081 4.052 8.442-0.04 10.854 2.087-0.334 2.957-4.075 1.64-5.845 1.67-2.485 0.041-5.106 0.694-7.098-0.417-0.646-17.1 0.03-36.303 0-57.613 0.504-2.035-1.659-1.402-1.67-2.922 0.776-0.337 1.687-0.54 2.088-1.252-0.983-11.851-0.126-27.666-0.418-38.826-0.431-1.378-4.391 0.772-4.175-1.252-0.605-2.554 3.508-0.388 4.175-1.67 0.273-16.4 0.235-30.2 0-45.923-0.038-2.545 1.593-6.067-0.835-7.932 0.188-1.203 1.478-1.306 1.253-2.922 0.291-11.752-0.687-26.078 0.835-34.233 1.643-0.669 0.145 1.803 1.252 1.67 0.232-1.013-0.015-2.82 1.67-3.34 2.429 1.382 0.893 3.607 0.835 5.427-0.311 9.851-0.292 19.253-0.417 31.729 2.618 1.245 5.297-0.737 8.35-0.417 0.583 4.202-4.639 2.599-7.933 2.922-1.158 5.505 0.017 12.664-0.417 18.787-0.734 10.367 0.314 23.459-0.418 34.234 2.483 1.506 6.606-1.151 7.933 1.252-1.142 2.434-4.995 1.047-7.515 1.252-0.674 12.869-0.176 25.208-0.418 39.243 2.167 1.933 7.221-1.191 8.35 2.087-1.889 0.895-5.369 0.197-7.932 0.417-0.7 17.26-0.69 37.429 0 54.69 3.081 0.759 6.704-1.596 8.35 0.417-0.08 2.6-9.7 2.24-10.84 0.82zm0.41-119.4c-0.237-2.553 0.5-8.284-0.417-8.767 0.24 2.554-0.49 8.284 0.42 8.767zm0 27.976c-0.361-2.005 0.835-5.566-0.835-6.262 0.62 2.662-0.66 4.912 0.84 6.262zm-0.41 19.62c0.355-5.945-0.253-12.973 0.417-18.787-0.092-0.325-0.35-0.485-0.835-0.417 0.27 6.27-0.57 13.64 0.41 19.21zm0 8.76c-0.247-2.675 1.078-5.937-0.418-8.35 0.27 2.65-0.55 6.4 0.42 8.35zm-0.42 33.4c0.462-7.468 0.738-14.85 0.835-19.204 0.055-2.473 0.649-5.692-0.835-6.68 0.56 8.18-0.57 17.53 0.01 25.88zm0 18.79c0.208 3.535-0.884 7.486 0.835 10.437-1.03-7.49 0.603-20.046-1.252-27.972-0.13 5.76 0.13 12.69 0.42 17.53z"
   id="path570" />
</g></g></svg>
