<?xml version="1.0" encoding="UTF-8" standalone="no"?>
<svg
   id="rolling_off_the_assembly_line_xA0_Image_1_"
   style="enable-background:new 0 0 618.99 473.2"
   xml:space="preserve"
   viewBox="0 0 618.99 473.2"
   version="1.1"
   y="0px"
   x="0px"
   sodipodi:docname="line_8_johnny_automatic_rolling_off_the_assembly_line.svg"
   inkscape:version="1.2.2 (1:1.2.2+202305151914+b0a8486541)"
   xmlns:inkscape="http://www.inkscape.org/namespaces/inkscape"
   xmlns:sodipodi="http://sodipodi.sourceforge.net/DTD/sodipodi-0.dtd"
   xmlns="http://www.w3.org/2000/svg"
   xmlns:svg="http://www.w3.org/2000/svg"
   xmlns:rdf="http://www.w3.org/1999/02/22-rdf-syntax-ns#"
   xmlns:cc="http://creativecommons.org/ns#"
   xmlns:dc="http://purl.org/dc/elements/1.1/"><defs
   id="defs2085" /><sodipodi:namedview
   id="namedview2083"
   pagecolor="#ffffff"
   bordercolor="#666666"
   borderopacity="1.0"
   inkscape:showpageshadow="2"
   inkscape:pageopacity="0.0"
   inkscape:pagecheckerboard="0"
   inkscape:deskcolor="#d1d1d1"
   showgrid="false"
   inkscape:zoom="0.7590954"
   inkscape:cx="189.0408"
   inkscape:cy="245.68717"
   inkscape:window-width="1846"
   inkscape:window-height="1016"
   inkscape:window-x="0"
   inkscape:window-y="0"
   inkscape:window-maximized="1"
   inkscape:current-layer="layer7" />

<metadata
   id="metadata2080"><rdf:RDF><cc:Work><dc:format>image/svg+xml</dc:format><dc:type
         rdf:resource="http://purl.org/dc/dcmitype/StillImage" /><cc:license
         rdf:resource="http://creativecommons.org/licenses/publicdomain/" /><dc:publisher><cc:Agent
           rdf:about="http://openclipart.org/"><dc:title>Openclipart</dc:title></cc:Agent></dc:publisher><dc:title>rolling off the assembly line</dc:title><dc:date>2008-03-06T04:44:23</dc:date><dc:description>Wide Road Ahead! The Building of an Automobile by Henry B. Lent New York THE MACMILLAN COMPANY 1934 archive.org states as PD</dc:description><dc:source>http://openclipart.org/detail/15525/rolling-off-the-assembly-line-by-johnny_automatic</dc:source><dc:creator><cc:Agent><dc:title>johnny_automatic</dc:title></cc:Agent></dc:creator><dc:subject><rdf:Bag><rdf:li>assembly line</rdf:li><rdf:li>car</rdf:li><rdf:li>clip art</rdf:li><rdf:li>clipart</rdf:li><rdf:li>externalsource</rdf:li><rdf:li>factory</rdf:li><rdf:li>image</rdf:li><rdf:li>industry</rdf:li><rdf:li>media</rdf:li><rdf:li>png</rdf:li><rdf:li>public domain</rdf:li><rdf:li>svg</rdf:li><rdf:li>transportation</rdf:li></rdf:Bag></dc:subject></cc:Work><cc:License
       rdf:about="http://creativecommons.org/licenses/publicdomain/"><cc:permits
         rdf:resource="http://creativecommons.org/ns#Reproduction" /><cc:permits
         rdf:resource="http://creativecommons.org/ns#Distribution" /><cc:permits
         rdf:resource="http://creativecommons.org/ns#DerivativeWorks" /></cc:License></rdf:RDF></metadata><g
   inkscape:groupmode="layer"
   id="layer7"
   inkscape:label="Layer 1"><g
     clip-rule="evenodd"
     fill-rule="evenodd"
     id="g2078"
     style="enable-background:new 0 0 618.99 473.2">
	<path
   d="m81.153 5.332c1.71-0.209 2.773 0.229 3.684 0.819-0.513 1.669-0.847 3.519-2.865 3.683-0.011-0.398-0.501-0.317-0.819-0.409-0.806-1.464 0.19-2.184 0-4.093z"
   id="path1948" />
	<path
   d="m107.76 17.61c-0.326 1.448-2.048 1.5-2.456 2.865-0.121 1.076 1.588 0.322 1.228 1.637-1.451 1.708-2.539 2.979-2.456 5.32-1.995 0.221-0.842-2.705-1.637-3.684-2.424-0.326-4.433-4.677-0.818-5.32 0.996 0.86-0.363 1.819 0.409 2.456 2.11-0.702 2.79-4.749 5.74-3.274z"
   id="path1950" />
	<path
   d="m95.887 19.248c-0.626 1.273 1.887 2.221 2.046 2.865 1.076 4.355-4.239 7.574-5.73 2.865 0.917-0.923 2.051 0.026 2.865 0.409 2.818-1.914-0.586-1.912-1.228-3.684-1.269-0.139-1.956 0.948-2.865 0 0.33-2.126 2.733-2.179 4.912-2.455z"
   id="path1952" />
	<path
   d="m81.153 220.2c-4.076-0.505-11.185-1.352-17.189-1.637-1.927-0.092-4.487 0.759-5.73-0.819v-1.228c0.332-0.078 0.408-0.411 0.818-0.41 5.856 0.289 12.458 0.093 17.599 1.228 1.546 0.35 4.177 0.89 4.502 2.87z"
   id="path1954" />
	<path
   d="m61.098 221.84c0.938 2.443-2.284 3.651-2.865 5.73-0.379 1.358 0.178 3.12 0 4.502-0.415 3.228-2.493 5.901-3.684 9.004-1.211 3.156-1.938 6.335-3.274 9.005-2.166-3.549 1.289-7.373 2.046-11.051 0.87-4.216 2.365-8.038 2.865-12.278 1.024-1.841 2.851-2.879 3.684-4.912h1.228z"
   id="path1956" />
	<path
   d="m562.06 225.12c0.154 1.873-1.307 2.128-2.455 1.637 0.36-1.02 0.95-1.78 2.46-1.64z"
   id="path1958" />
	<path
   d="m576.79 226.75c1.488 0.456 1.121 4.518-0.818 4.093-0.86-1.15 0.15-3.18 0.82-4.09z"
   id="path1960" />
	<path
   d="m100.8 229.62c-0.522 3.161-2.357 5.009-4.502 6.548-2.577 5.199-6.064 9.488-8.186 15.144 0.105 0.85 1.798 0.112 2.046 0.818 1.985 2.519 5.184 4.338 8.595 6.14 1.412 0.745 4.171 1.004 4.093 3.273-8.51 0.325-10.573-5.798-16.371-8.186 0.739-1.938 0.87-2.93 0-4.911 3.404-7.101 8.09-12.919 12.278-19.236 0.944-0.12 1.563 0.07 2.043 0.42z"
   id="path1962" />
	<path
   d="m232.59 234.12c2.136 0.649 1.34 1.34 3.684 0.41 0.324 1.415-0.455 1.728-0.819 2.456-1.721-0.602-1.719-0.795-3.274 0-0.24-1.33 0.28-1.91 0.41-2.87z"
   id="path1964" />
	<path
   d="m230.54 234.94c0.446 2.22-1.292 2.255-2.865 2.456-0.6-2.3 1.32-3.61 2.86-2.46z"
   id="path1966" />
	<path
   d="m214.99 235.35c0.233 2.006-1.481 2.066-2.865 2.456-1.22-1.46 1.04-4.06 2.87-2.46z"
   id="path1968" />
	<path
   d="m219.49 234.94c0.895 0.06 0.879 1.031 0.819 2.046-0.679 0.685-2.403 0.326-3.684 0.409v-2.046c0.84-0.25 2.68 0.5 2.86-0.41z"
   id="path1970" />
	<path
   d="m265.74 235.76v1.228c-1.353 0.355-2.834 0.348-5.32 0.409v-1.637c1.71-0.79 4.06-0.08 5.32 0z"
   id="path1972" />
	<path
   d="m270.24 235.35h1.228c-0.072 1.292-0.287 2.441-1.637 2.456-0.05-1.02-0.06-1.98 0.41-2.46z"
   id="path1974" />
	<path
   d="m29.174 239.44c0.608 1.461-0.802 3.985-2.046 4.911-1.542 4.461-1.911 10.095-3.683 14.325-0.303 1.606 0.863 4.684-1.228 4.502-1.329-0.444-0.674-2.873-0.818-4.502-3.465-0.13-6.26 2.389-8.186 2.455-0.526-3.542 5.462-4.397 9.004-4.093 1.284-6.491 2.963-12.589 5.73-17.599 0.409-0.01 0.818-0.01 1.227-0.01z"
   id="path1976" />
	<path
   d="m232.18 242.71c-2.691-0.183-1.321-4.325 0.818-2.865-0.07 1.17-0.75 1.72-0.82 2.87z"
   id="path1978" />
	<path
   d="m235.04 239.44c0.035 1.809-0.069 3.478-2.046 3.274 0.09-1.69-0.17-3.72 2.05-3.27z"
   id="path1980" />
	<path
   d="m262.46 241.08c-0.527 0.564-1.778 0.405-2.865 0.409v-1.637c0.92-0.8 2.94-0.22 2.86 1.23z"
   id="path1982" />
	<path
   d="m264.51 239.44c2.316 0.025 0.891 3.228-0.818 2.865-0.85-0.89 0.2-2.2 0.82-2.86z"
   id="path1984" />
	<path
   d="m228.49 240.26h1.228c1.021 1.225-0.272 2.758-1.637 2.865-0.68-1.36 0.26-1.39 0.41-2.86z"
   id="path1986" />
	<path
   d="m219.9 240.67c0.944-0.125 0.455 1.183 1.228 1.229-0.669 2.873-2.533 1.383-4.502 1.228-0.26-3.08 2.38-0.91 3.27-2.46z"
   id="path1988" />
	<path
   d="m215.4 241.49c0.093 2.729-1.786 1.435-3.274 2.047v-2.047c1.59 0.4 2.37-0.91 3.27 0z"
   id="path1990" />
	<path
   d="m445 241.49c2.455 0.137 1.981 3.203 2.456 5.321-1.4-1.2-1.68-3.51-2.46-5.32z"
   id="path1992" />
	<path
   d="m264.51 243.53c0.338 1.157-0.577 1.061-0.409 2.047-1.179-0.049-2.679 0.223-3.274-0.41 0.29-1.48 2.07-1.47 3.68-1.64z"
   id="path1994" />
	<path
   d="m130.68 244.35c2.099 1.282 1.928 6.396 0.409 8.186-2.45-1.1-1.77-7.27-0.41-8.19z"
   id="path1996" />
	<path
   d="m233.81 244.35c0.329 0.217 0.664 0.428 1.228 0.409 0.04 1.677-0.056 3.218-1.637 3.274-0.65-1.31-0.33-2.71 0.41-3.68z"
   id="path1998" />
	<path
   d="m220.72 245.17c0.368 1.198 0.368 1.258 0 2.456-2.064-0.352-2.289-0.11-4.502 0 0.26-2.06 2.79-1.85 4.5-2.46z"
   id="path2000" />
	<path
   d="m228.08 245.17c1.857 0.385 2.452-0.098 3.684 0.41-0.5 3.146-1.637 0.857-4.093 2.046-0.29-1.25 0.42-1.5 0.41-2.46z"
   id="path2002" />
	<path
   d="m212.12 245.58c1.087 0.004 2.337-0.155 2.865 0.409-0.315 1.185-1.012 1.989-2.865 1.637-0.28-1.26-0.28-0.79 0-2.05z"
   id="path2004" />
	<path
   d="m94.25 246.81c1.835 0.212 2.27 1.822 2.456 3.684-2.195 0.15-2.061-2.03-2.456-3.68z"
   id="path2006" />
	<path
   d="m164.65 250.08c0.809 1.336 1.204 1.237 2.456 0.409 0.479 1.155 0.082 1.738-0.409 2.864-0.976-0.661-1.804-1.47-2.865-2.046 0.13-0.53 0.71-0.63 0.81-1.22z"
   id="path2008" />
	<path
   d="m17.305 251.31c-0.745 3.483-4.572 3.887-8.186 4.502 0.077-3.743 4.232-3.408 6.549-4.911 0.365 0.32 0.924 0.44 1.637 0.41z"
   id="path2010" />
	<path
   d="m521.54 256.63c0.035 1.809-0.069 3.479-2.046 3.274-1-1.4-0.26-3.89 2.05-3.27z"
   id="path2012" />
	<path
   d="m25.491 265.63c-4.093-0.44-6.134-0.144-9.004 1.228-0.068-4.4 7.343-3.7 9.004-1.23z"
   id="path2014" />
	<path
   d="m20.58 268.5h1.637c0.028 3.437 1.958 9.896-1.637 10.642-0.72-2.71-0.604-7.91 0-10.64z"
   id="path2016" />
	<path
   d="m12.394 280.78v0.818c0.32 1.074-0.755 0.515-1.228 0.819-1.223 0.787-1.831 2.427-3.683 2.455-1.05-2.54 2.228-3.98 4.911-4.1z"
   id="path2018" />
	<path
   d="m23.035 286.51c0.087 1.314-1.459 0.996-2.046 1.637 5.405 2.84 16.652 4.006 13.506 12.688 0.831 1.353 3.048 1.318 4.502 2.047 1.3 1.381 1.325 5.078-0.409 4.502-1.293-0.071-1.109-1.619-1.228-2.865-1.535-0.512-2.464-1.628-4.911-1.228 0.453-3.513 1.389-5.392 0-7.776-1.386-2.38-5.072-2.557-6.958-4.502-3.602-0.512-5.729 1.822-7.776-0.409-0.158-1.522 1.971-0.758 2.046-2.047-1.404-1.6-3.195 1.435-4.502 0 1.263-2.01 4.472-2.07 7.776-2.04z"
   id="path2020" />
	<path
   d="m49.639 299.2c0.199 0.932 0.812 2.091 0 2.865-2.679 0.29-3.325-3.42 0-2.86z"
   id="path2022" />
	<path
   d="m61.098 302.47c1.001 2.348 0.31 6.226-2.046 6.548 0.128-2.08-0.234-5.77 2.046-6.55z"
   id="path2024" />
	<path
   d="m142.14 306.15c0.855-0.174 1.083 0.28 1.637 0.409 0.298 1.116-0.813 0.823-0.819 1.637-0.9-0.06-0.88-1.03-0.82-2.05z"
   id="path2026" />
	<path
   d="m228.9 310.66c-1.591 0.862-3.116 0.07-4.093-0.818 0.7-1.89 4.04-1.29 4.09 0.82z"
   id="path2028" />
	<path
   d="m12.803 312.29c1.325 0.177 3.54-0.538 3.684 0.818-0.832 1.625-2.999 1.913-4.911 2.456 1.323-1 0.805-1.99 1.227-3.28z"
   id="path2030" />
	<path
   d="m45.546 313.52c5.67 0.087 6.218 11.896 0 11.869-0.228-2.693 2.412-3.854 2.456-6.139 0.047-2.5-1.943-3.01-2.456-5.73z"
   id="path2032" />
	<path
   d="m66.419 317.2c1.494-0.009 0.866 1.723 0.818 2.047-0.373 2.546-5.753 4.913-7.776 6.139-0.126-0.965-1.421-0.761-1.228-2.046 3.401-1.37 6.226-3.32 8.186-6.14z"
   id="path2034" />
	<path
   d="m246.09 318.84c-0.268 3.595 1.843 2.697 3.684 3.684 0.162 0.98-1.864-0.228-1.228 1.228-1.938 0.302-1.996-1.278-3.684-1.228 1.297-1.426-0.043-1.53-1.637-2.047 0.92-0.59 0.93-2.07 2.87-1.63z"
   id="path2036" />
	<path
   d="m14.85 322.12c1.896 0.423 4.341 0.297 5.321 1.637 0.107 1.744-1.642 1.633-2.046 2.865-2.589-0.12-4.967-2.53-3.275-4.5z"
   id="path2038" />
	<path
   d="m20.58 334.39c-2.331-0.706-8.717 0.417-10.232-1.638 1.842-3.375 4.604 0.472 8.595-0.409 0.073 1.16 1.945 0.52 1.637 2.05z"
   id="path2040" />
	<path
   d="m46.773 336.85c-4.816-0.776-9.912-1.274-14.325-2.455-0.115-0.661 0.387-0.705 0.409-1.229 0.332-0.077 0.408-0.41 0.819-0.409 1.984 0.095 4.526 1.197 6.958 1.638 2.258 0.4 6.09-0.62 6.139 2.45z"
   id="path2042" />
	<path
   d="m18.942 339.3c3.753 0.984 9.941 0.953 15.553 2.046 5.356 1.044 10.473 3.081 14.734 3.684 4.866 0.688 9.663 0.777 13.506 3.274-1.083 1.85-4.266-0.019-6.139-0.409-1.91-0.398-2.809-0.396-4.502-0.818-2.291-0.573-5.715-0.902-8.595-1.638-2.053-0.523-4.005-1.608-6.14-2.046-5.982-1.227-12.405-0.532-18.417-2.456v-1.62z"
   id="path2044" />
	<path
   d="m32.449 346.26c-2.319 2.083-7.827-2.304-10.232 0.818-3.908-0.33-6.804-0.921-9.823-1.228 0.034-0.648-0.197-1.562 0.409-1.638 2.574-0.356 5.259 1.132 8.595 1.228 3.738 0.11 7.82-0.74 11.051 0.82z"
   id="path2046" />
	<path
   d="m11.576 354.86c4.891 1.384 12.287 0.265 16.371 2.455-1.067 1.769-6.688-0.204-9.004-0.409-2.546-0.225-4.83 0.168-7.367 0v-2.05z"
   id="path2048" />
	<path
   d="m36.951 361c-0.435 1.136-2.306 1.156-3.274 1.229-6.509 0.482-15.717-0.92-21.692-0.409v-1.229c0.329-0.216 0.665-0.427 1.228-0.409 7.677 0.51 17.412-1.04 23.738 0.82z"
   id="path2050" />
	<path
   d="m19.352 365.91c3.225 1.817 8.416-0.181 11.459 0.409-1.362 2.906-8.473 2.114-11.869 1.637-0.13-0.96 0.066-1.58 0.41-2.05z"
   id="path2052" />
	<path
   d="m37.36 370c1.782 1.359 0.838 4.239-0.409 5.729-1.019 1.218-4.232 3.271-6.548 4.502-2.166 1.151-3.706 2.112-6.958 2.456-3.008 0.317-8.1 0.648-7.367-2.865 1.271-1.222 1.779 0.626 2.865 0.818 8.441 0.665 12.322-3.231 16.781-6.548-0.2-2.11 0.31-3.51 1.636-4.09z"
   id="path2054" />
	<path
   d="m79.516 380.64h0.818c9 0.798 18.69 2.448 27.422 3.684 2.083 0.295 4.523-0.532 6.139 1.228-1.709 1.975-4.992-0.067-7.367-0.409-8.404-1.207-18.38-1.633-26.194-3.684-0.698 0.15-0.774-0.32-0.82-0.82z"
   id="path2056" />
	<path
   d="m118.4 391.69c-20.321-2.518-39.763-6.494-60.164-7.776-0.182-0.364-0.359-0.732-0.819-0.818 0.182-0.364 0.36-0.732 0.819-0.818 13.06 0.815 24.913 3.028 37.245 4.502 5.816 0.694 11.175 2.294 17.599 3.274 1.56 0.25 4.49-0.58 5.32 1.65z"
   id="path2058" />
	<path
   d="m18.533 399.88c0.538 0.145 0.644 0.721 1.228 0.818 0.11 2.976-2.767 2.963-3.684 4.911-0.842-0.521-2.076-0.652-2.046-2.046 2.092-0.64 3.612-1.84 4.502-3.68z"
   id="path2060" />
	<path
   d="m28.356 403.56c5.474 0.611 4.319 11.257-0.409 11.869-1.128-1.775 1.391-3.19 1.637-5.32 0.32-2.77-1.394-4.43-1.228-6.55z"
   id="path2062" />
	<path
   d="m18.533 412.16c-0.422 3.96-9.573 6.095-7.776 0 2.548 2.14 5.65-0.75 7.776 0z"
   id="path2064" />
	<path
   d="m618.13 412.16c1.736 0.704 0.377 3.773 0 4.911-0.88-0.51-1.21-3.8 0-4.91z"
   id="path2066" />
	<path
   d="m23.445 416.25h1.637c0.356 1.554-1.359 1.922-2.046 1.228 0.216-0.33 0.426-0.67 0.409-1.23z"
   id="path2068" />
	<path
   d="m614.04 442.85c0.851 1.469 3.041 1.598 2.865 4.093-2.33 1.6-4.66-2.76-2.86-4.09z"
   id="path2070" />
	<path
   d="m613.22 443.26c-2.558-0.42-2.686-3.342-3.684-5.32-1.023-2.031-2.047-3.929-2.865-6.14-2.699-7.297-4.468-15.552-3.273-24.966-4.169-0.656-3.305 4.584-3.274 6.548 0.126 8.305 3.343 18.923 6.139 24.967 0.424 1.077 1.623 1.378 2.047 2.455 0.525 0.538 0.525 1.509 0 2.047 1.734 0.075 2.762 3.054 4.093 4.911 1.367 1.907 3.022 3.896 4.502 5.32 0.303 1.804-1.325 1.677-1.638 2.865 1.064 4.274-0.66 8.829 1.229 12.278-0.801 0.973-1.282 2.265-2.456 2.865-6.816-3.007-14.719-4.927-21.691-7.776-1.711 0.21-1.123-1.879-2.047-2.456-5.636 0.249-11.026-0.938-16.78-1.637-4.071-0.494-8.596 0.002-12.688-0.818-10.152-2.035-23.886-3.273-35.607-4.502-4.24-0.445-8.785-0.896-13.097-1.229-11.445-0.882-22.953-1.857-34.38-2.864-10.606-0.936-19.828-2.531-31.515-3.274-2.162-0.138-4.29-1.01-6.548-1.229-2.049-0.198-4.05 0.139-6.14 0-8.909-0.589-17.891-2.228-27.013-3.273-7.514-0.862-15.231-0.775-22.51-1.638-3.55-0.421-6.957-0.938-10.642-1.228-14.556-1.143-29.641-3.631-45.021-4.911-17.854-1.487-37.346-2.893-55.253-4.912-8.986-1.013-20.782-2.869-31.924-3.684-5.358-0.392-11.807-0.61-16.78-1.228-3.514-0.436-6.648-1.713-9.414-1.228-3.675 0.645-7.725 3.862-12.278 4.911-4.604 1.061-8.805 0.938-13.506 1.228 3.067 1.862 7.09 1.716 10.642 2.047 5.289 0.493 9.627 0.931 15.552 1.228 2.318 0.116 4.336 0.97 6.549 1.229 3.227 0.376 6.569-0.317 9.823 0 1.789 0.174 3.486 1.031 5.32 1.228 6.942 0.742 15.111 0.397 20.874 2.455 16.812 0.805 34.126 3.032 51.569 4.912 6.788 0.731 13.698 1.916 20.055 2.455 2.601 0.221 5.219-0.272 7.776 0 1.71 0.183 3.222 0.973 4.911 1.229 6.671 1.009 13.443 0.737 20.055 2.046 1.515 0.287 1.021-1.435 1.638-2.046 1.884-0.248 1.153 2.12 2.455 2.455 5.636 0.598 11.284 0.742 16.781 1.229 3.265 0.288 5.838 0.931 10.231 1.228 15.633 1.055 27.64 2.688 43.793 4.502 4.11 0.461 8.239 0.022 12.278 0.409 1.402 0.135 2.711 1.021 4.093 1.228 7.672 1.146 15.744 0.721 23.738 1.638 4.669 0.535 12.038 1.103 18.009 1.637 18.818 1.687 35.515 4.883 53.615 4.502 1.536-0.308 0.893 1.563 2.047 1.638 8.531 0.354 17.735-0.239 22.919 2.455 7.655-0.116 18.108 0.05 26.194 0.409 2.652 0.118 5.831-1.001 7.367 1.229-0.128 2.634-3.016 1.225-4.912 1.228-7.296 0.014-14.062-0.225-19.235-0.409-2.092 1.016-4.202 1.37-6.549 1.228-1.808-0.109-3.532-1.006-5.32-1.228-1.806-0.224-3.861 0.441-5.73 0.409-11.316-0.197-22.618 0.102-34.379-0.409-18.753-0.814-37.938 0.99-54.025-0.818-2.111 1.206-4.113 0.567-7.367 0.409-6.711-0.326-13.95 0.502-21.282 0.409-11.711-0.148-26.277-1.111-40.109-0.818-1.648 0.034-3.599 0.8-5.32 0.818-1.095 0.012-2.077-0.738-3.274-0.818-3.362-0.227-7.333 0.46-11.051 0.409-2.53-0.035-5.153-0.562-7.367-0.409-6.053 0.417-14.433 1.061-21.691 0.818-1.045-0.035-2.227-0.799-3.274-0.818-42.447-0.803-87.493 1.714-133.83 0-13.907-0.515-27.277-0.22-40.928 0-4.786 0.077-9.61-0.843-13.506 0.409-6.284-0.854-12.788-1.277-19.236-1.228-11.012 0.085-22.524 0.836-33.97 0.818-19.104-0.029-38.621-0.893-60.982-0.818-5.967 0.02-11.911-0.41-18.008-0.41-10.978 0-21.644 0.323-32.333 0.41-1.565 0.481-0.267 3.825-2.865 3.273-1.371-0.98-0.285-2.549 0.41-3.684-2.514-5.123-0.709-14.369-0.819-20.055 4.334-2.871 8.593-4.009 11.869-8.186 2.073-2.643 3.135-5.119 4.093-9.413 4.948 0.729 6.723-2.326 10.232-4.502 1.675-1.038 3.776-1.271 4.912-2.047 1.045-0.715 1.961-1.968 3.274-3.683 2.214-2.894 6.088-7.881 6.139-13.098 0.022-2.282-1.681-4.123-1.637-6.548 4.395-1.094 9.769 0.604 15.143 0.409 1.32-0.048 2.339-0.65 3.684-0.819 9.548-1.198 19.477 2.159 28.24 1.638-15.79-4.314-33.328-7.057-49.114-9.413-1.648 0.843-1.972 2.911-3.274 4.093-1.66 1.505-4.248 2.393-6.548 3.273 0.957-3.954 5.754-4.067 7.367-7.366-3.895-2.518-13.232 0.407-15.962-3.274 1.364-2.054 4.008-0.636 6.139-0.409 2.154 0.229 4.708 0.129 6.958 0.409 4.585 0.57 9.79 2.646 14.734-0.409-0.633-1.822-4.461-0.45-4.502-2.865 3.024-1.264 3.923 1.862 6.548 1.637 2.378-0.204 3.708-2.688 4.912-4.911 1.105-2.041 1.177-5.462 3.683-6.139 0.254 4.516-3.181 8.799-5.729 11.869 4.131 2.985 11.603 2.645 16.371 2.455-2.664-2.248-8.998-0.825-11.051-3.684 3.385 0.349 7.271 0.968 10.642 1.638 3.652 0.726 6.987 2.052 10.232 2.455 8.932 1.111 17.54-0.362 25.785 0 9.621 0.423 19.135 0.36 29.468 0.409-0.932-4.661-3.245-7.942-3.274-13.506-4.6-0.931-11.784 1.141-16.372-2.047-25.628 3.66-55.905-0.67-73.261-11.459-0.44-1.661 0.187-2.564 0-4.912 2.393-0.335 3.486-1.971 5.321-2.864 6.95 0.266 11.28-2.09 16.78-3.274-1.538-1.479-3.889-0.335-5.73-0.409-2.388-0.097-4.778-1-7.367-1.229-1.872-0.165-3.894 0.207-5.729 0-1.487-0.167-2.6-0.993-4.093-1.228-1.621-0.254-3.223 0.147-4.912 0-1.852-0.161-3.53-0.951-5.321-1.228-1.546-0.238-4.535 1.104-5.32-1.228 1.006-1.861 3.167-0.577 4.502-0.41 4.344 0.544 10.686 1.636 17.19 2.047 4.993 0.315 9.488 1.267 15.552 1.637 1.807 0.11 3.32 0.633 4.912 0.409 2.531-0.354 4.562-2.385 6.548-3.273 2.705-1.211 4.871-1.516 7.367-3.274 1.358-0.958 2.398-1.989 4.911-2.456 1.367-1.767-1.949-1.681-1.228-4.093 2.3-1.655 6.578-1.334 9.822-2.046-1.427-1.852-6.245 0.015-9.004-1.229-2.197-0.989-2.272-2.542-2.865-4.911-1.467 2.303 0.229 11.33-4.912 10.642-0.203-2.998 2.708-5.934 2.456-9.414-0.239-3.291-2.553-4.577-4.502-6.957 0.099-1.675 1.151-2.396 1.637-3.684-1.705-4.348-5.345-10.164-9.823-9.823-3.913 0.299-3.771 5.086-7.776 6.14-0.347-3.847 3.901-4.97 5.321-7.776 2.607-5.154 1.17-11.06-1.228-15.144-3.208-5.464-7.822-9.038-16.78-8.595-0.559-0.806-0.391-2.338-0.819-3.274-1.348-2.335-4.274-3.092-6.548-4.502-2.804 1.044-6.067-0.196-9.004 0-2.754 0.185-4.847 1.908-6.958 1.228 1.211-1.537 4.437-2.672 6.958-2.864 2.886-0.221 7.324-0.138 9.823 0.409 2.897 0.633 4.634 3.129 6.958 3.273 0.392 1.245 0.826 2.448 1.228 3.684 3.031 0.255 6.675 0.385 9.413 1.638 2.964 1.355 6.78 6.046 8.595 9.413 2.519 4.673 2.677 8.644 0.409 14.734 4.179 1.818 10.356 3.995 11.46 9.004 0.454 2.062-1.125 4.678 0.409 6.549 2.057-0.517 0.81-3.138 0.818-4.911 0.016-3.284 0.202-6.935-0.818-10.232-0.081-1.581-0.015-3.016 0.409-4.093-3.066-0.571-5.786 0.145-8.186-0.409 0.113-3.979 6.58-1.605 9.414-2.865 0.11-2.839-0.36-5.097-1.228-6.958 1.431-6.973 5.477-13.916 8.595-20.464 0.167-0.985-0.748-0.89-0.409-2.046 1.387-1.751 2.748-3.528 2.865-6.549-1.859 0.194-4.9 2.734-4.911 6.14-2.642 2.135-5.657 6.072-6.139 9.004-3.769 2.234-5.173 6.833-9.414 8.595-0.867-4.28 3.524-6.236 5.73-9.004 2.287-2.87 3.582-6.525 6.139-9.004-0.392-3.803 0.966-5.855 2.046-8.186-5.458 0.169-10.586 6.296-15.962 6.548 0.417-6.132 10.008-7.375 14.325-11.46 10.229-3.381 17.709 3.972 27.013 5.321 0.064-1.838-2.922-0.625-2.456-2.865 5.849-0.715 9.375 2.277 14.734 4.093 1.868 0.633 3.374 1.443 4.911 1.228 2.949-0.414 8.622-7.327 10.642-10.231 2.467-3.549 4.065-6.962 8.186-9.004 0.837-2.339 0.411-3.408-1.228-5.321-1.658-1.936-5.053-5.319-8.186-4.911-4.137 0.539-5.109 5.893-8.595 7.367-1.674 0.1-3.946-0.398-4.502 0.818 0.438 1.608 2.445 1.984 3.683 2.865 1.268 0.901 2.485 1.518 3.274 2.864-0.834 3.668-0.187 8.818-4.911 8.595-0.221-4.064 0.485-10.981-3.274-12.688 1.21 2.2 1.457 5.365 1.228 9.005-1.165 0.995-1.493 2.197-2.865 2.046-0.907-1.012-0.862 2.389-2.865 1.637-1.485-4.537 3.351-6.16 3.684-10.231-0.546-1.501-2.747-1.346-4.093-2.046-0.405-2.051-2.618-2.294-3.684-3.684-3.825 1.06-10.144 4.16-14.734 3.273 0.754-2.854 4.883-2.461 7.367-3.273 2.716-0.89 5.245-1.798 6.958-3.274-1.849-3.999-3.746 0.626-6.549 2.046-1.991 1.009-3.955 1.268-5.73 1.229 0.131-0.961 0.647-1.537 0.41-2.865 1.704-1.434 5.118-1.158 6.958-2.456 0.453-3.736-0.231-5.307-1.637-7.776-2.599-4.562-6.776-4.697-13.097-6.958-2.305-0.824-3.629-1.683-6.549-2.046-1.748-1.617-2.663-4.225-4.502-5.73-1.073-0.878-2.401-0.801-3.274-2.046 1.732-1.961 3.705 0.613 4.911 1.637 1.575 1.338 2.557 3.03 4.093 3.684 1.923-0.533 4.123-0.789 5.321-2.046-2.6-1.587-5.545-1.125-8.595-2.456-4.722-2.061-7.974-6.87-14.734-6.958-1.45-0.019-4.095 0.547-5.73 1.228-3.26 1.358-4.466 3.739-7.367 6.139-3.207-0.494-5.228 1.063-8.186 1.637-1.759 0.341-3.109-0.133-4.093 0.409-1.466 0.808-1.88 2.839-3.274 4.502-1.674 1.999-4.182 3.222-5.321 4.911-1.625 2.411-2.146 5.83-3.274 8.186 1.797 1.273 4.028 1.789 6.139 2.865 3.562 1.815 5.662 3.08 8.186 6.549 1.597 2.195 1.951 2.583 2.865 5.729 1.002 3.45 1.817 7.832-0.409 11.46 1.563 2.257 4.855 2.784 6.139 5.32 0.03 4.532 0.28 9.284-2.046 11.46-3.254-1.989 1.131-5.958 0-10.231-0.852-3.22-3.672-3.682-7.367-4.503-0.724-4.318 2.542-6.215 2.456-9.822-0.009-0.386-0.866-4.031-1.228-4.911-1.309-3.184-4.933-4.69-5.73-8.186-3.81-0.393-7.402-4.747-11.869-5.321-2.573-0.331-8.389-0.828-10.232-0.409-3.096 0.702-3.088 3.645-4.912 5.73-1.504 1.72-2.966 1.745-4.502 3.274-1.366 0.212-1.282 3.33-2.865 2.046-1.185-5.101 7.119-5.063 7.776-9.823-2.629-1.46-4.653 3.159-6.958 2.046 0.455-2.274 3.542-1.916 4.502-3.684-0.977-3.116-6.019-2.167-8.186-4.093 0.086-1.519 1.905-2.899 3.274-3.274 5.526-1.513 16.186 2.587 18.417-1.637-6.515-1.28-17.263 0.486-22.51-0.818-0.219-1.993 1.632-1.916 2.046-3.274 10.578 0.744 19.482 2.036 28.24-1.228 0.655-2.756 1.224-5.597 4.502-5.73-7.634-0.802-18.897-0.334-28.24 0-2.196 0.079-5.927 1.527-5.73-1.637 1.015-1.589 3.261-0.813 4.912-0.819 5.603-0.019 11.76 0 18.417 0 9.651 0 19.766-0.649 26.194 1.228 4.795-0.662 5.622-5.292 10.232-6.139-0.328-2.102 0.439-3.108 0.819-4.502-18.29-0.45-34.412-0.265-50.342 0.41-1.739 0.074-3.822 0.058-5.729 0-1.237-0.038-4.204 0.963-4.912-1.228 0.218-2.626 3.478-1.224 4.912-1.228 21.069-0.054 32.734-0.296 56.48 0-0.802-4.198-0.683-10.261-1.228-13.506-20.917-0.11-38.792-1.141-61.392 0.409-1.02-1.225 0.272-2.758 1.637-2.865-0.443-0.836-1.962-1.673-0.818-2.865 6.523-0.465 14.984 0.528 22.51 0.409 0.817-16.565-0.276-33.852 1.228-50.341-3.538-1.01-10.514-0.309-15.962 0-2.464 0.14-6.924 1.782-6.958-2.046 0.658-1.96 2.821-0.373 4.093-0.409 6.106-0.176 11.579-0.768 18.008 0 1.259-3.895-0.091-8.646 0-13.506 0.174-9.226-0.06-18.936 0.819-27.012-2.535 0.091-4.994-0.12-7.367 0-3.726 0.188-6.096 0.531-10.641 0.409-2.594-0.069-6.694 1.66-6.139-2.865 6.169-0.776 15.239 1.069 21.692 0-3.362-16.011-7.568-31.177-11.46-46.658-3.651-0.631-8.06 2.111-9.823-0.409 0.093-4.266 6.875-0.617 9.004-2.046-1.454-7.634-5.283-16.354-6.995-25.012 0.073-1.438-1.382-1.346-1.637-2.456 0.556-3.557-0.98-5.022-1.228-7.776 1.943-1.006 3.293 0.703 5.729 0.409-0.877 4.806 1.93 9.065 2.866 13.506 0.287 1.36 0.097 2.734 0.409 4.093 0.243 1.06 0.986 2.161 1.228 3.274 0.533 2.458 0.292 5.215 0.818 7.776 0.45 2.191 1.548 4.237 1.637 6.548 13.76-0.477 28.429 0.338 44.611 0.409-2.342-11.983-6.379-22.27-9.004-33.97-1.928-1.515-0.905-5.995 2.456-5.73 2.025 0.141-0.34 1.075 0 2.047 1.05 0.042 0.658 1.525 1.228 2.046-0.235 0.72 0.495 2.405-0.409 2.456 2.263 5.622 3.438 12.167 4.912 18.827 0.827 3.739 2.023 7.524 2.865 11.46 1.046 4.893 1.655 8.755 2.865 14.325 0.468 2.154 1.467 5.733 2.456 9.004 0.273 0.905 0.943 1.426 1.228 2.456 0.548 1.981 0.589 6.078 1.228 9.004 1.092 5.006 2.661 9.8 4.093 14.325 1.109-27.451-1.255-59.506 0.409-84.721 4.834 0.721 0.943 5.726 2.046 10.641 2.639-0.402 0.654-1.583 0.819-3.683 1.515-0.94 1.31-3.602 4.093-3.274 2.458 1.22-3.941 3.826 0 4.502-0.433 2.046-5.787 4.524-1.637 6.139 1.571-0.53-0.252-2.938 2.046-3.274 2.173-0.536 1.812 1.462 3.274 1.637 2.056-1.082 3.664-2.612 4.502-4.912 3.679-0.55 3.854-4.605 7.776-4.912 2.007 2.387-1.772 4.522 0.818 6.958 2.461-0.404 1.219-4.511 4.502-4.093 1.845 2.616-3.29 3.306-1.228 6.139 4.449 2.53 3.292-6.248 6.139-5.321 1.792 0.225-0.703 4.417 0.409 5.321 1.919 0.895 3.969-0.333 4.502-2.046-0.744-1.678-4.439-2.24-3.274-4.502 2.372-1.036 2.37 1.359 5.729 0.818 3.091-0.498 4.443-5.006 6.549-4.911 3.911 0.175 1.726 4.901 1.637 6.958-0.074 1.721 0.856 4.664 0.818 6.548-0.016 0.792-0.715 1.674-0.818 2.456-0.369 2.779 0 6.478 0 9.823 0 14.763 0.304 33.057-0.41 50.341-0.179 4.337 0.3 8.513 0.41 12.688 0.571 21.868-0.885 44.532-0.41 64.666 0.209 8.862-1.218 17.756-1.228 27.422-0.011 1.375 0.563 2.165 1.228 2.865 0.122 1.076-1.588 0.322-1.228 1.637-0.31 4.907-0.367 9.74-0.409 13.916 5.598 1.217 10.502-0.664 14.734 0.41 1.544-5.861 0.354-11.119 0.818-17.19 0.091-1.185 0.649-1.484 0.819-2.456 0.71-4.084 0-9.496 0-14.325 0-60.588 1.468-119.31-0.409-165.76 1.542-0.315 1.956 0.499 3.274 0.409-0.25 26.03 0.325 51.979 0.409 77.763 0.06 18.069-1.323 36.127-0.818 54.434 0.059 2.121 0.132 4.178 0 6.548-0.629 11.298 0.454 23.057 0 34.379-0.134 3.351 0.206 6.599 0 9.823-0.073 1.137-1.035 1.732-1.228 2.865-0.622 3.648 0.524 9.134 0 13.097h15.962c2.059-1.175-0.157-4.187 2.046-5.32 2.446 0.178 0.685 3.722 0.819 5.32 44.556-0.063 92.142 0.11 133.02 0.819 7.619 0.132 14.316-0.35 20.874-1.637 4.221-0.829 8.141-1.908 12.278-2.456 3.416-0.453 6.978-0.092 10.642-0.41 1.177-0.102 2.139-0.754 3.274-0.818 10.887-0.618 20.274 0.521 29.877-0.409 0.403-1.328-0.233-3.749 0.409-5.73-2.235-1.004-4.036-0.658-6.957-0.409-11.756 1.002-24.389 0-36.836 0-29.75 0-56.772-0.819-87.176-0.819-29.366 0-56.098 0.441-85.949 0.41-0.283-0.809-1.091-1.091-2.046-1.228-0.335-43.342 0.41-84.971 0.41-121.96 0-21.01 0.098-41.794 0-63.029 2.061-0.414 4.643-0.278 6.548 0-0.001 2.02-0.212 4.172-0.409 5.321-0.142 0.827-0.74 0.614-0.819 1.228-0.952 7.426 1.205 16.463-0.818 23.329 5.262 1.091 11.486 0.177 17.189 0.409 5.528 0.225 13.462 0.171 20.874 0.409 0.438-6.95 0.749-15.034 0.409-22.51-0.186-4.096-1.654-8.412 0.409-11.051 1.857 0.486 2.452-1.521 3.684-0.409-1.61 10.976-0.084 21.42-1.637 33.561 13.668 0.785 30.869 0.326 45.43 0.409 0.437-9.509-0.328-22.261 0-32.333 2.019-0.306 2.483-0.306 4.502 0-1.69 11.23-0.991 22.06-1.637 31.924 14.646 0.747 27.445 0.125 42.975 0.409 0.559-6.056 0.644-17.378 0.409-25.785-0.073-2.607-1.054-5.492 1.228-6.548 3.558 0.261 2.159 4.353 2.046 6.958-0.361 8.375 0.545 17.748-0.819 24.966 16.042 1.071 24.588-0.729 41.337 0.409 0.021-5.451 0.437-16.456 0-24.966-0.171-3.328-1.582-6.552 0.409-8.595 5.963-0.208 0.16 8.612 3.274 12.278-1.715 3.935-0.695 8.425-0.818 13.097-0.068 2.567-0.762 5.252-0.409 8.186 10.394-0.198 24.2 0.077 34.379 0-0.601 3.158-4.549 2.4-7.367 2.456-9.125 0.181-20.271-0.049-27.012-0.409 1.062 17.701 0.699 35.62 0 53.207 10.942 0.278 24.654 0.69 35.197 0 1.941-22.949-1.295-49.284 0.41-71.624 0.15-1.983 0.093-4.448 0-6.549-0.134-2.995-2.065-6.833 0.818-8.186 3.58 0.761 1.642 3.77 1.637 5.73-0.054 23.935-0.221 47.001-0.409 70.805-0.239 30.331-0.12 66.007 0.409 102.32 0.073 5.005-1.38 8.929-0.409 14.325 1.337 0.338 2.68 0.913 4.502 0.409 1.271-0.351 0.941-0.486 3.274 0 2.175 0.454 4.753 0.432 7.776 0.818-0.509-15.547 0.217-31.307 0.409-47.067 0.485-39.756-0.75-84.05 0.409-126.06 0.229-8.262-1.471-14.617 0-21.692 1.795-0.431 1.345 1.384 2.865 1.228-2.11 33.838 0.637 71.489-1.228 112.55-0.811 17.844 0.814 36.898 0 54.843-0.159 3.49-0.955 6.847-0.819 10.232 0.179 4.45 2.425 10.126 1.229 15.143 1.96 1.797 4.948 1.458 7.366 1.637 3.719 0.276 6.921 0.203 11.869 0.818 6.058 0.753 11.901 2.983 18.009 3.684 10.17 1.167 23.779-0.181 33.561 0 16.743 0.311 34.116-0.03 50.342 0 11.532 0.021 22.781 0.375 33.561 0.409 3.839 0.012 8.901-1.964 13.097 0 5.169-0.89 12.416-4.224 18.009-3.684 2.796 0.271 5.323 2.39 8.186 2.865 2.313 0.384 4.788-0.399 7.367-0.409 8.798-0.036 18.758-0.562 25.784 0.409 1.454 0.201 4.151-0.996 3.684 2.046-2.041 1.353-5.13 1.29-7.776 1.228-8.249-0.194-16.974-0.523-25.375-0.41 0.481 3.069 5.334 5.304 7.367 8.186 7.183-0.513 12.383 0.084 19.236 0 1.516-0.018 3.637-1.249 4.911 0.41-0.684 4.458-7.138 2.179-11.051 2.046-4.181-0.142-8.456 0.402-12.278 0.409-2.294 1.389-1.808 5.559-5.32 5.73-0.475 2.391-1.997 3.732-2.456 6.139-3.617 0.202-3.478 4.163-5.32 6.139 2.085 3.781 7.915 3.817 10.641 6.958-0.144 2.993-3.877 2.398-5.729 3.684 1.329 1.942 3.6 0.076 5.32 0 1.431-0.063 3.092 0.498 4.502 0.409 2.212-0.141 4.158-1.503 6.14-0.819 1.01 1.232 0.527 1.827 0.409 3.684-0.264 1.511-2.563 0.984-3.684 1.638 5.486 1.744 14.406 0.055 16.371 5.32-0.748 0.616-0.963 1.766-1.637 2.456-2.756 0.436-3.83-0.809-6.14-0.818-1.534 0.375-1.673 2.146-2.455 3.273-3.932-0.521-3.473 3.35-6.958 3.274 0.126 4.011-0.087 10.682 0 15.962 5.503 3.502 20.291-2.282 20.055 6.958-5.146 1.003-10.919-2.179-16.371-0.818-1.621-2.014-7.123-1.182-11.051-1.638-5.644-0.654-11.649-1.354-17.599-2.046-4.542-0.528-9.153-1.523-13.507-2.047-5.344-0.643-10.951-0.574-16.371-1.228-11.066-1.335-22.026-2.888-31.924-3.274-9.183-0.358-19.483 2.212-24.557 9.413 2.088 1.933 4.23 1.53 7.776 1.638 5.143 0.155 9.09-0.026 14.734 0.818 9.527 1.427 20.694 1.82 32.333 3.274 12.646 1.579 25.514 4.097 38.062 3.684 1.455-0.637 0.247 1.39 1.229 1.228 11.142 1.024 25.658 0.407 36.835 4.093-0.051 2.438-0.397 2.775 0.409 4.502 0.077 1.987-2.39 1.431-2.456 3.274 0.105 0.851 1.799 0.112 2.047 0.818-1.338 1.351-0.252 3.525-0.409 5.321-0.104 1.179-0.76 2.19-0.819 3.273-0.171 3.125 0.476 7.004 0 11.46-0.245 2.306-1.084 4.285 0.41 6.549 0.069 1.024-0.629 1.281-1.229 1.637 1.921 2.717-1.2 3.869 0.409 6.549-3.489 0.331-5.602 2.038-8.595 2.865-1.054 0.446-1.967 1.034-2.455 2.046-2.938 0.546-5.924 2.434-8.186 3.684-3.053 1.687-5.698 2.744-8.186 4.502-2.392 1.69-4.458 4.127-6.958 5.73-2.626 1.684-5.33 3.089-8.186 4.502-1.575-0.198-0.575-2.973-2.456-2.865-1.2 2.315 2.311 2.948 0.409 5.32-1.704 1.021-2.388-1.021-4.093 0 0.275-1.821 1.171-2.114 0.409-4.093-1.557-0.602-0.08 1.83-1.637 1.229-0.717-1.449 0.272-1.007 0.409-2.456-2.951-11.465-3.906-24.214-6.139-36.017-0.459-2.422-1.364-5.646-2.047-9.413-0.264-1.458 0.427-4.8-2.047-4.912-1.721 1.308-0.293 3.701 0 5.321 0.845 4.663 1.66 11.231 2.865 17.599 0.37 1.956 1.268 3.701 1.638 5.73 1.343 7.372 2.323 14.551 3.273 20.873-2.546-0.122 0.119-5.961-3.273-4.093-1.181 2.418 1.815 4.18 2.864 5.729-2.764 2.336 1.552 5.51 0.409 8.595-4.989 2.515-9.97 5.037-13.915 8.596 6.731 0.437 11.251-4.834 17.599-6.14 1.699 1.576 2.405 4.144 3.274 6.549 2.324 0.54 1.959 3.771 4.502 4.093 0.451 2.088-2.906 0.367-2.455 2.455-0.046 1.547 0.801 2.201 2.046 2.456 0.537-0.121-0.716-3.09 1.228-2.865 2.606-1.178 2.669 2.821 4.503 3.684 1.344-1.108-1.121-1.854-0.819-3.274 3.317 1.186 5.74 3.265 6.958 6.549-3.043 2.932-5.877 6.165-9.004 9.004-3.094 2.811-6.736 4.971-9.823 7.776 2.974-0.271 5.743-2.539 8.186-4.502 2.789-2.24 5.273-5.174 7.367-7.776 1.612-0.707 3.24-1.398 4.093-2.865 2.568 0.024 1.851 3.334 4.503 3.274 0.112-4.072-4.911-6.547-7.367-9.413-1.718-3.266-4.381-5.723-6.549-8.595-1.056-1.398-1.82-3.032-2.865-4.502-0.963-1.355-3.114-2.428-2.864-4.503 1.007-1.09 2.267-1.017 3.273-1.228 10.098-8.729 20.976-16.679 33.971-22.51 1.105-2.17 4.449-2.1 6.548-3.274 1.128 0.782 2.083 1.737 2.865 2.864 0.377 1.741-2.701 0.027-2.455 1.638 0.921 4.931 0.889 11.057 0 14.733-0.027 1.664 2.381 0.894 2.046 2.865 0.466 3.449-2.045 2.74-3.274 3.684 0.177 0.915 2.018 0.166 2.865 0.409-1.049 3.867-0.662 8.896-0.409 14.325 0.19 4.087-0.61 8.44-0.409 12.278 0.191 3.665 0.542 7.104-2.047 9.413-0.98-0.247-1.867-0.588-3.273-0.409-0.97 8.166-0.045 15.895 2.455 22.102 0.872 2.165 2.76 3.752 2.456 6.139-2.701 1.38-2.856-2.341-4.093-3.684-0.15 3.151 1.925 4.078 2.455 6.549 0.177 1.324 2.67 0.332 2.047 2.456-0.57 1.76-2.7-0.39-3.23 1.61zm-499.73-433.84c-0.779 3.708-2.305 5.436-5.32 5.73-1.317 0.128-2.222-1.232-3.684-1.228-1.653 0.004-2.352 2.155-4.093 1.228-1.686 0.186-1.536-1.466-2.865-1.637-2.142 0.586-1.634 3.824-4.502 3.684-0.011-2.74 1.865-3.593 2.046-6.139-2.193-0.01-2.822 1.543-4.911 1.637-0.254 1.519 0.666 4.212-0.819 4.502-2.059 0.013-0.375-3.717-2.046-4.093-2.969 3.089-6.94 5.979-12.278 3.684 0.962 6.287 0.021 9.396 0 16.78 11.936 0.169 26.552 0.796 38.063 0.819 1.212 0.002 3.988-1.682 4.502 0.818-1.344 1.161-3.647 1.114-5.321 1.228-3.895 0.266-8.23 0.121-11.869 0-8.2-0.273-16.906 0.02-25.375 0 0.746 18.707 0.263 33.817 0 52.388 14.332-0.478 29.783 1.337 44.202-0.409-0.272-27.286 0.546-55.662-0.409-82.265-1.07 1.811-2.98 2.758-5.33 3.273zm36.83 33.561c-0.17-7.013 0.514-13.606-0.409-20.464-0.44 5.788-1.17 15.344 0.41 20.464zm2.46-6.139c0.187 19.116 0.204 32.307 0 52.388 11.944-0.069 25.404 0.044 38.472 0-0.184-21.887 0.01-33.876-0.409-52.388-11.81 0.657-26.26 0.684-38.06 0zm40.52 0.409v0.819c0.526 4.828 1.64 11.92 0.41 15.962 1.083 0.712 0.752 2.009 0.818 2.865 0.808 10.503-1.253 21.597-0.818 32.333 14.681 0.424 29.429 0.052 45.43 0.819-0.451-20.554-0.313-32.686 0-52.797-14.8 0.672-31.18-0.017-45.84-0.001zm48.29 0c-0.33 9.418 1.853 19.731 0 27.422 1.941 7.389-0.208 17.065-0.409 24.966 16.454 0.663 27.64 0.97 43.793 0.41 0.162-16.652 0.332-35.073 0-53.207-12.47 0.785-29 0.255-43.38 0.409zm47.07-0.409c-0.483 0.198-0.928 0.437-1.228 0.818 2.086 18.483-0.042 35.623 0.41 52.797 12.888-0.945 27.35 0.936 41.337-0.409-0.099-17.593-0.381-32.987-0.409-53.207-14.92 0.083-25.65 0.443-40.11 0.001zm-273.81 5.73c3.036 11.401 7.025 25.612 9.823 38.881 0.502 2.384 0.102 4.936 1.637 6.958 15.531 0.262 28.086 0.393 44.202 0.409-3.712-14.027-7.692-31.324-11.46-46.658-11.583-0.328-29.61-0.6-44.202-0.819v1.229zm134.65 34.379c0 4.416-0.678 8.747 0.819 11.869-0.193-12.328 0.491-31.234-0.409-45.43-0.35 11.93-0.41 21.066-0.41 33.561zm-121.96 53.614c16.982 0.748 29.262 0.033 44.611 0.409-0.277-15.29 0.384-25.724 0.409-40.109-14.415-0.035-28.595 0.441-45.021-0.409 0.75 10.778 0.657 27.888 0.001 40.108zm121.96 1.64c1.555-0.873 0.782-3.054 0.819-4.502 0.33-12.845 0.167-27.63-0.409-37.244-0.91 13.954-0.08 27.164-0.41 41.744zm-74.486-41.338c-0.145 14.483-0.197 26.296-0.818 40.109 12.317 0.93 22.688 0.36 33.561 0.818 3.38 0.143 8.805-1.247 9.823 0.819-3.69 2.104-9.421 1.182-14.734 1.228-10.894 0.095-22.138-0.57-28.649-0.409 1.396 17.914-0.761 33.132 0 47.067 8.357-1.917 13.994 1.191 19.236 4.502 7.59-1.88 15.453 0.56 24.557-1.228 0.143-32.937 1.426-58.445 1.228-92.906-14.44 0.946-29.208 0.359-44.206-0.002zm77.766 0c-0.138 14.959 0.281 29.172-0.409 40.928 11.658-0.271 25.707 0.439 38.472 0.409 0.156-14.938-0.312-27.521 0.409-40.519-11.78-1.17-28 0.329-38.47-0.819zm40.92 0.409c0.071 11.805 0.088 29.304-0.41 40.928 15.603 0.129 30.174 0.572 45.43 0.41 0.014-16.34 0.097-27.309 0.409-40.519-13.81-0.897-30.44-0.144-45.43-0.82zm47.48 0.818c1.494 13.056-0.024 26.876 0 40.519 13.323-0.028 28.475 0.471 43.793 0-0.419-15.648-0.229-24.319 0-40.109-17.43 0.134-27.95-0.794-43.79-0.412zm88 0.41c-0.41 0.001-0.487-0.332-0.818-0.41-14.07 0.296-28.483-0.303-40.928 0.41-0.404 4.378 0.516 8.627 0.41 13.097-0.034 1.427-0.883 2.967-0.819 4.502 0.054 1.305 0.809 2.747 0.819 4.093 0.006 0.969-0.762 2.22-0.819 3.274-0.152 2.805 0.897 5.945 0.819 8.595-0.072 2.412-1.686 4.738 0 6.958 15.882-0.279 24.626-0.011 40.928 0 0.29-13.96-0.48-28.36 0.41-40.511zm2.86-0.819c-0.411-0.001-0.487 0.332-0.818 0.409v0.819c0.532 7.08-0.931 18.899 0.818 27.421-1.221 2.982-1.075 8.989-0.818 12.279 12.173 0.558 25.646 0.941 35.607 0 0.041-13.323-0.185-28.382 0-40.519-9.56 0.627-22.59 0.343-34.79-0.411zm-303.68 41.34c-1.412 2.413-0.262 5.326-0.409 8.186-0.669 13.004-0.826 28.041-0.819 42.565 12.553 0.293 26.726 0.549 40.109 0 1.11-1.209 2.833-1.806 4.502-2.456-0.637-17.042 0.448-30.001 0.409-48.295-16.617 0.22-29.653 0.57-43.792 0.01zm120.73 35.61c-0.025 2.039-0.412 4.096-0.409 6.139 0.002 1.65-0.896 4.462 1.228 5.73-0.059-15.217 1.142-31.267 0-47.067-0.74 11.03-0.68 24.15-0.82 35.2zm4.1-34.38c-0.514 0.167-0.836 0.527-0.818 1.228 1.62 19.086-0.863 31.657-0.409 49.523 14.281-0.233 26.021 0.431 38.472-0.409-0.016-14.739 1.061-33.729 0-50.341-13.39 0.47-22.22-0.1-37.24 0zm40.92 0c-0.484 0.198-0.928 0.436-1.228 0.818 1.036 3.129-0.262 7.188 0 9.414 0.008 0.068 0.74 0.535 0.819 0.818 0.132 0.479-0.028 1.139 0 1.637 0.684 12.398-1.331 25.014-0.819 38.063 12.472 0.7 30.677 0.003 45.43 0.818-1.225-18.468 0.676-32.691 0.409-51.16-17.59 0.36-29.22 0.68-44.61-0.41zm47.07 0.81c-0.25 0.023-0.484 0.061-0.409 0.409 0.86 4.067-0.583 8.703 1.228 12.278-1.733 2.91-0.693 7-0.819 11.051-0.263 8.473-0.537 18.222-0.818 26.603 14.551 0.143 28.958 0.662 45.021 0.409-0.95-2.87 0.393-8.033-1.228-10.232 1.137-1 0.745-2.559 0.818-3.684 0.356-5.46-0.043-10.938 0-16.78 0.045-6.04-0.033-12.619 0-20.055-12.69 0.07-32.47-0.08-43.79-0.01zm45.84 0c1.462 15.424-0.168 34.313 0.409 51.16 13.723-0.411 28.288 0.285 40.928 0 0.476-16.233 0.306-32.33 0.409-50.751-16.69-0.37-25.71-0.14-41.75-0.41zm44.2 0c0.462 17.996-0.688 34.136 0 51.16 9.169 0.21 25.516 0.188 35.607-0.41-0.875-17.307 0.321-33.491-0.41-50.75-11.56 0.57-21.76 0.17-35.2 0zm-180.49 52.8c-0.857-1.872-0.467-4.99-1.228-6.958-0.75 1.19-1.5 7.38 1.23 6.96zm-53.206 3.68c-2.744-1.483-4.435-4.532-6.958-6.139-1.917-1.221-5.084-2.437-7.367-2.865-8.43-1.58-12.854 2.556-18.008 4.911 0.104 2.351-0.306 5.218 0.41 6.958 4.676 2.004 8.418 3.116 14.734 2.865 0.707 0.248-0.031 1.941 0.818 2.046 1.075-0.786 3.377-3.305 4.093-0.818 0.491-0.874 0.5-2.229 1.637-2.456 5.856 1.214 11.205 0.763 17.19-1.228-1.27-2.73-4-1.89-6.546-3.27zm-93.725-5.73c0.046 0.5 0.122 0.969 0.818 0.819 9.665-0.143 15.942-0.105 25.785-0.819-6.867-0.51-19.868-0.68-26.603 0zm27.831 0c0.354 1.556 3.12 0.373 5.32 0.41 6.092 0.101 15.512 1.05 20.055 0-7.703-0.81-19.449-0.34-25.375-0.41zm76.54 1.23c2.623-0.187 4.546 1.167 5.73-0.818-1.05 0.29-5.53 0.04-5.73 0.82zm44.61 0.41c12.495 1.25 27.935 0.783 41.337 0.818 7.61 0.021 14.874-0.02 21.692 0 1.803 0.005 3.806 0.851 5.32-0.409-25.47-1.12-44.02-1.5-68.35-0.41zm74.08 0.41c-0.878-0.758-2.998-0.276-4.502-0.409 0.44 1.57 3.63 1.46 4.5 0.41zm7.36 0.41c2.46-0.268 5.996 0.539 7.776-0.409-2.54-0.22-6.26-0.5-7.78 0.41zm-134.65 0.82c0.962 1.902 3.677 2.052 5.32 3.274-0.627 1.992 1.188 1.541 1.228 2.865-2.468 0.869-0.873 3.26-2.865 4.502h-6.139c-0.565 2.885 0.918 3.721 0.819 6.139-1.868 0.207-2.32-0.71-3.684 0-0.709 1.394 0.314 2.4 0 4.502-1.037 2.51-4.662 2.432-4.502 6.139 2.408 1.193 5.537 0.738 6.958 2.046-1.171 2.375-5.207 1.888-6.548 4.093 11.728 0.301 24.005 0.89 37.244 1.228 1.079-0.285 0.865-1.863 2.046-2.046 5.685-1.41 10.164-4.025 14.734-6.548-13.397-0.164-30.633 1.607-43.384 0.409-1.323-0.124-4.39 0.973-4.911-1.228 3.391-1.489 7.55-0.819 11.459-0.819h36.835c1.529-0.438 1.167 1.016 2.456 0.819 1.646-1.09 3.712-3.918 6.139-2.865-3.33 5.947-12.237 6.316-17.189 10.642-1.369 0.405-3.187 0.36-3.684 1.637 2.76 2.102 9.442 2.172 9.004 6.139 3.571-1.204 4.431-5.119 6.548-7.776 2.31 0.146 4.272 0.639 4.912 2.456-1.64 2.729-2.932 7.978-6.548 7.367 0.457-3.212 5.271-5.556 3.683-8.186-2.643 1.586-3.476 4.982-5.32 7.367-1.562 0.621-3 1.366-4.093 2.456 0.409 2.183-0.699 2.849-1.228 4.093 2.059 1.352 4.034 2.788 6.139 4.093 3.048-1.864 6.127-3.696 8.595-6.14-1.211-0.717 0.236-2.181 0-3.274 1.104-2.17 4.908-1.64 5.32-4.502-3.396-0.795-4.069 3.288-6.958 1.637 4.521-5.438 13.084-6.833 17.599-12.278-5.48-0.795-9.269-3.282-13.915-4.912-0.383 3.028 1.058 7.88-2.046 8.186-1.123-4.109 0.848-11.852-0.41-16.781-14.71 0.328-32.301 0.462-48.295 0.409-1.721-0.005-3.883 1.692-4.911-1.228 4.007-1.859 11.423-0.31 16.78-0.818 1.126-3.878 0.507-9.825 0.409-13.506-6.93 0.35-10.63 0.17-17.609 0.41zm-10.642 11.87c-0.789-0.167-0.323-1.587-1.637-1.228-1.912 1.824-1.389 4.61-2.456 6.549-1.552-1.041-2.084-3.101-4.502-3.274-1.53 1.335-1.569 4.161-3.684 4.911-0.748-1.179-0.664-1.28-0.409-2.865-2.744 0.289-4.491-0.421-6.958-0.409-1.232-0.405-1.121-2.154-2.865-2.046v4.911c7.409-0.178 11.179 3.282 15.962 5.73 1.375-1.352-0.686-4.309 0.409-5.321 4.23 0.528 0.875 6.874 4.093 7.776 1.299-2.384 2.639-4.728 4.912-6.139-0.409-3.546 1.385-4.891 1.228-8.186-0.617-0.883-1.506-1.495-2.456-2.046-0.483 0.62-0.354 1.84-1.637 1.65zm491.95 4.91c-1.304-0.96-5.324-3.053-6.549-3.274-4.113-0.743-8.162 1.234-12.278 2.046-2.548 0.502-4.908 0.049-6.548 2.046-0.411 2.866 0.783 4.128 2.455 4.911 1.355-0.742-2.197-2.384 0-2.865 2.049 0.134 2.122 2.244 4.093 2.456 3.142-0.536 5.424 0.553 6.958 0.818 0.929 0.161 1.903-0.148 2.865 0 1.981 0.306 3.114 1.76 4.911 2.456 3.45 1.335 7.232 1.314 10.231 3.274 0.323 1.687-1.959 0.769-1.637 2.456 2.679-0.323 3.956-2.047 4.502-4.502-2.87-2.45-5.34-7.15-9-9.85zm-424.01-2.05c-0.411-0.001-0.487 0.332-0.818 0.409-0.508 0.941-0.405 3.982-0.409 6.549 4.015 1.285 8.677 3.382 11.869 4.502 2.302 0.808 6.021 0.929 6.549 3.274-1.02 0.753-3.103 0.444-3.684 1.637 1.631 1.233 4.795 0.935 6.548 2.047 0.193 1.285-1.102 1.081-1.228 2.046 1.237 0.127 3.183-0.454 3.274 0.819-0.553 0.129-0.782 0.583-1.637 0.409 1.198 1.803 3.303 2.701 2.456 6.548-0.893 1.29-3.419 0.946-4.502 2.046-0.126 1.491 0.065 2.664 0.41 3.684-0.761 4.896-0.535 12.215-0.819 17.19-0.088 1.545 0.925 4.405-1.228 4.911-2.294-4.381 0.056-9.936-0.41-14.734-0.096-0.986-0.803-1.891-0.818-2.864-0.041-2.594 0.629-5.015 0.818-7.367-3.53-0.699-8.042-0.416-11.869-0.819-2.04 3.963-4.003 8.002-6.958 11.05-0.375 3.143-2.695 5.433-4.093 7.776-1.533 2.569-2.367 5.673-4.912 7.367-1.847 4.838-4.842 8.527-6.958 13.097 0.773 0.182 2.467-0.557 2.046 0.819-0.904 1.153-3.347 2.914-1.637 5.32 8.89-5.755 19.005-11.799 29.059-15.962 4.773-1.977 10.379-2.586 15.962-4.093 1.218-0.329 2.459-1.293 3.684-1.637 5.619-1.58 11.462-2.105 17.599-2.865-0.139-7.722 1.195-18.848 0-27.831 2.983-2.459 9.116 0.197 12.688-2.046-0.237-1.329 0.279-1.904 0.409-2.865-0.709-1.338-3.686-0.407-3.274-2.865 3.366-0.775 4.997 1.543 8.186-0.409 2.325 0.958 2.647 1.293 5.321 0.409 1.405 1.051 1.984 2.927 1.637 5.73 3.722 1.27 8.789 1.193 12.278 1.637 0.484 1.016 0.592 2.409 0.818 3.684 1.555 0.184 2.912-1.061 4.093 0 0.459 6.49 0.75 16.729 1.637 22.101 1.132 0.278 4.194-0.593 6.139-0.818 0.853-8.25 0.257-16.604 0-25.785 1.64-0.211 3.478 0.746 5.321 0.819 1.872 0.074 5.381-0.207 6.139-1.228-0.161-3.114-5.193-1.355-6.139-3.684 1.23-2.952 4.69 0.89 6.958 0.819 2.444-2.295 5.927 0.3 9.414-0.819 2.032 1.099 1.097 3.355 1.637 5.321 2.389-0.204 3.848-2.914 4.911-4.502 1.293-1.932 2.524-4.331 3.274-6.549-32.742 0.343-74.679-1.25-106.82-0.818-2.41 0.032-4.396 0.691-6.549 0.409-0.822-0.107-3.533 0.039-3.274-1.637 1.187-1.575 3.378-0.765 4.911-0.818 1.655-0.057 3.547-0.409 5.321-0.409 34.296 0 76.859 1.25 107.64 1.637 1.963-4.176 6.037-6.241 8.595-9.823-53.09-0.18-97.81-0.61-139.57-0.85zm241.88 4.91c-6.142-1.096-12.435-1.281-18.826-2.046-4.901-0.587-9.715-1.765-14.734-1.637-0.918 0.023-1.765 0.725-2.865 0.818-0.751 0.064-1.979-0.437-2.864-0.409-2.305 0.072-4.87 0.787-7.367 0.819-8.364 0.106-20.658-1.102-29.469 0.409-1.779 0.305-3.745 1.157-5.729 1.637-5.202 1.259-10.684 2.714-13.916 5.321 0.012-0.01-2.363 0.934-0.818 1.637 1.176 0.74 2.36-0.348 3.274-0.818 1.146-0.591 2.128-1.093 3.274-1.637 8.854-4.203 19.667-3.836 31.515-4.502 7.201-0.404 14.41-1.44 21.282-1.637 4.835-0.139 10.136 0.867 15.144 1.228 5.548 0.399 10.981 1.544 16.371 1.637 4.143 2.296 9.189 2.022 13.916 2.865 11.808 2.107 23.684 6.008 33.97 9.004 2.207 0.643 5.003 1.882 6.14 0.819-13.66-5.75-31.77-10.55-48.27-13.5zm94.14 7.37c-2.335-0.72-5.68-0.409-9.004-0.409-3.264 0-6.907-0.63-8.595 0.409 7.113 1.618 12.594 4.869 19.645 6.549 2.52 2.802 6.534 4.107 9.414 6.548 3.608 8.534 5.358 18.925 7.367 29.059 2.666-1.161 2.488-4.585 4.093-6.958 0.412-0.61 1.592-0.896 2.046-1.637 2.913-4.76 3.455-10.023 7.367-13.097 3.639-2.859 7.931-1.978 13.097-2.046 5.913-0.079 10.978-1.829 16.371-3.684 1.184-3.346 0.483-11.677 2.456-15.553-2.152 0.742-4.595 1.16-6.958 1.228-17.55 0.503-38.492-1.023-54.843-0.819-0.276-2.943 3.235-1.971 5.32-2.046 15.063-0.548 27.914 0.38 39.291 0.409 5.567 0.015 11.204 0.431 15.962-0.409-0.572-3.128-4.561-3.557-2.865-7.776-36.028 0.198-82.968-0.023-117.87-0.409 2.258 2.335 5.598 1.196 8.186 1.637 6.466 1.103 11.762 3.233 16.78 4.502 1.166 0.295 2.756-0.002 4.093 0.409 1.553 0.478 2.591 1.427 4.093 1.637 8.602 1.203 16.732-1.105 27.013 0-0.53 1.12-1.65 1.64-2.46 2.46zm87.99 3.27c-0.245-2.893-4.349-1.927-5.32-4.093-3.577-0.111-6.754-2.791-10.232-1.637 5.33 1.77 9.66 4.54 15.55 5.73zm-543.11-2.86c2.184-0.393 6.328 1.87 6.958-0.819-2.814 0.3-5.394-1.11-6.958 0.82zm518.97 13.92c1.943 1.876 3.563 4.076 4.502 6.958 5.365 2.875 10.997-0.145 13.915-3.274 1.105 0.123 0.734 1.722 1.638 2.046 1.222-4.26 5.566-7.496 4.093-13.097-0.317-0.092-0.808-0.011-0.818-0.409-2.205-0.568-1.716 1.559-3.684 1.228-2.381-0.211-3.438-1.747-4.911-2.865-1.356 1.815-2.048 4.458-0.409 6.139-0.232 1.269-1.926 1.076-2.047 2.456 1.456 0.346 2.452-1.185 2.865 0.409v2.046c-1.976 0.072-2.322 1.771-4.093 2.046-2.96-0.996-6.701-1.211-6.958-4.911 0.311-1.054 1.307-1.422 2.865-1.228-0.328-1.419 0.609-1.573 0.409-2.865 2.63-0.573 3.9-4.47 3.684-6.548-3.249 1.631-7.269 0.541-9.414-1.228-0.82 4.08-0.06 9.75-1.64 13.08zm-520.2-12.28c-0.495 1.415-1.108 2.712-0.818 4.912-2.063 1.529-4.752 0.94-6.958 2.865 0.749 1.025 1.387 2.161 2.456 2.865 2.858-3.827 6.969-6.401 9.823-10.232-0.88-0.76-3-0.28-4.503-0.41zm126.88 7.36c4.055-0.038 8.387 0.201 9.414-2.865-3.8-2.01-8.09-0.03-9.41 2.86zm188.68 13.51c-0.929 5.312-0.88 11.029-1.229 15.962-0.123 1.75-2.198 4.884 0.819 5.729 1.797-12.058 2.869-24.257 4.911-36.835-1.052-0.04-0.585-1.598-1.637-1.637-1.01 5.3-2.09 12.35-2.86 16.79zm-130.97-15.55c-0.393 1.896 4.574 1.882 3.684-0.409-1.58-0.22-2 0.73-3.68 0.41zm72.44 16.37c5.144-4.134 8.346-10.208 12.279-15.553-0.092-0.317-0.011-0.807-0.41-0.818-4.32 5.09-9.02 9.81-11.87 16.37zm151.43-5.73c-12.342-3.351-24.574-8.982-37.653-10.232-0.319 0.09-0.477 0.343-0.409 0.819 1.805 1.58 5.979 2.9 9.822 4.911 1.673 0.876 8.622 4.436 9.004 5.73 0.899 3.048-2.284 3.133-2.046 5.729-2.252 0.205-5.363-0.451-6.958 0.409 0.909 2.093 2.34 3.663 2.046 6.958-1.469-0.241-1.979 0.476-2.864 0.819-0.975 1.814 0.387 4.129-2.865 4.092-0.216 1.718 0.715 2.287 0.818 3.684-1.54 0.779-2.378 2.261-4.502 2.456 1.133 2.551 4.785 2.582 4.911 6.14 6.436-0.16 11.605 0.945 17.6 1.228 4.037-3.552 8.521-6.278 13.097-9.004 3.066-1.827 6.49-2.81 9.004-5.321-1.845-4.085-1.394-10.596-3.274-15.552-2.76-1.87-4.02-0.31-5.74-2.88zm-175.99-6.96c0.459 0.086 0.637 0.454 0.819 0.818 2.487 0.44 2.637-1.456 2.456-3.684-2.41-0.36-3.04 1.05-3.28 2.86zm90.45 2.87c0.284 9.497-3.509 20.438-3.684 29.468 4.326-0.012 8.17 2.223 11.869 1.637 1.253-0.198 4.249-1.886 6.139-2.864 4.337-2.246 7.451-4.453 9.414-7.776 1.341-4.274 3.276-6.607 2.864-11.869-1.455-1.819-1.573-4.975-2.455-7.367 1.23-2.726 4.015-3.897 5.729-6.139-0.092-0.318-0.011-0.807-0.409-0.819-9.48 2.24-24.13-0.68-29.46 5.73zm94.96-2.87c5.575 5.339 5.788 16.04 8.595 24.147-0.294 5.752 2.643 8.272 2.456 13.915 1.941 2.476 1.444 5.513 2.456 8.186 1.715 4.537 5.762 6.586 8.595 9.823 1.289 0.459 0.927 0.037 2.456 0-0.289 2.198 2.085 1.734 3.683 2.046 3.795-6.71 10.909-10.101 20.055-11.459-1.429-2.562-5.25-1.675-7.776-2.047-4.735-0.697-10.148-0.886-14.733 0.409-3.222 0.91-5.558 3.404-8.186 3.274-1.712-1.78-1.845-4.29-2.456-6.549-1.767-6.532-4.225-13.083-4.502-20.873-1.731-0.814-0.483-2.314-0.818-3.684-0.678-2.77-3.035-6.27-2.456-9.004 0.424-2.002 2.003-2.69 3.684-3.684 5.51-3.256 14.294-1.915 18.827-1.637 4.062 0.249 5.881 0.08 9.004 1.228 4.2 1.544 6.342 4.85 7.776 8.595 0.897 2.344 0.763 4.624 1.228 6.958 0.194 0.972 1.023 1.878 1.229 2.865 1.215 5.857 2.168 11.856 3.684 17.189 0.461 1.622 0.786 4.783 2.455 4.911-1.202-11.01-3.736-22.969-6.549-32.742-0.354-1.234-0.809-3.31-1.228-4.093-2.062-3.855-11.48-7.85-17.599-7.776-2.228 0.026-3.717-0.22-5.73-0.409-5.785-0.543-11.205 1.146-15.962 1.228-1.192 1.197-2.433 2.382-4.093 2.046-1.394-2.562-3.458-4.454-6.548-5.32-0.01 1.62 1.91 1.34 2.45 2.44zm-229.2-1.64c-1.014 1.884-4.211 0.195-6.139 0.409-0.612 0.752-1.708 1.021-2.046 2.046 3.826 1.915 11.941 3.113 14.734-0.409-2.23-0.62-4.97-0.75-6.54-2.05zm180.08 5.32c-2.425-0.171-3.93-2.482-6.139-3.274-4.017-1.44-7.306 0.187-11.051 2.046-0.696 1.213-1.041 2.779-0.818 4.912 3.412 1.69 7.396 1.366 10.641 2.865 4.939-1.404 9.501 2.942 15.144 0.819-0.131-2.461-2.021-3.163-4.911-2.865-1.57-0.89-2.42-2.5-2.86-4.52zm-385.95 4.51c3.408 0.859 5.129-0.125 9.004 0.409 1.09-3.23 0.327-5.017 0-8.595-2.72 3.01-5.697 5.76-9.004 8.19zm89.628-4.91c7.823 0.176 15.995-0.744 22.511-0.41 2.479 0.127 5.738 1.597 9.004-0.409-2.281-1.666-4.001-1.879-6.958-1.637-7.771 0.636-19.957-0.901-27.013-0.409 0.17 1.62 1.67 1.88 2.46 2.87zm59.76-2.46c-0.565 0.094-1.005 0.8-1.637 0.819-2.004 0.061-5.084-1.625-6.139 0.818 4.753 0.349 11.832 0.101 16.371-0.409-1.86-1.33-6.19-1.63-8.59-1.23zm66.3 0c-1.701 1.875-4.871 3.882-8.595 4.093-2.289 0.13-7.727-0.449-8.595-0.818-1.868-0.795-2.113-2.67-3.684-3.274-2.792 0.423-4.052 0.116-6.548 0.409 0.698 8.301-0.351 15.969 0 25.785 11.904-0.271 20.791-2.948 31.923-1.229-1.073-8.116 2.028-15.372 1.637-24.147-2.29-0.02-4.19-0.43-6.13-0.82zm31.52 3.27c3.623 1.198 7.106-0.82 9.414 0.409-1.529 2.155-5.563 1.804-9.004 2.046-2.228-1.319-3.573-3.521-5.321-5.321-1.344 0.127-3.351 0.946-4.502 0 0.471 8.014 0.69 15.108 0.409 22.92 1.541 0.316 2.405-1.002 3.684-1.637 1.266-0.629 3.057-0.932 4.093-1.638 2.732-1.862 5.69-6.832 7.776-9.822 1.569-2.249 3.195-3.011 3.274-5.73 1.081-0.829 2.139-1.681 2.046-3.683-1.61 0.823-3.014-0.356-4.502-0.819-0.619 1.019-1.403 1.871-2.865 2.046-2.698-0.031-2.918-2.539-6.139-2.046-0.18 1.82 1.11 2.17 1.64 3.27zm45.02-2.86c-3.513 4.4-8.021 7.805-9.413 14.325 5.049-0.275 8.322-0.158 13.097 0.409 1.005-4.094 3.675-8.825 4.911-13.916-3.2-1.6-6.23 0.57-8.6-0.82zm235.74 6.96c-1.373 2.856-2.785 5.674-3.684 9.004 3.005 1.28 7.353-1.117 9.822-0.409 0.59-3.58 2.244-7.552 2.047-10.641-2.75-0.88-4.64 2.39-8.19 2.05zm-52.8 3.68c-1.674-1.463-2.783-3.493-4.502-4.912-8.969-0.478-15.966-1.554-23.738 1.637-1.434 5.087 2.228 10.406 2.047 16.78 2.861-1.336 3.325 1.373 4.093 3.274-0.543 0.958-2.814 0.187-2.865 1.638 0.852 3.241 1.02 7.166 2.456 9.822 3.562-0.162 6.757-2.377 10.641-2.865 6.219-0.781 12.66-0.131 18.009 0.818-1.92-8.86-4.49-17.07-6.15-26.19zm36.02-2.86c-1.039 0.243-5.042 2.961-5.32 3.274-0.346 0.39-0.119 1.201-0.409 1.637-0.215 0.323-1.047 0.465-1.228 0.819-0.731 1.431-0.853 3.533-1.638 5.32-0.931 2.119-2.773 4.516-2.864 6.549-5.953 2.269-7.368 12.553-2.865 17.599 2.383 0.628 4.414 0.248 6.548 0.409 1.06 0.08 2.525 1.438 2.865 0-1.864-1.691-3.985-2.584-6.958-1.228-0.56-1.213 0.24-1.782 0-3.684-0.644-3.025-3.521-4.576-3.273-6.549 6.293 2.166 8.892 8.025 15.143 10.232-1.076-3.564-7.194-5.628-8.186-10.642 2.397-1.176 3.675 1.96 4.502 3.684 4.241 2.242 6.359 8.573 11.869 9.413 2.876 0.439 5.76-1.252 9.823-0.818 1.823-2.399 4.919-2.351 7.367-3.684 2.625-1.43 4.412-4.672 7.776-4.911 1.349 2.083-0.819 3.683-2.865 3.684-1.579 3.878-7.808 3.106-9.822 6.549 7.986-0.668 14.395-0.757 21.691-1.638-0.418-5.175-0.808-10.38-1.228-15.553-6.154-1.809-16.704 1.979-22.102-2.046-0.86 0.504-1.596 1.133-2.456 1.637-4.771-0.534-7.148 6.451-10.641 3.274 1.114-3.797 6.561-3.262 8.595-6.14-2.332 0.669-4.306 0.167-6.549 0.819-2.47 0.718-4.802 4.057-6.957 2.046 0.29-3.666 5.305-2.607 7.776-4.093-1.781 0.008-2.282-1.266-4.503-0.818-1.35-2.146-3.53-1.136-4.502-3.274 2.386-2.389 6.077 1.683 8.186 0.818 0.291-2.064-1.259-2.288-0.818-4.502-1.435-1.157-2.889-2.295-3.684-4.093-0.623-0.74-2.806 0.078-2.455-1.637 4-1.984 6.239 4.597 9.413 6.139 1.438-2.296 3.102-6.38 3.274-8.595-5.13 1.11-10.15-0.8-13.52-0.01zm-212.82 8.18c2.797-0.755 3.699-5.571 3.684-7.776-1.46 2.36-2.46 5.18-3.68 7.78zm260.71-5.73c-1.102 2.309-2.902 3.918-4.093 6.139 3.523-1.388 9.873 0.05 11.46-3.274-2.8-0.61-4.36-2.47-7.37-2.87zm-184.18 5.73c0.886 0.615 2.546 0.456 2.865 1.638-1.148 2.164-5.52 1.125-4.502-2.456-3.595 0.498-3.271 4.914-4.911 7.367 2.255 3.202 5.808 5.106 9.004 7.367 0.574-2.894-1.607-3.031-2.456-4.502 0.52-2.297-1.115-4.409 0.409-5.321 1.157-0.338 1.061 0.577 2.047 0.409 1.467 3.66 4.575 7.596 8.595 7.367-3.052-2.722-2.091-7.449-1.228-12.278-2.233-1.103-5.104-2.4-7.367-1.228-0.971-1.212-0.575-3.791-2.865-3.684-0.93 1.78 1 2.68 0.41 5.31zm161.26 3.69c-0.177 2.445-1.822 5.919 0 6.14 0.738-3.219 4.938-2.975 6.957-4.911-0.933-2.068-2.106-3.896-4.093-4.912-0.402-1.644-1.144-2.948-2.046-4.093-1.01 2.03-0.61 4.87-0.82 7.77zm5.32-5.74c0.688 2.312 2.237 3.765 4.093 4.911 2.311-2.002 7.252-2.154 9.004-5.73-4.44-0.44-9.78 1.56-13.09 0.82zm-318.42 10.65c1.374-1.599 1.398-8.329-0.409-9.413 0.42 3.74-2.47 6.91 0.41 9.41zm57.3-6.55c3.726 0.219 8.677 1.045 12.688 1.228 2.376 0.108 5.869 0.935 6.139-1.637-6.228 0.939-11.188-0.789-17.189-0.409-0.198-0.484-0.436-0.929-0.818-1.229-0.18 0.78-1.17 0.74-0.82 2.05zm-14.33 5.32c-1.03 1.382-2.146 3.248-3.274 4.502-1.179 1.311-5.858 5.501-6.958 5.73-3.712 0.772-7.515-2.172-11.05-3.684-0.291 1.229 1.559 2.076 2.456 2.864 3.232 2.842 6.425 3.88 11.05 5.73 4.551 1.82 8.048 3.968 11.869 3.274 0.26-1.897-2.238-1.037-3.683-1.229-1.383-1.482-4.143-1.586-5.321-3.273-0.612-8.461 6.98-12.066 9.414-18.827-0.541-0.005-0.375-0.718-0.819-0.818-1.12 2.11-1.93 3.39-3.69 5.74zm257.03-4.1c-0.011 1.375 0.563 2.165 1.229 2.865 0.448-0.671 1.515-2.814 0.409-3.684-0.27 0.56-0.88 0.77-1.64 0.82zm2.87 3.28c0.386 2.418 2.673 1.358 4.093 1.637 1.3 0.255 3.03 2.069 3.274 0.409-1.312-1.466 1.498-4.03 0-5.729-3.24 0.44-4.04 3.32-7.36 3.68zm26.19-3.68c-1.129 0.918-2.026 2.066-3.684 2.456 0.019 1.618 0.9 2.373 1.228 3.683 3.053-1.995 9.649-0.445 10.232-4.911-3.33 0.59-5.28-0.14-7.78-1.23zm16.37 0.82c-3.241 0.763-5.641 5.176-9.005 5.73-0.537-0.525-1.508-0.525-2.046 0 0.525 2.678 1.012 6.907 1.637 10.231 6.993-0.647 16.502 1.222 16.371-6.548-0.314-1.376-2.591-2.33-1.228-4.094 4.589 1.906 10.489 3.084 15.962 2.047-3.652-1.245-8.462-2.633-12.278-2.456-1.076 0.122-0.322-1.588-1.637-1.228-1.588-0.349-6.23 0.584-6.958-1.228 0.212-1.698 3.683-0.138 4.502-1.228-1.34-1.72-3.95-1.55-5.31-1.22zm-462.08 8.18c-0.074-2.108 0.471-4.837-1.637-4.911 0.69 1.5 0.1 4.28 1.64 4.91zm431.79-2.86c0.053 1.445 3.515 1.918 2.865-0.409-1.29-0.2-1.45 0.73-2.87 0.41zm-176.39 4.09c-0.607 1.636-0.17 4.294-0.409 5.729 4.486-0.258 7.951 0.507 11.869 0.818-0.27-2.363-3.534-3.78-5.32-6.139-0.838-1.105-1.744-2.287-2.047-3.684-0.523-0.022-0.566-0.524-1.228-0.409-0.41 1.55-2.15 1.75-2.86 3.68zm193.99 13.91c3.563-2.4 0.782-13.138 0-15.962-1.018 0.063-1.267-0.643-2.046-0.818 0.9 5.39 0.82 11.74 2.05 16.78zm-278.72-14.73c-0.342 1.95 3.962 1.626 3.684 0-1.95-0.19-1.72-0.19-3.68 0zm102.32 7.78c0.07-1.707-1.255-2.019-1.228-3.684-3.296-0.664-5.067-5.022-8.595-4.093 3.35 2.52 5.27 6.46 9.83 7.77zm198.5-7.78c-0.018 0.563 0.192 0.899 0.409 1.229 1.094-0.271 2.558-0.172 3.274-0.819-1.61 0.25-2.37-1.6-3.68-0.41zm-375.71 2.45c-2.941-1.694-5.556 0.162-9.004 0.409-3.43 0.246-7.74-0.353-10.641 0-4.794 0.582-9.556 2.318-13.506 3.274-2.257 0.546-4.355 1.54-6.548 2.046-2.118 0.489-4.506 0.189-6.549 0.819-2.824 0.87-5.515 2.663-8.186 3.684-0.815 0.311-1.73 0.129-2.456 0.409-0.551 0.213-1.036 0.978-1.637 1.228-4.478 1.861-8.932 3.083-12.688 5.32-2.653 1.58-4.646 4.05-7.776 4.502-3.051 3.181-7.365 5.119-10.232 7.776-0.994 0.922-2.892 1.811-2.456 3.684 3.307-1.331 5.947-3.33 8.186-5.729 3.113-1.525 6.356-2.92 8.595-5.321 0.818 0 1.637 0.001 2.456 0 12.5-7.571 29.165-13.251 45.43-15.143 10.979-1.277 21.605-3.053 31.924-3.274 2.477-0.054 8.03 1.24 6.958-3.684-3.15-1.04-8.01-1.15-11.85-0.01zm94.13 0.42c1.317-0.09 1.731 0.724 3.274 0.409 0.49-1.75-3.23-1.65-3.27-0.41zm56.07 2.86c1.714 0.332 4.941 0.872 6.548 0 2.29-6.18-5.23-1.95-6.55 0zm-42.16-2.46c0.142 1.087 1.074 1.382 2.047 1.637 0.366-0.725 1.661-0.521 1.228-2.046-1.18 0.05-2.68-0.22-3.28 0.41zm111.33 4.92c1.612 0.994 2.677-1.537 4.093-2.046 1.008-0.902 3.138-0.683 3.274-2.456-2.81 1.14-5.54 2.37-7.36 4.51zm7.78 0.81c1.581 0.738 2.569 2.068 3.274 3.684 2.128-0.802 3.429-0.255 5.32-0.819-0.489-2.376-0.824-4.905-1.228-7.367-3.17 0.8-5.28 2.64-7.36 4.51zm-92.5-2.86c-0.499 0.046-0.969 0.122-0.818 0.818 2.354 0.381 6.282 1.349 8.595 0.409-2.18-0.82-5.07-0.93-7.77-1.23zm18.01 2.86c-1.536-1.743-6.583-2.141-9.413-1.229 2.57 1.15 5.43 0.86 9.41 1.23zm5.32 0.82c0.029-2.076-3.208-0.885-4.502-1.638-0.08 2.12 3.5 0.59 4.5 1.64zm-86.77 1.64c3.935 1.043 9.295 0.793 14.325 1.229 7.681 0.663 14.966 1.85 22.101 2.455 2.495 0.212 6.104 1.492 7.776-0.818-2.314-2.089-7.484-0.939-11.051-1.228-5.661-0.459-11.855-1.838-18.008-2.456-6.528-0.655-13.803-0.729-18.827-1.637 0.75 1.51 2.38 2.11 3.68 2.46zm109.28-1.23c-4.629-0.345-8.904-0.096-13.097-0.409-2.391-0.179-5.818-2.236-8.186 0 2.03-0.108 3.093 0.248 4.911 0.409 4.269 0.378 9.836 0.998 15.144 1.637 4.285 0.517 8.482 0.388 12.688 0.819 7.912 0.81 18.33 2.159 25.785 2.864 3.755 0.355 8.163 1.799 11.459-0.409-16.09-1.63-32.89-3.73-48.69-4.91zm187.45-0.41c0.748 4.005-0.631 8.734-1.637 12.278 2.05 0.405 3.439 1.472 6.139 1.228-0.134-4.622 0.28-8.548 0-13.915-1.39-0.66-3.11-0.06-4.5 0.41zm-145.7 2.05c1.391 0.621 3.449 1.278 4.093-0.409-0.816-0.411-0.646-1.81-2.047-1.637-0.24 1.12-2.1 0.63-2.04 2.05zm135.06-1.23c0.185 2.706 0.621 3.727 0 5.729-1.542-0.314-1.956 0.5-3.273 0.409-1.122 2.153-4.797 1.753-5.321 4.503 3.934 1.114 9.551 0.545 13.916 1.228 1.188-3.628 2.64-8.238 4.502-12.278-3.73 0.61-7.52-1.3-9.83 0.41zm-252.94 13.1c-10.177-0.564-20.546-2.507-31.105-3.274-4.606-0.334-7.664-0.891-11.05-1.228-20.658-2.058-41.386-4.609-62.62-5.729-0.944-0.126-0.455 1.182-1.228 1.228-11.031-1.463-22.234-0.408-31.924 1.637-30.638 6.466-54.19 20.401-72.033 38.882-2.261 2.464-5.777 5.538-7.776 8.186-0.416 0.551-2.293 2.386-0.819 2.865 3.109-1.481 4.758-4.552 6.958-6.958 2.179-2.384 4.638-4.702 6.958-6.958 4.74-4.607 9.729-9.188 15.962-12.278 2.183-2.396 5.253-4.032 8.186-5.729 2.902-1.68 5.906-3.517 9.004-4.911 7.213-3.248 15.536-6.986 23.329-8.595 1.139-0.235 2.181-0.548 3.274-0.819 15.284-3.794 32.667-4.939 49.932-3.684 2.445 0.179 4.881 1.03 7.367 1.229 12.855 1.026 25.702 2.594 38.472 3.684 5.008 0.427 10.01 0.259 15.144 0.818 12.264 1.336 26.446 2.677 37.653 4.093 1.594 0.201 5.036 1.935 6.14-0.818-2.87-1.99-6.65-1.46-9.82-1.63zm-33.15-9.41c2.367-0.32 3.499 0.594 5.73 0.409 0.09-1.74-5.33-1.85-5.73-0.41zm161.26 9.82c-6.453-0.129-13.295-1.023-20.055-1.637-22.73-2.063-47.043-5.012-69.986-6.958-3.713-0.314-7.383-0.075-11.051-0.409-5.024-0.457-11.743-2.401-14.325 0.409 14.673 1.682 29.633 3.255 42.565 4.502 3.903 0.377 7.888 0.476 11.051 0.819 15.505 1.685 31.635 2.229 46.658 3.683 3.642 0.353 7.631 0.972 11.459 1.229 4.409 0.295 9.374 1.452 11.051-1.229-2.34-1.37-4.92-0.35-7.37-0.4zm-111.33-5.32c-0.475-1.435-2.781-1.038-4.502-1.228 0.14 2.3 2.85 0.07 4.5 1.23zm5.32-0.41c-0.319 0.09-0.476 0.343-0.409 0.818 8.66 0.846 19.419 2.537 29.468 2.047-10.29-1.12-18.74-1.66-29.06-2.87zm-257.43 0.41c-0.459 0.087-0.637 0.454-0.818 0.818 0.523 0.022 0.567 0.524 1.228 0.409 16.66-0.493 28.919 0.7 39.7 0.409 1.322-0.035 4.002 0.815 4.502-1.228-15.14 0.07-29.93-0.63-44.614-0.41zm294.27 4.09c10.714 1.683 25.554 2.324 34.789 3.274 8.254 0.85 19.031 1.425 27.422 2.046 4.112 0.305 11.422 1.821 16.371 0.819-1.217-3.005-4.729-1.315-6.958-1.229-11.093 0.436-21.311-1.96-32.333-2.865-14.076-1.155-28.477-2.441-42.156-3.273 0.23 1.28 2.04 1.09 2.87 1.22zm79.4 1.23c1.322 2.002 4.52-0.099 4.093-2.455-2.23-0.05-3.31 1.06-4.09 2.46zm-7.37 10.64c-1.668-0.304-1.409 1.319-3.274 0.818-23.402-3.948-48.764-4.819-74.079-6.958-13.59-1.147-27.097-2.923-40.519-3.684-0.6 0.356-1.298 0.613-1.229 1.638 8.937 1.45 18.977 1.541 29.469 2.456 9.753 0.85 19.804 3.245 28.649 2.046 21.414 3.554 47.612 4.501 69.168 6.549-1.16-3.38-5.42-1.13-8.19-2.88zm12.28-9.82c-0.4 1.51-2.609 1.211-2.865 2.865v1.638c2.971 0.576 6.088 1.006 9.005 1.637-1.65-2.44-3.7-4.49-6.13-6.14zm-350.34 3.27c0.319 0.091 0.476 0.343 0.409 0.819 1.099 0.414 3.792 1.077 3.274-1.229-1.17-1.1-3.2-1.76-3.68 0.41zm128.51 28.65c-1.009 0.055-1.972 0.062-2.456-0.409-2.914-5.816-9.097-8.365-13.506-12.688-4.268-1.036-7.542-4.578-12.278-6.548-7.334-3.052-17.006-5.568-26.194-6.14-5.674-0.353-12.645-0.452-18.417 0.818-1.24 0.273-2.454 0.987-3.684 1.229-1.714 0.335-3.724 0.044-5.321 0.409-4.983 1.14-8.936 3.947-13.506 4.911-1.523 1.751-3.417 3.132-6.139 3.684 0.49 2.16 3.257-0.996 3.683 1.228-0.999 0.7-2.922-0.41-4.911 0-6.681 3.278-11.428 8.49-18.008 11.869 0.028 1.304-1.286 1.669-2.046 2.456-5.737 5.935-11.145 11.898-17.19 17.189-0.208 1.155-0.99 1.738-1.228 2.865-3.136 1.394-5.325 4.119-8.186 6.139-2.786 1.967-5.958 3.895-9.004 5.73-5.851 3.525-12.87 7.814-19.646 9.822-2.276 0.675-4.949 0.548-7.367 1.228-0.683 0.192-1.343 0.998-2.046 1.229-1.255 0.41-3.656-0.131-4.093 1.637 8.965 1.597 14.844-3.437 22.51-4.502 2.739-2.445 8.042-2.326 10.641-4.911 3.57-0.377 6.191-3.16 9.004-4.911 17.056-10.619 31.711-24.776 47.886-35.607 4.018-2.691 8.152-5.534 13.506-6.14 10.272-5.535 23.684-5.138 36.835-4.502 0.965 0.126 0.761 1.421 2.046 1.228 6.349-0.073 9.326 3.226 15.143 3.684 2.091 2.224 5.456 2.206 8.186 3.684 2.989 1.619 5.038 4.913 7.776 5.32 2.753-1.045-0.272-1.913 1.228-2.864 1.878 0.168 4.121-0.028 4.093 2.046-1.213 0.697-3.37 0.45-4.912 0.818 4.169 4.972 10.332 7.949 13.506 13.916 2.841 0.16 4.629 1.374 6.139 2.865-0.525 0.846-1.696 2.276-0.818 3.273 3.825 1.676 9.795 2.545 11.46-1.637-3.31-7.07-8.36-12.39-12.68-18.43zm221.42-20.87c-0.649 0.073-2.597-0.518-2.047 1.229 0.707 2.01 3.721 0.957 6.14 1.228 3.047 0.341 8.217 2.624 9.004-0.818-2.81-1.18-9.32-2.07-13.09-1.64zm-369.99 0.81c-5.242-0.404-10.685-0.481-13.506 0.819 10.468 0.913 23.817 0.918 33.561 0.409 0.444 1.698 2.25 1.2 2.456-0.409-7.25-1.44-15.18-0.25-22.518-0.82zm423.61 0.42c-2.849-0.402-4.933-1.278-7.776-0.41 2.1 1.39 5.61 1.24 7.78 0.41zm17.6 6.13c-17.74-1.803-35.289-4.054-52.797-4.502-0.25 0.023-0.485 0.062-0.41 0.409-0.249 0.023-0.484 0.062-0.409 0.409 2.258 1.189 4.938 0.561 7.776 0.818 7.056 0.641 16.155 2.042 21.692 2.456 2.7 0.202 5.582-0.22 8.186 0 2.483 0.21 4.614 1.025 6.958 1.228 10.793 0.932 23.557 1.951 34.788 2.865 1.442 0.117 3.725 1.423 4.911-0.409-9.07-2.47-20.45-2.23-30.7-3.28zm-0.82-3.27c0.519-1.638-2.766-1.563-3.274-0.818 1.29 0.06 1.79 0.93 3.27 0.82zm14.32 1.64c2.278-0.29 3.523 0.131 5.73 0.409-1.039-2.601-4.389-0.436-6.14-2.047-0.03 0.71 0.09 1.27 0.41 1.64zm-67.53 9.41c0.661-3.159-0.837-5.038-0.409-9.004-1.261 0.306-0.499-1.411-2.046-0.818 1.04 3.05 1 7.19 2.46 9.82zm-18.42-0.82c1.624-1.044 0.677-5.165 0.818-6.549-0.523-0.022-0.567-0.524-1.228-0.409-0.33 1.92 0.74 3.45 0.41 6.96zm115.01-3.27c-1.095-0.072-6.689-0.491-5.729 0.818 0.808-0.703 2.074 0.604 3.684 0.818 1.573 0.211 6.786 0.511 6.548-0.818-1.1-0.37-2.84-0.71-4.5-0.82zm30.7 4.09c-0.439-2.657-3.741-1.423-5.729-1.637-2.16-0.232-4.53-1.242-6.14-0.409 3.5 1.76 7.01 1.35 11.87 2.05zm-110.92 8.19c0.696 6.532 0.259 11.812 1.638 16.78 0.302 1.089 1.03 1.81 1.228 2.865 0.602 3.219 0.325 6.601 0.818 9.822 0.982 6.418 3.036 13.055 3.684 19.236 0.118 1.129-0.205 2.213 0 3.274 0.37 1.918 1.688 3.8 2.047 5.73 0.211 1.136-0.174 2.562 0 3.683 0.266 1.714 0.862 3.701 1.228 5.321 0.364 1.611 0.25 4.044 2.046 4.911-0.587-6.843-1.263-13.916-2.455-20.055-1.026-5.283-2.227-11.119-3.274-16.78-0.768-4.146-0.854-8.498-1.637-12.688-0.378-2.022-1.353-3.745-1.638-5.73-0.346-2.414-0.021-4.883-0.409-7.367-0.755-4.819-2.656-9.92-2.865-15.143-0.522-0.022-0.566-0.525-1.228-0.409-0.92 2.45 0.56 4.23 0.81 6.56zm5.32-4.51c2.201 14.4 5.723 28.692 8.186 42.975 0.325 1.888 0.045 3.871 0.409 5.729 0.334 1.707 1.338 3.236 1.637 4.911 0.364 2.04-0.092 4.104 0.409 6.14 0.259 1.049 1.008 2.149 1.229 3.274 0.788 4.025-0.057 9.755 2.864 11.869 0.256-6.031-2.364-11.651-3.273-17.6-2.953-19.304-5.619-38.811-9.005-58.526h-2.455v1.24zm8.19 0.82c1.635 4.069 1.868 8.458 2.455 13.097 0.071 0.56 0.763 1.312 0.819 2.047 0.057 0.745-0.921 1.474-0.819 2.047 0.115 0.646 1.014 1.271 1.229 2.046 0.279 1.01 0.2 2.21 0.409 3.274 2.057 10.476 3.604 20.94 5.729 31.515 0.409 2.034 1.159 4.067 1.638 6.139 0.473 2.049 0.424 4.328 1.637 6.14-0.109-9.165-2.497-15.841-3.684-24.147-0.706-4.945-1.36-8.432-2.047-12.278-0.782-4.387-1.493-8.625-2.046-11.869-0.798-4.684-0.876-7.867-1.637-11.869-0.483-2.541-0.608-6.776-2.865-7.367h-0.818c0.01 0.41 0.01 0.82 0.01 1.23zm8.59 0.41c0.644 4.777 1.633 9.616 2.455 14.325 0.825 4.718 1.13 9.392 2.047 13.915 0.74 3.653 2.129 7.017 2.865 10.642 0.814 4.015 0.812 8.254 1.637 12.278 0.497 2.424 1.5 4.773 2.047 7.367 0.53 2.517 0.258 5.742 2.455 7.367-0.554-10.775-4.331-21.227-5.729-31.924-1.679-12.833-3.804-22.438-5.73-34.789-0.584-0.098-0.69-0.674-1.228-0.818-0.01 0.81-1.13 0.51-0.83 1.63zm16.37 45.84c1.131-7.575-2.476-12.137-1.228-17.6-1.716-3.744-1.494-8.126-2.456-12.688-1.115-5.29-2.181-10.861-2.865-16.371h-2.046c2.23 15.4 5.02 31.83 8.6 46.66zm-0.81-45.02c0.951 2.744 0.862 5.66 1.228 8.187 0.926 6.407 2.802 13.228 4.093 19.645 0.618 3.074 0.529 6.778 2.456 8.596 0.867-2.493-0.636-5.113-0.819-7.776-0.046-0.678 0.526-1.378 0.41-2.047-0.31-1.773-1.27-3.474-1.638-5.32-1.155-5.799-1.941-11.832-2.865-17.189-0.294-1.705 0.538-4.82-2.046-5.321h-0.818c-0.15 0.58-0.49 0.68 0.01 1.22zm12.68 31.92c-0.909 0.052-1.109-2.658-2.047-1.228 0.934 1.25 1.657 2.709 2.456 4.093-0.302 0.653-2.003-0.093-1.637 1.229 0.801 1.296 1.282 2.002 2.455 2.046 0.33 1.73 0.414 3.356 0 4.911 2.45 2.325 1.094 8.457 3.684 10.642 0.944-2.937-0.951-6.355-0.818-9.823 0.932 0.199 2.091 0.812 2.865 0-0.375-2.354-2.729-3.784-3.684-6.139-1.44-3.552-1.728-10.229-2.456-13.097-0.379-1.492-0.146-2.903-0.409-4.503-1.109-6.741-3.242-13.76-4.093-20.464h-1.637c1.4 10.9 4.26 22.5 5.34 32.33zm-454.3 28.65c6.084-0.364 10.678 1.716 14.734-2.865 1.741-1.967 3.342-5.052 5.321-7.776 1.96-2.698 4.124-5.625 4.911-8.186 4.776-5.21 8.17-11.365 13.097-16.371 4.958-5.038 10.655-9.205 16.371-13.507 6.779-2.606 14.865-8.162 22.51-8.595 0.565-0.031 0.721-0.669 1.228-0.818 6.797-2.001 14.172-0.225 21.283-0.818 0.319 0.09 0.476 0.343 0.409 0.818 0.553 0.129 0.782 0.583 1.637 0.409 0.053-1.423-1.77-1.828-2.456-2.046-3.838-1.222-9.099-1.073-12.688-0.819-9.005 0.64-18.511 3.402-26.603 7.367-3.7 1.813-9.384 4.781-11.869 6.958-3.25 2.847-5.917 4.933-8.595 7.776-2.454 2.606-4.451 4.43-6.549 6.958-1.816 2.188-3.083 4.041-4.502 6.139-2.044 3.022-3.939 5.411-6.139 8.186-3.746 4.727-6.998 11.007-11.869 13.916 1.015-0.061 1.986-0.076 2.046 0.818-6.456 0.768-13.28 2.732-19.646 1.228 1.868 2.35 5.019 1.36 7.359 1.22zm464.12-59.75v0.818c1.364 4.774 1.943 9.785 2.865 15.144 1.328 7.722 2.423 15.354 4.093 22.51 0.495 2.122 0.585 5.143 2.456 6.549-1.157-14.536-5.524-29.398-6.958-45.021-1.4 0.33-1.72-0.77-2.45 0zm7.78 1.64c1.041 5.267 2.522 12.431 3.684 16.78 0.448 1.679 0.051 3.598 0.409 5.321 0.226 1.082 1.021 2.204 1.229 3.273 0.982 5.068 0.545 10.282 2.864 14.325 1.335-2.835 0.571-6.118 0-9.413-1.803-10.401-4.498-20.473-5.729-31.105-0.964 0.009-1.205-0.705-2.456-0.409-0.05 0.48-0.72 0.93 0.01 1.23zm7.78 0.81c0.898 2.728 0.865 5.524 1.229 8.595 0.133 1.126 0.985 2.165 1.228 3.274 1.332 6.118 1.715 13.006 2.455 17.6 0.259 1.602 0.086 4.282 2.047 4.911 1.86-3.469-0.227-8.114-0.818-11.051-1.228-6.085-1.91-12.993-2.865-18.826-0.318-1.946-0.62-4.639-2.456-5.73h-0.818v1.24zm8.18 2.87c-0.401 3.675 0.834 5.856 1.229 8.186 0.743 4.396 1.008 7.334 1.637 11.051 0.445 2.63 0.196 6.421 2.456 7.776 1.867-3.491-0.399-7.515-0.819-11.051-0.909-7.659-2.269-12.479-3.273-19.236-1.157 0.339-1.061-0.576-2.047-0.409-0.84 1.03 0.75 2.27 0.81 3.68zm6.55-1.64c0.831 5.75 1.977 12.317 2.865 17.189 0.524 2.88-0.008 6.496 2.455 7.776-0.622-9.201-3.05-16.596-3.684-25.785-0.986 0.168-0.89-0.747-2.046-0.409 0.06 0.49-0.08 1.17 0.4 1.23zm-506.69 0v2.046c4.65-1.571 11.557 0.106 15.962-0.409 0.235-0.855 1.015-1.168 0.818-2.456-5.196 2.42-12.19 0.22-16.786 0.82zm519.79 0.41c0.728 4.934 1.629 11.041 2.456 14.733 0.389 1.737-0.076 5.437 2.455 4.912-0.34-6.16-2.564-13.767-3.273-20.874h-1.229c-0.02 0.53-0.53 0.57-0.41 1.23zm-273.4 3.69c0.691-1.183 1.193-3.084 0-4.093 0.11 1.73-1.65 3.1 0 4.09zm270.94 14.73c0.83-1.942-1.03-5.422-0.819-8.186h-1.228c0.19 3.23 0.22 6.62 2.05 8.19zm-129.74 16.78c0.215 1.281-0.292 3.383 1.228 4.093-0.607-7.955-2.226-15.789-2.864-22.511-0.091-0.319-0.343-0.476-0.818-0.409 0.69 5.98 1.55 13.44 2.45 18.83zm-275.85-13.51c-21.695-7.471-42.564 10.399-43.384 29.878 0.645 5.653 1.277 9.39 3.274 13.915 3.429 7.771 8.066 12.499 15.143 15.962 4.156 2.033 6.865 3.361 11.869 3.684 7.649 0.493 12.379-1.133 17.599-3.274 2.312-0.948 2.942-1.665 4.911-3.274 1.189-0.972 2.867-1.982 3.684-2.864 0.729-0.788 0.813-2.17 1.637-3.274 0.811-1.088 2.237-1.461 2.865-2.456 0.851-1.348 1.758-3.784 2.456-5.729 2.735-7.625 3.247-18.76-1.228-24.966 0.545 5.273 4.581 16.695 0.409 20.873-1.849-1.072-0.068-4.388 0-6.14-1.411-4.566-0.759-9.353-2.456-13.097-1.071-2.363-3.67-3.524-3.684-6.14-6.609-6.745-14.867-12.657-28.24-10.641-2.666 0.401-5.965 2.172-8.595 3.684-6.223 3.576-9.858 8.286-13.097 13.915-0.3 1.337 0.246 3.52-1.637 3.274-1.461-2.704 1.077-6.632 2.865-9.413 4.917-7.647 14.932-14.565 27.421-13.916 1.669 0.087 4.69 0.407 6.549 0.818 1.72 0.381 4.492 2.757 5.32 1.229-0.7-1.19-2.51-1.65-3.67-2.05zm11.46 8.6c-0.206-0.175 0.491-0.263 0.819 0 2.306 1.849 2.725 5.544 5.73 7.776-0.394-3.699-3.615-4.57-4.502-7.776-3.734-0.907-4.79-6.666-9.413-5.32 3.26 1.33 4.83 3.17 7.36 5.32zm32.74 5.32c-0.375-3.036-0.908-5.913-2.865-7.367 0.62 2.79 1.05 5.77 2.86 7.37zm256.21 27.83c-1.254-12.491-3.038-23.146-5.729-34.789 0.93 12.57 3.37 23.64 5.73 34.79zm-172.31-28.24c3.177 0.361 3.187-3.869 2.456-6.14h-2.047c0.02 2.95-0.67 4.57-0.41 6.14zm1.23 5.32c1.74 0.489 1.507-3.1 0.818-3.684-1.05 1.27-1.15 1.64-0.82 3.68zm216.51 16.37c1.258-5.386-1.947-9.761-2.047-15.144-0.09-0.318-0.343-0.476-0.818-0.409 0.77 5.38 0.65 11.63 2.87 15.55zm-410.92-0.82c0.108 0.601 0.76 1.435 0.819 2.046 0.219 2.274-1.271 5.681 1.637 6.549-1.272-8.391-1.148-16.297-0.409-21.692-0.09-0.318-0.343-0.476-0.818-0.409-0.47 3.86-2.04 8.98-1.23 13.5zm3.69-11.87c-1.434 6.109-1.507 12.151-0.409 18.008 0.703 3.75 2.698 7.503 3.684 10.642 0.189 0.603-0.247 1.469 0 2.046 0.729 1.712 2.564 3.803 4.093 6.14 3.447 5.271 6.628 8.899 11.459 12.688 2.953 2.315 6.505 5.046 9.414 5.73 0.534 0.125 0.476 0.676 0.818 0.818 4.156 1.721 9.172 3.322 14.325 4.093 11.783 1.761 21.489-0.807 31.924-4.911 2.482-2.05 5.258-3.426 7.776-5.321 2.458-1.851 4.429-4.462 7.367-5.729 0.063 1.018-0.643 1.267-0.818 2.046 6.098-5.362 10.464-12.455 13.506-20.873-1.2-0.471-1.52 1.963-2.046 0.818 0.584-4.089 2.441-8.962 2.865-13.097 0.167-1.628 0.443-4.966-1.228-5.729-1.15 2.262-0.238 4.699-0.409 6.957-1.042 13.75-9.542 25.229-17.19 32.333-3.854 3.581-8.778 6.669-13.506 8.596-2.773 1.129-5.8 2.224-8.595 2.864-10.938 2.508-24.813 0.22-32.333-3.274-18.729-8.701-34.213-27.265-29.468-56.071h-1.228c0.02 0.4 0.02 0.8 0.02 1.21zm190.72 3.69c0.629-1.281 0.651-3.169 0.818-4.912h-1.228c0.76 1.92-1.54 4.44 0.41 4.91zm-188.27 6.14c0.706-2.841 0.291-6.803 0.819-9.822h-1.228c0.59 3.74-2.39 7.86 0.41 9.82zm9.42 23.32c8.848 13.778 25.299 23.116 43.793 21.691 14.521-1.118 23.942-8.538 32.742-18.008 0.459-1.289 0.037-0.927 0-2.456 1.096-0.706 1.556 0.289 2.456-0.818 2.754-5.77 6.206-13.662 6.958-21.691 0.19-2.032 0.981-5.589-1.228-6.14-1.141 3.171 1.453 10.858-2.456 12.278-0.647-1.801 2.659-11.9-1.637-11.869-0.592 2.913 0.434 8.965-1.637 11.051-2.977-1.645 1.525-7.769-1.228-10.231-2.059 2.984 0.937 8.687-2.456 11.459-1.856-2.137 1.577-7.465 0-10.641h-2.456c-0.319 2.365 0.514 3.578 1.228 4.911-1.202 0.292-0.982 1.17-1.228 2.046-1.03 3.675-1.766 7.978-3.274 11.46-1.889 1.659-3.362 3.732-4.502 6.14-5.599 3.733-9.319 7.649-15.552 9.413-22.52 6.374-45.487-10.129-44.612-33.561-1.632-0.405-1.232 1.223-2.865 0.818-0.098 2.525-0.103 5.254 0.409 7.776 0.721 3.551 3.604 6.455 2.865 9.413-4.494-2.328-3.606-10.037-5.321-15.143-1.495 1.321 1.36 4.653-1.637 4.093-1.079-2.735-1.005-7.42-0.409-10.642-1.107-1.349-2.535-2.376-4.502-2.865-2.22 12.8 1.65 23.9 6.55 31.52zm-1.23-27.01c0.297 1.613 0.807 3.014 1.637 4.093-0.287-1.787 0.696-2.305 0.409-4.093-1.02-0.04-1.27-0.77-2.05 0zm178.85 4.5c0.183-1.094 1.763-4.53 0-4.911 0.11 1.39-1.84 4.46 0 4.91zm-102.32 30.7c-7.49 8.313-19.807 14.473-31.105 15.553-2.907 0.277-5.94 0.193-8.595 0-18.356-1.336-32.415-12.92-39.291-26.194-2.29-4.42-3.479-9.092-5.321-13.915 0.47-1.566 0.698-6.052-1.228-6.549-0.057 6.708 1.365 11.926 3.684 17.6 2.149 5.258 4.77 8.809 7.776 12.278 1.116 1.288 1.824 3.104 2.865 4.093 3.001 2.849 7.298 5.422 11.46 7.776 8.133 4.601 19.283 7.623 31.514 5.729 6.209-0.961 10.299-2.892 15.144-5.32 10.486-5.257 17.781-12.667 22.51-23.329 2.752-6.204 4.58-12.532 4.502-21.691-0.584-0.099-0.69-0.675-1.228-0.819 0.4 14.59-5.85 27.22-12.67 34.78zm386.77-29.88c-2.199 1.298-3.844 2.263-5.32 3.684-3.043 2.926-6.683 5.705-9.004 8.595 3.075-0.516 4.916-3.258 6.957-4.912 2.386-1.932 4.772-3.614 7.367-5.32 0.478-0.75 1.07-1.386 1.638-2.046 0.302-0.653 2.003 0.093 1.637-1.229-1.27-0.79-2.28 0.65-3.29 1.24zm-34.38 0.41c0.074-0.894-0.335-1.303-1.229-1.229 0.933 4.116 5.148 4.948 5.321 9.823 1.316 0.32 2.713 0.562 3.684 1.228-1.838-3.073-4.158-5.664-6.14-8.595 1.555-0.4-0.144-2.609-1.228-2.865 0.06 1.03 0.79 1.29-0.4 1.64zm-331.51 2.05c0.826-0.645 1.179-2.281 0-2.864-0.39 0.34-0.88 2.6 0 2.86zm1.63 9.41c0.599-1.334-0.119-4.383-0.41-6.14h-1.228c0.77 1.83-0.26 5.46 1.64 6.14zm122.79 6.96c-0.319-0.09-0.476-0.343-0.409-0.818-28.413-3.467-57.248-6.068-84.721-8.595-4.316-0.397-8.541-1.878-10.642 0 31.66 3.29 66.19 7.09 95.77 9.42zm-228.79 6.55c1.21 0.836 2.355 1.737 3.274 2.865-0.106 1.198 0.925 1.257 0.819 2.455 5.685 5.094 11.209 12.529 19.236 13.916-1.243-0.667-2.017-1.804-4.093-1.638-0.925-2.076-3.331-2.821-4.911-4.093-8.833-7.107-15.691-16.702-18.827-29.059-0.091-0.319-0.343-0.476-0.819-0.409 0.45 6.63 3.65 10.52 5.32 15.95zm128.51-13.92c0.552 0.559 2.857 0.78 2.865-0.409-0.584-0.098-0.69-0.674-1.228-0.818-0.1 0.85-1.51 0.39-1.63 1.23zm4.1 1.23c21.108 2.514 41.453 3.392 65.075 6.139 12.477 1.451 26.273 2.967 39.7 4.502 25.069 2.867 51.513 4.973 75.308 6.958 5.681 0.475 11.44 1.6 16.371 2.047 1.682 0.152 4.689 1.034 5.32-0.409-0.354-1.587-2.395-0.725-3.273-0.819-5.109-0.546-9.748-1.146-14.325-1.637-6.034-0.646-11.94-0.66-18.418-1.228-18.637-1.633-37.236-4.592-56.071-6.14-9.132-0.75-18.299-1.688-27.421-2.865-9.124-1.177-21.468-1.064-30.287-2.455-17.49-2.758-35.292-3.484-52.388-5.321-0.25 0.023-0.485 0.062-0.409 0.41 0.5 0.06 0.97 0.13 0.82 0.83zm-8.19 1.64c0.525 0.562 2.447 0.713 2.456-0.409-0.725-0.366-0.521-1.661-2.046-1.228-0.13 0.55-0.58 0.78-0.41 1.64zm2.87 5.73c13.724 1.529 30.822 3.459 44.612 4.911 28.641 3.016 59.891 6.307 88.404 9.413 3.576 0.39 7.197 0.584 10.642 0.818 6.758 0.462 13.768 2.174 21.691 2.865 2.018 0.176 6.023 0.386 9.822 0.818 8.957 1.021 12.819 0.638 21.283 1.638 1.061 0.125 4.161 0.815 5.32 0.818 3.429 0.01 4.346-0.277 4.502-2.047 0.343-3.869-5.946-2.561-8.595-2.864-11.528-1.323-18.804-2.343-28.24-3.274-17.28-1.707-27.674-2.369-42.156-3.684-2.248-0.204-5.522-1.104-7.366-1.228-48.217-3.233-89.768-8.879-136.29-12.688-1.158-0.356-2.787-3.156-3.684-1.229 2.78 6.08 11.09 4.72 20.08 5.72zm108.04 4.5c-10.092-1.115-18.372-1.904-27.831-2.865-11.948-1.214-25.762-2.933-37.654-4.093-13.754-1.342-27.55-1.914-40.109-3.684-0.411-0.001-0.487 0.332-0.819 0.409-0.09 0.515-0.637 0.837 0.409 0.818 11.545 1.264 23.143 2.205 33.97 3.274 6.191 0.611 12.218 1.972 18.417 2.456 6.647 0.52 13.378 0.674 20.055 1.228 12.772 1.061 25.535 2.699 38.063 3.684-0.97-1.58-3.14-1.08-4.5-1.23zm103.96-4.91c0.063-1.564-0.021-2.98-0.819-3.684-1.19 0.79-1.08 3.7 0.82 3.68zm-432.2-1.64c1.781 0.082 2.977 0.465 4.502-0.409-1.18-0.185-1.28-1.448-2.865-1.228-0.37 0.72-1.507 0.68-1.637 1.64zm541.89 2.05c0.128-0.859 2.748-1.302 1.228-2.456-0.229 1.186-0.638-0.628-1.228-0.409 0.43 1.16-0.68 2.81 0 2.87zm-526.74 1.23c-2.462-0.936-6.668-2.277-9.004-0.818 3.753 0.749 7.565 1.439 11.46 2.046 0.171-1.19-1.643-0.93-2.456-1.23zm396.59-0.41c5.034 0.59 10.164 2.03 15.552 2.455 1.401 0.111 3.836 1.22 4.912-0.409-1.729-1.188-4.408-1.045-6.549-1.228-7.577-0.646-14.859-1.604-20.873-1.637 1.56 1.31 4.42 0.53 6.96 0.83zm-390.46 0.41c5.451 1.779 11.394 3.067 16.371 5.32 2.144 0.37 1.54-2.007 3.684-1.637 9.589 3.149 24.031 1.177 35.607 1.228 4.75 0.021 9.178 1.213 13.097 0.409-0.616-2.248-2.5-3.23-2.865-5.729-8.604-0.238-17.168 0.298-24.966 0-6.428-0.246-12.616-1.485-18.008 0 2.639-0.014 5.356 1.134 8.186 1.637 2.452 0.437 5.803-0.327 6.958 2.047-8.848-0.41-16.092-3.863-24.147-4.093-4.492-0.128-9.239-0.088-14.734-0.409-0.024 0.69 0.313 1.04 0.816 1.22zm329.48-0.82h-4.093c0.39 2.96 2.95 0.74 4.09 0zm10.23 2.04c-0.847-1.473-3.391-1.248-5.73-1.228 0.25 1.81 4.36 1.9 5.73 1.23zm61.8 4.91c-18.506-1.896-40.907-4.261-57.708-5.32-0.087-0.494-0.454-0.252-0.818 0v1.228c18.154 2.465 40.884 3.658 59.755 5.73 1.962 0.215 5.145 1.674 6.548-0.818-1.53-1.23-5.31-0.56-7.78-0.82zm-69.17-0.41h-2.865c-0.518-0.469-3.227-0.822-3.684 0 1.21 0.54 6.72 0.75 6.54 0zm-295.5 8.19c-0.687-1.343-2.375-1.182-3.683-1.637-2.658-0.925-4.311-1.179-7.776-1.637-1.352-0.179-3.031-1-4.502-1.229-8.127-1.263-16.277-1.398-24.147-2.046-0.317 0.092-0.807 0.011-0.818 0.409 12.854 2.57 25.793 7.22 40.923 6.15zm493.59 28.24c-5.908-4.356-16.43-1.052-23.738-3.683-3.187-1.147-4.788-3.958-7.775-4.093-1.142-0.77-0.563-3.258-2.456-3.274-5.646-0.221-11.411-0.322-15.553-2.047-3.94 1.751-8.311 0.757-11.46 0.409-3.502-0.386-7.129 0.49-10.641 0.409-4.941-0.112-9.777-1.305-14.734-1.637-37.547-2.518-72.145-6.814-106.82-10.232-16.442-1.62-32.654-3.446-47.477-4.911-6.066-0.6-12.402-0.647-17.599-1.228-1.843-0.206-3.483-0.991-5.32-1.228-9.732-1.252-17.931-1.459-27.422-2.456-1.922 2.737-7.63 3.866-7.776 6.549 38.776 3.944 71.747 7.722 108.87 11.869 1.569-1.086-2.505-3.021 0-3.684 2.545-0.362 0.727 3.64 2.865 3.684 14.556 2.242 27.377 2.893 40.928 4.502 8.69 1.031 17.923 0.91 26.604 2.046 3.557 0.466 6.315 0.488 9.413 0.818 4.399 0.47 8.802 1.15 13.097 1.638 31.102 3.53 61.017 4.687 91.27 8.595 3.818 0.493 7.614 1.405 11.46 0.409-0.253-1.521-0.976-2.572-1.228-4.093-2.21-1.27-2.3 1.69-4.51 1.63zm-152.25-31.51c-0.919-0.718-3.078-0.196-4.093-0.819 0.46 1.73 3.69 1 4.09 0.82zm160.85 5.73c1.74 0.489 1.507-3.1 0.818-3.684-0.49 1.01-0.6 2.4-0.82 3.68zm-525.52 2.45c-5.907-0.787-9.62-2.539-14.734-3.274-5.104-0.733-10.38 0.533-15.143 0-1.954-0.219-6.121-1.892-7.776-1.228-2.746 1.101-2.597 5.788-3.684 7.775 17.651 2.917 35.728 0.083 51.569 1.638 3.234 0.317 6.29 0.946 9.414 1.228 7.014 0.633 12.718 1.198 18.417 2.047 17.813 2.651 35.018 3.411 52.797 5.729-1.182-1.715-3.477-1.816-5.321-2.456-1.997-0.691-3.818-1.885-5.729-2.455-2.318-0.692-5.562-0.375-8.186-0.818-0.992-0.168-1.616-0.762-2.456-0.818-1.191-0.082-2.54 0.452-3.684 0.409-4.101-0.154-7.949-1.921-11.869-2.456-2.122-0.289-4.362-0.109-6.549-0.409-1.929-0.265-4.19-0.5-6.139-0.818-15.707-2.572-31.14-7.527-47.886-6.958 4.222 0.911 9.967 2.448 13.916 3.274 3.927 0.821 9.491 0.594 11.051 3.274-5.43-0.3-11.401-2.8-18.009-3.68zm48.298 2.87c-0.319-0.09-0.476-0.343-0.409-0.818-7.293-1.825-13.959-5.292-21.692-5.32-1.61-0.006-4.046-0.633-5.321 0.818 8.76 1.87 18.49 4.97 27.42 5.32zm433.42 22.51c-3.252-0.306-6.704-1.173-9.823-1.228-1.3-0.023-2.763 0.55-4.093 0.409-0.951-0.102-1.506-1.006-2.455-1.229-3.948-0.922-7.314-0.526-10.642-0.818-42.114-3.689-83.762-7.96-126.47-12.278-24.152-2.441-48.239-5.476-71.624-7.776-4.844-0.477-9.944-0.572-14.733-1.228-9.329-1.276-18.708-3.314-27.831-3.684-0.967-0.039-1.128 0.59-1.637 0.818-1.679 0.754-4.116 0.812-5.73 2.456 2.743 0.395 4.468 1.807 5.321 4.093 43 4.624 85.726 8.614 128.92 12.278 2.72 0.23 5.333 0.969 8.186 1.228 9.77 0.889 18.506 1.561 27.422 2.456 18.821 1.89 36.486 3.734 54.435 5.32 4.418 0.391 8.778 0.745 13.097 1.229 8.033 0.898 19.232 1.355 26.194 2.864 5.803 1.258 11.409 0.502 16.371 1.638 1.308-2.513 4.231-3.408 5.729-5.73-3.48-0.63-7.07-0.49-10.64-0.82zm1.23-27.02c-1.097 2.178-4.666 1.883-5.729 4.093 2.787-0.896 4.927-2.439 7.366-3.684-0.56-0.12-0.78-0.58-1.64-0.41zm46.66 20.06c0.033-2.353-0.505-4.134-1.638-5.32-0.28 2.61 0.71 3.93 1.64 5.32z"
   id="path2072" />
	<path
   d="m469.97 2.876c0.349-0.075 0.387 0.16 0.409 0.409 0.787 11.003 4.629 23.262 5.73 36.426 13.517 0.863 31.727-0.009 43.384 1.228 0.193-3.458-1.403-7.537-2.456-11.869-1.42-5.844-2.172-11.507-3.684-17.19-0.436-1.636-0.837-4.175-1.228-4.911-0.916-1.725-2.138 0.348-2.865-2.456 0.435-2.35 3.257 0.576 3.684-0.41 1.376-0.826 3.26-0.056 4.093 0 0.172 1.673-1.348 1.654-0.818 3.684 2.538 9.467 3.684 22.768 6.548 33.152 14.348-0.879 31.021 0.988 45.021 0 0.216-2.496-0.95-5.023-1.638-7.776-1.971-7.89-3.592-16.076-5.32-24.557-0.257-1.26-2.041-2.267-0.409-3.684-0.964-0.009-1.205 0.705-2.456 0.409-0.095-2.141 2.512-1.582 4.502-1.637 5.571 26.957 12.079 53.47 17.6 81.447 1.682-3.51 1.192-8.997 1.228-14.734 0.102-16.66 1.038-41.424 0.409-58.527-0.048-1.312-1.634-7.428 2.047-6.958 2.74 0.35 0.895 6.245 0.818 7.367-0.543 7.959 0.621 16.776-0.818 22.919 7.438 0.182 16.646 1.142 24.147 1.228 3.376 0.039 6.941-1.607 9.004 0.409-0.113 3.702-4.35 2.491-7.367 2.456-7.845-0.091-18.263-0.612-25.375-0.409 0.395 18.805-1.208 33.645-1.229 53.206 7.218 0.236 16.569 0.538 26.194 0.41 2.847-0.038 6.549-1.114 8.595 0.818-0.726 3.087-4.795 1.704-7.367 1.637-11.617-0.303-16.419-0.091-27.012-0.409-1.805 2.822-0.412 6.174-0.41 9.413 0.008 9.496-0.514 20.114-0.818 30.287 5.762-0.867 13.532 0.163 20.055 0 4.506-0.113 9.37-1.406 13.507 0-0.214 3.278-4.736 2.394-6.958 2.456-9.074 0.252-17.78-0.719-26.604-0.41 0.904 12.631-0.566 25.885-0.818 38.473-0.083 4.148 0.721 8.184-0.409 11.869 11.85 0.591 26.215 0.728 36.017 0.409 0.239 2.149-0.722 3.099-0.409 5.32-40.91-1.075-80.994-0.579-113.78-0.818-38.07-0.278-69.571-0.342-106-0.409-3.505-3.518-1.848-8.585-2.047-13.097-0.604-13.741-0.438-29.111 0-42.565 1.337-41.083 1.34-86.107 1.229-130.97 2.983 1.051 3.061-1.203 5.32-0.41-0.176 10.467-0.103 19.745-0.818 30.696 5.227 0.109 11.76 0.371 18.008 0.409 2.908 0.018 6.231-0.692 8.596 0.818-1.051 2.938-4.974 1.701-7.776 1.637-5.736-0.129-11.906-0.46-18.418 0-0.049 7.283-0.85 12.319 0.818 19.646-0.941 2.233-1.117 3.806-0.818 6.958 0.704 7.431-0.874 16.082-0.409 26.194 9.684 1.36 23.467 0.572 38.882 0.818-2.385-10.233-4.271-21.101-6.549-31.515-2.608-11.922-5.252-25.785-8.186-38.063-0.737-3.086-0.927-6.302-1.638-9.413-0.644-2.823-2.652-5.394-2.046-8.595 5.023-2.786 4.818 4.869 5.729 9.823 0.727 3.949 1.65 7.313 2.047 10.641 0.187 1.564-0.14 3.146 0 4.093 0.613 4.175 2.32 8.47 2.046 11.05 8.227 1.624 18.695-0.064 29.469 0.409 4.682 0.206 9.317 1.014 13.915 0-2.945-11.517-5.655-23.674-7.776-35.607 1.2-1.355 2.77 0.223 3.71-1.223zm-72.03 42.565c-0.269 24.507-0.818 46.471-0.818 71.215 0 12.265-0.647 24.472 0.409 35.607 0.463-36.241 1.703-71.993 1.228-107.23-0.078-5.799 0.544-11.848 0.41-17.599-0.166-7.109 0.363-16.244-0.819-20.464-0.92 12.44-0.28 26.096-0.41 38.464zm33.97-3.274c0.161 0.704-0.607 1.049 0 1.228 0.956 7.527 3.881 14.882 5.32 22.51 0.407 2.157 0.345 4.324 0.818 6.549 1.279 6.008 2.128 12.485 4.093 18.417 14.112 1.093 27.83 0.745 43.384 0.818-0.207-3.809-1.883-7.462-2.865-11.46-3.104-12.636-4.586-26.053-8.186-37.653-14.27-0.939-27.85-0.037-42.56-0.409zm46.24 0c-0.41-0.001-0.487 0.331-0.818 0.409v0.818c4.684 15.987 6.454 32.36 11.051 48.295 13.304-0.176 30.893 0.17 42.565 0-3.547-16.235-6.941-32.623-10.642-48.704-12.29-0.395-28.35-0.319-42.15-0.818zm45.02 2.046c1.652 6.53 3.534 14.816 5.321 20.464 0.285 0.903 0.676 2.056 0.818 2.865 1.539 8.74 2.048 16.023 4.502 24.147 14.237 0.301 28.327 0.271 45.84 0.409-3.076-14.245-7.426-31.755-10.642-48.295-13.354-0.54-30.742-0.208-46.249-0.818 0.07 0.482-0.06 1.162 0.41 1.228zm-121.96 48.705c-0.515 0.167-0.837 0.528-0.818 1.228-0.032 15.148 0.128 27.066-0.818 38.472 6.199 0.913 14.232 0.369 21.691 0.409 7.473 0.04 13.871 0.47 18.009 0 0.159-11.125 0.525-27.052 0.409-39.7-11.22-0.279-26.58 0.505-38.47-0.412zm42.16 0c-0.484 0.198-0.928 0.437-1.229 0.818-0.38 11.276-0.013 26.229-0.818 39.291 16.469 0.749 31.33 1.114 44.202 0.409 0.2-12.784-0.342-27.023 0.409-39.291-13.32-1.279-29.83 0.63-42.56-1.231zm44.61 1.228c0.625 13.943 0.52 24.074-0.409 39.7 16.407-0.18 32.568 0.423 43.384 0 0.681-12.285 0.681-27.416 0-39.7-11.29-0.162-29.71-1.045-42.97-0.004zm46.65 0c-0.514 0.167-0.836 0.527-0.818 1.228 0.812 12.781-0.261 23.848-0.409 38.472 14.519 0.205 33.598-0.176 46.249 0.41 1.009-11.928 1.113-27.896 0.409-39.7-15.5 0.16-31.62-0.069-45.43-0.414zm-133.83 40.924c-0.483 0.198-0.928 0.437-1.228 0.818 1.024 16.835-0.371 35.64 0 49.932 11.642 0.777 27.09 0.248 39.291 0.41 0.26-14.93 0.473-32.217 0.409-50.751-12.15-0.18-26.02 0.41-38.47-0.41zm40.52 0.41c0.352 19.031 0.877 32.962-0.409 50.341 7.064 0.676 14.498 0.516 22.101 0.819 6.479 0.258 14.288 0.013 21.692-0.409 0.581-13.637 0.04-34.366 0.818-49.933-16.29-0.72-25.78 0.35-44.2-0.82zm47.88 0.41c-0.734-0.034-1.415 0.343-1.637 0.819 1.382 17.161-0.759 32.273-0.409 49.523 15.688 1.596 30.085 0.116 43.793 0.409-0.857-18.598-0.321-32.543 0.409-49.932-12.59-0.71-30.17-0.27-42.15-0.82zm44.62 0.41c-0.771 16.835-0.339 34.633-0.818 50.342 13.796-0.065 34.354 0.221 47.067 0-1.764-7.706-0.708-16.333-0.409-24.966 0.3-8.679 0.485-17.542 0.409-25.375h-46.25zm-136.7 16.78c-0.051 3.059 0.067 6.852 0 10.232-0.067 3.41-0.727 6.735 0.409 8.186-0.25-5.71 0.5-14.98-0.41-18.42zm-0.41 28.24c-0.089 2.36-0.798 5.424 1.228 6.958-0.688-5.512 0.336-11.039-0.818-15.552 0.32 2.98-0.31 5.89-0.41 8.59zm28.65 7.37c-1.967-0.076-5.964-1.482-5.729 0.409 1.952-0.037 6.384 0.965 9.413-0.409-0.76-0.82-2.13 0.06-3.68 0zm15.14 0c-2.128-0.057-5.197-1.512-6.549 0.409 5.254-0.346 8.043 1.158 11.051-0.409-1.2-0.9-2.78 0.05-4.5 0zm12.69 0.41c-0.494-0.086-0.252-0.454 0-0.819-2.314 0.278-5.885-0.7-6.958 0.819 3-0.22 5.84 0.44 6.96 0zm10.64-0.41c-1.597-0.589-4.214-0.042-5.321 0 1.25 0.84 4.19 1.29 5.32 0zm6.96 0.41c4.614 0.209 10.325 0.944 14.325-0.409-4.74 0.38-11.49-0.7-14.33 0.41zm15.55 0.41c0.979-0.719 3.643 0.794 4.912-0.409-0.97-0.19-4.68-1.31-4.91 0.41zm10.23 0c1.11-0.253 3.248 0.52 3.684-0.409-0.48-0.37-3.87-1.15-3.68 0.41zm26.19-0.41c-0.43 0.022-0.321 0.524 0.409 0.409 10.417-0.207 17.424 1.244 26.194-0.409-7.52-0.58-18.14-0.74-26.6 0zm27.43 0.41c3.005-0.269 7.09 0.541 9.414-0.409-2.52-0.26-7.05-1.2-9.41 0.41z"
   id="path2074" />
	<path
   d="m210.48 387.19c-3.061 1.629-5.498 6.106-9.414 7.776-4.702 2.006-13.868 5.186-18.417 3.684-0.774-0.256-1.338-0.996-2.456-1.229-2.952-0.611-6.076-0.171-8.186-1.228-2.139-1.07-7.947-6.276-9.004-8.595-0.814-1.785-0.464-4.307-0.818-6.958-0.668-4.995-2.731-10.613-0.819-16.371 1.409-4.24 4.521-8.687 7.776-11.869 3.521-3.441 5.628-4.883 11.051-6.548 2.865-0.88 6.17-2.075 9.004-2.047 0.446 0.005 1.287 0.659 2.456 0.818 3.503 0.478 7.184 1.835 10.641 4.093 3.841 2.509 8.681 6.545 10.641 11.46 1.096 2.749 1.883 6.713 2.046 9.414 0.39 6.37-2.21 11.41-4.5 17.61zm-21.69-2.05c5.194-0.681 9.177-3.72 11.869-7.776-0.004-1.087 0.155-2.337-0.409-2.864 1.287 0.059 1.406-1.05 1.637-2.047 0.318-7.314-4.105-11.86-9.004-15.144-5.569-1.766-9.649 0.384-13.916 2.047-0.778 2.905-3.912 3.455-3.684 7.367-1.351 0.149-1.793 1.208-2.456 2.046 1.14 8.95 5.28 17.76 15.96 16.36zm15.15-10.64c-0.603 3.185-3.358 5.409-4.093 7.776 5.314-0.143 4.151-6.764 8.186-8.186 2.052 0.13 1.013 3.353 2.456 4.093 0.705-5.351 0.991-13.26-2.456-16.781-0.547 2.046-0.061 5.124-2.046 5.73-2.846-0.837-1.951-5.417-4.912-6.14 1.69 3.72 3.86 8.23 2.86 13.51z"
   id="path2076" />
</g></g></svg>
